/* XPM */
static char * linux_xpm[] = {
"17 20 268 2",
"  	c None",
". 	c #F7F7F7",
"+ 	c #F5F5F5",
"@ 	c #F3F4F5",
"# 	c #F2F5F8",
"$ 	c #F0F5F8",
"% 	c #EFF4F8",
"& 	c #F3F5F7",
"* 	c #F1F1F1",
"= 	c #F1F2F2",
"- 	c #D3E3F6",
"; 	c #50729F",
"> 	c #476182",
", 	c #EFF0F1",
"' 	c #EEEEEE",
") 	c #E9EDF0",
"! 	c #2E62AB",
"~ 	c #19519C",
"{ 	c #6584B0",
"] 	c #EEEFEF",
"^ 	c #EDEDED",
"/ 	c #EDEFF0",
"( 	c #ABBDD8",
"_ 	c #164A96",
": 	c #3B6CB0",
"< 	c #DAE6F3",
"[ 	c #ECF0F0",
"} 	c #F6F6F6",
"| 	c #F5F5F6",
"1 	c #F3F4F7",
"2 	c #EFF1F8",
"3 	c #ADB9CE",
"4 	c #7992B8",
"5 	c #E1EBF8",
"6 	c #EEF4F7",
"7 	c #ECF2F8",
"8 	c #F2F4F5",
"9 	c #F0F0F0",
"0 	c #ECEFF2",
"a 	c #9AABCE",
"b 	c #6C7FA9",
"c 	c #7F95BC",
"d 	c #DDE5F1",
"e 	c #E9EFF3",
"f 	c #EAEFF2",
"g 	c #E8ECF1",
"h 	c #C2CFDE",
"i 	c #7794B2",
"j 	c #D2DBE4",
"k 	c #ECF2F5",
"l 	c #F0F1F1",
"m 	c #E2E5F0",
"n 	c #496296",
"o 	c #194085",
"p 	c #557DB1",
"q 	c #769FCB",
"r 	c #5B83B4",
"s 	c #5882B2",
"t 	c #3466A1",
"u 	c #37679B",
"v 	c #6998C3",
"w 	c #6B9CC4",
"x 	c #386A8D",
"y 	c #567E97",
"z 	c #E5EBED",
"A 	c #ECECEC",
"B 	c #EAEBEE",
"C 	c #7584A6",
"D 	c #3961A9",
"E 	c #97C6FF",
"F 	c #A8D6FF",
"G 	c #A3D2FF",
"H 	c #A2D2FF",
"I 	c #9CCFFF",
"J 	c #86BDFD",
"K 	c #84BEFD",
"L 	c #89C4FC",
"M 	c #7AB7E6",
"N 	c #4684AD",
"O 	c #486F86",
"P 	c #DFE4E6",
"Q 	c #EEEFF0",
"R 	c #809DC5",
"S 	c #153F79",
"T 	c #94BDF3",
"U 	c #A4CCFD",
"V 	c #A0CAF4",
"W 	c #9EC8F0",
"X 	c #9CC7F2",
"Y 	c #95C3F4",
"Z 	c #8FBEF4",
"` 	c #86BAF6",
" .	c #73AEF0",
"..	c #4683BC",
"+.	c #376B8F",
"@.	c #B6D0DF",
"#.	c #ECEFF0",
"$.	c #EFEFEF",
"%.	c #EBEEEE",
"&.	c #3E679D",
"*.	c #396CAD",
"=.	c #96C4F6",
"-.	c #96C1EC",
";.	c #94C0EF",
">.	c #92BEEF",
",.	c #8CBAEE",
"'.	c #82B1E9",
").	c #74A5E0",
"!.	c #6198D9",
"~.	c #3F7FC9",
"{.	c #2A67A6",
"].	c #79A2BF",
"^.	c #E7F0F1",
"/.	c #EBEBEB",
"(.	c #EAECEC",
"_.	c #1E4580",
":.	c #5D8FD8",
"<.	c #8ABCF9",
"[.	c #82B6F2",
"}.	c #71A8EB",
"|.	c #5890DB",
"1.	c #4D84D4",
"2.	c #477ED0",
"3.	c #457ECF",
"4.	c #3E7DCD",
"5.	c #2D75C7",
"6.	c #3879B9",
"7.	c #9ABAD1",
"8.	c #E8E9E9",
"9.	c #E8E8E8",
"0.	c #E8EBEC",
"a.	c #1C4384",
"b.	c #5E95E8",
"c.	c #70ABF7",
"d.	c #4A8AD4",
"e.	c #3576C8",
"f.	c #3474CC",
"g.	c #3D7AD5",
"h.	c #427FDA",
"i.	c #4181D9",
"j.	c #4184DB",
"k.	c #3480D4",
"l.	c #3C80C1",
"m.	c #95B7D0",
"n.	c #E7E8E8",
"o.	c #E7E7E7",
"p.	c #E6EBF1",
"q.	c #255296",
"r.	c #3071CD",
"s.	c #2B74D0",
"t.	c #2572CC",
"u.	c #337AD6",
"v.	c #4083DE",
"w.	c #4787DF",
"x.	c #4B8BE2",
"y.	c #4C8DE1",
"z.	c #4C8EE2",
"A.	c #448CDE",
"B.	c #4386CA",
"C.	c #77A5C7",
"D.	c #DDE7ED",
"E.	c #EAEFF0",
"F.	c #527CB8",
"G.	c #195AAC",
"H.	c #2475D0",
"I.	c #3287E4",
"J.	c #418CE7",
"K.	c #4E94EC",
"L.	c #5696ED",
"M.	c #5A98EB",
"N.	c #5B9AEA",
"O.	c #5A9DEB",
"P.	c #5499E6",
"Q.	c #5398DB",
"R.	c #5C98C5",
"S.	c #A9C9DE",
"T.	c #E6EAEC",
"U.	c #E6E6E6",
"V.	c #E6E7E7",
"W.	c #A3C1E0",
"X.	c #266199",
"Y.	c #3785D0",
"Z.	c #4499EC",
"`.	c #549FF2",
" +	c #5FA3F4",
".+	c #65A4F4",
"++	c #69A7F4",
"@+	c #6AA8F3",
"#+	c #68ABF2",
"$+	c #66ABF0",
"%+	c #64ABEB",
"&+	c #5CA4DE",
"*+	c #5D96C0",
"=+	c #A3B9CD",
"-+	c #E4E5E5",
";+	c #E3E3E3",
">+	c #E0E5E8",
",+	c #4B799B",
"'+	c #4B91CC",
")+	c #57A7EE",
"!+	c #66B0F9",
"~+	c #6EB2FB",
"{+	c #73B3FB",
"]+	c #75B4FB",
"^+	c #76B5FA",
"/+	c #78B9F9",
"(+	c #76BAF9",
"_+	c #75BBF7",
":+	c #69B1EC",
"<+	c #5592C1",
"[+	c #708FAB",
"}+	c #E3E4E4",
"|+	c #E5E6E6",
"1+	c #8EA9BC",
"2+	c #4E88B0",
"3+	c #68B1E8",
"4+	c #75BDF8",
"5+	c #7AC0FE",
"6+	c #7FC0FF",
"7+	c #7DBEFE",
"8+	c #80C2FF",
"9+	c #82C4FF",
"0+	c #82C5FC",
"a+	c #7FC0F6",
"b+	c #73B2E7",
"c+	c #5485AD",
"d+	c #C7D2DA",
"e+	c #E2E2E2",
"f+	c #E5EBEE",
"g+	c #6C93AB",
"h+	c #669EC3",
"i+	c #7FBEEA",
"j+	c #83C3F3",
"k+	c #85BFEF",
"l+	c #78B0DF",
"m+	c #7CB4E3",
"n+	c #84BDEA",
"o+	c #88C1EE",
"p+	c #8DC4ED",
"q+	c #79A9CF",
"r+	c #7F9EB7",
"s+	c #E3E5E6",
"t+	c #E1E1E1",
"u+	c #E0E0E0",
"v+	c #DDE3E6",
"w+	c #8199A8",
"x+	c #5886A0",
"y+	c #6190AE",
"z+	c #587F9C",
"A+	c #60849E",
"B+	c #6486A1",
"C+	c #61859F",
"D+	c #79A0BD",
"E+	c #7499B3",
"F+	c #839AAA",
"G+	c #DFE0E1",
"H+	c #DFDFDF",
"I+	c #DEDEDE",
"J+	c #DEDFE0",
"K+	c #D2D7D9",
"L+	c #C2CDD2",
"M+	c #D6DBDF",
"N+	c #DFE2E2",
"O+	c #DEE0E0",
"P+	c #DCDEDE",
"Q+	c #D3D7D9",
"R+	c #CED5D9",
"S+	c #E0E2E4",
". . . . . . . + @ # $ % & . . . . ",
"* * * * * * * * = - ; > , * * * * ",
"' ' ' ' ' ' ' ' ) ! ~ { ] ' ' ' ' ",
"^ ^ ^ ^ ^ ^ ^ / ( _ : < [ ^ ^ ^ ^ ",
"} } } } | 1 2 1 3 4 5 6 7 8 + } } ",
"9 9 9 0 a b c d e f g h i j k l 9 ",
"^ ^ m n o p q r s t u v w x y z ^ ",
"A B C D E F G H I J K L M N O P ^ ",
"Q R S T U V W X Y Z `  ...+.@.#.$.",
"%.&.*.=.-.;.>.,.'.).!.~.{.].^././.",
"(._.:.<.[.}.|.1.2.3.4.5.6.7.8.9.9.",
"0.a.b.c.d.e.f.g.h.i.j.k.l.m.n.o.o.",
"p.q.r.s.t.u.v.w.x.y.z.A.B.C.D././.",
"E.F.G.H.I.J.K.L.M.N.O.P.Q.R.S.T.U.",
"V.W.X.Y.Z.`. +.+++@+#+$+%+&+*+=+-+",
";+>+,+'+)+!+~+{+]+^+/+(+_+:+<+[+}+",
"o.|+1+2+3+4+5+6+7+8+9+0+a+b+c+d+-+",
";+e+f+g+h+i+j+k+l+m+n+o+p+q+r+s+t+",
"u+u+u+v+w+x+y+z+A+B+C+D+E+F+G+H+H+",
"u+H+H+I+J+K+L+M+N+O+P+Q+R+S+I+I+I+"};
