/* XPM */
static char * taskbarbg_xpm[] = {
"26 26 24 1",
" 	c None",
".	c #F2F2F2",
"+	c #EFEFEF",
"@	c #EEEEEE",
"#	c #F7F7F7",
"$	c #F1F1F1",
"%	c #EDEDED",
"&	c #F6F6F6",
"*	c #F0F0F0",
"=	c #ECECEC",
"-	c #EBEBEB",
";	c #E8E8E8",
">	c #E9E9E9",
",	c #E7E7E7",
"'	c #E6E6E6",
")	c #E4E4E4",
"!	c #E3E3E3",
"~	c #E5E5E5",
"{	c #E2E2E2",
"]	c #E1E1E1",
"^	c #E0E0E0",
"/	c #DFDFDF",
"(	c #DEDEDE",
"_	c #DDDDDD",
"..........................",
"++++++++++++++++++++++++++",
"@@@@@@@@@@@@@@@@@@@@@@@@@@",
"##########################",
"$$$$$$$$$$$$$$$$$$$$$$$$$$",
"@@@@@@@@@@@@@@@@@@@@@@@@@@",
"%%%%%%%%%%%%%%%%%%%%%%%%%%",
"&&&&&&&&&&&&&&&&&&&&&&&&&&",
"**************************",
"%%%%%%%%%%%%%%%%%%%%%%%%%%",
"==========================",
"**************************",
"--------------------------",
";;;;;;;;;;;;;;;;;;;;;;;;;>",
",,,,,,,,,,,,,,,,,,,,,,,,,;",
"------------------------=%",
",''''''''''''''''''''',,;;",
")))!!!!!!!!!!!!!!!!!!)))~'",
"!!!{{{{{{{{{{{{{{{{{!!!!!)",
",'''~~~~~~~~~~~~~~~''',,;;",
"!{{{]]]]]]]]]]]]]]]{{{!!))",
"^^^//////////////////^^^]{",
"^//(((((((((((((((((///^^{",
"~)!{{{{{{{{{{{{{{{{{{{{)~,",
"!]^^///////////////^^^]]!)",
"^^/(_________________(/^]{"};
