/* XPM */
static char * taskbuttonactive_xpm[] = {
"1 21 15 1",
" 	c None",
".	c #9ECAF8",
"+	c #99C6F6",
"@	c #90C0F4",
"#	c #87B9F1",
"$	c #7EB1ED",
"%	c #7AADED",
"&	c #76ADED",
"*	c #598DDB",
"=	c #5C90DE",
"-	c #6399E2",
";	c #6CA2E7",
">	c #75ACEC",
",	c #7AB1F0",
"'	c #7CB2F0",
".",
"+",
"@",
"#",
"$",
"%",
"&",
"&",
"&",
"*",
"*",
"*",
"*",
"*",
"*",
"=",
"-",
";",
">",
",",
"'"};
