/* XPM */
static char * cd_mount_xpm[] = {
"16 16 148 2",
"  	c None",
". 	c #70718C",
"+ 	c #8182A1",
"@ 	c #7E7F99",
"# 	c #75768D",
"$ 	c #7F809B",
"% 	c #8385AC",
"& 	c #747692",
"* 	c #7E7F9A",
"= 	c #A7A7B7",
"- 	c #D1D1D7",
"; 	c #E9E9EF",
"> 	c #F1F1FD",
", 	c #DEDEEF",
"' 	c #C3C4D7",
") 	c #9D9EB8",
"! 	c #7B7DA4",
"~ 	c #7D7B90",
"{ 	c #898A9E",
"] 	c #D3D3DB",
"^ 	c #FDFDFF",
"/ 	c #FEFEFF",
"( 	c #FBFBFF",
"_ 	c #F2F2FF",
": 	c #EDEEFF",
"< 	c #E5E6FF",
"[ 	c #E4E5FF",
"} 	c #B4B6DB",
"| 	c #696A95",
"1 	c #756F8B",
"2 	c #7A7A8D",
"3 	c #CFD0DB",
"4 	c #F6F7FF",
"5 	c #F3F3FF",
"6 	c #DBDCFF",
"7 	c #AAADE7",
"8 	c #6B6EA2",
"9 	c #51527D",
"0 	c #9E9EB5",
"a 	c #EEEFFF",
"b 	c #EFF0FF",
"c 	c #EBECFF",
"d 	c #DFE1FF",
"e 	c #ABAEE8",
"f 	c #797CB6",
"g 	c #7275AF",
"h 	c #616390",
"i 	c #747295",
"j 	c #838388",
"k 	c #C1C2D7",
"l 	c #EAEBFF",
"m 	c #ECEDFF",
"n 	c #C0C3FD",
"o 	c #B4B7F1",
"p 	c #9093CD",
"q 	c #8385B8",
"r 	c #6B6C96",
"s 	c #7C7C8B",
"t 	c #D4D5EF",
"u 	c #E6E7FF",
"v 	c #E3E4FF",
"w 	c #BABBCC",
"x 	c #606189",
"y 	c #8082B3",
"z 	c #B2B5EF",
"A 	c #8C8FC9",
"B 	c #A0A3DD",
"C 	c #A9ACE6",
"D 	c #A4A6DE",
"E 	c #676890",
"F 	c #6A6B88",
"G 	c #CBCDFD",
"H 	c #CED0FF",
"I 	c #CDCFFF",
"J 	c #C5C8FF",
"K 	c #D4D6FF",
"L 	c #676891",
"M 	c #50517D",
"N 	c #4A4B69",
"O 	c #BFC2FC",
"P 	c #C7CAFF",
"Q 	c #CBCDFF",
"R 	c #66688D",
"S 	c #606081",
"T 	c #8C8FC6",
"U 	c #8588C2",
"V 	c #7F82BC",
"W 	c #8184B5",
"X 	c #515175",
"Y 	c #8F90B8",
"Z 	c #D8DAFF",
"` 	c #E2E3FF",
" .	c #CFD1EF",
"..	c #797A9B",
"+.	c #5C5672",
"@.	c #616396",
"#.	c #7477B1",
"$.	c #7E81BB",
"%.	c #9194CE",
"&.	c #A3A6E0",
"*.	c #B6B9F3",
"=.	c #CCCEFF",
"-.	c #BDBED7",
";.	c #8A8CB1",
">.	c #6A5E6B",
",.	c #626491",
"'.	c #9396D0",
").	c #9EA1DB",
"!.	c #B1B4EE",
"~.	c #D7D9FF",
"{.	c #F5F6FF",
"].	c #A2A2B8",
"^.	c #9697BF",
"/.	c #696683",
"(.	c #8E90C4",
"_.	c #DCDEFF",
":.	c #F7F8FF",
"<.	c #CCCCDB",
"[.	c #9697AF",
"}.	c #9293A4",
"|.	c #008000",
"1.	c #75759B",
"2.	c #A4A7DB",
"3.	c #999AA9",
"4.	c #9496BB",
"5.	c #004000",
"6.	c #978E7F",
"7.	c #8282A4",
"8.	c #9B9CB8",
"9.	c #BCBDD7",
"0.	c #D8DAEF",
"a.	c #ECEDFD",
"b.	c #E2E2EF",
"c.	c #CECED7",
"d.	c #AEAEB8",
"e.	c #9E9FAF",
"f.	c #9597C1",
"g.	c #36D223",
"h.	c #9293A0",
"i.	c #888AAC",
"j.	c #7D7D9B",
"k.	c #74758D",
"l.	c #83849B",
"m.	c #9596B2",
"n.	c #9EA0C9",
"o.	c #9295BD",
"p.	c #87FE6A",
"q.	c #000000",
"        . + @ # $ % &           ",
"      * = - ; > , ' ) ! ~       ",
"    { ] ^ / ( _ : < [ } | 1     ",
"  2 3 4 ( / ( 5 : < 6 7 8 9     ",
"  0 a b 4 ( ( c < d e f g h i   ",
"j k l m b 5 d n o e g f p q r   ",
"s t < u u v w x y z A B C D E   ",
"F G H I J K L M N 6 O P Q G R   ",
"S T A U V 7 W X Y b Z ` d  ...  ",
"+.@.#.$.%.&.*.=.< a : l < -.;.  ",
">.,.'.).!.=.~.K < ( {.a m ].^.  ",
"  /.(.!.J _.< b :.^ ( {.<.[.}.|.",
"    1.2.~.` < a {.( ^ ] 3.4.|.5.",
"    6.7.8.9.0.a.b.c.d.e.f.|.g.5.",
"        h.i.j.k.l.m.n.o.|.g.p.q.",
"                      |.5.5.q.q."};
