/* XPM */
static char * folder_16x16_xpm[] = {
"16 16 146 2",
"  	c None",
". 	c #372C25",
"+ 	c #14253F",
"@ 	c #818886",
"# 	c #94A8B4",
"$ 	c #94B3CC",
"% 	c #728FA7",
"& 	c #62605E",
"* 	c #747B81",
"= 	c #71899E",
"- 	c #6687AA",
"; 	c #567297",
"> 	c #5B626C",
", 	c #788A9C",
"' 	c #799DC1",
") 	c #5B80A8",
"! 	c #6B8AAC",
"~ 	c #6C8DAF",
"{ 	c #6E8FB1",
"] 	c #6C8EB1",
"^ 	c #7391B1",
"/ 	c #7D96B1",
"( 	c #7F97B0",
"_ 	c #8CA9C4",
": 	c #7C94B1",
"< 	c #5D7EA2",
"[ 	c #50759D",
"} 	c #56789C",
"| 	c #6484A2",
"1 	c #6F8AA8",
"2 	c #8DA3BA",
"3 	c #A1B6C7",
"4 	c #8EA6BC",
"5 	c #6380A2",
"6 	c #4D6B93",
"7 	c #3D628F",
"8 	c #40618B",
"9 	c #84837F",
"0 	c #8CA1B1",
"a 	c #53789F",
"b 	c #637C9C",
"c 	c #8CA1B6",
"d 	c #859BB2",
"e 	c #879EB4",
"f 	c #6783A2",
"g 	c #57779D",
"h 	c #537197",
"i 	c #4B6C92",
"j 	c #46678C",
"k 	c #4B709B",
"l 	c #435871",
"m 	c #A1BED5",
"n 	c #597EA9",
"o 	c #5D7898",
"p 	c #C1CDD6",
"q 	c #6581A1",
"r 	c #48688F",
"s 	c #486991",
"t 	c #56779C",
"u 	c #6886A8",
"v 	c #547499",
"w 	c #47688F",
"x 	c #46678D",
"y 	c #4D719C",
"z 	c #7596B5",
"A 	c #5A7CA1",
"B 	c #6E86A0",
"C 	c #657B96",
"D 	c #3A557E",
"E 	c #557399",
"F 	c #6281A6",
"G 	c #6586AA",
"H 	c #6586AB",
"I 	c #688AAC",
"J 	c #6584A5",
"K 	c #5D7FA1",
"L 	c #537499",
"M 	c #6686A8",
"N 	c #3F6088",
"O 	c #5B7390",
"P 	c #455B7C",
"Q 	c #405F86",
"R 	c #5D7FA3",
"S 	c #6E8DB0",
"T 	c #7897B8",
"U 	c #819FBC",
"V 	c #809EBA",
"W 	c #7393B2",
"X 	c #6589AE",
"Y 	c #546D8C",
"Z 	c #5B7CA0",
"` 	c #2B476F",
" .	c #506685",
"..	c #5F7EA0",
"+.	c #56759B",
"@.	c #7090AF",
"#.	c #7F9DBA",
"$.	c #82A0BD",
"%.	c #84A3C1",
"&.	c #7998B9",
"*.	c #6D93BB",
"=.	c #51647C",
"-.	c #59779A",
";.	c #27436D",
">.	c #49607F",
",.	c #6384A7",
"'.	c #6181A3",
").	c #7797B4",
"!.	c #87A6C4",
"~.	c #8FADCA",
"{.	c #8DACCA",
"].	c #8AAACB",
"^.	c #9ABFE2",
"/.	c #A0C1E2",
"(.	c #4D4E54",
"_.	c #577089",
":.	c #1F3B65",
"<.	c #445A77",
"[.	c #6A8BAC",
"}.	c #6283A7",
"|.	c #7B9BBB",
"1.	c #8DADCE",
"2.	c #A1C3E3",
"3.	c #BBDBFB",
"4.	c #B9D2EC",
"5.	c #99A6B5",
"6.	c #546374",
"7.	c #1F3D69",
"8.	c #364967",
"9.	c #7091B4",
"0.	c #698BB1",
"a.	c #93B5D9",
"b.	c #B4D3F1",
"c.	c #ABBDCD",
"d.	c #85898F",
"e.	c #4C4E54",
"f.	c #3B557C",
"g.	c #425877",
"h.	c #99BDE4",
"i.	c #ACC9E9",
"j.	c #96A3B2",
"k.	c #5E5958",
"l.	c #788594",
"m.	c #ADC5DD",
"n.	c #8D9AA8",
"o.	c #524B48",
"          . + + +   + + + +     ",
"      + @ # $ % & * = - ; > +   ",
"    + , ' ) ! ~ { ] ^ / ( _ : + ",
"  + + < [ } | 1 2 3 4 5 6 7 8 + ",
"+ 9 0 a b c d e f g h i j k l   ",
"+ m n o p q r s t u v w x y +   ",
"+ z A B C D E F G H I J K L +   ",
"+ M N O P Q R S T U V W X Y +   ",
"+ Z `  ...+.@.#.$.%.&.{ *.=.+   ",
"+ -.;.>.,.'.).!.~.{.].^./.(.    ",
"+ _.:.<.[.}.|.1.2.3.4.5.+ +     ",
"  6.7.8.9.0.a.b.c.d.+ +         ",
"  e.f.g.h.i.j.k.+ +             ",
"  + l.m.n.o.+ +                 ",
"    + + + +                     ",
"                                "};
