/* XPM */
static char * folder_32x32_xpm[] = {
"32 32 468 2",
"  	c None",
". 	c #96A6B4",
"+ 	c #A4BCD0",
"@ 	c #728392",
"# 	c #D1C0AF",
"$ 	c #E0EEFA",
"% 	c #FBFEFF",
"& 	c #FFFFFF",
"* 	c #E9F7FD",
"= 	c #968472",
"- 	c #AEC0CE",
"; 	c #EBF6FF",
"> 	c #D5D9DB",
", 	c #B5A493",
"' 	c #CBDAE5",
") 	c #F0FAFE",
"! 	c #FDFFFF",
"~ 	c #FDF8F3",
"{ 	c #F8F1EA",
"] 	c #F3EEE9",
"^ 	c #E6EFF8",
"/ 	c #284E72",
"( 	c #8A9DAC",
"_ 	c #C5D7E7",
": 	c #EFFAFF",
"< 	c #FDFDFD",
"[ 	c #F8F8F8",
"} 	c #7C8C9A",
"| 	c #D6C6B6",
"1 	c #E3EFFB",
"2 	c #FBFFFF",
"3 	c #F6FCFE",
"4 	c #F9F3ED",
"5 	c #F6EFE6",
"6 	c #F4ECE4",
"7 	c #E6EBF0",
"8 	c #E8E4E0",
"9 	c #DDD6CF",
"0 	c #E2C9B0",
"a 	c #856137",
"b 	c #75542D",
"c 	c #C09A74",
"d 	c #E6CEB4",
"e 	c #6B4721",
"f 	c #E1F3FF",
"g 	c #FEFEFE",
"h 	c #FCFCFA",
"i 	c #F3F6F9",
"j 	c #FAF6F2",
"k 	c #FCF8F2",
"l 	c #F5F9FD",
"m 	c #DEEAF2",
"n 	c #EDF8FD",
"o 	c #F9FDFF",
"p 	c #FCF7F0",
"q 	c #F7EEE5",
"r 	c #F5ECE3",
"s 	c #E3EBF1",
"t 	c #ECE7E0",
"u 	c #E3DCD5",
"v 	c #DBCDBF",
"w 	c #D7BCA1",
"x 	c #D9B189",
"y 	c #E1B285",
"z 	c #ECC39A",
"A 	c #F6DBC0",
"B 	c #F4FAFE",
"C 	c #FCFCFC",
"D 	c #ECD5BE",
"E 	c #FAF4EE",
"F 	c #FDF7F1",
"G 	c #FCF6F0",
"H 	c #F0F6FC",
"I 	c #FCF6EE",
"J 	c #FCF5EC",
"K 	c #EFF7FD",
"L 	c #F6EDE2",
"M 	c #F5ECE1",
"N 	c #F0E9E0",
"O 	c #E9E4DD",
"P 	c #DFD7CD",
"Q 	c #D7C3AF",
"R 	c #D6B490",
"S 	c #DAAB7E",
"T 	c #E4B486",
"U 	c #F0CAA4",
"V 	c #FAE4CE",
"W 	c #FFFAF5",
"X 	c #FEFDFC",
"Y 	c #FBFAF9",
"Z 	c #775C41",
"` 	c #EAD3BC",
" .	c #F9FCFF",
"..	c #ECF4FA",
"+.	c #EDF5FB",
"@.	c #FCF4EA",
"#.	c #FBF3E9",
"$.	c #FAF0E4",
"%.	c #F8EDE2",
"&.	c #F3EADF",
"*.	c #ECE4DC",
"=.	c #E4DDD4",
"-.	c #D6BDA2",
";.	c #D6AE84",
">.	c #DDA977",
",.	c #E8B788",
"'.	c #F3D1AF",
").	c #FCEAD8",
"!.	c #F7FCFF",
"~.	c #FEFBF8",
"{.	c #FDFAF7",
"].	c #FCFAF8",
"^.	c #FDFBF9",
"/.	c #FBFBF9",
"(.	c #E6CDB4",
"_.	c #F5FEFF",
":.	c #FBF2E9",
"<.	c #FAF0E6",
"[.	c #F9EDE1",
"}.	c #F7EDDF",
"|.	c #F0E7DE",
"1.	c #DAE2E8",
"2.	c #DFD6CB",
"3.	c #D8C6B2",
"4.	c #D6B492",
"5.	c #D8A87A",
"6.	c #E1AE77",
"7.	c #EBBB8D",
"8.	c #F5D5B5",
"9.	c #FCEDDC",
"0.	c #FEFDFA",
"a.	c #FDFAF5",
"b.	c #FBF3EB",
"c.	c #FCF5EE",
"d.	c #F1F7FD",
"e.	c #F8F3EE",
"f.	c #F7F2ED",
"g.	c #F6F2EE",
"h.	c #F9FEFF",
"i.	c #EDD1B5",
"j.	c #FCF9F4",
"k.	c #E0EDF8",
"l.	c #F3E6D9",
"m.	c #E8DED4",
"n.	c #DCD1C4",
"o.	c #D6BEA6",
"p.	c #D5AD85",
"q.	c #DAA572",
"r.	c #E3AC77",
"s.	c #EFC393",
"t.	c #F7D7B7",
"u.	c #FBEBD9",
"v.	c #EBF3FB",
"w.	c #E4EFFA",
"x.	c #FAECDE",
"y.	c #FAEDE0",
"z.	c #FAEEE2",
"A.	c #FAEFE4",
"B.	c #FBF1E7",
"C.	c #F4EBE2",
"D.	c #F1E9DF",
"E.	c #F0E9E2",
"F.	c #FDF2E7",
"G.	c #C29A70",
"H.	c #EFF9FF",
"I.	c #F6E8DA",
"J.	c #F5E7D7",
"K.	c #E3D6C9",
"L.	c #D2AD88",
"M.	c #DDA167",
"N.	c #E7AE77",
"O.	c #F0C092",
"P.	c #FAE6D0",
"Q.	c #FAEAD8",
"R.	c #F9E8D7",
"S.	c #F7E4D1",
"T.	c #F7E2CD",
"U.	c #CDE3F7",
"V.	c #F8E5D0",
"W.	c #F8E5D2",
"X.	c #D2E6F8",
"Y.	c #D4E7F8",
"Z.	c #F9E7D5",
"`.	c #F9E8D5",
" +	c #F8E8D8",
".+	c #F9EAD9",
"++	c #FAEADA",
"@+	c #F1E2D3",
"#+	c #EADCCE",
"$+	c #EADED2",
"%+	c #D2E4F4",
"&+	c #8E653A",
"*+	c #E0F0FE",
"=+	c #F6E6D6",
"-+	c #F3E1CD",
";+	c #D8CABA",
">+	c #B8783A",
",+	c #F2C59A",
"'+	c #F7E1CB",
")+	c #F5DEC5",
"!+	c #F5DDC3",
"~+	c #F4D9BE",
"{+	c #F4D8BC",
"]+	c #F5DABD",
"^+	c #F5DABF",
"/+	c #F6DCC0",
"(+	c #F6DDC2",
"_+	c #F6DDC4",
":+	c #F6DEC6",
"<+	c #F7E0C7",
"[+	c #F6E0CA",
"}+	c #F7E0C9",
"|+	c #F7E2CB",
"1+	c #F8E2CC",
"2+	c #EFDAC5",
"3+	c #E3D1BD",
"4+	c #E4D3C2",
"5+	c #BDD5EB",
"6+	c #57320D",
"7+	c #F6D8BA",
"8+	c #F8E7D6",
"9+	c #F1DBC3",
"0+	c #D5C3AF",
"a+	c #B57A41",
"b+	c #F1C9A1",
"c+	c #F2D0AE",
"d+	c #F1CCA7",
"e+	c #F2D0AC",
"f+	c #F2D1AE",
"g+	c #F2D2B0",
"h+	c #F3D3B1",
"i+	c #F2D2B2",
"j+	c #F3D4B3",
"k+	c #F3D3B3",
"l+	c #F3D4B5",
"m+	c #F3D5B7",
"n+	c #F4D6B8",
"o+	c #F5D7B9",
"p+	c #F4D7BA",
"q+	c #F6DBBE",
"r+	c #F0D5B8",
"s+	c #DBC3AB",
"t+	c #DDC7B1",
"u+	c #A9C6E1",
"v+	c #DAAE84",
"w+	c #FBE9D5",
"x+	c #EED5BA",
"y+	c #D5C0A9",
"z+	c #B7783B",
"A+	c #ECBA8A",
"B+	c #F0C79E",
"C+	c #EFC399",
"D+	c #EFC59B",
"E+	c #F0C79C",
"F+	c #F0C89E",
"G+	c #F0C8A0",
"H+	c #F0C9A2",
"I+	c #F1CAA3",
"J+	c #F1CBA5",
"K+	c #F1CEA9",
"L+	c #F2CFAA",
"M+	c #F2CEAA",
"N+	c #F2CFAC",
"O+	c #F1D0AD",
"P+	c #EFCDAB",
"Q+	c #98B7D4",
"R+	c #D5B99D",
"S+	c #D8B694",
"T+	c #AD7C4D",
"U+	c #FDE5CB",
"V+	c #EDD3B5",
"W+	c #D5BCA1",
"X+	c #B57537",
"Y+	c #EAB078",
"Z+	c #EDBC8D",
"`+	c #ECB988",
" @	c #EDBB8B",
".@	c #EDBD8F",
"+@	c #EEBE90",
"@@	c #EEBF92",
"#@	c #EEC094",
"$@	c #EFC195",
"%@	c #EFC297",
"&@	c #F0C69C",
"*@	c #CFAA85",
"=@	c #CBA885",
"-@	c #CDA57D",
";@	c #794B1F",
">@	c #F9D7B3",
",@	c #EDD0B1",
"'@	c #D4BA9C",
")@	c #B57435",
"!@	c #E7AA69",
"~@	c #ECB77E",
"{@	c #EBB37D",
"]@	c #EBB47F",
"^@	c #ECB682",
"/@	c #ECB784",
"(@	c #EDBB85",
"_@	c #EDB987",
":@	c #EDBC87",
"<@	c #ECB886",
"[@	c #EDBA89",
"}@	c #EFBE8F",
"|@	c #CFA379",
"1@	c #79A0C5",
"2@	c #C5986D",
"3@	c #E8B88A",
"4@	c #EFD0AF",
"5@	c #D2B596",
"6@	c #B67434",
"7@	c #E49E5A",
"8@	c #E7A361",
"9@	c #E4984E",
"0@	c #E39549",
"a@	c #E39447",
"b@	c #E4964A",
"c@	c #E4974C",
"d@	c #E59B53",
"e@	c #E69E58",
"f@	c #E8A462",
"g@	c #E8A86A",
"h@	c #E9AC71",
"i@	c #E9AE75",
"j@	c #EAB17A",
"k@	c #EBB27B",
"l@	c #EBB179",
"m@	c #E9B079",
"n@	c #EDB177",
"o@	c #C98F57",
"p@	c #AB7139",
"q@	c #A66724",
"r@	c #C5925B",
"s@	c #F3D1AD",
"t@	c #D1B18F",
"u@	c #B67332",
"v@	c #DE8834",
"w@	c #E08934",
"x@	c #DE8630",
"y@	c #DF8833",
"z@	c #E08832",
"A@	c #E08A36",
"B@	c #E18C39",
"C@	c #E18F3F",
"D@	c #E29142",
"E@	c #E29244",
"F@	c #E19041",
"G@	c #E08D3C",
"H@	c #E68F3A",
"I@	c #BF6D1D",
"J@	c #904B00",
"K@	c #934D01",
"L@	c #94602E",
"M@	c #F4CB9E",
"N@	c #D1B08D",
"O@	c #B67530",
"P@	c #DC8128",
"Q@	c #E18B37",
"R@	c #E08B38",
"S@	c #DF8731",
"T@	c #DD8631",
"U@	c #E18933",
"V@	c #C77423",
"W@	c #974B01",
"X@	c #934A03",
"Y@	c #5D350D",
"Z@	c #EBBA85",
"`@	c #D4B28E",
" #	c #B5712F",
".#	c #DB8129",
"+#	c #E18A35",
"@#	c #DF8935",
"##	c #DD8733",
"$#	c #DB8633",
"%#	c #D98431",
"&#	c #D6812E",
"*#	c #D5802D",
"=#	c #C57323",
"-#	c #964B02",
";#	c #8B4501",
">#	c #D49C60",
",#	c #D8B48E",
"'#	c #B36F2D",
")#	c #DA8028",
"!#	c #DB8531",
"~#	c #D8822E",
"{#	c #D47E2A",
"]#	c #D07B28",
"^#	c #CB7827",
"/#	c #C47120",
"(#	c #A95707",
"_#	c #904802",
":#	c #AD7239",
"<#	c #DCB48A",
"[#	c #B26F2E",
"}#	c #DA7F26",
"|#	c #DC8632",
"1#	c #DA8430",
"2#	c #D37E2B",
"3#	c #CC7826",
"4#	c #C87524",
"5#	c #C37121",
"6#	c #C97421",
"7#	c #CE7620",
"8#	c #CB741F",
"9#	c #B7691D",
"0#	c #8B4D11",
"a#	c #3F2407",
"b#	c #7B4C19",
"c#	c #DBAF7F",
"d#	c #B17133",
"e#	c #DA7E24",
"f#	c #DE8732",
"g#	c #D27D2A",
"h#	c #CE7A28",
"i#	c #C47222",
"j#	c #C17021",
"k#	c #CA7420",
"l#	c #CF7721",
"m#	c #C7721F",
"n#	c #AB621B",
"o#	c #7C4714",
"p#	c #492B0D",
"q#	c #D19F69",
"r#	c #B57639",
"s#	c #D77C23",
"t#	c #D9832F",
"u#	c #CA7624",
"v#	c #C27020",
"w#	c #C67220",
"x#	c #CC7520",
"y#	c #C16F1F",
"z#	c #9E5B1A",
"A#	c #6B3D11",
"B#	c #351F09",
"C#	c #B7844D",
"D#	c #B87A3E",
"E#	c #D1771F",
"F#	c #D88330",
"G#	c #D17C29",
"H#	c #CD7927",
"I#	c #C87320",
"J#	c #8E5116",
"K#	c #5B350F",
"L#	c #251607",
"M#	c #8F5D2D",
"N#	c #BB7A3B",
"O#	c #C46D18",
"P#	c #C67322",
"Q#	c #AE641C",
"R#	c #7F4915",
"S#	c #46290C",
"T#	c #1B1005",
"U#	c #633C15",
"V#	c #B57231",
"W#	c #B86616",
"X#	c #C77321",
"Y#	c #9D5A19",
"Z#	c #6E3F12",
"`#	c #0A2238",
" $	c #B36519",
".$	c #C66F1A",
"+$	c #B96A1D",
"@$	c #915317",
"#$	c #59340F",
"$$	c #291807",
"%$	c #492705",
"&$	c #492A0B",
"                                                                ",
"                                                                ",
"                                                                ",
"                                                . +             ",
"                                        @ # $ % & *             ",
"              = - ; >             , ' ) & ! ~ { ] ^         /   ",
"        ( _ : & & < [     } | 1 2 & 3 4 5 6 7 8 9 0 a b c d !   ",
"    e f & g h i j k l m n & o p q r s t u v w x y z A B & C &   ",
"      D < E F G H I J K { L M N O P Q R S T U V W & & X C Y &   ",
"    Z `  ...+.@.#.$.%.&.*.=.v -.;.>.,.'.).!.& & < ~.{.].^./.&   ",
"  (._.+.:.<.[.}.|.1.2.3.4.5.6.7.8.9.W 0.a.I b.c.G F d.e.f.g.h.  ",
"  i.j.k.[.l.m.n.o.p.q.r.s.t.u.@.v.w.x.x.y.z.A.$.A.B.B.C.D.E.F.  ",
"  G.H.I.J.K.L.M.N.O.t.P.Q.R.S.T.U.V.W.X.Y.Z.`. +R..+++@+#+$+%+  ",
"  &+*+=+-+;+>+,+'+)+!+~+{+]+^+/+(+_+_+_+:+<+<+[+}+|+1+2+3+4+5+  ",
"  6+7+8+9+0+a+b+c+d+e+f+c+g+h+i+j+k+l+m+m+m+n+o+p+]+q+r+s+t+u+  ",
"    v+w+x+y+z+A+B+C+D+E+F+G+G+H+I+J+J+d+d+K+L+M+N+O+c+P+Q+R+S+  ",
"    T+U+V+W+X+Y+Z+`+ @Z+Z+.@.@+@+@@@#@$@%@%@C+C+D+E+&@D+*@=@-@  ",
"    ;@>@,@'@)@!@~@{@{@]@]@^@/@(@_@_@:@<@<@_@_@[@[@ @ @}@|@1@2@  ",
"      3@4@5@6@7@8@9@0@a@a@b@c@d@e@f@g@h@i@Y+j@k@l@l@m@n@o@p@q@  ",
"      r@s@t@u@v@w@x@y@w@w@w@z@z@z@w@A@B@C@D@E@E@D@F@G@H@I@J@K@  ",
"      L@M@N@O@P@Q@A@A@R@Q@Q@Q@Q@Q@Q@A@y@y@z@z@S@z@S@T@U@V@W@X@  ",
"      Y@Z@`@ #.#+#y@@#A@A@A@w@@#@#w@@#w@@#@#@###$#%#&#*#=#-#;#  ",
"        >#,#'#)#U@y@y@w@@#@#@#y@w@y@y@##!#~#*#{#]#^#V@=#/#(#_#  ",
"        :#<#[#}#U@S@z@@#w@w@w@v@|#1#&#2#]#3#4#5#/#6#7#8#9#0#a#  ",
"        b#c#d#e#U@S@y@y@f#|#1#*#g#h#4#i#j#/#k#l#m#n#o#p#        ",
"          q#r#s#w@T@!#t#*#g#h#u#i#v#w#x#x#y#z#A#B#              ",
"          C#D#E#F#{#G#H#4#5#v#I#l#x#9#J#K#L#                    ",
"          M#N#O#H#P#5#/#k#7#m#Q#R#S#T#                          ",
"          U#V#W#X#8#7#y#Y#Z#`#                                  ",
"             $.$+$@$#$$$                                        ",
"            %$&$                                                ",
"                                                                "};
