/* XPM */
static char * multimedia_32x32_xpm[] = {
"32 32 435 2",
"  	c None",
". 	c #748086",
"+ 	c #74868C",
"@ 	c #748D93",
"# 	c #748C92",
"$ 	c #5F6562",
"% 	c #728589",
"& 	c #6B8D98",
"* 	c #7AA5B2",
"= 	c #90BFCA",
"- 	c #97C3CF",
"; 	c #85A8B7",
"> 	c #7394A1",
", 	c #668B93",
"' 	c #7EA3B1",
") 	c #94C2D4",
"! 	c #98C3D3",
"~ 	c #90B3BE",
"{ 	c #8EAEB8",
"] 	c #9BBECE",
"^ 	c #98C1D2",
"/ 	c #8AB3C1",
"( 	c #6C8086",
"_ 	c #7AA6BA",
": 	c #95BACB",
"< 	c #889EA9",
"[ 	c #6C767B",
"} 	c #697175",
"| 	c #90A5AE",
"1 	c #A4C5D3",
"2 	c #95B9C8",
"3 	c #6B8994",
"4 	c #636465",
"5 	c #636362",
"6 	c #5E8AA0",
"7 	c #597D8F",
"8 	c #49585F",
"9 	c #282A2C",
"0 	c #222120",
"a 	c #323232",
"b 	c #4A4A4A",
"c 	c #535353",
"d 	c #5C5957",
"e 	c #667277",
"f 	c #6CA2BD",
"g 	c #668696",
"h 	c #205260",
"i 	c #164659",
"j 	c #578CA8",
"k 	c #6C96AE",
"l 	c #1E2022",
"m 	c #1B1918",
"n 	c #212120",
"o 	c #2F2F2E",
"p 	c #444544",
"q 	c #504F4F",
"r 	c #585452",
"s 	c #6D777D",
"t 	c #90C6E0",
"u 	c #628FA5",
"v 	c #0A3E54",
"w 	c #1E5D78",
"x 	c #6DB0CF",
"y 	c #84B2C9",
"z 	c #050404",
"A 	c #0D0B0A",
"B 	c #181818",
"C 	c #242524",
"D 	c #3B3C3B",
"E 	c #4F4F4F",
"F 	c #5A5756",
"G 	c #717A7E",
"H 	c #9AC7DD",
"I 	c #5F98B4",
"J 	c #508097",
"K 	c #0E5175",
"L 	c #4290B4",
"M 	c #7EC4E3",
"N 	c #85ADC0",
"O 	c #3D3D3D",
"P 	c #464544",
"Q 	c #505050",
"R 	c #575757",
"S 	c #606160",
"T 	c #585858",
"U 	c #595757",
"V 	c #6E7274",
"W 	c #8EA9B6",
"X 	c #67A4C2",
"Y 	c #5989A1",
"Z 	c #5B7786",
"` 	c #5F6461",
" .	c #003959",
"..	c #003756",
"+.	c #04446C",
"@.	c #1F70A1",
"#.	c #56BBE8",
"$.	c #8BD5F8",
"%.	c #6999B1",
"&.	c #657C88",
"*.	c #DBDBDB",
"=.	c #F1F1F0",
"-.	c #F6F6F6",
";.	c #EFEFEF",
">.	c #D3D3D3",
",.	c #797979",
"'.	c #5A5A5A",
").	c #686766",
"!.	c #7C7C7C",
"~.	c #81B6D1",
"{.	c #5E9BBC",
"].	c #3D6E8B",
"^.	c #606561",
"/.	c #145269",
"(.	c #0F5F7C",
"_.	c #037DA9",
":.	c #077FAD",
"<.	c #389BC9",
"[.	c #6DBEEA",
"}.	c #7CCDF5",
"|.	c #90D7FB",
"1.	c #558095",
"2.	c #525F65",
"3.	c #EDEDED",
"4.	c #F4F3F3",
"5.	c #F5F5F5",
"6.	c #F9F9F9",
"7.	c #F0F0F0",
"8.	c #ADADAD",
"9.	c #7A7A7A",
"0.	c #6B6A69",
"a.	c #807F7F",
"b.	c #8BB6CA",
"c.	c #5C98BA",
"d.	c #2C6992",
"e.	c #1F5A74",
"f.	c #226D8C",
"g.	c #2FADDC",
"h.	c #41B9E9",
"i.	c #6FD0FB",
"j.	c #93DFFF",
"k.	c #87D0F6",
"l.	c #8CD7FC",
"m.	c #466E82",
"n.	c #404446",
"o.	c #E4E4E4",
"p.	c #F2F2F2",
"q.	c #969696",
"r.	c #676666",
"s.	c #828282",
"t.	c #8CADBC",
"u.	c #5B94B5",
"v.	c #2D709A",
"w.	c #286488",
"x.	c #367BA0",
"y.	c #62C0EC",
"z.	c #73CCF7",
"A.	c #83D4FA",
"B.	c #89D6F9",
"C.	c #7ECBF1",
"D.	c #7DC9ED",
"E.	c #416676",
"F.	c #42403F",
"G.	c #D9D9D9",
"H.	c #E9E9E9",
"I.	c #E7E7E7",
"J.	c #E8E8E8",
"K.	c #EEEEEE",
"L.	c #F1F1F1",
"M.	c #AEAEAE",
"N.	c #727171",
"O.	c #848484",
"P.	c #8BA1AC",
"Q.	c #5C90AE",
"R.	c #3176A1",
"S.	c #1D6696",
"T.	c #337EAC",
"U.	c #73C5EC",
"V.	c #69C1E8",
"W.	c #63BCE4",
"X.	c #66BEE5",
"Y.	c #6BBDE3",
"Z.	c #5FA3C4",
"`.	c #486573",
" +	c #65605E",
".+	c #DDDDDD",
"++	c #DCDCDC",
"@+	c #E6E6E6",
"#+	c #C6C6C6",
"$+	c #9B9A9A",
"%+	c #8B8B8B",
"&+	c #8F9BA1",
"*+	c #5C8BA8",
"=+	c #2C76A5",
"-+	c #10547C",
";+	c #236C94",
">+	c #5AB5DC",
",+	c #58B4DC",
"'+	c #54B1D8",
")+	c #57B3DB",
"!+	c #61B7DE",
"~+	c #579FC2",
"{+	c #4C6A79",
"]+	c #6B6764",
"^+	c #C7C7C7",
"/+	c #CECECE",
"(+	c #D2D2D2",
"_+	c #D6D6D6",
":+	c #D5D5D5",
"<+	c #DADADA",
"[+	c #C2C2C2",
"}+	c #A3A2A2",
"|+	c #929292",
"1+	c #909BA1",
"2+	c #5E90AD",
"3+	c #3282B2",
"4+	c #054167",
"5+	c #135A80",
"6+	c #3FA4CA",
"7+	c #46A9CF",
"8+	c #46A7CD",
"9+	c #4AAAD1",
"0+	c #58B2DA",
"a+	c #569DC0",
"b+	c #4E6B7A",
"c+	c #6B6765",
"d+	c #C0C0C0",
"e+	c #C4C4C4",
"f+	c #D0D0D0",
"g+	c #BDBDBD",
"h+	c #A1A1A0",
"i+	c #939393",
"j+	c #929DA2",
"k+	c #6194B1",
"l+	c #3688B8",
"m+	c #003252",
"n+	c #084969",
"o+	c #218DAF",
"p+	c #2A98BA",
"q+	c #319DC1",
"r+	c #4BABD1",
"s+	c #50A1C7",
"t+	c #4E7081",
"u+	c #696462",
"v+	c #B4B4B4",
"w+	c #B7B7B7",
"x+	c #BABABA",
"y+	c #BFBFBF",
"z+	c #C1C1C1",
"A+	c #C3C3C3",
"B+	c #B2B2B2",
"C+	c #9E9D9D",
"D+	c #959595",
"E+	c #91A3A9",
"F+	c #5B91B0",
"G+	c #2C7CAD",
"H+	c #032937",
"I+	c #023A4B",
"J+	c #006E88",
"K+	c #007D9A",
"L+	c #00809F",
"M+	c #0C89A9",
"N+	c #389FC3",
"O+	c #41AEDC",
"P+	c #4C7F96",
"Q+	c #6A625F",
"R+	c #9C9C9C",
"S+	c #A3A3A3",
"T+	c #A8A8A8",
"U+	c #A9A9A9",
"V+	c #A4A4A4",
"W+	c #A0A0A0",
"X+	c #9C9B9B",
"Y+	c #8AADB9",
"Z+	c #4685A9",
"`+	c #0F5C8F",
" @	c #022836",
".@	c #013848",
"+@	c #006780",
"@@	c #00718C",
"#@	c #007591",
"$@	c #0780A0",
"%@	c #2998BE",
"&@	c #36AAD9",
"*@	c #4E869E",
"=@	c #6F6C69",
"-@	c #909090",
";@	c #999999",
">@	c #A1A1A1",
",@	c #9F9F9F",
"'@	c #9E9E9E",
")@	c #989898",
"!@	c #979696",
"~@	c #A2A2A2",
"{@	c #87AEBD",
"]@	c #3F82A6",
"^@	c #0A5689",
"/@	c #0C313D",
"(@	c #093C4A",
"_@	c #005E76",
":@	c #00637B",
"<@	c #006C85",
"[@	c #047D9B",
"}@	c #1D92B8",
"|@	c #2DA4D5",
"1@	c #518FAA",
"2@	c #717476",
"3@	c #838282",
"4@	c #8F8F8F",
"5@	c #8D8D8D",
"6@	c #949494",
"7@	c #959596",
"8@	c #9C9A99",
"9@	c #AAA7A6",
"0@	c #7AB1C6",
"a@	c #317BA4",
"b@	c #02477B",
"c@	c #163A43",
"d@	c #103F4B",
"e@	c #044B5D",
"f@	c #044D5E",
"g@	c #045669",
"h@	c #06667E",
"i@	c #107C9C",
"j@	c #1C9BCA",
"k@	c #3B98BC",
"l@	c #5D818F",
"m@	c #6E6E6E",
"n@	c #6E6D6D",
"o@	c #6A6A6A",
"p@	c #6F6F6F",
"q@	c #858585",
"r@	c #9B9B9A",
"s@	c #A3A3A2",
"t@	c #A3ABAE",
"u@	c #54A4C3",
"v@	c #196E9A",
"w@	c #003F6E",
"x@	c #626661",
"y@	c #13313B",
"z@	c #142F39",
"A@	c #0F3540",
"B@	c #004B5F",
"C@	c #0086B2",
"D@	c #019CCF",
"E@	c #2A94B7",
"F@	c #545250",
"G@	c #363736",
"H@	c #A4ACAF",
"I@	c #7DABBD",
"J@	c #187BA7",
"K@	c #005B83",
"L@	c #07506C",
"M@	c #626662",
"N@	c #002532",
"O@	c #005675",
"P@	c #0086B7",
"Q@	c #209DC5",
"R@	c #979797",
"S@	c #8E8B8A",
"T@	c #888888",
"U@	c #A7A7A7",
"V@	c #BBB5B4",
"W@	c #A4B7BD",
"X@	c #4BA7C6",
"Y@	c #0A6191",
"Z@	c #004F76",
"`@	c #1F5B6E",
" #	c #636363",
".#	c #626562",
"+#	c #011822",
"@#	c #03394D",
"##	c #006189",
"$#	c #218FBA",
"%#	c #ABA3A0",
"&#	c #ABA5A2",
"*#	c #A9A9A8",
"=#	c #B4B5B5",
"-#	c #C8BEBA",
";#	c #A2B7BE",
">#	c #1991BD",
",#	c #02527D",
"'#	c #00436B",
")#	c #2F616E",
"!#	c #616463",
"~#	c #606562",
"{#	c #072B37",
"]#	c #00496A",
"^#	c #1D749B",
"/#	c #85A1AA",
"(#	c #A1A8AA",
"_#	c #ACABAB",
":#	c #B2B0B0",
"<#	c #B8B7B7",
"[#	c #C2BFBD",
"}#	c #BFC1C1",
"|#	c #81A9B8",
"1#	c #006D9D",
"2#	c #004B73",
"3#	c #144C62",
"4#	c #0E5D79",
"5#	c #078AB7",
"6#	c #75A9BB",
"7#	c #B0B7BA",
"8#	c #BFBDBD",
"9#	c #D1CBC9",
"0#	c #8EBDCC",
"a#	c #318DAF",
"b#	c #024569",
"c#	c #005788",
"d#	c #107CAA",
"e#	c #4BA1BE",
"f#	c #89B8C6",
"g#	c #A0C0CB",
"h#	c #6EB6CD",
"i#	c #2E96BE",
"j#	c #0A6D98",
"k#	c #18526B",
"l#	c #0A4C6E",
"m#	c #00527D",
"n#	c #0E6690",
"o#	c #317A9E",
"p#	c #3E81A2",
"q#	c #1D6F98",
"r#	c #035B87",
"s#	c #005179",
"t#	c #20596E",
"u#	c #15546A",
"v#	c #083C5C",
"w#	c #003A66",
"x#	c #004678",
"y#	c #004B7C",
"z#	c #003867",
"A#	c #00375E",
"B#	c #023D5D",
"                                                                ",
"                                                                ",
"                      . + @ # # #               $ $ $ $ $       ",
"                    % & * = - ; > ,                 $ $ $ $     ",
"                    ' ) ! ~ { ] ^ / (               $ $ $ $     ",
"                    _ : < [ } | 1 2 3   4 5           $ $ $     ",
"                6 7 8 9 0 a b c d e f g     $ $ $       $ $     ",
"            h i j k l m n o p q r s t u     $ $ $ $     $ $ $   ",
"            v w x y z A B C D E F G H I J   $ $ $ $     $ $ $   ",
"            K L M N O P Q R S T U V W X Y Z   ` $ $       $ $   ",
"     ...+.@.#.$.%.&.*.=.-.;.>.,.'.).!.~.{.].  ^.$ $         $   ",
"/.(._.:.<.[.}.|.1.2.3.4.5.6.7.8.9.0.a.b.c.d.  ^.$ $         $   ",
"e.f.g.h.i.j.k.l.m.n.o.3.3.p.-.*.q.r.s.t.u.v.    $ $         $ $ ",
"w.x.y.z.A.B.C.D.E.F.G.H.I.J.K.L.M.N.O.P.Q.R.    $ $         $ $ ",
"S.T.U.V.W.X.Y.Z.`. +>..+++*.*.@+#+$+%+&+*+=+    $ $         $ $ ",
"-+;+>+,+'+)+!+~+{+]+^+/+(+_+:+<+[+}+|+1+2+3+    $ $         $ $ ",
"4+5+6+7+8+9+0+a+b+c+d+e+^+/+f+(+g+h+i+j+k+l+    $ $         $ $ ",
"m+n+o+p+p+q+r+s+t+u+v+w+x+y+z+A+B+C+D+E+F+G+    $ $         $ $ ",
"H+I+J+K+L+M+N+O+P+Q+R+S+T+U+V+V+W+X+R+Y+Z+`+    $ $         $ $ ",
" @.@+@@@#@$@%@&@*@=@-@-@;@>@,@'@)@!@~@{@]@^@    $ $         $ $ ",
"/@(@_@:@<@[@}@|@1@2@,.3@%+4@5@6@7@8@9@0@a@b@    $ $         $ $ ",
"c@d@e@f@g@h@i@j@k@l@m@n@o@p@q@|+r@s@t@u@v@w@  x@$ $         $   ",
"    y@y@z@A@B@C@D@E@s.F@G@E R+V+9@H@I@J@K@L@  M@$ $         $   ",
"            N@O@P@Q@R@S@T@|+U@M.V@W@X@Y@Z@`@ #.#$ $       $ $   ",
"            +#@###$#%#&#*#8.M.=#-#;#>#,#'#)#!#~#$ $     $ $ $   ",
"              {#]#^#/#(#_#:#<#[#}#|#1#2#    $ $ $ $     $ $ $   ",
"                3#4#5#6#7#8#e+9#0#a#b#    $ $ $ $     $ $ $     ",
"                    c#d#e#f#g#h#i#j#k#              $ $ $ $     ",
"                    l#m#n#o#p#q#r#s#t#              $ $ $ $     ",
"                    u#v#w#x#y#z#A#B#                $ $ $ $     ",
"                                                                ",
"                                                                "};
