/* XPM */
static char *closeI[] = {
/* columns rows colors chars-per-pixel */
"33 44 217 2",
"   c #6D6D24240707",
".  c #76F133B1190F",
"X  c #79AE34931A6F",
"o  c #7D7D23232B2B",
"O  c #7E7E2F2F3939",
"+  c #6F6F3E3E4747",
"@  c #74743F3F4C4C",
"#  c #7E7E3A3A4646",
"$  c #540F55EF65DD",
"%  c #5D9054EE6330",
"&  c #5E5E59036767",
"*  c #5ADB595968E8",
"=  c #6E6E42424D4D",
"-  c #66664B4B5757",
";  c #69694A4A5757",
":  c #7C7C4B4B4A4A",
">  c #74744F4F5656",
",  c #626253536060",
"<  c #60605D5D6767",
"1  c #62625C8F6A03",
"2  c #74745E5E6A6A",
"3  c #656562626F6F",
"4  c #6F6F6F6F6F6F",
"5  c #69E966E773F4",
"6  c #6F6F6A6A7575",
"7  c #6E6E6C6C7979",
"8  c #73736A6A7575",
"9  c #72726D6D7878",
"0  c #767672727BFC",
"q  c #787875757C7C",
"w  c #838300000000",
"e  c #8CC8000000E3",
"r  c #88880D0D1111",
"t  c #92D9000001A9",
"y  c #93120B0B0000",
"u  c #94130A0A0C0C",
"i  c #9B7F00000295",
"p  c #9E9E05050909",
"a  c #99990E0E0000",
"s  c #989817170000",
"d  c #9A9A1C1C0000",
"f  c #959514141B1B",
"g  c #9A9A14141C1C",
"h  c #81811E1E2424",
"j  c #9D9D1E1E2828",
"k  c #81812F2F3939",
"l  c #969622222D2D",
"z  c #A47C00080303",
"x  c #A4A409090000",
"c  c #AB1100000404",
"v  c #AFAF05050B0B",
"b  c #AFAF0A0A1212",
"n  c #A5A51B1B0000",
"m  c #AFAF15150000",
"M  c #B39F0005058F",
"N  c #BC6000000606",
"B  c #B8B809090000",
"V  c #B6B60D0D1717",
"C  c #BFBF14141818",
"Z  c #A0A027270000",
"A  c #A4A42A2A0000",
"S  c #A7A736360000",
"D  c #AFAF38380000",
"F  c #AAAA3D3D0A0A",
"G  c #B0B028280000",
"H  c #B8B820200000",
"J  c #B9B934340000",
"K  c #A3A32F2F3737",
"L  c #A7A739392E2E",
"P  c #ADBF33632DC7",
"I  c #B2FE32D82D3C",
"U  c #9E9E46462929",
"Y  c #AEAE44440000",
"T  c #B8B844440000",
"R  c #B7B74B4B1010",
"E  c #B8B851510000",
"W  c #B1B14D4D2E2E",
"Q  c #B3B356562323",
"!  c #8EDF5B4946F5",
"~  c #903C5C264852",
"^  c #A04A55AA4B42",
"/  c #9E9E5B5B6363",
"(  c #878760604343",
")  c #838364646F6F",
"_  c #8A8A70707979",
"`  c #A51F5F6A4765",
"'  c #BE135C5C5C5C",
"]  c #B2DC62805FAE",
"[  c #B8DB66DC57DD",
"{  c #A8A870707777",
"}  c #BAA363346334",
"|  c #BEBE6E6E6666",
" . c #BDBD68686868",
".. c #B2B273737878",
"X. c #C1C100000000",
"o. c #C2C200000808",
"O. c #C9C901010000",
"+. c #CC2D00120911",
"@. c #C1C114140000",
"#. c #C9C91C1C0000",
"$. c #C1231452190B",
"%. c #CEB313F31999",
"&. c #D1D100000000",
"*. c #D4D400000A0A",
"=. c #D1D109090000",
"-. c #D9D900000000",
";. c #DADA00000B0B",
":. c #D0D013130606",
">. c #DCDC12920000",
",. c #C1C12B2B0000",
"<. c #C2C23F3F0000",
"1. c #CACA35350000",
"2. c #D1D125250000",
"3. c #D8D82B2B0000",
"4. c #D0D03D3D0000",
"5. c #D7D73E3E0C0C",
"6. c #DDDD30300000",
"7. c #E0E000000000",
"8. c #EC6C00000000",
"9. c #E6E618180000",
"0. c #EDED1D1D0080",
"q. c #E2E236360000",
"w. c #E6E638380000",
"e. c #E8E83A3A0000",
"r. c #C9C94A4A0000",
"t. c #C1C150500000",
"y. c #C1C15D5D0000",
"u. c #CACA5C5C0000",
"i. c #D6D644440000",
"p. c #DDDD4CCD0000",
"a. c #D0D053530000",
"s. c #D5D55B5B0000",
"d. c #C9C969690000",
"f. c #D0D066660000",
"g. c #D6D66F6F0000",
"h. c #DC5C64E50000",
"j. c #D1D174740000",
"k. c #DBDB76760000",
"l. c #DC5C7E7E0000",
"z. c #E38D54FF0000",
"x. c #E2616E2E0000",
"c. c #C4C45C5C5C5C",
"v. c #CB985BF55CC3",
"b. c #D4D45C5C5C5C",
"n. c #DBDB5C5C5C5C",
"m. c #C1A37DD85BFB",
"M. c #C4C468686868",
"N. c #CD4D68686868",
"B. c #C3C378786666",
"V. c #C46E75757575",
"C. c #CC7675757575",
"Z. c #D5D568686868",
"A. c #DFDF66666767",
"S. c #DD5D68686868",
"D. c #D53B74A7750E",
"F. c #DBDB75757575",
"G. c #E2E25C5C5C5C",
"H. c #EB405C5C5C5C",
"J. c #E7E767676767",
"K. c #E4E468686868",
"L. c #E27B75757575",
"P. c #A740831C74C1",
"I. c #DDDD88880000",
"U. c #E34984840000",
"Y. c #E4E493120000",
"T. c #E93E9AF00000",
"R. c #C7C781816666",
"E. c #CCCC8A8A6666",
"W. c #D0D093936666",
"Q. c #D5D59A9A6666",
"!. c #D9D9A3A36666",
"~. c #DEDEAAAA6666",
"^. c #E3E3B2B26666",
"/. c #EA69BBBB6666",
"(. c #F0F0C4C46666",
"). c #F5F5CBFE6666",
"_. c #858584848B8B",
"`. c #8E8E8D0D9515",
"'. c #93E9943E953F",
"]. c #955595D59B5B",
"[. c gray63",
"{. c #ACACACACACAC",
"}. c #ADADAE2DB131",
"|. c #B6B6B6B6B6B6",
" X c #B9B9B9B9BBBB",
".X c #BFBFC0C0C3C3",
"XX c #C7C781818181",
"oX c #C6C685858888",
"OX c #CC4C81818181",
"+X c #CD5F8E8E8E8E",
"@X c #D37D81818181",
"#X c #D4948E8E8E8E",
"$X c #DB6D81818181",
"%X c #DCB78E8E8E8E",
"&X c #D3E29AC79AC7",
"*X c #DB789A9A9A9A",
"=X c #C68EB4B1ADD6",
"-X c #D62BA24CA24C",
";X c #DA35A7A7A7A7",
":X c #D958AB2BAB2B",
">X c #DD5DB231B231",
",X c #DFDFB8B8B8B8",
"<X c #E16081818181",
"1X c #E0E0BBBBBBBB",
"2X c gray76",
"3X c #CECECECECECE",
"4X c #D535D535D62F",
"5X c #D7E5D7E5D8E6",
"6X c #DB54DB54DBE5",
"7X c #E463C1C1C1C1",
"8X c #E767C9C9C9C9",
"9X c #E9E9D0D0D0D0",
"0X c #E5D4E5D4E673",
"qX c #ED80ED80EE21",
"wX c #F1F1E261E261",
"eX c #F4DDF4DDF4F1",
"rX c #F915F915F915",
/* pixels */
"  wX8X9X9X8X9X9X8X9X9X9X9X9X9X9X9X9X9X9X9X9X9X9X9X9X9X9X9X9XwX  rX",
"  8X;X:X:X:X:X:X;X;X:X:X;X;X;X;X;X;X;X;X;X;X;X;X;X;X;X;X;X;X8X  rX",
"  1X&X&X&X&X&X&X*X&X*X*X*X*X*X*X*X*X*X*X*X&X*X&X&X&X&X&X&X&X7X  eX",
"  ,X+X+X+X+X#X#X#X#X#X%X%X%X%X%X_ * % 1 * oX%X#X#X#X#X+X+X+X,X  eX",
"  :XXXXXXXOX@X@X@X$X$X$X<X<X<X..5 9X0X7 { $X$X$X@X@X@XOXoXXX>X  eX",
"  :XV.V.V.C.C.D.D.F.F.L.L.L.D.1 .X6X`.) L.F.F.F.F.D.C.C.V.V.:X  eX",
"  -X .M.M.N.N.Z.Z.S.S.K.J.J.2 ].3X}.3 A.J.K.A.S.Z.Z.N.N.M.M.;X  eX",
"  &X' ' c.v.v.b.b.n.G.G.H./ 0 2X X3 c.H.H.G.n.n.b.b.v.v.c.' &X  eX",
"  } t i c c M N X.O.&.-.C & }.|.8 K 8.8.7.-.O.O.X.N M c z i M.  qX",
"  } t i i c M N X.O.=.:., '.{._.> 0.0.9.>.>.=.O.N N M c z i }   qX",
"  } t t i c M B @.#.2.: q [.'.% 5.e.w.q.6.3.2.#.@.B c c i i  .  qX",
"  ] t t i x m H ,.1.U 1 '.'.& Q z.z.z.p.p.i.4.1.,.H m x i t }   qX",
"  ' e e s n G J <.R $ $ $ $ ! k.x.x.x.h.h.s.a.r.<.J G n a u ] X 0X",
"  } e y d A D T t.u.f.g.k.l.U.U.U.U.U.U.k.j.f.u.t.T S Z d L ` ! 0X",
"  } e s Z S Y E y.d.j.l.I.Y.Y.T.T.T.Y.Y.I.l.j.d.d.E Y Y W [ . =X0X",
"  -X| B.R.E.W.Q.!.~.^././.(.).).).).).(././.^.~.!.W.W.R.` X { 0X5X",
"                                                      . ! =X0X4X5X",
"0X0X0X0X0X0X0X0X0X0X0X0X0X0X0X0X0X0X0X0X0X0X0X0X0X0X0X0X0X6X5X4X4X",
"4X4X4X4X4X4X4X4X5X4X4X4X4X4X4X4X4X4X5X5X4X4X4X4X5X4X4X4X4X4X4X4X4X",
"4X4X4X4X5X4X4X4X4X4X4X4X4X4X4X4X4X4X4X4X4X4X4X4X4X4X4X4X4X4X4X4X4X",
"eXeXeXeXeXeXeXeXeXeXeXeXeXeXeXeXeXeXeXeXeXeXeXeXeXeXeXeXeXeXeXeXeX",
"4 4 4 4 2 2 8 4 4 4 4 4 4 4 4 4 4 4 4 4 4 4 4 4 4 4 4 2 4 4 4 4 6 ",
"    w w w   w w w w   e w w e   w w w w w w w w w     e w w     rX",
"  e w w e w w w w w w e w w e e w w w w w w w w e e e w w e e   rX",
"  t t e e e e e e e e e e e e e e w e e e e e e e e e e e e e   rX",
"  t t t t t t t t t t t t t t t + $ $ $ $ r t t t t t t t t t   eX",
"  i i i i i i t i t t i i i t h 3 6X0X5 o i i t i i i i i i i   eX",
"  i i i i i i z i p z i p i u & .X6X`.= z i i p i i i i i i i   qX",
"  z z z z z z z z z z z z z ; ].3X}.% p z z z z c i z z z z z   eX",
"  c c c c c c c c c c c c O 9 2X X& f c c c c c c v c c c c c   eX",
"  v v M M M v v v M M c j % }.|.8 k v M M M M v M c v c M v v   qX",
"  M N M M M M N M N M v % '.{._.; M M M M N M M M N N M M N M   qX",
"  N N N N N N N N N N @ q [.'.% b N N N N N N N N N N N N N N   qX",
"  o.o.o.o.o.o.o.o.o.l 1 ].'.& j o.o.o.o.o.o.o.o.o.o.o.o.o.o.o.  qX",
"  +.+.o.+.+.+.+.+.V * $ $ $ # +.o.+.+.+.+.+.+.+.+.+.+.+.+.+.C . qX",
"  +.+.+.+.+.+.+.+.+.+.+.+.+.+.+.*.+.+.+.+.+.+.+.+.+.+.+.+.+.P ~ 0X",
"  ;.*.*.*.*.;.*.*.*.*.;.*.*.*.*.*.*.*.*.*.*.*.*.*.*.+.*.*.*.X =X0X",
"  ;.;.;.;.;.;.;.;.;.;.;.;.;.;.;.;.;.;.;.;.;.;.;.;.;.*.%.I X P.0X5X",
"                                                      . ~ =X0X5X5X",
"0X0X0X0X0X0X0X0X0X0X0X0X0X0X0X0X0X0X0X0X0X0X0X0X0X0XqX0X0X6X4X4X4X",
"4X4X4X4X4X4X4X4X5X5X4X4X4X4X4X4X4X4X4X4X4X4X4X4X4X4X4X4X4X4X4X4X4X",
"4X4X4X4X4X4X4X4X4X4X4X4X4X4X4X4X4X4X4X4X4X4X4X4X4X4X4X4X4X4X4X4X4X",
"eXeXeXeXeXeXeXeXeXeXeXeXeXeXeXeXeXeXeXeXeXeXeXeXeXeXeXeXeXeXeXeXeX",
"4 4 4 4 4 4 4 4 4 4 4 4 4 4 4 4 4 4 4 4 4 4 4 4 4 4 4 4 4 4 4 4 4 "
};
