/* XPM */
static char * closeA_xpm[] = {
"33 44 221 2",
"  	c None",
". 	c #6D2407",
"+ 	c #F1E2E2",
"@ 	c #E7C9C9",
"# 	c #E9D0D0",
"$ 	c #0A188B",
"% 	c #DAA7A7",
"& 	c #D9ABAB",
"* 	c #E0BBBB",
"= 	c #D39A9A",
"- 	c #DB9A9A",
"; 	c #E4C1C1",
"> 	c #091B93",
", 	c #DFB8B8",
"' 	c #CD8E8E",
") 	c #D48E8E",
"! 	c #DC8E8E",
"~ 	c #8A7079",
"{ 	c #545565",
"] 	c #5D5463",
"^ 	c #625C6A",
"/ 	c #5A5968",
"( 	c #C68588",
"_ 	c #061F9D",
": 	c #C78181",
"< 	c #CC8181",
"[ 	c #D38181",
"} 	c #DB8181",
"| 	c #E18181",
"1 	c #CC8A66",
"2 	c #B27378",
"3 	c #696673",
"4 	c #E1E1E1",
"5 	c #6E6C79",
"6 	c #A87077",
"7 	c #DDB2B2",
"8 	c #0324A7",
"9 	c #C47575",
"0 	c #CC7575",
"a 	c #D57475",
"b 	c #DB7575",
"c 	c #E27575",
"d 	c #65626F",
"e 	c #BFC0C3",
"f 	c #DCDCDC",
"g 	c #8E8D95",
"h 	c #83646F",
"i 	c #0129AF",
"j 	c #D6A2A2",
"k 	c #BD6868",
"l 	c #C46868",
"m 	c #CD6868",
"n 	c #D56868",
"o 	c #DD6868",
"p 	c #DF6667",
"q 	c #E46868",
"r 	c #E76767",
"s 	c #745E6A",
"t 	c #939495",
"u 	c #CECECE",
"v 	c #ADAEB1",
"w 	c #012FB6",
"x 	c #BE5C5C",
"y 	c #C45C5C",
"z 	c #CB5B5C",
"A 	c #D45C5C",
"B 	c #DB5C5C",
"C 	c #E25C5C",
"D 	c #EB5C5C",
"E 	c #9E5B63",
"F 	c #76727B",
"G 	c #C2C2C2",
"H 	c #B9B9BB",
"I 	c #5E5967",
"J 	c #0337BB",
"K 	c #BA6363",
"L 	c #920001",
"M 	c #9B0002",
"N 	c #A40003",
"O 	c #AB0004",
"P 	c #BC0006",
"Q 	c #C10000",
"R 	c #C90100",
"S 	c #D10000",
"T 	c #D90000",
"U 	c #D01306",
"V 	c #736A75",
"W 	c #A32F37",
"X 	c #EC0000",
"Y 	c #C20008",
"Z 	c #023DBE",
"` 	c #B30005",
" .	c #D10900",
"..	c #625360",
"+.	c #548CB8",
"@.	c #744F56",
"#.	c #ED1D00",
"$.	c #E61800",
"%.	c #DC1200",
"&.	c #0146C3",
"*.	c #B80900",
"=.	c #C11400",
"-.	c #C91C00",
";.	c #D12500",
">.	c #7C4B4A",
",.	c #78757C",
"'.	c #A1A1A1",
").	c #D73E0C",
"!.	c #E83A00",
"~.	c #E63800",
"{.	c #E23600",
"].	c #D82B00",
"^.	c #014DCA",
"/.	c #B76657",
"(.	c #A40900",
"_.	c #AF1500",
":.	c #B82000",
"<.	c #C12B00",
"[.	c #CA3500",
"}.	c #9E4629",
"|.	c #B35623",
"1.	c #E35400",
"2.	c #DD4C00",
"3.	c #D64400",
"4.	c #D03D00",
"5.	c #0054D0",
"6.	c #8C0000",
"7.	c #981700",
"8.	c #A51B00",
"9.	c #B02800",
"0.	c #B93400",
"a.	c #C23F00",
"b.	c #B74B10",
"c.	c #8D5749",
"d.	c #DB7600",
"e.	c #E26E00",
"f.	c #DC6400",
"g.	c #D55B00",
"h.	c #D05300",
"i.	c #C94A00",
"j.	c #B84400",
"k.	c #990E00",
"l.	c #940A0C",
"m.	c #A85E60",
"n.	c #005CD6",
"o.	c #930B00",
"p.	c #9A1C00",
"q.	c #A42A00",
"r.	c #AF3800",
"s.	c #C15000",
"t.	c #CA5C00",
"u.	c #D06600",
"v.	c #D66F00",
"w.	c #DC7E00",
"x.	c #E38400",
"y.	c #A7392E",
"z.	c #844B4D",
"A.	c #0063DB",
"B.	c #A02700",
"C.	c #A73600",
"D.	c #AE4400",
"E.	c #B85100",
"F.	c #C15D00",
"G.	c #C96900",
"H.	c #D17400",
"I.	c #DD8800",
"J.	c #E49300",
"K.	c #E99A00",
"L.	c #AA3D0A",
"M.	c #B14D2E",
"N.	c #652D1B",
"O.	c #0368DF",
"P.	c #BE6E66",
"Q.	c #C37866",
"R.	c #D09366",
"S.	c #D59A66",
"T.	c #D9A366",
"U.	c #DEAA66",
"V.	c #E3B266",
"W.	c #EABB66",
"X.	c #F0C466",
"Y.	c #F5CB66",
"Z.	c #B97B5C",
"`.	c #0370E4",
" +	c #0078E6",
".+	c #0180E9",
"++	c #0286EE",
"@+	c #048BF7",
"#+	c #078EFE",
"$+	c #0D4FDD",
"%+	c #830000",
"&+	c #6F3E47",
"*+	c #880D11",
"=+	c #9E0509",
"-+	c #7D232B",
";+	c #6E424D",
">+	c #664B57",
",+	c #95959B",
"'+	c #AF050B",
")+	c #7E2F39",
"!+	c #726D78",
"~+	c #95141B",
"{+	c #9A141C",
"]+	c #ACACAC",
"^+	c #B6B6B6",
"/+	c #812F39",
"(+	c #85848B",
"_+	c #694A57",
":+	c #743F4C",
"<+	c #B60D17",
"[+	c #96222D",
"}+	c #9D1E28",
"|+	c #CC0009",
"1+	c #7E3A46",
"2+	c #B00D19",
"3+	c #D4000A",
"4+	c #8C2531",
"5+	c #56474B",
"6+	c #DA000B",
"7+	c #BE0E1B",
"8+	c #56484D",
". + @ # # @ # # # # # # # # # # # # # # # # # # # # # # # # + $ $ ",
". @ % & & & & & % % % % % % % % % % % % % % % % % % % % % % @ $ $ ",
". * = = = = = = = - = - - - - - - - - - = - - = = = = = = = ; > > ",
". , ' ' ' ' ) ) ) ) ! ! ! ! ! ! ~ { ] ^ / ( ! ! ) ) ' ' ' ' * _ _ ",
". & : : : < [ [ [ } } | | | 1 2 3 4 4 5 6 | } [ [ [ [ < ( : 7 8 8 ",
". & 9 9 9 0 0 a a b b b c c c d e f g h c c b b a a 0 0 9 9 & i i ",
". j k l l m m n n o p q r r s t u v ^ p r q q o o n m m l l % w w ",
". = x x y z z A A B C D D E F G H I z D D C B B B z z z y y = J J ",
". K L M N O O P Q R S T U / v & V W X X T T S R Y P P O N M l Z Z ",
". K L M N O ` P Q R  .U ..t v +.@.#.#.$.$.%. .R Q ` O O N M K &.&.",
". K L L N O O *.=.-.;.>.,.'.t ] ).!.~.{.].].;.-.=.*.O O N M k ^.^.",
". /.L L M (._.:.<.[.}.d t t I |.1.1.1.2.2.3.4.[.<.:._.(.M L K 5.5.",
". K 6.L 7.8.9.0.a.b.{ { { { c.d.e.e.e.f.f.g.h.i.j.0.9.8.k.l.m.n.n.",
". K 6.o.p.q.r.j.s.t.u.v.d.w.x.x.x.x.x.x.d.v.u.t.s.j.r.q.p.y.z.A.A.",
". K 6.7.B.C.D.E.F.G.H.w.I.J.J.K.K.K.J.J.I.w.H.G.F.E.D.L.M./.N.O.O.",
". = P.Q.Q.1 R.S.T.U.V.W.W.X.Y.Y.Y.Y.Y.X.W.W.V.U.T.S.R.Z.c.N.`.`.`.",
". . . . . . . . . . . . . . . . . . . . . . . . . . . N. + + + + +",
".+.+.+.+.+.+.+.+.+.+.+.+.+.+.+.+.+.+.+.+.+.+.+.+.+.+.+.+.+.+.+.+.+",
"++++++++++++++++++++++++++++++++++++++++++++++++++++++++++++++++++",
"@+@+@+@+@+@+@+@+@+@+@+@+@+@+@+@+@+@+@+@+@+@+@+@+@+@+@+@+@+@+@+@+@+",
"#+#+#+#+#+#+#+#+#+#+#+#+#+#+#+#+#+#+#+#+#+#+#+#+#+#+#+#+#+#+#+#+#+",
"$+$+$+$+$+$+$+$+$+$+$+$+$+$+$+$+$+$+$+$+$+$+$+$+$+$+$+$+$+$+$+$+$+",
". %+%+%+%+%+%+%+%+%+%+. %+%+%+%+%+%+%+%+%+%+%+%+%+%+%+%+%+%+%+. $ ",
". %+%+%+%+%+%+%+%+%+6.6.%+%+%+%+%+%+%+%+%+%+%+%+%+%+%+%+%+%+%+. $ ",
". 6.6.6.%+6.6.6.6.6.6.6.6.6.6.6.6.6.6.6.6.6.6.6.6.6.6.6.6.6.6.. > ",
". L M 6.M 6.6.M 6.6.M 6.M 6.L L &+{ { { / *+6.6.L L 6.6.M 6.M . _ ",
". M M M M =+M M M M M L M M M -+d 4 4 3 -+M M M M M M M M M M . 8 ",
". M M M M M M M M N M N M =+l./ e f g ;+M M M N M N M M M M M . i ",
". N N N N N N N N N N N N N >+,+u v ] =+N N N N N N N N N N N . w ",
". O O O O O O O O O O O '+)+!+G H / ~+O O O O O O O O O O O '+. J ",
". '+O ` '+'+'+'+O '+O '+{+/ ]+^+V /+'+O O ` '+'+'+'+` '+` '+O . Z ",
". P ` P ` ` P ` P ` P '+] t ]+(+_+` ` P ` P ` P ` ` P ` ` ` ` . &.",
". P P P P P P P P P Y :+,.'.t ] <+P P P P P P P P P P P P P P . ^.",
". Y Y Y Y Y Y Y Y Y [+^ t t I }+P P P |+Y P Y Y Y Y Y Y Y Y Y . 5.",
". |+|+|+|+|+|+|+|+<+{ { { { 1+|+|+|+|+|+|+|+Y Y |+|+|+|+|+|+2+N.n.",
". |+|+|+|+|+|+|+|+|+|+|+|+|+|+|+|+|+|+U 3+|+|+3+|+|+3+|+|+|+4+5+A.",
". 3+3+3+3+3+3+3+3+3+3+3+3+3+3+3+3+3+3+3+3+3+3+6+3+3+3+3+3+|+O.O.O.",
". 6+6+6+6+6+6+6+6+6+6+6+6+6+6+6+6+6+6+6+6+6+6+6+6+6+6+7+4+N.`.`.`.",
". . . . . . . . . . . . . . . . . . . . . . . . . . . N.8+ + + + +",
".+.+.+.+.+.+.+.+.+.+.+.+.+.+.+.+.+.+.+.+.+.+.+.+.+.+.+.+.+.+.+.+.+",
"++++++++++++++++++++++++++++++++++++++++++++++++++++++++++++++++++",
"@+@+@+@+@+@+@+@+@+@+@+@+@+@+@+@+@+@+@+@+@+@+@+@+@+@+@+@+@+@+@+@+@+",
"#+#+#+#+#+#+#+#+#+#+#+#+#+#+#+#+#+#+#+#+#+#+#+#+#+#+#+#+#+#+#+#+#+",
"$+$+$+$+$+$+$+$+$+$+$+$+$+$+$+$+$+$+$+$+$+$+$+$+$+$+$+$+$+$+$+$+$+"};
