/* XPM */
static char * closeO_xpm[] = {
"33 44 216 2",
"  	c None",
". 	c #6D2407",
"+ 	c #F4E9E9",
"@ 	c #EEDBDB",
"# 	c #152B96",
"$ 	c #ECD4D4",
"% 	c #DFB8B8",
"& 	c #E2BCBC",
"* 	c #E4C4C4",
"= 	c #0A188B",
"- 	c #E9CFCF",
"; 	c #DEB3B3",
"> 	c #E3B2B2",
", 	c #091B93",
"' 	c #E7CACA",
") 	c #DBA9A9",
"! 	c #E4A9A9",
"~ 	c #8D7982",
"{ 	c #545665",
"] 	c #5D5563",
"^ 	c #625E6B",
"/ 	c #5C5969",
"( 	c #CD9C9F",
"_ 	c #061F9D",
": 	c #D6A0A0",
"< 	c #DCA0A0",
"[ 	c #E4A0A0",
"} 	c #E8A0A0",
"| 	c #B7888D",
"1 	c #6C6975",
"2 	c #EAEAEA",
"3 	c #6E6D7A",
"4 	c #0324A7",
"5 	c #D49797",
"6 	c #DB9797",
"7 	c #EA9797",
"8 	c #E49797",
"9 	c #DA8F91",
"0 	c #65626F",
"a 	c #D4D4D6",
"b 	c #E7E7E7",
"c 	c #8E8D95",
"d 	c #846E79",
"e 	c #0129AF",
"f 	c #CB8989",
"g 	c #D48D8D",
"h 	c #DC8D8D",
"i 	c #E48C8D",
"j 	c #EB8D8D",
"k 	c #746571",
"l 	c #95959B",
"m 	c #DDDDDD",
"n 	c #C8C8CA",
"o 	c #012FB6",
"p 	c #CD8484",
"q 	c #D48484",
"r 	c #DB8484",
"s 	c #E48484",
"t 	c #EC8484",
"u 	c #A06E76",
"v 	c #76737C",
"w 	c #D5D5D5",
"x 	c #CFCFD1",
"y 	c #CE797D",
"z 	c #F18484",
"A 	c #0337BB",
"B 	c #AC453F",
"C 	c #AC3F3F",
"D 	c #BC3F3F",
"E 	c #C33F3F",
"F 	c #CC3F3F",
"G 	c #D53F3F",
"H 	c #DC3F3F",
"I 	c #E43F3F",
"J 	c #C44448",
"K 	c #625765",
"L 	c #CDCDCD",
"M 	c #726D78",
"N 	c #A34D55",
"O 	c #F23F3F",
"P 	c #ED3F3F",
"Q 	c #B43F3F",
"R 	c #023DBE",
"S 	c #DC423F",
"T 	c #D84341",
"U 	c #B7B7BB",
"V 	c #C7C7C7",
"W 	c #ACACB0",
"X 	c #755661",
"Y 	c #F1423F",
"Z 	c #EC433F",
"` 	c #E4433F",
" .	c #0146C3",
"..	c #C9433F",
"+.	c #D3493F",
"@.	c #DC4C3F",
"#.	c #7F555C",
"$.	c #78767D",
"%.	c #BFBFBF",
"&.	c #B2B1B7",
"*.	c #DC4B43",
"=.	c #EC4A3F",
"-.	c #E34C3F",
";.	c #014DCA",
">.	c #BA443F",
",.	c #C24B3F",
"'.	c #C9503F",
").	c #DB573F",
"!.	c #A5564F",
"~.	c #B5B6B7",
"{.	c #B7574C",
"].	c #E9573F",
"^.	c #E3583F",
"/.	c #C26245",
"(.	c #0054D0",
"_.	c #B2523F",
":.	c #C3573F",
"<.	c #CA5D3F",
"[.	c #D3623F",
"}.	c #5D5967",
"|.	c #8D5F5B",
"1.	c #E9693F",
"2.	c #E5693F",
"3.	c #DF683F",
"4.	c #DB663F",
"5.	c #BB513F",
"6.	c #AC4646",
"7.	c #B97C7D",
"8.	c #214C97",
"9.	c #005CD6",
"0.	c #BA5D3F",
"a.	c #C2653F",
"b.	c #C96B3F",
"c.	c #D4723F",
"d.	c #DB783F",
"e.	c #E37B3F",
"f.	c #E97E3F",
"g.	c #E18E3F",
"h.	c #B75C3F",
"i.	c #BC6961",
"j.	c #97675A",
"k.	c #57474C",
"l.	c #0063DB",
"m.	c #BC673F",
"n.	c #C2723F",
"o.	c #C9793F",
"p.	c #D6853F",
"q.	c #DC893F",
"r.	c #E5913F",
"s.	c #EC953F",
"t.	c #D07F3F",
"u.	c #BE6C46",
"v.	c #C37961",
"w.	c #C5887D",
"x.	c #652D1B",
"y.	c #0368DF",
"z.	c #D1998B",
"A.	c #D5A08B",
"B.	c #D8A68B",
"C.	c #DCAD8B",
"D.	c #DFB38B",
"E.	c #E4BC8B",
"F.	c #ECC58B",
"G.	c #F4CC8B",
"H.	c #F9D08B",
"I.	c #C5947B",
"J.	c #0370E4",
"K.	c #57484E",
"L.	c #0078E6",
"M.	c #0180E9",
"N.	c #0286EE",
"O.	c #048BF6",
"P.	c #078EFE",
"Q.	c #0D4FDD",
"R.	c #830000",
"S.	c #8C0001",
"T.	c #920002",
"U.	c #6E424D",
"V.	c #880D11",
"W.	c #9B0003",
"X.	c #811E24",
"Y.	c #DCDCDC",
"Z.	c #6B6673",
"`.	c #862530",
" +	c #950A0E",
".+	c #BFC0C3",
"++	c #A40004",
"@+	c #694A57",
"#+	c #CECECE",
"$+	c #ADAEB1",
"%+	c #9E0509",
"&+	c #AA0005",
"*+	c #7E2F39",
"=+	c #C2C2C2",
"-+	c #B9B9BB",
";+	c #95141B",
">+	c #B30006",
",+	c #9A141C",
"'+	c #B6B6B6",
")+	c #812F39",
"!+	c #BC0007",
"~+	c #AF050B",
"{+	c #ACACAC",
"]+	c #85848B",
"^+	c #A1A1A1",
"/+	c #939495",
"(+	c #B00D19",
"_+	c #C20008",
":+	c #96222D",
"<+	c #9D1E28",
"[+	c #CC0009",
"}+	c #BE0E1B",
"|+	c #7E3A46",
"1+	c #D4000A",
"2+	c #DA000B",
"3+	c #8C2531",
". + @ @ @ + @ @ @ @ @ @ @ @ @ @ @ @ @ @ @ @ @ @ @ @ @ @ @ @ + . # ",
". $ % % % % % % & % & & & & & & & & & & & & & * * % & & & & $ = = ",
". - ; ; ; ; % % > > > > > > > > > > > > > > > > ; ; ; ; ; ; - , , ",
". ' ) ) ) ) ) ) ) ! ) ) ! ! ! ! ~ { ] ^ / ( ! ) ) ) ) ) ) ) ' _ _ ",
". * : : ( : < < [ [ [ [ } } } | 1 2 2 3 ~ } } [ < < < < : : * 4 4 ",
". & 5 5 6 6 6 6 6 7 8 7 7 7 9 0 a b c d 7 7 8 8 8 6 6 6 5 5 * e e ",
". % f g g h h h h i i j j j k l m n ^ i j j j i i h 9 g g g % o o ",
". ; p p q q r r s s s t t u v w x ^ y z z z t s s r r q p p ; A A ",
". f B C D D E F G G H I J K n L M N O P I I H G F F E E D Q f R R ",
". f C Q D E E F F G S T K U V W X Y O Z ` ` S G F F E D D Q f  . .",
". f C Q Q D E ..+.+.@.#.$.%.&.K *.=.=.=.=.-.@.+.T ..E D D Q f ;.;.",
". f C C Q >.,.'.'.).!.^ ~.~.K {.].].].^.^.).).)./.+.,.>.Q Q f (.(.",
". f C C B _.:.<.[./.}.{ { { |.1.1.1.1.2.2.3.4.[.<.<.:.5.6.6.7.8.9.",
". f B B _.0.a.b.c.d.d.d.e.e.f.g.f.f.f.f.e.e.d.d.c.b.a.h._.i.j.k.l.",
". f B _.h.m.n.o.o.p.q.r.r.s.s.s.s.s.s.s.g.g.q.p.t.o.n.u.v.w.x.y.y.",
". ; f z.A.B.C.D.E.E.F.F.F.G.G.H.H.G.G.G.G.F.E.E.E.E.C.I.j.x.J.J.J.",
". . . . . . . . . . . . . . . . . . . . . . . . . . . x.K.L.L.L.L.",
"M.M.M.M.M.M.M.M.M.M.M.M.M.M.M.M.M.M.M.M.M.M.M.M.M.M.M.M.M.M.M.M.M.",
"N.N.N.N.N.N.N.N.N.N.N.N.N.N.N.N.N.N.N.N.N.N.N.N.N.N.N.N.N.N.N.N.N.",
"O.O.O.O.O.O.O.O.O.O.O.O.O.O.O.O.O.O.O.O.O.O.O.O.O.O.O.O.O.O.O.O.O.",
"P.P.P.P.P.P.P.P.P.P.P.P.P.P.P.P.P.P.P.P.P.P.P.P.P.P.P.P.P.P.P.P.P.",
"Q.Q.Q.Q.Q.Q.Q.Q.Q.Q.Q.Q.Q.Q.Q.Q.Q.Q.Q.Q.Q.Q.Q.Q.Q.Q.Q.Q.Q.Q.Q.Q.Q.",
". R.R.R.. S.R.R.. R.R.. R.. R.R.R.R.R.R.R.. S.R.R.R.R.. R.R.R.. = ",
". R.R.R.S.R.R.S.S.S.S.S.S.R.R.R.R.R.R.R.R.S.S.R.R.R.S.R.R.R.R.. = ",
". S.S.S.S.S.S.S.S.S.S.S.S.S.S.S.S.S.S.S.S.S.S.S.S.S.S.S.S.S.S.. , ",
". T.T.T.T.T.T.T.T.T.T.T.T.T.T.T.U.{ { { { V.T.T.T.T.T.T.T.T.T.. _ ",
". W.W.W.W.W.W.W.W.W.W.W.W.W.W.X.0 Y.@ Z.`.T.W.W.W.W.W.W.W.W.W.. 4 ",
". W.W.W.W.W.W.W.W.W.W.W.W.W. +] .+Y.c U.W.W.W.W.W.W.W.W.W.W.W.. e ",
". ++++++++++++++++++++++++++@+l #+$+] %+++++++++++++++++++++++. o ",
". &+&+&+&+&+&+&+&+&+&+&+&+*+M =+-+}.;+++&+&+&+&+&+&+&+&+&+&+&+. A ",
". >+>+&+>+&+>+>+&+>+&+&+,+}.$+'+1 )+>+&+>+&+>+&+>+>+>+&+>+&+>+. R ",
". >+>+!+>+!+>+>+>+!+!+~+] l {+]+@+>+>+!+>+!+>+!+>+>+>+!+>+!+>+.  .",
". !+!+!+!+!+!+!+!+!+!+U.$.^+/+] (+!+!+!+!+!+!+!+!+!+!+!+!+!+!+. ;.",
". _+_+_+_+_+_+_+_+_+:+K /+/+K <+_+!+_+_+_+_+_+_+_+_+_+_+_+_+_+. (.",
". [+[+[+[+[+[+[+_+}+] { { { |+[+[+[+[+[+_+[+[+[+[+[+[+[+[+[+(+x.9.",
". [+[+[+[+[+[+[+[+[+[+[+[+[+[+[+[+[+[+1+[+[+[+[+[+[+[+[+[+[+`.K.l.",
". 1+1+1+1+1+1+1+1+1+1+1+1+1+1+1+1+1+1+1+1+1+1+1+1+1+1+1+1+[+x.y.y.",
". 2+2+2+2+2+2+2+2+2+2+2+2+2+2+2+2+2+2+2+2+2+2+2+2+2+2+}+3+x.J.J.J.",
". . . . . . . . . . . . . . . . . . . . . . . . . . . x.K.L.L.L.L.",
"M.M.M.M.M.M.M.M.M.M.M.M.M.M.M.M.M.M.M.M.M.M.M.M.M.M.M.M.M.M.M.M.M.",
"N.N.N.N.N.N.N.N.N.N.N.N.N.N.N.N.N.N.N.N.N.N.N.N.N.N.N.N.N.N.N.N.N.",
"O.O.O.O.O.O.O.O.O.O.O.O.O.O.O.O.O.O.O.O.O.O.O.O.O.O.O.O.O.O.O.O.O.",
"P.P.P.P.P.P.P.P.P.P.P.P.P.P.P.P.P.P.P.P.P.P.P.P.P.P.P.P.P.P.P.P.P.",
"Q.Q.Q.Q.Q.Q.Q.Q.Q.Q.Q.Q.Q.Q.Q.Q.Q.Q.Q.Q.Q.Q.Q.Q.Q.Q.Q.Q.Q.Q.Q.Q.Q."};
