/* XPM */
static char * depthO_xpm[] = {
"24 44 83 1",
" 	c None",
".	c #6A6B6C",
"+	c #F3F4F4",
"@	c #EDEEEE",
"#	c #EAEBEC",
"$	c #DEE0E1",
"%	c #E8E9E9",
"&	c #DADCDD",
"*	c #E5E6E7",
"=	c #D6D8D9",
"-	c #E3E4E5",
";	c #D2D4D6",
">	c #A7A9AF",
",	c #A7ABAE",
"'	c #CFD1D3",
")	c #E0E2E3",
"!	c #CED1D2",
"~	c #CCCECF",
"{	c #A0A3A9",
"]	c #5C5F6D",
"^	c #636571",
"/	c #CCCFD0",
"(	c #DFE1E1",
"_	c #CACDCE",
":	c #C6C9CA",
"<	c #858589",
"[	c #929292",
"}	c #C8CACB",
"|	c #6A6C78",
"1	c #A5A5A5",
"2	c #A8ADAF",
"3	c #8B8E95",
"4	c #6C6E7A",
"5	c #B7B7B7",
"6	c #A9ADB0",
"7	c #CACCCE",
"8	c #AAAFB1",
"9	c #B1B1B5",
"0	c #CACACA",
"a	c #ADB1B3",
"b	c #5E616D",
"c	c #747682",
"d	c #5D606E",
"e	c #8C9097",
"f	c #CBCECF",
"g	c #ABB0B2",
"h	c #0370E4",
"i	c #0078E6",
"j	c #0180E9",
"k	c #0286EE",
"l	c #60696F",
"m	c #6A7276",
"n	c #6D7579",
"o	c #71797C",
"p	c #72787F",
"q	c #777F82",
"r	c #757C80",
"s	c #788083",
"t	c #7C8386",
"u	c #6B7178",
"v	c #6D727A",
"w	c #575A68",
"x	c #7F8689",
"y	c #838A8D",
"z	c #80878A",
"A	c #575A69",
"B	c #666874",
"C	c #878E91",
"D	c #757B82",
"E	c #8B9194",
"F	c #8B8F95",
"G	c #8E9597",
"H	c #5B5E6C",
"I	c #727581",
"J	c #797E86",
"K	c #92989B",
"L	c #919799",
"M	c #969C9E",
"N	c #999FA1",
"O	c #9DA3A5",
"P	c #A1A6A8",
"Q	c #048BF6",
"R	c #078EFE",
".+@@@@@@@@@@@@@@@@@@@@+.",
".#$$$$$$$$$$$$$$$$$$$$#.",
".%&&&&&&&&&&&&&&&&&&&&%.",
".*====================*.",
".-;;;;;;;;;>,';;;;;;;;-.",
".)!!!!!!~{]^^]{!/~!!!!(.",
".$______:]<[[<]}~_____$.",
".&::::::{|1111|{}}::::&.",
"._22,222345555432222667.",
"._22828,,]907ab,828262}.",
".728888883bccde28822227.",
".f888888882ee28288888g_.",
"._8a8a8a88a8a88a88a8ag/.",
".~a8a8a88a8a8aaa8a8a2a/.",
".f88aaa8aaaaaaaaaaaaaa~.",
".)~!!~~!'~~~~!~~///~!~$.",
"........................",
"hhhhhhhhhhhhhhhhhhhhhhhh",
"iiiiiiiiiiiiiiiiiiiiiiii",
"jjjjjjjjjjjjjjjjjjjjjjjj",
"kkkkkkkkkkkkkkkkkkkkkkkk",
"llllllllllllllll^^lblllb",
".mmmmmmmmmmmmmnnmmmmnnm.",
".nnnnnnnnnnnnnnonnnnnnn.",
".oooooooooooooooooooooo.",
".opqqpqppqpqpppprrrrrrr.",
".qqqsstsqqquopsssssssss.",
".ttttttttvwd^wntttttttt.",
".xyxxyxxzw<[[<Azzzzzxzz.",
".yyyyyyypB1111Boyyyyyyy.",
".CCCCCCCD|5555moCCCCCCC.",
".EEEEEEEF]900abEEEEEEEE.",
".GGGGGGGGsHIIHJGGGGGGGG.",
".KKKKKKKKKKstLLLKKKKKKK.",
".MMMMMMMMMMMMMNMMMMMMMM.",
".NNNNNNNONNNNNNNNNNNNNN.",
".OOOOOOOOOOOOOOOOOOOOOO.",
".1PPPPPPPPPPPPPPPPPPPPP.",
"........................",
"iiiiiiiiiiiiiiiiiiiiiiii",
"jjjjjjjjjjjjjjjjjjjjjjjj",
"kkkkkkkkkkkkkkkkkkkkkkkk",
"QQQQQQQQQQQQQQQQQQQQQQQQ",
"RRRRRRRRRRRRRRRRRRRRRRRR"};
