/* XPM */
static char *depthI[] = {
/* columns rows colors chars-per-pixel */
"24 44 87 1",
"  c #57575A5A6868",
". c #57575A5A6969",
"X c #59595D5D6B6B",
"o c #5A5A5D5D6B6B",
"O c #5B5B5E5E6C6C",
"+ c #5E5E61616D6D",
"@ c #6A6A6B6B6C6C",
"# c #6F6F6F6F6F6F",
"$ c #616163637070",
"% c #666668687474",
"& c #68686A6A7676",
"* c #69696B6B7777",
"= c #68686E6E7575",
"- c #6A6A6C6C7878",
"; c #6A6A6F6F7878",
": c #6A6A72727676",
"> c #6A6A70707878",
", c #6B6B71717878",
"< c #6D6D72727A7A",
"1 c #6D6D75757979",
"2 c #717179797C7C",
"3 c #727278787F7F",
"4 c #73737B7B7E7E",
"5 c #74747B7B7F7F",
"6 c #717173738080",
"7 c #727275758181",
"8 c #75757B7B8282",
"9 c #75757C7C8080",
"0 c #76767D7D8181",
"q c #77777E7E8282",
"w c #77777F7F8282",
"e c #79797E7E8686",
"r c #787880808383",
"t c #7A7A81818484",
"y c #7B7B82828585",
"u c #7C7C83838686",
"i c #7C7C81818888",
"p c #7F7F86868989",
"a c #808087878A8A",
"s c #858585858989",
"d c #83838A8A8D8D",
"f c #87878E8E9191",
"g c #88888D8D9393",
"h c #8A8A90909393",
"j c #8B8B91919494",
"k c #8E8E95959797",
"l c #8E8E91919999",
"z c #929292929292",
"x c #919197979999",
"c c #929298989B9B",
"v c #959598989F9F",
"b c #96969C9C9E9E",
"n c #99999F9FA1A1",
"m c #9D9DA3A3A5A5",
"M c #A5A5A5A5A5A5",
"N c #A1A1A6A6A8A8",
"B c #A4A4A9A9ABAB",
"V c #A8A8ADADAFAF",
"C c #A9A9ADADB0B0",
"Z c #AAAAAEAEB0B0",
"A c #AAAAAFAFB1B1",
"S c #ABABB0B0B2B2",
"D c #ACACB0B0B2B2",
"F c #ADADB1B1B3B3",
"G c #ADADB2B2B4B4",
"H c #B1B1B1B1B5B5",
"J c #B1B1B5B5B7B7",
"K c #B7B7B7B7B7B7",
"L c #B5B5B9B9BBBB",
"P c #B7B7BBBBBDBD",
"I c #BEBEC1C1C3C3",
"U c #C4C4C7C7C9C9",
"Y c #C6C6C9C9CACA",
"T c #CACACACACACA",
"R c #CACACDCDCECE",
"E c #CBCBCECED0D0",
"W c #CCCCCFCFD0D0",
"Q c #CECED1D1D2D2",
"! c #D2D2D4D4D6D6",
"~ c #D523D523D61C",
"^ c #D6D6D8D8D9D9",
"/ c #DADADCDCDDDD",
"( c #DEDEE0E0E1E1",
") c #E3E3E4E4E5E5",
"_ c #E676E676E715",
"` c #EDEDEEEEEEEE",
"' c #F4F4F4F4F502",
/* pixels */
"@`))))))))))))))))))))`@",
"@(EEEEEEEEEEEEEEEEEEEE(@",
"@/UUUUUUUUUUUUUUUUUUUU/@",
"@^IIIIIIIIIIIIIIIIIIII^@",
"@!PPPPPPPPPvvPPPPPPPPP!@",
"@QJJJJJJJlX+$XlJJJJJJJQ@",
"@RAAAAAAAXszzsXAAAAAAAR@",
"@YBBBBBBg%MMMM%gBBBBBBY@",
"@V444444=*KKKK**444944A@",
"@A9500994XHTTFX9999994A@",
"@A0000000;X66X;w909999A@",
"@A00w0r0w00;;0ww0ewww0A@",
"@At0trrrtwrrrrrrerrrtwA@",
"@AttttttttttttttrrruttF@",
"@FuutututuuuututuuuuuuF@",
"@QFFFGGGFFFFGGGGAAJAFFE@",
"@@@@@@@@@@@@@@@@@@@@@@@@",
"_______________)_____)__",
"~~~~~~~~~~~~~~~~~~~~~~~~",
"~~~~~~~~~~~~~~~~~~~~~~~~",
"''''''''''''''''''''''''",
"########################",
"@:::::::::::::::1::::::@",
"@1111111111111111111111@",
"@2222522222222522424252@",
"@5q555555q5q55555555555@",
"@rrrrrrrqqq;<qrrrrrrrrr@",
"@uuuuuuuu<XO+ <uuuuuuuu@",
"@aaaaaaapXszzsXpaaaaaaa@",
"@ddddddd3%MMMM%5ddddddd@",
"@fffffff9-KKKK=0ffffffg@",
"@jjjjjjjgXHTTHOjjjjjjjj@",
"@xxkxkkkkeO77Oekxkkxkkk@",
"@ccccccccccuuxccccxxxxx@",
"@bbbbbbbbbbbbbbbbbbbnvb@",
"@nnbnnnnbnnnnnnnnnnnnnn@",
"@mmmmmmmmmmmmmmmmmmmmmm@",
"@NNNNNNNNNNNNNNNNNNNNNN@",
"@@@@@@@@@@@@@@@@@@@@@@@@",
"_______________)________",
"~~~~~~~~~~~~~~~~~~~~~~~~",
"~~~~~~~~~~~~~~~~~~~~~~~~",
"''''''''''''''''''''''''",
"########################"
};
