/* XPM */
static char * depthA_xpm[] = {
"24 44 77 1",
" 	c None",
".	c #6A6B6C",
"+	c #EDEEEE",
"@	c #E3E4E5",
"#	c #DEE0E1",
"$	c #CBCED0",
"%	c #DADCDD",
"&	c #C4C7C9",
"*	c #D6D8D9",
"=	c #BEC1C3",
"-	c #D2D4D6",
";	c #B7BBBD",
">	c #95989F",
",	c #CED1D2",
"'	c #B1B5B7",
")	c #8E9199",
"!	c #595D6B",
"~	c #5E616D",
"{	c #616370",
"]	c #CACDCE",
"^	c #AAAFB1",
"/	c #858589",
"(	c #929292",
"_	c #C6C9CA",
":	c #A4A9AB",
"<	c #888D93",
"[	c #666874",
"}	c #A5A5A5",
"|	c #A8ADAF",
"1	c #737B7E",
"2	c #686E75",
"3	c #696B77",
"4	c #B7B7B7",
"5	c #757C80",
"6	c #747B7F",
"7	c #767D81",
"8	c #B1B1B5",
"9	c #CACACA",
"0	c #ADB1B3",
"a	c #6A6F78",
"b	c #717380",
"c	c #777F82",
"d	c #788083",
"e	c #797E86",
"f	c #7A8184",
"g	c #7C8386",
"h	c #ADB2B4",
"i	c #0370E4",
"j	c #0078E6",
"k	c #0180E9",
"l	c #0286EE",
"m	c #60696F",
"n	c #6A7276",
"o	c #6D7579",
"p	c #71797C",
"q	c #7B8285",
"r	c #6D727A",
"s	c #5B5E6C",
"t	c #575A68",
"u	c #80878A",
"v	c #838A8D",
"w	c #72787F",
"x	c #878E91",
"y	c #8A9093",
"z	c #6A6C78",
"A	c #8B9194",
"B	c #8E9597",
"C	c #727581",
"D	c #919799",
"E	c #92989B",
"F	c #7C8188",
"G	c #969C9E",
"H	c #999FA1",
"I	c #9DA3A5",
"J	c #A1A6A8",
"K	c #048BF6",
"L	c #078EFE",
".+@@@@@@@@@@@@@@@@@@@@+.",
".#$$$$$$$$$$$$$$$$$$$$#.",
".%&&&&&&&&&&&&&&&&&&&&%.",
".*====================*.",
".-;;;;;;;;;>>;;;;;;;;;-.",
".,''''''')!~{!)''''''',.",
".]^^^^^^^!/((/!^^^^^^^].",
"._::::::<[}}}}[<::::::_.",
".|11111123444433111511^.",
".^5677551!8990!5555551^.",
".^7777777a!bb!ac575555^.",
".^77c7d7c77aa7cc7eccc7^.",
".^f7fdddfcddddddedddfc^.",
".^ffffffffffffffdddgff0.",
".0ggfgfgfggggfgfgggggg0.",
".,000hhh0000hhhh^^'^00$.",
"........................",
"iiiiiiiiiiiiiiiiiiiiiiii",
"jjjjjjjjjjjjjjjjjjjjjjjj",
"kkkkkkkkkkkkkkkkkkkkkkkk",
"llllllllllllllllllllllll",
"mmmmmmmmmmmmmmmmmmmmmmmm",
".nnnnnnnnnnnnnnnnnnnnnn.",
".oooooooooooooopooooooo.",
".pppp6ppppp6ppppp6ppppp.",
".6666666666666666666666.",
".dddddqddd6ardddddddqdd.",
".ggggggggr!s~trgggggggg.",
".uuuuuuuu!/((/!uuuuuuuu.",
".vvvvvvvw[}}}}[wvvvvvvv.",
".xxxxx<y5z444425xx<yxxx.",
".AAAAAAA<!8998~<AAAAAAA.",
".BBBBBBBBfsCCseBBBBBBBB.",
".DEDEEEEEDDFFDEEEEEEEEE.",
".GGGGGGGGGGGGGGGGGGGGGG.",
".HHHHHHHHHHHHHHHHHHGHHH.",
".IIIIIIIIIIIIIIIIIIIIII.",
".JJJJJJJJJJJJJJJJJJJJJJ.",
"........................",
"jjjjjjjjjjjjjjjjjjjjjjjj",
"kkkkkkkkkkkkkkkkkkkkkkkk",
"llllllllllllllllllllllll",
"KKKKKKKKKKKKKKKKKKKKKKKK",
"LLLLLLLLLLLLLLLLLLLLLLLL"};
