/* XPM */
static char *hideI[] = {
/* columns rows colors chars-per-pixel */
"24 44 100 2",
"   c #535356566666",
".  c #6A6A6B6B6C6C",
"X  c #6F6F6F6F6F6F",
"o  c #6A6A72727676",
"O  c #6D6D75757979",
"+  c #736E745A755B",
"@  c #740174ED75EE",
"#  c #7561764B774C",
"$  c #75CA76B377B4",
"%  c #717179797C7C",
"&  c #73737B7B7E7E",
"*  c #75757C7C8080",
"=  c #76767D7D8181",
"-  c #77777E7E8282",
";  c #787880808383",
":  c #7A7A81818484",
">  c #7B7B82828585",
",  c #7C7C83838686",
"<  c #7D7D84848787",
"1  c #808086868989",
"2  c #808087878A8A",
"3  c #83838A8A8D8D",
"4  c #8BF58CB48DB5",
"5  c gray55",
"6  c #8D428E008F01",
"7  c #87878E8E9191",
"8  c #8B8B91919494",
"9  c #8E8E95959797",
"0  c #941E9840986D",
"q  c #909096969898",
"w  c #919197979999",
"e  c #929298989B9B",
"r  c #97D299929B72",
"t  c #97289AF89BF9",
"y  c #97539BF99DE8",
"u  c #96969C9C9E9E",
"i  c #989898989898",
"p  c #999F9FA4A1A6",
"a  c #9D9DA3A3A5A5",
"s  c #A03EA3F6A5E4",
"d  c #A5A5A5A5A5A5",
"f  c #A60CA60CA7A7",
"g  c #A60CA6A6A7A7",
"h  c #A1A1A6A6A8A8",
"j  c #A4A4A9A9ABAB",
"k  c #A5B4A984AB79",
"l  c #A5DBA9DBABDC",
"z  c #A75AAB2AAD1F",
"x  c #A8A8ADADAFAF",
"c  c #A9A9ADADB0B0",
"v  c #AAAAAEAEB0B0",
"b  c #AAAAAFAFB1B1",
"n  c #ABABB0B0B2B2",
"m  c #ACACB0B0B2B2",
"M  c #ADADB1B1B3B3",
"N  c #ADADB2B2B4B4",
"B  c #B1B1B5B5B7B7",
"V  c #B7B7BBBBBDBD",
"C  c #BEBEC1C1C3C3",
"Z  c #C54AC54AC60E",
"A  c #C758C758C81C",
"S  c #C4C4C7C7C9C9",
"D  c #C6C6C9C9CACA",
"F  c #CACACDCDCECE",
"G  c #CBCBCECED0D0",
"H  c #CCCCCFCFD0D0",
"J  c #CECED1D1D2D2",
"K  c #D2D2D4D4D6D6",
"L  c #D523D523D61C",
"P  c #D6C8D6C8D7C9",
"I  c #D7D7D7D7D7D7",
"U  c #D7E5D7E5D8E6",
"Y  c #D6D6D8D8D9D9",
"T  c #D94FD94FDA47",
"R  c #D9D9D9D9DADA",
"E  c #DCC3DCC3DD9F",
"W  c #DADADCDCDDDD",
"Q  c #DEDEE0E0E1E1",
"!  c #E10DE10DE1E9",
"~  c #E1EFE1EFE2AA",
"^  c #E2E7E2E7E3A2",
"/  c gray89",
"(  c #E452E452E50C",
")  c #E3E3E4E4E5E5",
"_  c #E52BE52BE5D2",
"`  c #E675E675E716",
"'  c #EA6EEA6EEB15",
"]  c #ECB7ECB7ED56",
"[  c #EDECEDECEE8C",
"{  c #EE9DEE9DEF3C",
"}  c #EDEDEEEEEEEE",
"|  c #EFD3EFD3F072",
" . c #F0F5F0F5F10A",
".. c #F250F250F258",
"X. c #F386F386F38E",
"o. c #F436F436F4C4",
"O. c #F4F9F4F9F507",
"+. c #F6AAF6AAF6AA",
"@. c #F7E9F7E9F7E9",
"#. c #F915F915F915",
/* pixels */
"} ) ) ) ) ) ) ) _ _ ) ) ) ) ) ) ) ) ) ) ) } . #.",
"Q G G G G G G G H F G G G G G G G G G G G Q . @.",
"W S S S S           D           S S S S D W . o.",
"Y C C C C    . . .  C    . . .  C C C C C R . o.",
"K V V V V   /       V       /   V V V V V K . o.",
"J B B B B   I   B B B B B   I   B B B B B J . o.",
"F b b b b       b b b b b       b b b b b F .  .",
"D j j j j j j j j j j j j j j j j j j j j D .  .",
"x & & & &       & & & & &       & & & & & z . | ",
"b & * * &   d   = & & - &   g   * * * = = b . } ",
"b = = = =   i       -       i   = = = = = b . } ",
"b - - = -   5 5 5   -   5 5 5   - = - = = b . ] ",
"b - - - -           -           - - - , , l @ ] ",
"b , , - > , > , - , > > - > > - - , , - q r 5 ` ",
"N , , , , , , - , , , , , , > > , - 2 e l $ Z / ",
"H N N N b N b B N N b N b B b B N N z t $ d ) R ",
". . . . . . . . . . . . . . . . . . $ 5 Z / R I ",
"` ` _ _ ` ` ` / ` _ _ / ` _ _ _ ` ` _ / R I I I ",
"I L L L I L L L I L K L I I K L L K K I L L I K ",
"L L L L L L I P L I I L L K I I L L K I K I K I ",
"X.X.o.o.o.o.+.o.X.o.o.+.o.o.o.o.X.o.o.o.o.o.o.o.",
"X X X X X X X X . X X X X X X X X X X X X X X X ",
"o o o o o o o o o o o o o o o o o o o o o o . #.",
"O O O O O O O O O O O O O O O O O O O O @ O . @.",
"& % % % %           &           % & & & % & . @.",
"= & - - &    . . .  =    . . .  & = & = * * . o.",
"- - - - -   _       -       /   - - - - - - . O.",
", , , , ,   I   , , , , ,   I   , , , , , , . O.",
"2 2 2 < 2       < 2 2 2 <       2 2 2 2 < < .  .",
"3 3 3 3 3 3 3 3 3 3 3 3 3 3 3 3 3 3 3 3 3 3 . X.",
"7 7 4 7 8       7 7 7 7 8       7 7 8 7 7 7 . } ",
"8 8 8 8 8   g   8 8 8 8 8   d   8 8 8 8 8 8 . } ",
"9 9 9 9 9   t       9       i   9 9 9 9 9 9 . } ",
"e e e e 9   5 5 5   e   4 5 5   e e e e e e . } ",
"u u u u u           u           t u u u u u @ ' ",
"u a u a a u a u a u a u u a u a a u a u u r 5 _ ",
"a a s a a a a a a s s s a a a a a a a a a $ A / ",
"s s s s s s j s s s s s a s j s h h s u @ d / Y ",
"X . . . o . . . o X . . . . . . . . @ 4 Z / I I ",
"` ` ` ` ` ` ` ` ` ` ` ` ` ` ` ` _ _ _ Q W I I I ",
"L L L L L L L L K K L L L L L L L L L L L L L L ",
"L L L L L L L L I K L L L L L L L L L L L L L L ",
"O.O.O.O.O.O.O.O.O.O.O.O.O.O.O.O.O.O.O.O.O.O.O.O.",
"X X X X X X X X X X X X X X X X X X X X X X X X "
};
