/* XPM */
static char * hideA_xpm[] = {
"24 44 84 1",
" 	c None",
".	c #EDEEEE",
"+	c #E3E4E5",
"@	c #6A6B6C",
"#	c #0A188B",
"$	c #DEE0E1",
"%	c #CBCED0",
"&	c #CACDCE",
"*	c #CCCFD0",
"=	c #091B93",
"-	c #DADCDD",
";	c #C4C7C9",
">	c #535666",
",	c #D6D8D9",
"'	c #BEC1C3",
")	c #F0F0F0",
"!	c #D7D7D7",
"~	c #D2D4D6",
"{	c #B7BBBD",
"]	c #E3E3E3",
"^	c #061F9D",
"/	c #CED1D2",
"(	c #B1B5B7",
"_	c #ADB2B4",
":	c #0324A7",
"<	c #AAAFB1",
"[	c #0129AF",
"}	c #C6C9CA",
"|	c #A4A9AB",
"1	c #012FB6",
"2	c #A8ADAF",
"3	c #737B7E",
"4	c #757C80",
"5	c #0337BB",
"6	c #A5A5A5",
"7	c #777E82",
"8	c #767D81",
"9	c #023DBE",
"0	c #989898",
"a	c #0146C3",
"b	c #8C8C8C",
"c	c #014DCA",
"d	c #788083",
"e	c #7D8487",
"f	c #9AA5AC",
"g	c #616D76",
"h	c #0054D0",
"i	c #7C8386",
"j	c #7A8184",
"k	c #909698",
"l	c #7B8F9D",
"m	c #547892",
"n	c #005CD6",
"o	c #838A8D",
"p	c #92989B",
"q	c #616F79",
"r	c #0063DB",
"s	c #ADB1B3",
"t	c #9CA7AE",
"u	c #7B919E",
"v	c #0368DF",
"w	c #547A94",
"x	c #0370E4",
"y	c #0078E6",
"z	c #0180E9",
"A	c #0286EE",
"B	c #048BF6",
"C	c #60696F",
"D	c #6A7276",
"E	c #6D7579",
"F	c #71797C",
"G	c #80878A",
"H	c #878E91",
"I	c #8B9194",
"J	c #8E9597",
"K	c #969C9E",
"L	c #86959E",
"M	c #999FA1",
"N	c #6D899B",
"O	c #9DA3A5",
"P	c #A1A6A8",
"Q	c #909EA7",
"R	c #708DA0",
"S	c #078EFE",
".++++++++++++++++++++.@#",
"$%%%%%%%&&****%%%%%%*$@=",
"-;;;;>>>>>;>>>>>;;;;;-@#",
",''''>)).>;>)))>'''''!@=",
"~{{{{>]>>>{>>>]>{{{{{~@^",
"/((((>!>(((((>!>(_(((*@:",
"&<<<<>>><<<<<>>><<<<<*@[",
"}||||||||||||||||||||}@1",
"23333>>>33333>>>33343<@5",
"<3443>6>73383>6>44444<@9",
"<8887>0>>>7>>>0>48444<@a",
"<7787>bbb>7>bbb>77777<@c",
"<77dd>>>>>7>>>>>7777efgh",
"<ii7jjjd7i7ijijj7e7iklmn",
"_iiiiiiiiiiiiiii7iop|qrr",
"*___<_____<_<_s___tuqvvv",
"@@@@@@@@@@@@@@@@@@qwxxxx",
"yyyyyyyyyyyyyyyyyyyyyyyy",
"zzzzzzzzzzzzzzzzzzzzzzzz",
"AAAAAAAAAAAAAAAAAAAAAAAA",
"BBBBBBBBBBBBBBBBBBBBBBBB",
"CCCCCCCCCCCCCCCCCCCCCCCC",
"DDDDDDDDDDDDDDDDDDDDDD@^",
"EEEEEEEEEEEEEEEEEEEEEE@:",
"FF33F>>>>>3>>>>>FFF3F3@#",
"44873>)))>3>)))>383833@=",
"77777>]>>>d>>>+>dddddd@^",
"iiiii>!>iiiii>!>iiiiii@:",
"GGGGG>>>GGGGG>>>GGGGGG@[",
"oooooooooooooooooooooo@1",
"HHHHH>>>HHHHH>>>HHHHHH@5",
"IIIII>6>IIIII>6>IIIIII@9",
"JJJJJ>0>>>J>>>0>JJJJJJ@a",
"ppppp>bbb>p>bbb>pppppp@c",
"KKKKK>>>>>K>>>>>KKKKKLqh",
"MMMMMMMMMMMMMMMMMMMMMNmn",
"OOOOOOOOOOOOOOOOOOOOMqrr",
"PPPPPPPPPPPPPPPPPPQRqvvv",
"@@@@@@@@@@@@@@@@@@qwxxxx",
"yyyyyyyyyyyyyyyyyyyyyyyy",
"zzzzzzzzzzzzzzzzzzzzzzzz",
"AAAAAAAAAAAAAAAAAAAAAAAA",
"BBBBBBBBBBBBBBBBBBBBBBBB",
"SSSSSSSSSSSSSSSSSSSSSSSS"};
