/* XPM */
static char * hideO_xpm[] = {
"24 44 80 1",
" 	c None",
".	c #F3F4F4",
"+	c #EDEEEE",
"@	c #6A6B6C",
"#	c #0A188B",
"$	c #EAEBEC",
"%	c #DEE0E1",
"&	c #091B93",
"*	c #E8E9E9",
"=	c #DADCDD",
"-	c #535666",
";	c #DBDDDE",
">	c #E5E6E7",
",	c #D6D8D9",
"'	c #F0F0F0",
")	c #D7D7D7",
"!	c #E3E4E5",
"~	c #D2D4D6",
"{	c #E3E3E3",
"]	c #061F9D",
"^	c #CED1D2",
"/	c #CACCCE",
"(	c #CCCFD0",
"_	c #0324A7",
":	c #CACDCE",
"<	c #CCCECF",
"[	c #C9CCCE",
"}	c #0129AF",
"|	c #C6C9CA",
"1	c #012FB6",
"2	c #A8ADAF",
"3	c #0337BB",
"4	c #A5A5A5",
"5	c #AAAFB1",
"6	c #023DBE",
"7	c #989898",
"8	c #0146C3",
"9	c #ABB0B2",
"0	c #8C8C8C",
"a	c #014DCA",
"b	c #ADB1B3",
"c	c #BAC0C4",
"d	c #616E77",
"e	c #0054D0",
"f	c #B9BDBE",
"g	c #90A0A9",
"h	c #547892",
"i	c #005CD6",
"j	c #B0B4B5",
"k	c #C2C5C6",
"l	c #63717A",
"m	c #0063DB",
"n	c #0368DF",
"o	c #616F79",
"p	c #547A94",
"q	c #0370E4",
"r	c #0078E6",
"s	c #0180E9",
"t	c #0286EE",
"u	c #048BF6",
"v	c #60696F",
"w	c #6A7276",
"x	c #6D7579",
"y	c #71797C",
"z	c #757C80",
"A	c #7C8386",
"B	c #80878A",
"C	c #838A8D",
"D	c #878E91",
"E	c #8B9194",
"F	c #8E9597",
"G	c #92989B",
"H	c #969C9E",
"I	c #86959E",
"J	c #989FA2",
"K	c #9DA3A5",
"L	c #6D899B",
"M	c #A1A6A8",
"N	c #708DA0",
"O	c #078EFE",
".++++++++++++++++++++.@#",
"$%%%%%%%%%%%%%%%%%%%%$@&",
"*====-----=-----;;===*@#",
">,,,,-'''-)-'''-,,)),>@&",
"!~~~~-{---~---{-~~~~~!@]",
"{^^^^-)-^/^^^-)-((^^/!@_",
"%::::---<<<<<---/([:(%@}",
"=|||||||||||||||[||||=@1",
":2222---22222---22222[@3",
":2222-4-52255-4-52522(@6",
"/5225-7---5---7-25252(@8",
"/5559-000-5-000-55522(@a",
"/b999-----5-----55b5bcde",
"(b99999955b55b555b5bfghi",
"/9bbbbbbj5j5j5j5jjjcklmm",
"{(/^^/^//^/^^<^<//cglnnn",
"@@@@@@@@@@@@@@@@@@opqqqq",
"rrrrrrrrrrrrrrrrrrrrrrrr",
"ssssssssssssssssssssssss",
"tttttttttttttttttttttttt",
"uuuuuuuuuuuuuuuuuuuuuuuu",
"vvvvvvvvvvvvvvvvvvvvvvvv",
"wwwwwwwwwwwwwwwwwwwwww@_",
"xxxxxxxxxxxxxxxxxxxxxx@}",
"yyyyy-----y-----yyyyyy@#",
"zzzzz-''+-z-'''-zzzzzz@&",
"zAzAz-{---A---{-AzzAzA@]",
"AAAAA-)-AAAAA-)-AAAAAA@_",
"BBBBB---BBBBB---BBBBBB@}",
"CCCCCCCCCCCCCCCCCCCCCC@1",
"DDDDD---DDDDD---DDDDDD@3",
"EEEEE-4-EEEEE-4-EEEEEE@6",
"FFFFF-7---F---7-EFFFFF@8",
"GGGGG-000-H-000-HHGGGG@a",
"HHHHH-----H-----HHHHHIde",
"JJJKKHKHHJJHKHKHHJJJHLhi",
"KKKKKKKKKKKKKKKKKKKKJdmm",
"MMMMMMMMMMMMMMMMMMgNonnn",
"@@@@@@@@@@@@@@@@@@dpqqqq",
"rrrrrrrrrrrrrrrrrrrrrrrr",
"ssssssssssssssssssssssss",
"tttttttttttttttttttttttt",
"uuuuuuuuuuuuuuuuuuuuuuuu",
"OOOOOOOOOOOOOOOOOOOOOOOO"};
