/* XPM */
static char *maximizeI[] = {
/* columns rows colors chars-per-pixel */
"23 44 60 1",
"  c #535356566666",
". c #6A6A6B6B6C6C",
"X c #6F6F6F6F6F6F",
"o c #6A6A72727676",
"O c #6D6D75757979",
"+ c #717178787C7C",
"@ c #74747C7C7F7F",
"# c #75757C7C8080",
"$ c #75757D7D8080",
"% c #77777E7E8181",
"& c #78787F7F8383",
"* c #797981818484",
"= c #7B7B82828585",
"- c #7C7C83838686",
"; c #808086868A8A",
": c #83838A8A8D8D",
"> c #87878D8D9090",
", c #8B8B91919494",
"< c #8E8E94949797",
"1 c #909090909090",
"2 c #929298989B9B",
"3 c #96969B9B9E9E",
"4 c gray62",
"5 c #99999F9FA1A1",
"6 c #9D9DA2A2A5A5",
"7 c #A1A1A6A6A8A8",
"8 c #A5A5A9A9ACAC",
"9 c gray67",
"0 c #A8A8ADADAFAF",
"q c #A9A9AEAEB0B0",
"w c #AAAAAFAFB0B0",
"e c #AAAAAFAFB2B2",
"r c #ABABAFAFB2B2",
"t c #ABABB0B0B2B2",
"y c #ADADB1B1B3B3",
"u c #ADADB2B2B4B4",
"i c #AEAEB2B2B4B4",
"p c #B1B1B5B5B7B7",
"a c #B7B7BBBBBDBD",
"s c #B9B9B9B9B9B9",
"d c #BEBEC1C1C3C3",
"f c gray78",
"g c #C4C4C7C7C9C9",
"h c #C7C7C9C9CBCB",
"j c #CACACDCDCFCF",
"k c #CBCBCECED0D0",
"l c #CCCCCFCFD0D0",
"z c #CECED1D1D2D2",
"x c #D2D2D4D4D6D6",
"c c gray83",
"v c #D523D523D61D",
"b c #D6D6D8D8D9D9",
"n c #DADADCDCDDDD",
"m c #DEDEE0E0E1E1",
"M c #E2E2E2E2E2E2",
"N c #E3E3E4E4E5E5",
"B c #E676E676E715",
"V c #EDEDEEEEEEEE",
"C c gray94",
"Z c #F4F4F4F4F502",
/* pixels */
".VNNNNNNNNNNNNNNNNNNNNV",
".mkkkkkkkjkkkkkkkkkkkkm",
".nggggggggghggggggggggn",
".bddddd          dddddb",
".xaaaaa CCCCCCCC aaaaax",
".zppppp MMMMMMMM pppppz",
".jeeeee c      c 000ttk",
".h88888 f 8888 f 80888h",
".0@@@@@ s @@@@ s @@$$$0",
".e@@@@% 9 %@@% 9 $$$$$0",
".0%%@%* 4      4 %%%%%e",
".r&&*%* 11111111 &&&&%t",
".r&&=**          *****t",
".i--==================i",
".r------=---------==--i",
".ziiiiiiiiiiiiiiiiiiiik",
".......................",
"BBBBBBBBBBBBBBBBBBBBBBB",
"vvvvvvvvvvvvcvvvvvxcccc",
"vvvvvvvvvvvvvvvcvvvcvvv",
"ZZZZZZZZZZZZZZZZZZZZZZZ",
"XXXXXXXXXXXXXXXXXoXXXXX",
".oooooooooOoooooooooooo",
".OOOOOOOOOOOOOOOOOOOOOO",
".++++++++++++++++++++++",
".######          #####%",
".&&&&&& CCCCCCCC &&&%&&",
".------ MMMMMMMM ------",
".;;;;;; c      c ;;;;;;",
".:::::: f :::: f ::::::",
".>>>>>> s >>>> s >>>>>>",
".,,,,,, 9 ,,,, 9 ,,,,,,",
".<<<<<< 4      4 <<<<<<",
".222222 11111111 222222",
".333333          333333",
".5555555555555555555555",
".6666666666666666666666",
".7777777777777777777777",
".......................",
"BBBBBBBBBBBBBBBBBBBBBBB",
"vvvvvvvvvvvvvvvvvvvvvvv",
"vvvvvvvvvvvvvvvvvvvvvvv",
"ZZZZZZZZZZZZZZZZZZZZZZZ",
"XXXXXXXXXXXXXXXXXXXXXXX"
};
