/* XPM */
static char * maximizeA_xpm[] = {
"23 44 58 1",
" 	c None",
".	c #6A6B6C",
"+	c #EDEEEE",
"@	c #E3E4E5",
"#	c #DEE0E1",
"$	c #CBCED0",
"%	c #CACDCF",
"&	c #DADCDD",
"*	c #C4C7C9",
"=	c #C7C9CB",
"-	c #D6D8D9",
";	c #BEC1C3",
">	c #535666",
",	c #D2D4D6",
"'	c #B7BBBD",
")	c #F0F0F0",
"!	c #CED1D2",
"~	c #B1B5B7",
"{	c #E2E2E2",
"]	c #AAAFB2",
"^	c #D4D4D4",
"/	c #A8ADAF",
"(	c #ABB0B2",
"_	c #A5A9AC",
":	c #C7C7C7",
"<	c #747C7F",
"[	c #B9B9B9",
"}	c #757D80",
"|	c #777E81",
"1	c #ABABAB",
"2	c #798184",
"3	c #9E9E9E",
"4	c #ABAFB2",
"5	c #787F83",
"6	c #909090",
"7	c #7B8285",
"8	c #AEB2B4",
"9	c #7C8386",
"0	c #0370E4",
"a	c #0078E6",
"b	c #0180E9",
"c	c #0286EE",
"d	c #60696F",
"e	c #6A7276",
"f	c #6D7579",
"g	c #71787C",
"h	c #757C80",
"i	c #80868A",
"j	c #838A8D",
"k	c #878D90",
"l	c #8B9194",
"m	c #8E9497",
"n	c #92989B",
"o	c #969B9E",
"p	c #999FA1",
"q	c #A1A6A8",
"r	c #048BF7",
"s	c #078EFE",
".+@@@@@@@@@@@@@@@@@@@@+",
".#$$$$$$$%$$$$$$$$$$$$#",
".&*********=**********&",
".-;;;;;>>>>>>>>>>;;;;;-",
".,'''''>))))))))>''''',",
".!~~~~~>{{{{{{{{>~~~~~!",
".%]]]]]>^>>>>>>^>///(($",
".=_____>:>____>:>_/___=",
"./<<<<<>[><<<<>[><<}}}/",
".]<<<<|>1>|<<|>1>}}}}}/",
"./||<|2>3>>>>>>3>|||||]",
".4552|2>66666666>5555|(",
".455722>>>>>>>>>>22222(",
".8997777777777777777778",
".4999999799999999977998",
".!88888888888888888888$",
".......................",
"00000000000000000000000",
"aaaaaaaaaaaaaaaaaaaaaaa",
"bbbbbbbbbbbbbbbbbbbbbbb",
"ccccccccccccccccccccccc",
"ddddddddddddddddddddddd",
".eeeeeeeeeeeeeeeeeeeeee",
".ffffffffffffffffffffff",
".ggggggggggggggggggggg<",
".hhhhhh>>>>>>>>>>hh<<<<",
".555555>))))))))>555555",
".999999>{{{{{{{{>999999",
".iiiiii>^>>>>>>^>iiiiii",
".jjjjjj>:>jjjj>:>jjjjjj",
".kkkkkk>[>kkkk>[>kkkkkj",
".llllll>1>llll>1>llllll",
".mmmmmm>3>>>>>>3>mmmmmm",
".nnnnnn>66666666>nnnnnn",
".ooopop>>>>>>>>>>oopooo",
".pppppopopppppppppppppp",
".ppqpqpqppppppqpppqpppp",
"._qqqqqq___q_q__q__q___",
".......................",
"aaaaaaaaaaaaaaaaaaaaaaa",
"bbbbbbbbbbbbbbbbbbbbbbb",
"ccccccccccccccccccccccc",
"rrrrrrrrrrrrrrrrrrrrrrr",
"sssssssssssssssssssssss"};
