/* XPM */
static char * maximizeO_xpm[] = {
"23 44 58 1",
" 	c None",
".	c #6A6B6C",
"+	c #F3F4F4",
"@	c #EDEEEE",
"#	c #F0F0F0",
"$	c #EAEBEC",
"%	c #DEE0E1",
"&	c #E8E9E9",
"*	c #DADCDD",
"=	c #E5E6E7",
"-	c #D6D8D9",
";	c #535666",
">	c #E3E4E5",
",	c #D2D4D6",
"'	c #D4D4D4",
")	c #E0E2E3",
"!	c #CED1D2",
"~	c #E2E2E2",
"{	c #CCCFD0",
"]	c #DFE1E1",
"^	c #CACDCF",
"/	c #C9CCCD",
"(	c #DCDDDE",
"_	c #C7C9CB",
":	c #C7C7C7",
"<	c #A8ADAF",
"[	c #B9B9B9",
"}	c #AAAFB0",
"|	c #ABABAB",
"1	c #ABB0B2",
"2	c #A9AEB0",
"3	c #9E9E9E",
"4	c #ABAFB2",
"5	c #909090",
"6	c #ADB2B4",
"7	c #CCCECF",
"8	c #0272E5",
"9	c #0078E6",
"0	c #0180E9",
"a	c #0286EE",
"b	c #60696F",
"c	c #6A7276",
"d	c #6D7579",
"e	c #71787C",
"f	c #757C80",
"g	c #7C8386",
"h	c #80868A",
"i	c #838A8D",
"j	c #878D90",
"k	c #8B9194",
"l	c #8E9497",
"m	c #92989B",
"n	c #999FA1",
"o	c #969B9E",
"p	c #9DA2A5",
"q	c #A1A6A8",
"r	c #048BF6",
"s	c #078EFE",
".+@@@@@@#$#$#@@@@@@@@@+",
".$%%%%%%%%%%%%%%%%%%%%$",
".&********************&",
".=-----;;;;;;;;;;-----=",
".>,,,,,;########;',,,,=",
".)!!!!!;~~~~~~~~;{!!!!]",
".%^^^^^;';;;;;;';{//{/%",
".(_____;:;____;:;_____*",
".^<<<<<;[;<<<<;[;<<<<</",
".^<<}}};|;<}}};|;<1<22/",
".^<1}}};3;;;;;;3;11<1}^",
".^44444;55555555;11<11^",
".^4461};;;;;;;;;;44411{",
".764466664644666446666^",
".746666666666666666666{",
".)7!77!777!{77!777!7{{%",
".......................",
"88888888888888888888888",
"99999999999999999999999",
"00000000000000000000000",
"aaaaaaaaaaaaaaaaaaaaaaa",
"bbbbbbbbbbbbbbbbbbbbbbb",
".cccccccccccccccccccccc",
".dddddddddddddddddddddd",
".eeeeeeeeeeeeeeeeeeeeed",
".efefff;;;;;;;;;;ffegee",
".geggeg;########;ggfgfg",
".hhgggg;~~~~~~~~;gggggg",
".hhhhhh;';;;;;;';hhhhhh",
".iiiiii;:;iiii;:;iiiiii",
".jijjij;[;iiij;[;iijiki",
".lkklkl;|;lkll;|;kllkkl",
".llllll;3;;;;;;3;llllll",
".mmmmmm;55555555;mmmmmm",
"bnooooo;;;;;;;;;;oooooo",
".n33nnn3nnnnnnnnnn3pnnn",
".pppppppppppppppqppqpqp",
".qqqqqqqqqqqppqqqqpqpqp",
".......................",
"99999999999999999999999",
"00000000000000000000000",
"aaaaaaaaaaaaaaaaaaaaaaa",
"rrrrrrrrrrrrrrrrrrrrrrr",
"sssssssssssssssssssssss"};
