/* XPM */
static char *menuButtonA[] = {
/* columns rows colors chars-per-pixel */
"24 44 102 2",
"   c #535356566666",
".  c #606069786F51",
"X  c #6A6A6B6B6C6C",
"o  c #61A76DE676D7",
"O  c #61A76E8F7796",
"+  c #614F6FA379CD",
"@  c #61BB6F697931",
"#  c #61BB6F977961",
"$  c #6A6A72727676",
"%  c #6D6D75757979",
"&  c #717179797C7C",
"*  c #73737B7B7E7E",
"=  c #541578F192E7",
"-  c #54157A8094B9",
";  c #75757C7C8080",
":  c #76767D7D8181",
">  c #77777E7E8282",
",  c #00008F8FF1F1",
"<  c #00009191F401",
"1  c #00009393F6E8",
"2  c #05B09789F566",
"3  c #00009595F8F8",
"4  c #000097A5FB08",
"5  c #09099577F46D",
"6  c #25259E28F238",
"7  c #2525A34EF83A",
"8  c #4EE88855B0E3",
"9  c #4EE888EFB0E3",
"0  c #6D2189E49B15",
"q  c #787880808383",
"w  c #7A7A81818484",
"e  c #7B7B82828585",
"r  c #7C7C83838686",
"t  c #7D7D84848787",
"y  c #70708DE8A018",
"u  c #7B3C8F0A9D65",
"i  c #7B3C914E9EEA",
"p  c #53D79E39D222",
"a  c #53D7A055D44D",
"s  c #4545AB0EF21F",
"d  c #4646AE6CF5CD",
"f  c #4646AFE1F74C",
"g  c #4545B0E9F95E",
"h  c #5959B2E1F246",
"j  c #5959B96AFA14",
"k  c #6161A85DE2D5",
"l  c #6161A989E401",
"z  c #6161AAC7E540",
"x  c #6161AC06E67E",
"c  c #6161AD44E7BD",
"v  c #6161AE83E904",
"b  c #6161AFC1EAD0",
"n  c #6161B0F7EC17",
"m  c #6161B1A8ED56",
"M  c #6161B2DDEE94",
"N  c #6161B41CEFDB",
"B  c #6161B55AF1A8",
"V  c #6161BCD1FA5D",
"C  c #808086868989",
"Z  c #808087878A8A",
"A  c #83838A8A8D8D",
"S  c #87878E8E9191",
"D  c #86B8959D9EBA",
"F  c #8B8B91919494",
"G  c #8E8E95959797",
"H  c #909096969898",
"J  c #919197979999",
"K  c #929298989B9B",
"L  c #96969C9C9E9E",
"P  c #90039E6DA79D",
"I  c #98659F7BA23E",
"U  c #99999F9FA1A1",
"Y  c #9D9DA3A3A5A5",
"T  c #9A57A52AAC09",
"R  c #9C3FA760AE4C",
"E  c #A1A1A6A6A8A8",
"W  c #A4FFA98DABEF",
"Q  c #A4A4A9A9ABAB",
"!  c #A8A8ADADAFAF",
"~  c #A9A9ADADB0B0",
"^  c #AAAAAEAEB0B0",
"/  c #AAAAAFAFB1B1",
"(  c #ABABB0B0B2B2",
")  c #ACACB0B0B2B2",
"_  c #ADADB1B1B3B3",
"`  c #ADADB2B2B4B4",
"'  c #B1B1B5B5B7B7",
"]  c #B7B7BBBBBDBD",
"[  c #BEBEC1C1C3C3",
"{  c #C4C4C7C7C9C9",
"}  c #C6C6C9C9CACA",
"|  c #CACACDCDCECE",
" . c #CBCBCECED0D0",
".. c #CCCCCFCFD0D0",
"X. c #CECED1D1D2D2",
"o. c #D2D2D4D4D6D6",
"O. c #D6D6D8D8D9D9",
"+. c #DADADCDCDDDD",
"@. c #DEDEE0E0E1E1",
"#. c #E3E3E4E4E5E5",
"$. c #EDEDEEEEEEEE",
"%. c gray94",
/* pixels */
"k X $.#.#.#.#.#.#.#.#.#.#.#.#.#.#.#.#.#.#.#.#.$.",
"l X @. . . . . . . . . . . . . . . . . . . . .@.",
"l X +.{ { { { { { { { } { { { { { { { { { { { +.",
"c X O.[ [ [ [ [ [ [ [ [ [ [ [ [ [ [ [ [ [ [ [ O.",
"c X o.] ] ] ] ] ] ] ] ] ] ] ] ] ] ] ] ] ] ] ] o.",
"v X X.' ' ' ' ' ' ' ' ' ' ' ' ' ' ' ' ' ' ' ' X.",
"v X | / / / / / / / / / / / / / / / / / / / / | ",
"m X } Q Q Q Q                         W W W W } ",
"m X / * * * *   %.%.%.%.%.%.%.%.%.%.  * * * * ! ",
"m X / * * * >                         ; * * * / ",
"B X / * > > > * > * > > * > > * * > > > > > * / ",
"B X / > > > > * > > > > w * w w > > > > > > w / ",
"h o T t > > w w > > > w w * > e > > > > w w > / ",
"s = u H > r w w r r w r > r > r r r > r r > w / ",
"6 p @ W K Z r r r r > r t r r > r r t r t r > ` ",
", d 8 @ i R ` ` ` ` ` ` ` ` ` ` ` ` ` ` ` ` `  .",
"< 5 f a - O X X X X X X X X X X X X X X X X X X ",
"1 1 1 7 g j V V V V V V V V V V V V V V V V V V ",
"3 3 3 3 3 3 3 3 3 3 3 3 3 3 3 3 3 3 3 3 3 3 3 3 ",
"4 4 4 4 4 4 4 4 4 4 4 4 4 4 4 4 4 4 4 3 4 4 4 4 ",
"2 2 2 2 2 2 2 2 2 2 2 2 2 2 2 2 2 2 2 2 2 2 2 2 ",
". . . . . . . . . . . . . . . . . . . . . . . . ",
"k X $ $ $ $ $ $ $ $ $ $ $ $ $ $ $ $ $ $ $ $ $ $ ",
"l X % % % % % % % % % % % % % % % % % % % % % % ",
"c X * * * * * & * * * * * % * * * * * * * * * * ",
"c X * * * * ; * * > * * * * * > * * * * * * * * ",
"c X w w w > > w > > > > > > > > > > > > * > w > ",
"c X > t > r r r t t t t t t t t t t t t t t r t ",
"b X Z Z A Z Z Z A t A t t A t A A t A t Z Z Z Z ",
"m X A A A A A A                         A A A A ",
"m X S S S S S S   %.%.%.%.%.%.%.%.%.%.  S S S S ",
"m X F F F F F F                         F F F F ",
"N X G G G G G G G G G G G G G G G G G G G G G G ",
"B X K K K K K K K K K K K K K K K K K K K K K K ",
"h o D L L L L L L L L L L L L L L L L L L L L L ",
"s = 0 U U U U U U U U U U U U U U U U U U U U U ",
"6 p + U Y Y Y Y Y Y Y Y Y Y Y Y Y Y Y Y Y Y Y Y ",
", d 8 + 0 P E Q E E E E E E E E E E E E E E E E ",
"< 5 f a - + X X X X X X X X X X X X X X X X X X ",
"1 1 1 7 g j V V V V V V V V V V V V V V V V V V ",
"3 3 3 3 3 3 3 3 3 3 3 3 3 3 3 3 3 3 3 3 3 3 3 3 ",
"4 4 4 4 4 4 4 4 4 4 4 4 4 4 4 4 4 4 4 4 4 4 4 4 ",
"2 2 2 2 2 2 2 2 2 2 2 2 2 2 2 2 2 2 2 2 2 2 2 2 ",
". . . . . . . . . . . . . . . . . . . . . . . . "
};
