/* XPM */
static char *menuButtonO[] = {
/* columns rows colors chars-per-pixel */
"24 44 102 2",
"   c #535356566666",
".  c #606069786F51",
"X  c #6A6A6B6B6C6C",
"o  c #61A76DE676D7",
"O  c #61A76E8F7796",
"+  c #614F6FA379CD",
"@  c #637E71137A19",
"#  c #6A6A72727676",
"$  c #6D6D75757979",
"%  c #717179797C7C",
"&  c #541578F192E7",
"*  c #54157A8094B9",
"=  c #75757C7C8080",
"-  c #00008F8FF1F1",
";  c #00009191F401",
":  c #00009393F6E8",
">  c #05B09789F566",
",  c #00009595F8F8",
"<  c #000097A5FB08",
"1  c #09099577F46D",
"2  c #25259E28F238",
"3  c #2525A34EF83A",
"4  c #4EE88855B0E3",
"5  c #6D2189E49B15",
"6  c #787880808383",
"7  c #7C7C83838686",
"8  c #70708DE8A018",
"9  c #53D79E39D1E5",
"0  c #53D7A055D410",
"q  c #4545AB0EF21F",
"w  c #4646AE6CF5CD",
"e  c #4646AFE1F74C",
"r  c #4545B0E9F95E",
"t  c #5959B2E1F246",
"y  c #5959B96AFA14",
"u  c #6161A85DE2D5",
"i  c #6161A989E401",
"p  c #6161AAC7E540",
"a  c #6161AC06E67E",
"s  c #6161AD44E7BD",
"d  c #6161AE83E904",
"f  c #6161AFC1EAD0",
"g  c #6161B0F7EC17",
"h  c #6161B1A8ED56",
"j  c #6161B2DDEE94",
"k  c #6161B41CEFDB",
"l  c #6161B55AF1A8",
"z  c #6161BCD1FA5D",
"x  c #808087878A8A",
"c  c #83838A8A8D8D",
"v  c #87878E8E9191",
"b  c #86B8959D9EBA",
"n  c #8B8B91919494",
"m  c #8E8E95959797",
"M  c #929298989B9B",
"N  c #96969C9C9E9E",
"B  c #90039E6DA79D",
"V  c #98659F7BA23E",
"C  c #9099A076A9A1",
"Z  c #99999F9FA1A1",
"A  c #9099A0D6AB02",
"S  c #9D9DA3A3A5A5",
"D  c #A1A1A6A6A8A8",
"F  c #A8A8ADADAFAF",
"G  c #A9A9ADADB0B0",
"H  c #AAAAAEAEB0B0",
"J  c #AAAAAFAFB1B1",
"K  c #ABABB0B0B2B2",
"L  c #ACACB0B0B2B2",
"P  c #ADADB1B1B3B3",
"I  c #AEAEB3B3B5B5",
"U  c #B0B0B4B4B5B5",
"Y  c #B9B9BDBDBEBE",
"T  c #BABABEBEBFBF",
"R  c #B8C2BF05C30C",
"E  c #BAB4C02EC43D",
"W  c #C2FEC58DC6EF",
"Q  c #C6C6C9C9CACA",
"!  c #C9C9CCCCCDCD",
"~  c #C9C9CCCCCECE",
"^  c #CACACCCCCECE",
"/  c #CACACDCDCECE",
"(  c #CACACECECFCF",
")  c #CBCBCECECFCF",
"_  c #CCCCCECECFCF",
"`  c #CCCCCFCFD0D0",
"'  c #CECED1D1D2D2",
"]  c #D2D2D4D4D6D6",
"[  c #D6D6D8D8D9D9",
"{  c #DADADCDCDDDD",
"}  c #DBDBDDDDDEDE",
"|  c #DEDEE0E0E0E0",
" . c #DEDEE0E0E1E1",
".. c #DFDFE1E1E1E1",
"X. c #E0E0E2E2E3E3",
"o. c #E3E3E4E4E5E5",
"O. c #E5E5E6E6E7E7",
"+. c #E8E8E9E9E9E9",
"@. c #EAEAEBEBECEC",
"#. c #EDEDEEEEEEEE",
"$. c gray94",
"%. c #F3F3F4F4F4F4",
/* pixels */
"u X %.#.#.#.#.#.#.#.#.#.#.#.#.#.#.#.#.#.#.#.#.%.",
"i X @. . . . . ...} ..| | | | | |  . . . . . .@.",
"i X +.{ { { { { { { { { { { { { { { } { { { { +.",
"s X O.[ [ [ [ [ [ [ [ [ [ [ [ [ [ [ [ [ [ [ [ O.",
"s X O.] ] ] ] ] ] ] ] ] ] ] ] ] ] ] ] ] ] ] [ o.",
"d X ..' ' ' ' ' ' ' ' ' ' ' ' ' ] ` ] ` ' ' ` ..",
"d X  ./ / / / / _ ! ^ _ _ ^ ^ ^ ! ^ ^ ^ / / /  .",
"h X { Q Q Q Q Q                         Q Q Q { ",
"h X / F F F F F   $.$.$.$.$.$.$.$.$.$.  F F F ! ",
"h X / F F J J F                         F F F ! ",
"l X / F J F J J H H J F J J J J H H J H J J J _ ",
"l X ` F J J J J H H H H J J J J J J J J J J F _ ",
"t o E I J J J P P P P J I J J P J J P J I J J ` ",
"q & A T P J J P P H H P P J P H H P P P J J J ` ",
"2 9 + W T U P J P P P P P P P P P P P P I J I ` ",
"- w 4 + A E ' _ ` ` ` ` ` ` ` ` ` ` ` ` ` ` ^  .",
"; 1 e 0 * + X X X X X X X X X X X X X X X X X X ",
": : : 3 r y z z z z z z z z z z z z z z z z z z ",
", , , , , , , , , , , , , , , , , , , , , , , , ",
"< < < < < < < < < < < < < < < < < < < < < < < < ",
"> > > > > > > > > > > > > > > > 1 > > > > > > > ",
". . . . . . . . . . . . . . . . . . . . . . . . ",
"u X # # # # # # # # # # # # # # # # # # # # # # ",
"u X $ $ $ $ $ $ $ $ $ $ $ $ $ $ $ $ $ $ $ $ $ $ ",
"i X % % % % % % % % % % % % % % % % % % % % % % ",
"s X = = = = = = = = = = = = = = = = = = = = = = ",
"d X 6 6 6 6 6 6 7 = = 7 6 6 6 6 6 6 7 = = 7 = 7 ",
"d X 7 7 7 7 7 7 7 7 7 7 7 7 7 7 7 7 7 7 7 7 7 7 ",
"g X x x x c 7 c x x x x c c 7 7 7 7 c 7 x x x x ",
"h X c c 7 c c c                         c c c c ",
"h X v v v v n v   $.$.$.%.$.$.$.$.%.%.  v v v v ",
"h X n n n n n n                         n n n n ",
"l X m m m m m m m m m m m m m m m m m m m m m m ",
"l X M M M M M M M M M M M M M M M M M M M M M M ",
"t o b N N N N N N N N N N N N N N N N N N N N N ",
"q & 5 Z Z Z Z Z Z Z Z Z Z Z Z Z Z Z Z Z Z Z Z Z ",
"2 9 + Z S S S S S S S S S S S S S S S S S S S S ",
"- w 4 + 8 B D D D D D D D D D D D D D D D D D D ",
"; 1 e 0 * o X X X X X X X X X X X X X X X X X X ",
": : : 3 r y z z z z z z z z z z z z z z z z z z ",
", , , , , , , , , , , , , , , , , , , , , , , , ",
"< < < < < < < < < < < < < < < < < < < < < < < < ",
"> > > > > > > > > > > > > > > > > > > > > > > > ",
". . . . . . . . . . . . . . . . . . . . . . . . "
};
