/* XPM */
static char * minimizeA_xpm[] = {
"23 44 58 1",
" 	c None",
".	c #6A6B6C",
"+	c #EDEEEE",
"@	c #E3E4E5",
"#	c #DEE0E1",
"$	c #CBCED0",
"%	c #DADCDD",
"&	c #C4C7C9",
"*	c #D6D8D9",
"=	c #BEC1C3",
"-	c #D2D4D6",
";	c #B7BBBD",
">	c #CED1D2",
",	c #B1B5B7",
"'	c #CACDCF",
")	c #AAAFB2",
"!	c #A8ADAF",
"~	c #ABAFB2",
"{	c #AAAFB0",
"]	c #C7C9CB",
"^	c #A5A9AC",
"/	c #747C7F",
"(	c #535666",
"_	c #787F83",
":	c #777E81",
"<	c #788083",
"[	c #F0F0F0",
"}	c #B7B7B7",
"|	c #AEB2B4",
"1	c #7B8285",
"2	c #798184",
"3	c #7C8386",
"4	c #0368DF",
"5	c #0370E4",
"6	c #0078E6",
"7	c #0180E9",
"8	c #60696F",
"9	c #6A7276",
"0	c #6D7579",
"a	c #71797C",
"b	c #71787C",
"c	c #80868A",
"d	c #80878A",
"e	c #838A8D",
"f	c #878E91",
"g	c #878D90",
"h	c #8B9194",
"i	c #8E9597",
"j	c #8E9497",
"k	c #92989B",
"l	c #969C9E",
"m	c #969B9E",
"n	c #9DA2A5",
"o	c #9DA3A5",
"p	c #999FA1",
"q	c #A1A6A8",
"r	c #0286EE",
"s	c #048BF6",
".+@@@@@@@@@@@@@@@@@@@@+",
".#$$$$$$$$$$$$$$$$$$$$#",
".%&&&&&&&&&&&&&&&&&&&&%",
".*=========&==========*",
".-;;;;;;;;;;;;;;;;;;;;-",
".>,,,,,,,,,,,,,,,,,,,,>",
".'))))))!!~!~~{!))))))'",
".]^^^^^^^^!^^^^^^^^^^^]",
".!////////////////////)",
".)/////((((((((((/_///)",
".!::/_<([[[[[[[[(__/</!",
".~__<<<(}}}}}}}}(_____|",
".~__122((((((((((__222!",
".|33111133111111313311|",
".~33333333333333333311|",
".>||||||~,~,~,~,||||||$",
".......................",
"44444444444444444444444",
"55555555555555555555555",
"66666666666666666666666",
"77777777777777777777777",
"88888888888888888888888",
".9999999999999999999999",
".0000000000000000000000",
".aaaa/baaaa/aabbbbbbaaa",
".//_/////_/////_///////",
".______________________",
".133333133311333_cc11c3",
".dddddddedddccccccccddd",
".eeeeeeeeeeeeeeeeeeeeee",
".fffffffggggehggggggefe",
".hhhhhh((((((((((hhhhhi",
".iiiiii(+[[[[[[[(jjjjjj",
".kkkkkk(}}}}}}}}(kkkkkk",
".llllll((((((((((mllmmm",
".nlnnlnllnlnlollppplppp",
".nooooooooooooooooooooo",
".qqqqqqqqqqqqqqqqqqqqqq",
".......................",
"55555555555555555555555",
"66666666666666666666666",
"77777777777777777777777",
"rrrrrrrrrrrrrrrrrrrrrrr",
"sssssssssssssssssssssss"};
