/* XPM */
static char * minimizeO_xpm[] = {
"23 44 58 1",
" 	c None",
".	c #6A6B6C",
"+	c #F3F4F4",
"@	c #EDEEEE",
"#	c #F0F0F0",
"$	c #EAEBEC",
"%	c #DEE0E1",
"&	c #DFE1E1",
"*	c #DCDDDE",
"=	c #E8E9E9",
"-	c #DADCDD",
";	c #E5E6E7",
">	c #D6D8D9",
",	c #E3E4E5",
"'	c #D2D4D6",
")	c #E0E2E3",
"!	c #CED1D2",
"~	c #CACDCF",
"{	c #C7C9CB",
"]	c #A8ADAF",
"^	c #AAAFB0",
"/	c #535666",
"(	c #ABB0B2",
"_	c #ABAFB2",
":	c #B7B7B7",
"<	c #CACECF",
"[	c #ADB2B4",
"}	c #CCCECF",
"|	c #0063DB",
"1	c #0368DF",
"2	c #0370E4",
"3	c #0078E6",
"4	c #60696F",
"5	c #6A7276",
"6	c #6D7579",
"7	c #71787C",
"8	c #71797C",
"9	c #757C80",
"0	c #787F83",
"a	c #7C8386",
"b	c #80878A",
"c	c #838A8D",
"d	c #80868A",
"e	c #878E91",
"f	c #878D90",
"g	c #8B9194",
"h	c #8E9597",
"i	c #8E9497",
"j	c #92989B",
"k	c #969C9E",
"l	c #969B9E",
"m	c #999FA1",
"n	c #9DA3A5",
"o	c #9DA2A5",
"p	c #A1A6A8",
"q	c #0180E9",
"r	c #0286EE",
"s	c #048BF6",
".+@@@@@@@@@@@@@@@@@@#@+",
".$%%%%%%&&&&%*%%%%%%%%@",
".=--------------------=",
".;>>>>>>>>>>>>>>>>>>>>;",
".,'''''''''''''''''''',",
".)!!!!!!!!!!!!!!!!!!!!&",
".%~~~~~~~~~~~~~~~~~~~~%",
".*{{{{{{{{{{{{{{{{{{{{-",
".~]]]]]]]]]]^]]]]]]]]]~",
".~]]^^^//////////(]]^]~",
".~](^^^/########/^(^^^~",
".~_____/::::::::/(_]((<",
".~__[(^//////////____[<",
".}[__[[[[__[[[[[__[[_[}",
".}_[[[[[[[[[[[[[[[[[[[~",
".)}!}}!}}}}!}}}}}!}}<<%",
".......................",
"|||||||||||||||||||||||",
"11111111111111111111111",
"22222222222222222222222",
"33333333333333333333333",
"44444444444444444444444",
".5555555555555555555555",
".6666666666666676666666",
".7888988888888887777888",
".9088099088008089999888",
".8a000000000a0000000aa0",
".aaaaaaaaaaaaaaaaaaaaaa",
".bbbcbbbddddbbddbbbbbbb",
".cccccccccccccccccccccc",
".eeeeeeeeeeefefffffffff",
".gggggg//////////gggggg",
".hhhhhh/########/hhhhih",
".jjjjjj/::::::::/jjjjjj",
".kkkkkk//////////llllkm",
".mmmmmmmmmmmmmmmmmmkkmk",
".nnnnnnnnnnnnnooooooooo",
".pppppppppppppppppppppp",
".......................",
"22222222222222222222222",
"33333333333333333333333",
"qqqqqqqqqqqqqqqqqqqqqqq",
"rrrrrrrrrrrrrrrrrrrrrrr",
"sssssssssssssssssssssss"};
