/* XPM */
static char *minimizeI[] = {
/* columns rows colors chars-per-pixel */
"23 44 61 1",
"  c #535356566666",
". c #6A6A6B6B6C6C",
"X c #6F6F6F6F6F6F",
"o c #6A6A72727676",
"O c #6D6D75757979",
"+ c #717178787C7C",
"@ c #717179797C7C",
"# c #74747C7C7F7F",
"$ c #75757C7C8080",
"% c #75757D7D8080",
"& c #77777E7E8181",
"* c #78787F7F8383",
"= c #787880808383",
"- c #797981818484",
"; c #7B7B82828585",
": c #7C7C83838686",
"> c #808086868A8A",
", c #808087878A8A",
"< c #83838A8A8D8D",
"1 c #87878D8D9090",
"2 c #87878E8E9191",
"3 c #8B8B91919494",
"4 c #8E8E94949797",
"5 c #8E8E95959797",
"6 c #929298989B9B",
"7 c #96969B9B9E9E",
"8 c #96969C9C9E9E",
"9 c #99999F9FA1A1",
"0 c #9D9DA2A2A5A5",
"q c #9D9DA3A3A5A5",
"w c #A1A1A6A6A8A8",
"e c #A5A5A9A9ACAC",
"r c #A8A8ADADAFAF",
"t c #A9A9AEAEB0B0",
"y c #AAAAAFAFB0B0",
"u c #AAAAAFAFB2B2",
"i c #ABABAFAFB2B2",
"p c #ABABB0B0B2B2",
"a c #ADADB1B1B3B3",
"s c #ADADB2B2B4B4",
"d c #AEAEB2B2B4B4",
"f c #B1B1B5B5B7B7",
"g c #B7B7B7B7B7B7",
"h c #B7B7BBBBBDBD",
"j c #BEBEC1C1C3C3",
"k c #C4C4C7C7C9C9",
"l c #C7C7C9C9CBCB",
"z c #CACACDCDCFCF",
"x c #CBCBCECED0D0",
"c c #CCCCCFCFD0D0",
"v c #CECED1D1D2D2",
"b c #D2D2D4D4D6D6",
"n c #D523D523D61D",
"m c #D6D6D8D8D9D9",
"M c #DADADCDCDDDD",
"N c #DEDEE0E0E1E1",
"B c #E3E3E4E4E5E5",
"V c #E676E676E715",
"C c #EDEDEEEEEEEE",
"Z c gray94",
"A c #F4F4F4F4F502",
/* pixels */
".CBBBBBBBBBBBBBBBBBBBBC",
".NxxxxxxxxxxxxxxxxxxxxN",
".MkkkkkkkkkkkkkkkkkkkkM",
".mjjjjjjjjjkjjjjjjjjjjm",
".bhhhhhhhhhhhhhhhhhhhhb",
".vffffffffffffffffffffv",
".zuuuuuurririiyruuuuuuz",
".leeeeeeeereeeeeeeeeeel",
".r####################u",
".u#####          #*###u",
".r&&#*= ZZZZZZZZ **#=#r",
".i**=== gggggggg *****d",
".i**;--          **---r",
".d::;;;;::;;;;;;:;::;;d",
".i::::::::::::::::::;;d",
".vddddddififififddddddx",
".......................",
"VVVVVVVVVVVVVVVVVVVVVVV",
"nnnnnnnnnnnnnnnnnnnnnnn",
"nnnnnnnnnnnnnnnnnnnnnnn",
"AAAAAAAAAAAAAAAAAAAAAAA",
"XXXXXXXXXXXXXXXXXXXXXXX",
".oooooooooooooooooooooo",
".OOOOOOOOOOOOOOOOOOOOOO",
".@@@@#+@@@@#@@++++++@@@",
".##*#####*#####*#######",
".**********************",
".;:::::;:::;;:::*>>;;>:",
".,,,,,,,<,,,>>>>>>>>,,,",
".<<<<<<<<<<<<<<<<<<<<<<",
".22222221111<3111111<2<",
".333333          333335",
".555555 ZZZZZZZZ 555555",
".666686 gggggggg 666666",
".888888          688777",
".0808808808088080808808",
".0qqqqqqqqqqqqqq00000qq",
".wwwwwwwwwwwewwwwwwwwww",
".......................",
"VVVVVVVVVVVVVVVVVVVVVVV",
"nnnnnnnnnnnnnnnnnnnnnnn",
"nnnnnnnnnnnnnnnnnnnnnnn",
"AAAAAAAAAAAAAAAAAAAAAAA",
"XXXXXXXXXXXXXXXXXXXXXXX"
};
