/* XPM */
static char *restoreI[] = {
/* columns rows colors chars-per-pixel */
"23 44 58 1",
"  c #535356566666",
". c #6A6A6B6B6C6C",
"X c #6F6F6F6F6F6F",
"o c #6A6A72727676",
"O c #6D6D75757979",
"+ c #717178787C7C",
"@ c #74747C7C7F7F",
"# c #75757C7C8080",
"$ c #75757D7D8080",
"% c #77777E7E8181",
"& c #78787F7F8383",
"* c #797981818484",
"= c #7B7B82828585",
"- c #7C7C83838686",
"; c #808086868A8A",
": c #83838A8A8D8D",
"> c #87878D8D9090",
", c #8B8B91919494",
"< c #8E8E94949797",
"1 c #929292929292",
"2 c #929298989B9B",
"3 c #96969B9B9E9E",
"4 c #99999F9FA1A1",
"5 c #9D9DA2A2A5A5",
"6 c #A5A5A5A5A5A5",
"7 c #A1A1A6A6A8A8",
"8 c #A5A5A9A9ACAC",
"9 c #A8A8ADADAFAF",
"0 c #A9A9AEAEB0B0",
"q c #AAAAAFAFB0B0",
"w c #AAAAAFAFB2B2",
"e c #ABABAFAFB2B2",
"r c #ABABB0B0B2B2",
"t c #ADADB1B1B3B3",
"y c #ADADB2B2B4B4",
"u c #AEAEB2B2B4B4",
"i c #B1B1B5B5B7B7",
"p c #B7B7B7B7B7B7",
"a c #B7B7BBBBBDBD",
"s c #BEBEC1C1C3C3",
"d c #C4C4C7C7C9C9",
"f c #C7C7C9C9CBCB",
"g c #CACACACACACA",
"h c #CACACDCDCFCF",
"j c #CBCBCECED0D0",
"k c #CCCCCFCFD0D0",
"l c #CECED1D1D2D2",
"z c #D2D2D4D4D6D6",
"x c #D523D523D61D",
"c c #D6D6D8D8D9D9",
"v c #DADADCDCDDDD",
"b c #DDDDDDDDDDDD",
"n c #DEDEE0E0E1E1",
"m c #E3E3E4E4E5E5",
"M c #E676E676E715",
"N c #EDEDEEEEEEEE",
"B c gray94",
"V c #F4F4F4F4F502",
/* pixels */
".NmmmmmmmmmMmmMmmMMmmmN",
".njjjjjjhhhhhhhhhhhhjjn",
".vdddddddddffdddddddfdv",
".csssssssss         ssc",
".zaaaaaaaaa BBBVBBB aaz",
".lii        b     v iil",
".hww BBBBBB g 99r h 99h",
".f88 b      p 888 p 88h",
".9@@ g @@@  6     6 $%9",
".w@@ p @@%  111111, $%9",
".9%% 6              %%9",
".e&& 1111111 &&&&&**%*r",
".e&&         ***&&&*=*9",
".u----==========----==u",
".e--------------------r",
".luuuuuuuuuuuuuuuuuuuuh",
".......................",
"MMMMMMMMMMMMMMMMMMMMMMM",
"xxxxxxxxxxxxxxxxxxxxxxx",
"xxxxxxxxxxxxxxxxxxxxxxx",
"VVVVVVVVVVVVVVVVVVVVVVV",
"XXXXXXXXXXXXXXXXXXXXXXX",
".oooooooooooooooooooooo",
".OOOOOOOOOOOOOOOOOOOOOO",
".++++++++++++++++++@+++",
".@@@@@@@@&@         @@@",
".&&&&&&&&&& BBBBBBB &&&",
".---        b     b ---",
".;;; BBBBBB g ;;; g ;;;",
".::: n      p ::: p :::",
".>>> g >:>  6     6 :,:",
".,,, p 1,,  1111111 ,,<",
".<<< 6              <<<",
".222 1111111 3222322222",
".333         4433333443",
".4444444444434434444343",
".4474745545444554554544",
".8777777878787787787878",
".......................",
"MMMMMMMMMMMMMMMMMMMMMMM",
"xxxxxxxxxxxxxxxxxxxxxxx",
"xxxxxxxxxxxxxxxxxxxxxxx",
"VVVVVVVVVVVVVVVVVVVVVVV",
"XXXXXXXXXXXXXXXXXXXXXXX"
};
