/* XPM */
static char * restoreA_xpm[] = {
"23 44 57 1",
" 	c None",
".	c #6A6B6C",
"+	c #EDEEEE",
"@	c #E3E4E5",
"#	c #DEE0E1",
"$	c #CBCED0",
"%	c #CACDCF",
"&	c #CCCFD0",
"*	c #DADCDD",
"=	c #C4C7C9",
"-	c #C7C9CB",
";	c #D6D8D9",
">	c #BEC1C3",
",	c #535666",
"'	c #D2D4D6",
")	c #B7BBBD",
"!	c #F0F0F0",
"~	c #CED1D2",
"{	c #B1B5B7",
"]	c #DDDDDD",
"^	c #AAAFB2",
"/	c #CACACA",
"(	c #A8ADAF",
"_	c #ADB2B4",
":	c #A5A9AC",
"<	c #B7B7B7",
"[	c #747C7F",
"}	c #A5A5A5",
"|	c #777E81",
"1	c #929292",
"2	c #8E9497",
"3	c #ABAFB2",
"4	c #787F83",
"5	c #798184",
"6	c #7B8285",
"7	c #AEB2B4",
"8	c #7C8386",
"9	c #0370E4",
"0	c #0078E6",
"a	c #0180E9",
"b	c #0286EE",
"c	c #60696F",
"d	c #6A7276",
"e	c #6D7579",
"f	c #71787C",
"g	c #757C80",
"h	c #80868A",
"i	c #838A8D",
"j	c #878D90",
"k	c #8B9194",
"l	c #92989B",
"m	c #969B9E",
"n	c #999FA1",
"o	c #9DA2A5",
"p	c #A1A6A8",
"q	c #048BF6",
"r	c #078EFE",
".+@@@@@@@@@@@@@@@@@@@@+",
".#$$$$$$%%&&$$$$$$$$$$#",
".*========--==========*",
".;>>>>>>>>>,,,,,,,,,>>;",
".'))))))))),!!!!!!!,))'",
".~{{,,,,,,,,#,,,,,],{{~",
".%^^,!!!!!!,/,(((,/,(_$",
".-::,],,,,,,<,:::,<,::-",
".([[,/,[[[,,},,,,,},[[:",
".^[[,<,[[|,,1111122,||(",
".(||,},,,,,,,,,,,,,,||^",
".344,1111111,4444[|55|^",
".344,,,,,,,,,555664655_",
".788886666666666666666_",
".3888888888888886666687",
".~77777777777777{{3{77&",
".......................",
"99999999999999999999999",
"00000000000000000000000",
"aaaaaaaaaaaaaaaaaaaaaaa",
"bbbbbbbbbbbbbbbbbbbbbbb",
"ccccccccccccccccccccccc",
".dddddddddddddddddddddd",
".eeeeeeeeeefeeefeeeeeee",
".[fffffffffffffffffffff",
".gg|gggg[[[,,,,,,,,,[[[",
".[4444448[[,!!!!!!!,6[4",
".888,,,,,,,,#,,,,,],8h8",
".hhh,!!!!!!,/,hhh,/,hhh",
".iii,],,,,,,<,iii,<,iii",
".jjj,/,jik,,},,,,,},iki",
".kkk,<,kkk,,1111111,kkk",
".222,},,,,,,,,,,,,,,222",
".lll,1111111,llllllllll",
".mmm,,,,,,,,,mmmmmmmmmm",
".nnnnnnnnnnnnnnnnnnnnnn",
".oooooooooooooooooooooo",
".pppppppppppppppppppppp",
".......................",
"00000000000000000000000",
"aaaaaaaaaaaaaaaaaaaaaaa",
"bbbbbbbbbbbbbbbbbbbbbbb",
"qqqqqqqqqqqqqqqqqqqqqqq",
"rrrrrrrrrrrrrrrrrrrrrrr"};
