/* XPM */
static char * restoreO_xpm[] = {
"23 44 54 1",
" 	c None",
".	c #6A6B6C",
"+	c #F3F4F4",
"@	c #EDEEEE",
"#	c #EAEBEC",
"$	c #DEE0E1",
"%	c #E8E9E9",
"&	c #DADCDD",
"*	c #E5E6E7",
"=	c #D6D8D9",
"-	c #535666",
";	c #E3E4E5",
">	c #D2D4D6",
",	c #F0F0F0",
"'	c #E0E2E3",
")	c #CED1D2",
"!	c #DDDDDD",
"~	c #DCDDDE",
"{	c #CCCFD0",
"]	c #CACDCF",
"^	c #CACACA",
"/	c #C7C9CB",
"(	c #B7B7B7",
"_	c #A8ADAF",
":	c #A5A5A5",
"<	c #929292",
"[	c #C9CCCE",
"}	c #ABB0B2",
"|	c #ADB2B4",
"1	c #ABAFB2",
"2	c #CCCECF",
"3	c #0370E4",
"4	c #0078E6",
"5	c #0180E9",
"6	c #0286EE",
"7	c #60696F",
"8	c #6A7276",
"9	c #6D7579",
"0	c #71787C",
"a	c #757C80",
"b	c #787F83",
"c	c #7C8386",
"d	c #80868A",
"e	c #838A8D",
"f	c #878D90",
"g	c #8B9194",
"h	c #8E9497",
"i	c #92989B",
"j	c #969B9E",
"k	c #999FA1",
"l	c #9DA2A5",
"m	c #A1A6A8",
"n	c #048BF6",
"o	c #078EFE",
".+@@@@@@@@@@@@@@@@@@@@+",
".#$$$$$$$$$$$$$$$$$$$$#",
".%&&&&&&&&&&&&&&&&&&&&%",
".*=========---------==*",
".;>>>>>>>>>-,,,@,,,->>;",
".'))--------!-----~-{{'",
".$]]-,,,,,,-^-{{{-^-{{$",
".!//-!------(-^^/-(-^/&",
".]__-^-___--:-----:-__{",
".]__-(-___--<<<<<<<-__[",
".]_}-:--------------__^",
".{_}-<<<<<<<-_|_111111{",
".]}}---------||_111111{",
".2||||||||||_||||||||1{",
".2||||||||||||||||||||{",
".')]222222)222)2{{{){{$",
".......................",
"33333333333333333333333",
"44444444444444444444444",
"55555555555555555555555",
"66666666666666666666666",
"77777777777777777777777",
".8888888888888888888888",
".9999999999999999999999",
".0000000000000000000000",
".aaaaaaaaaa---------aaa",
".bbbbbbbbbb-,,,,,,,-bbb",
".ccc--------!-----!-ccc",
".ddd-,,,,,,-^-ddd-^-ddd",
".eee-!------(-eee-(-eee",
".fff-^-fff--:-----:-fff",
".ggg-(-ggg--<<<<<<<-ggg",
".hhh-:--------------hhh",
".iii-<<<<<<<-iiiiiiiiii",
".jjj---------jjjjjjjjjj",
".kkkkkkkkkkkkkkkkkkkkkk",
".llllllllllllllllllllll",
".mmmmmmmmmmmmmmmmmmmmmm",
".......................",
"44444444444444444444444",
"55555555555555555555555",
"66666666666666666666666",
"nnnnnnnnnnnnnnnnnnnnnnn",
"ooooooooooooooooooooooo"};
