/* XPM */
static char *rollupI[] = {
/* columns rows colors chars-per-pixel */
"24 44 132 2",
"   c #535356566666",
".  c #555558586767",
"X  c #555558586868",
"o  c #565659596969",
"O  c #58585C5C6A6A",
"+  c #5A5A5D5D6B6B",
"@  c #5B5B5F5F6C6C",
"#  c #5B5B60606C6C",
"$  c #5F5F63637070",
"%  c #6A6A6B6B6C6C",
"&  c #6F6F6F6F6F6F",
"*  c #606063637070",
"=  c #606064647171",
"-  c #616165657070",
";  c #67676C6C7676",
":  c #69696D6D7878",
">  c #6A6A72727676",
",  c #6D6D75757979",
"<  c #736E745A755B",
"1  c #740174ED75EE",
"2  c #7561764B774C",
"3  c #75CA76B377B4",
"4  c #707078787C7C",
"5  c #717179797C7C",
"6  c #74747C7C7E7E",
"7  c #74747C7C7F7F",
"8  c #727274748080",
"9  c #737375758080",
"0  c #757579798383",
"q  c #75757B7B8282",
"w  c #75757C7C8080",
"e  c #75757D7D8080",
"r  c #77777D7D8282",
"t  c #77777E7E8181",
"y  c #78787F7F8383",
"u  c #79797F7F8383",
"i  c #78787F7F8484",
"p  c #787880808383",
"a  c #797981818484",
"s  c #7B7B82828585",
"d  c #7C7C83838686",
"f  c #7E7E85858888",
"g  c #808087878A8A",
"h  c #818187878A8A",
"j  c #818188888C8C",
"k  c #83838A8A8D8D",
"l  c #8BF58CB48DB5",
"z  c #8D428E008F01",
"x  c #87878E8E9191",
"c  c #89898F8F9292",
"v  c #8C8C8D8D9090",
"b  c #8B8B91919494",
"n  c #8E8E95959797",
"m  c #941E9840986D",
"M  c #909092929A9A",
"N  c #919193939B9B",
"B  c #919197979999",
"V  c #929297979A9A",
"C  c #939397979C9C",
"Z  c #979797979999",
"A  c #929298989B9B",
"S  c #97D29A719C52",
"D  c #96E29B049C05",
"F  c #984C9AEC9BED",
"G  c #95959B9B9E9E",
"H  c #97539BF99DE8",
"J  c #96969C9C9E9E",
"K  c #95959A9AA0A0",
"L  c #99A49FA9A1AB",
"P  c #9D9DA3A3A5A5",
"I  c #A03EA3F6A5E4",
"U  c #A60CA60CA7A7",
"Y  c #A60CA6A6A7A7",
"T  c #A1A1A6A6A8A8",
"R  c #A5DBAADBABDC",
"E  c #A6A8AA78AC6D",
"W  c #A5A5A9A9ACAC",
"Q  c #A75AAC1EAE13",
"!  c #A8A8ADADAFAF",
"~  c #ADADADADAEAE",
"^  c #A9A9AEAEB0B0",
"/  c #AAAAAFAFB0B0",
"(  c #AAAAAFAFB2B2",
")  c #ABABAFAFB2B2",
"_  c #ABABB0B0B2B2",
"`  c #ADADB1B1B3B3",
"'  c #ADADB2B2B4B4",
"]  c #AEAEB2B2B4B4",
"[  c #B2B2B2B2B2B2",
"{  c #B1B1B5B5B7B7",
"}  c #B7B7BBBBBDBD",
"|  c #BEBEC1C1C3C3",
" . c #C54AC54AC60E",
".. c #C6C6C6C6C6C6",
"X. c #C758C758C81C",
"o. c #C4C4C7C7C9C9",
"O. c #C7C7C9C9CBCB",
"+. c #CACACDCDCFCF",
"@. c #CBCBCECED0D0",
"#. c #CCCCCFCFD0D0",
"$. c #CECED1D1D2D2",
"%. c #D2D2D4D4D6D6",
"&. c #D523D523D61C",
"*. c #D6C8D6C8D7C9",
"=. c #D7E5D7E5D8E6",
"-. c #D6D6D8D8D9D9",
";. c #D94FD94FDA47",
":. c #D9D9D9D9DADA",
">. c #DCC3DCC3DD9F",
",. c #DADADCDCDDDD",
"<. c #DEDEE0E0E1E1",
"1. c #E10DE10DE1E9",
"2. c #E1EFE1EFE2AA",
"3. c #E2E7E2E7E3A2",
"4. c #E452E452E50C",
"5. c #E3E3E4E4E5E5",
"6. c #E52BE52BE5D2",
"7. c #E675E675E716",
"8. c #EA6EEA6EEB15",
"9. c #ECB7ECB7ED56",
"0. c #EDECEDECEE8C",
"q. c #EE9DEE9DEF3C",
"w. c #EDEDEEEEEEEE",
"e. c #EFD3EFD3F072",
"r. c #F0F4F0F4F104",
"t. c #F250F250F258",
"y. c #F386F386F38E",
"u. c #F436F436F4C4",
"i. c #F4F9F4F9F507",
"p. c #F6AAF6AAF6AA",
"a. c #F7E9F7E9F7E9",
"s. c #F915F915F915",
/* pixels */
"s.% w.5.5.5.5.5.5.5.5.5.5.5.5.5.5.5.5.5.5.5.5.e.",
"a.% <.@.@.@.@.@.@.@.@.@.@.@.@.@.@.@.@.@.@.@.@.<.",
"a.% :.o.o.o.o.o.o.o.o.X.o.o.o.o.o.o.o.o.o.o.o.,.",
"a.% =.| | | | |                     | | | | | -.",
"i.% $.} } } } }   r.r.r.r.r.r.r.r.  } } } } } %.",
"u.% $.{ ] { { {                     { { { { { $.",
"t.% @.( ( _ _ _ ( ( ) ) K K ) ) ( ( ( ( ( ( ( @.",
"t.% O.W W W W W W W W C o X C W W W W W W W W o.",
"e.% ! w 7 7 7 7 7 7 5 O M M O 4 7 7 7 e e e 5 ! ",
"e.% ! w e e e e e 7 @ 4 ....4 @ 7 e e e e e e ( ",
"e.% ( e u e u u u - * ~ [ [ ~ * - e e u e e r ( ",
"w.% _ r e u u p ; X v Z Z Z Z v . ; u u u p u ( ",
"8.< W f p p p p @                 @ p p u p s ( ",
"7.l S B d d d p u e q u q u q u e u d d s s s ] ",
"<.X.2 W B h d d d d d d d d d d d d d d d d d ] ",
":.5.Y 2 F ! ] ] ] ] ] ] ] ] ] ] ] ] ] ] ] ] ] @.",
"*.:.1.X.l < % % % % % % % % % % % % % % % % % % ",
"*.*.&.>.1.7.7.7.7.7.7.7.7.7.7.7.7.7.7.7.7.7.7.7.",
"&.&.&.&.&.&.&.&.&.&.&.&.&.&.&.&.&.&.&.&.&.&.&.&.",
"&.&.&.&.&.&.&.&.&.&.&.&.&.&.&.%.&.&.&.&.&.&.&.&.",
"a.u.a.y.a.y.u.u.u.u.u.u.u.a.t.a.a.u.a.y.u.u.a.y.",
"& & & & & & & & & & & & & & & & & & & & & & & & ",
"a.% > > > > > > > > > > > > > > > > > > > > > > ",
"a.% , , , , , , , , , , , , , , , , , , , , , , ",
"a.% 5 5 5 5 5 5 5 5 5 5 5 5 4 5 5 5 5 5 5 5 5 5 ",
"y.% e e e q e 7                     e e e q e e ",
"u.% u t p p u t   r.r.r.r.r.r.r.y.  p p u t p p ",
"y.% d d d d d d                     d d d d d d ",
"y.% g f g g g g j h f j 0 0 h j f h f k h h f g ",
"y.% k k k k k k k k k u X X r k k k k k k k k k ",
"q.% x x x x c c c x j + N N + j x x x x x x x x ",
"q.% b b b b b b c c * 4 X.X.4 $ c b b b b b b c ",
"q.% n n n n n n n : * ~ ] [ ~ - : n n n n n n n ",
"9.% B V S B A A q . v Z Z Z Z v X 0 A A A A A A ",
"8.2 J J J J J J $                 $ J S J J J J ",
"7.z B L L L L J G A A A A A A A A S L L L L L L ",
"1.X.2 L P P P P P P P P P P P P P P P P P P P P ",
":.3.U 2 S T T T T T T T T T T T T T T T T T T T ",
":.:.3.X.l < % % % % % % % % % % % % % % % % % % ",
"&.&.*.>.1.7.7.7.7.7.7.7.7.7.7.7.7.7.7.7.7.7.7.7.",
"&.&.&.&.&.&.&.&.&.&.&.&.&.&.&.&.&.&.&.&.&.&.&.&.",
"&.&.&.&.&.&.&.&.&.&.&.&.&.&.&.&.&.&.&.&.&.&.&.&.",
"y.a.a.y.u.u.a.y.a.u.u.u.u.u.a.y.u.a.y.y.y.y.a.y.",
"& & & & & & & & & & & & & & & & & & & & & & & & "
};
