/* XPM */
static char * rolldownA_xpm[] = {
"24 44 108 2",
"  	c None",
". 	c #0A188B",
"+ 	c #6A6B6C",
"@ 	c #EDEEEE",
"# 	c #E3E4E5",
"$ 	c #DEE0E1",
"% 	c #CBCED0",
"& 	c #091B93",
"* 	c #DADCDD",
"= 	c #C4C7C9",
"- 	c #061F9D",
"; 	c #D6D8D9",
"> 	c #BEC1C3",
", 	c #535666",
"' 	c #0324A7",
") 	c #D2D4D6",
"! 	c #B7BBBD",
"~ 	c #F0F0F0",
"{ 	c #0129AF",
"] 	c #CED1D2",
"^ 	c #B1B5B7",
"/ 	c #545767",
"( 	c #545766",
"_ 	c #012FB6",
": 	c #CACDCF",
"< 	c #AAAFB2",
"[ 	c #A5A9AC",
"} 	c #A2A6AB",
"| 	c #A6AAAE",
"1 	c #ABAFB2",
"2 	c #0337BB",
"3 	c #C7C9CB",
"4 	c #636774",
"5 	c #023DBE",
"6 	c #737B7F",
"7 	c #747C7F",
"8 	c #676B76",
"9 	c #7D7E81",
"0 	c #858587",
"a 	c #656A74",
"b 	c #A8ADAF",
"c 	c #0146C3",
"d 	c #767D7F",
"e 	c #606570",
"f 	c #5E606E",
"g 	c #9A9A9B",
"h 	c #9E9E9E",
"i 	c #5A5D6C",
"j 	c #777E81",
"k 	c #014DCA",
"l 	c #787F83",
"m 	c #5B606C",
"n 	c #6F737C",
"o 	c #B2B2B2",
"p 	c #6D6F7B",
"q 	c #788083",
"r 	c #0054D0",
"s 	c #585C6A",
"t 	c #878992",
"u 	c #838A8D",
"v 	c #005CD6",
"w 	c #616D76",
"x 	c #9BA6AC",
"y 	c #7E8588",
"z 	c #7B8285",
"A 	c #71777E",
"B 	c #0063DB",
"C 	c #547892",
"D 	c #7C919E",
"E 	c #919799",
"F 	c #7C8386",
"G 	c #AEB2B4",
"H 	c #0368DF",
"I 	c #616F79",
"J 	c #A4AAAB",
"K 	c #81878A",
"L 	c #7B8286",
"M 	c #0370E4",
"N 	c #9CA8AF",
"O 	c #0078E6",
"P 	c #547A94",
"Q 	c #0180E9",
"R 	c #0286EE",
"S 	c #048BF6",
"T 	c #078EFE",
"U 	c #60696F",
"V 	c #6A7276",
"W 	c #6D7579",
"X 	c #71797C",
"Y 	c #848586",
"Z 	c #878E91",
"` 	c #8C9395",
" .	c #8B9195",
"..	c #99999A",
"+.	c #8B9194",
"@.	c #8E9597",
"#.	c #606371",
"$.	c #92989B",
"%.	c #888E93",
"&.	c #969C9E",
"*.	c #86959E",
"=.	c #555868",
"-.	c #6D899B",
";.	c #9DA3A5",
">.	c #999FA1",
",.	c #989FA2",
"'.	c #A1A6A8",
").	c #8F9EA7",
". + @ # # # # # # # # # # # # # # # # # # # # @ ",
". + $ % % % % % % % % % % % % % % % % % % % % $ ",
"& + * = = = = = = = = = = = = = = = = = = = = * ",
"- + ; > > > > > , , , , , , , , , , > > > > > ; ",
"' + ) ! ! ! ! ! , ~ ~ ~ ~ ~ ~ ~ ~ , ! ! ! ! ! ) ",
"{ + ] ^ ^ ^ ^ ^ , / , , , , ( ( , , ^ ^ ^ ^ ^ ] ",
"_ + : < < < < < [ } } } } } } } } | 1 1 1 1 1 % ",
"2 + 3 [ [ [ [ [ 4 , , , , , ( ( , 4 } [ [ [ [ 3 ",
"5 + < 6 7 7 7 7 8 ( 9 0 0 0 0 9 , a 6 6 7 6 6 b ",
"c + < 7 7 7 7 d 7 e f g h h g i e j 7 j 7 j 7 < ",
"k + b j 7 l l l d 7 m n o o p m 7 q j j j j j < ",
"r + 1 q l l l q l l 6 s t u s 6 l q l q q q j < ",
"v w x y q q q q q z q 6 ( ( A q q q q q z z q < ",
"B C D E F F z F F F z z A A F F F z z y z z z G ",
"H H I J E K F F F y F y F F F F y y F F L F L G ",
"M M M I D N G G 1 G 1 G G G G G 1 1 ^ 1 G G G % ",
"O O O O P w + + + + + + + + + + + + + + + + + + ",
"Q Q Q Q Q Q Q Q Q Q Q Q Q Q Q Q Q Q Q Q Q Q Q Q ",
"R R R R R R R R R R R R R R R R R R R R R R R R ",
"S S S S S S S S S S S S S S S S S S S S S S S S ",
"T T T T T T T T T T T T T T T T T T T T T T T T ",
"e U U U U U U U U U U U U U U U U U U U U U U U ",
"& + V V V V V V V V V V V V V V V V V V V V V V ",
"- + W W W W W W W W W W W W W V W W W W W W W W ",
". + X X X 6 X X A 6 W 6 X X 6 X X 6 X X X X X 6 ",
"& + 7 7 7 7 7 7 , , , , , , , , , , 7 7 7 7 7 7 ",
"- + q q q q l q , ~ ~ ~ @ ~ ~ ~ @ ( q q q q j j ",
"' + y F F F F F , , , , ( , , , , , z z y y y y ",
"{ + K K K K K K Y z z L L z z z F y F K K K K K ",
"_ + K u u u u K i , , , , , , , , f u u u u K u ",
"2 + Z Z Z Z Z Z A , d 0 K 0 0 9 ( n Z Z Z Z Z Z ",
"5 + ` ` Z  . .` ` 8 f ..h h ..f 8  . .` +.+.+.+.",
"c + @.@.@.@.@.@.@.@.#.p o G p #.` @.@.E @.@.@.@.",
"k + $.E E E E $.$.E  .i u t i %.E E E $.$.E E &.",
"r w *.&.&.&.&.&.&.&.&.Z =.=.Z &.&.&.&.$.&.&.&.&.",
"v C -.;.&.;.&.;.;.&.;.&.%.%.>.>.;.&.;.,.,.,.,.>.",
"B B I ,.;.;.;.;.;.;.;.;.'.;.;.;.;.;.;.;.;.;.;.;.",
"H H H I -.).} } '.'.'.'.'.'.'.'.'.'.'.'.'.'.'.'.",
"M M M M P I + + + + + + + + + + + + + + + + + + ",
"O O O O O O O O O O O O O O O O O O O O O O O O ",
"Q Q Q Q Q Q Q Q Q Q Q Q Q Q Q Q Q Q Q Q Q Q Q Q ",
"R R R R R R R R R R R R R R R R R R R R R R R R ",
"S S S S S S S S S S S S S S S S S S S S S S S S ",
"T T T T T T T T T T T T T T T T T T T T T T T T "};
