/* XPM */
static char * rolldownO_xpm[] = {
"24 44 125 2",
"  	c None",
". 	c #0A188B",
"+ 	c #6A6B6C",
"@ 	c #F3F4F4",
"# 	c #EDEEEE",
"$ 	c #091B93",
"% 	c #EAEBEC",
"& 	c #DEE0E1",
"* 	c #E8E9E9",
"= 	c #DADCDD",
"- 	c #DCDDDE",
"; 	c #E5E6E7",
"> 	c #D6D8D9",
", 	c #5A5D6C",
"' 	c #535666",
") 	c #545767",
"! 	c #C9CBCE",
"~ 	c #061F9D",
"{ 	c #E3E4E5",
"] 	c #D2D4D6",
"^ 	c #606371",
"/ 	c #F0F0F0",
"( 	c #6C6E7C",
"_ 	c #C5C7CA",
": 	c #0324A7",
"< 	c #E0E2E3",
"[ 	c #CED1D2",
"} 	c #C2C5C6",
"| 	c #0129AF",
"1 	c #CACDCF",
"2 	c #BEC1C5",
"3 	c #012FB6",
"4 	c #C7C9CB",
"5 	c #757781",
"6 	c #606370",
"7 	c #0337BB",
"8 	c #A8ADAF",
"9 	c #878E91",
"0 	c #797A7F",
"a 	c #858587",
"b 	c #7C7D81",
"c 	c #565968",
"d 	c #787C85",
"e 	c #023DBE",
"f 	c #A9AEAF",
"g 	c #AAAFB0",
"h 	c #797D87",
"i 	c #979799",
"j 	c #9E9E9E",
"k 	c #646673",
"l 	c #0146C3",
"m 	c #ABAFB2",
"n 	c #6D6F7B",
"o 	c #676976",
"p 	c #ADB1B3",
"q 	c #B2B2B2",
"r 	c #5F6170",
"s 	c #A4A9AA",
"t 	c #CACECF",
"u 	c #014DCA",
"v 	c #A5A9AD",
"w 	c #616472",
"x 	c #7C7E88",
"y 	c #92939B",
"z 	c #585B6A",
"A 	c #9DA2A6",
"B 	c #0054D0",
"C 	c #616D76",
"D 	c #B8BFC4",
"E 	c #AEB3B5",
"F 	c #9DA3A5",
"G 	c #92989B",
"H 	c #005CD6",
"I 	c #547892",
"J 	c #90A0AA",
"K 	c #BABEBF",
"L 	c #94989E",
"M 	c #CCCECF",
"N 	c #0063DB",
"O 	c #63717A",
"P 	c #B0B5B6",
"Q 	c #ADB2B4",
"R 	c #0368DF",
"S 	c #4E88B0",
"T 	c #BAC1C5",
"U 	c #CCCFD0",
"V 	c #0370E4",
"W 	c #6D899B",
"X 	c #616E77",
"Y 	c #0078E6",
"Z 	c #0180E9",
"` 	c #0286EE",
" .	c #048BF6",
"..	c #60696F",
"+.	c #5D616E",
"@.	c #6D7579",
"#.	c #6A7276",
"$.	c #71797C",
"%.	c #757C80",
"&.	c #788083",
"*.	c #7B8286",
"=.	c #7C8386",
"-.	c #7D8488",
";.	c #838A8D",
">.	c #80878A",
",.	c #555868",
"'.	c #848586",
").	c #6F737C",
"!.	c #888E93",
"~.	c #8C9395",
"{.	c #8E9597",
"].	c #676B76",
"^.	c #99999A",
"/.	c #6C6F7A",
"(.	c #878992",
"_.	c #8B9195",
":.	c #86959E",
"<.	c #969C9E",
"[.	c #999FA1",
"}.	c #616F79",
"|.	c #989FA2",
"1.	c #8F9EA7",
"2.	c #A1A6A8",
"3.	c #547A94",
"4.	c #078EFE",
". + @ # # # # # # # # # # # # # # # # # # # # @ ",
"$ + % & & & & & & & & & & & & & & & & & & & & % ",
". + * = = = = = - - = = = = = = = = = = = = = * ",
"$ + ; > > > > > , ' ' ' ) ' ' ' ' ' ! > > > > ; ",
"~ + { ] ] ] ] ] ^ # / / / / / / / ( _ ] ] ] ] ; ",
": + < [ [ [ [ [ , ' ) ' ' ' ' ) ' ' } [ [ [ [ < ",
"| + & 1 1 1 1 1 _ 2 2 2 2 2 2 2 2 _ 1 1 1 1 1 & ",
"3 + - 4 4 4 4 4 5 ' ' ' ' ' ) ) ' 6 _ 4 4 4 4 - ",
"7 + 1 8 8 8 8 8 9 ) 0 a a a a b c d 8 8 8 8 8 1 ",
"e + 1 f 8 g g 8 f h , i j j j k ( 8 f 8 f f 8 1 ",
"l + 1 f g g g g m f n o p q 5 r s 8 f p f m f t ",
"u + 1 m m m m m m m v w x y z A f p m m m m f 1 ",
"B C D E m m p m m m m F z ) G m p m m m m p f 1 ",
"H I J K p p p p p p p p F L p m p p p p p p E M ",
"N N O } D P p Q Q p Q p m E p E p p E p p E E t ",
"R R S O J T U U [ t [ t [ 1 U U U [ t [ [ t t & ",
"V V V V W X + + + + + + + + + + + + + + + + + + ",
"Y Y Y Y Y Y Y Y Y Y Y Y Y Y Y Y Y Y Y Y Y Y Y Y ",
"Z Z Z Z Z Z Z Z Z Z Z Z Z Z Z Z Z Z Z Z Z Z Z Z ",
"` ` ` ` ` ` ` ` ` ` ` ` ` ` ` ` ` ` ` ` ` ` ` ` ",
" . . . . . . . . . . . . . . . . . . . . . . . .",
"C r ..+...+.....r ......r r ......C ............",
"| + @.#.#.#.#.#.#.#.@.@.#.#.#.#.#.#.#.#.#.#.#.#.",
"3 + @.@.@.@.@.@.@.@.@.@.@.@.@.@.#.$.#.$.#.$.#.@.",
". + $.$.$.$.$.$.$.$.$.$.$.$.$.$.$.$.$.$.$.$.$.$.",
"$ + %.%.%.%.%.%.' ' ' ' ' ' ' ' ) ) %.%.%.%.$.0 ",
"~ + &.&.&.&.&.&.' / / / / / / / / ' &.&.*.&.&.&.",
": + =.=.=.=.=.=.' ' ' ' ' ' ' ' ' ' =.=.=.=.=.=.",
"| + -.-.-.;.-.;.=.=.*.*.*.*.=.=.*.=.-.>.>.>.>.>.",
"3 + ;.;.;.;.;.;.+.) ' ' ' ' ' ,.' +.;.;.;.;.;.;.",
"7 + ;.9 9 ;.9 9 n ,.0 '.'.'.a 0 ,.).!.!.9 9 9 9 ",
"e + ~.~.~.~.~.~.{.].+.^.j j ^.+.].9 ~.~.~.9 {.{.",
"l + {.{.{.{.{.{.{.~.w n q q /.r ~.{.{.{.{.{.{.{.",
"u + G ^.G G G G G G ~.z (.(., _.G G G G G G G G ",
"B X :.<.<.<.<.<.<.<.<.;.,.c 9 <.<.<.<.<.<.<.<.<.",
"H I W [.<.F <.F <.F <.F 9 9 <.F [.[.[.[.[.[.[.[.",
"N N }.|.F F F F F F F F A A F F F F F F F F F F ",
"R R R }.W 1.2.2.2.2.2.2.2.2.2.2.2.2.2.2.2.2.2.s ",
"V V V V 3.O + + + + + + + + + + + + + + + + + + ",
"Y Y Y Y Y Y Y Y Y Y Y Y Y Y Y Y Y Y Y Y Y Y Y Y ",
"Z Z Z Z Z Z Z Z Z Z Z Z Z Z Z Z Z Z Z Z Z Z Z Z ",
"` ` ` ` ` ` ` ` ` ` ` ` ` ` ` ` ` ` ` ` ` ` ` ` ",
" . . . . . . . . . . . . . . . . . . . . . . . .",
"4.4.4.4.4.4.4.4.4.4.4.4.4.4.4.4.4.4.4.4.4.4.4.4."};
