/* XPM */
static char * rollupO_xpm[] = {
"24 44 108 2",
"  	c None",
". 	c #0A188B",
"+ 	c #6A6B6C",
"@ 	c #F3F4F4",
"# 	c #EDEEEE",
"$ 	c #F0F0F0",
"% 	c #091B93",
"& 	c #EAEBEC",
"* 	c #DEE0E1",
"= 	c #E8E9E9",
"- 	c #DADCDD",
"; 	c #DCDDDE",
"> 	c #E5E6E7",
", 	c #D6D8D9",
"' 	c #535666",
") 	c #061F9D",
"! 	c #E3E4E5",
"~ 	c #D2D4D6",
"{ 	c #0324A7",
"] 	c #E0E2E3",
"^ 	c #CED1D2",
"/ 	c #555867",
"( 	c #CCCFD0",
"_ 	c #0129AF",
": 	c #CACDCF",
"< 	c #ABAFB2",
"[ 	c #AEB1B7",
"} 	c #CCCECF",
"| 	c #C9CCCE",
"1 	c #012FB6",
"2 	c #C7C9CB",
"3 	c #565969",
"4 	c #AEB0B5",
"5 	c #0337BB",
"6 	c #A8ADAF",
"7 	c #9EA4A7",
"8 	c #5C5F6E",
"9 	c #91939B",
"0 	c #A1A6A8",
"a 	c #023DBE",
"b 	c #AAAFB0",
"c 	c #656975",
"d 	c #737681",
"e 	c #C6C6C6",
"f 	c #71797C",
"g 	c #0146C3",
"h 	c #ABB0B2",
"i 	c #616471",
"j 	c #ADADAE",
"k 	c #ADB1B3",
"l 	c #B2B2B2",
"m 	c #014DCA",
"n 	c #82868F",
"o 	c #8C8D90",
"p 	c #979799",
"q 	c #0054D0",
"r 	c #656E74",
"s 	c #BCC1C3",
"t 	c #B0B5B6",
"u 	c #AEB3B5",
"v 	c #555868",
"w 	c #646875",
"x 	c #CACECF",
"y 	c #005CD6",
"z 	c #58778D",
"A 	c #969C9E",
"B 	c #BABEBF",
"C 	c #A4A8AC",
"D 	c #A8ACAF",
"E 	c #0063DB",
"F 	c #697075",
"G 	c #C3C6C6",
"H 	c #0368DF",
"I 	c #677076",
"J 	c #9DA3A5",
"K 	c #BABEC0",
"L 	c #0370E4",
"M 	c #547A94",
"N 	c #616E77",
"O 	c #0078E6",
"P 	c #0180E9",
"Q 	c #0286EE",
"R 	c #048BF6",
"S 	c #60696F",
"T 	c #6A7276",
"U 	c #6D7579",
"V 	c #788083",
"W 	c #787F84",
"X 	c #7C8386",
"Y 	c #80878A",
"Z 	c #838A8D",
"` 	c #757B82",
" .	c #8B9194",
"..	c #5A5D6B",
"+.	c #878E91",
"@.	c #8E9597",
"#.	c #696D78",
"$.	c #92989B",
"%.	c #565968",
"&.	c #5F6370",
"*.	c #86959E",
"=.	c #547892",
"-.	c #6D899B",
";.	c #999FA1",
">.	c #9B9FA0",
",.	c #616F79",
"'.	c #909EA7",
").	c #078EFE",
". + @ # # # # # $ # # # # # # # # # # # # # # @ ",
"% + & * * * * * * * * * * * * * * * * * * * * & ",
". + = - - - - - - - - - - - - - - - - - - - ; = ",
"% + > , , , , , ' ' ' ' ' ' ' ' ' ' , , , , , > ",
") + ! ~ ~ ~ ~ ~ ' $ $ $ $ $ $ $ $ ' ~ ~ ~ ~ ~ > ",
"{ + ] ^ ^ ^ ^ ^ ' ' ' ' ' ' ' / ' ' ^ ( ^ ^ ( ] ",
"_ + * : : : : : : : : : < [ } : | | : : } : : * ",
"1 + ; 2 2 2 2 2 2 2 2 [ 3 3 4 2 2 2 2 2 2 2 2 ; ",
"5 + : 6 6 6 6 6 6 6 7 8 9 9 8 0 6 6 6 6 6 6 6 : ",
"a + : 6 b b 6 6 6 6 c d e e f c 6 6 6 6 6 6 6 : ",
"g + : 6 b b 6 h 6 f i j k l j i f h 6 j h b 6 } ",
"m + : h h h [ 6 n / o p p p p o 3 n < < h h h } ",
"q r s t h h 6 u c v ' ' ' ' / ' / w 6 [ h h h x ",
"y z A B k h u 6 6 C C C C C C C C D h h h h u x ",
"E E F G B t [ [ [ [ h h u h u h h u u [ [ [ [ } ",
"H H H I J K ( ( } ^ x ^ x ^ x ^ x ^ x x } } } * ",
"L L L L M N + + + + + + + + + + + + + + + + + + ",
"O O O O O O O O O O O O O O O O O O O O O O O O ",
"P P P P P P P P P P P P P P P P P P P P P P P P ",
"Q Q Q Q Q Q Q Q Q Q Q Q Q Q Q Q Q Q Q Q Q Q Q Q ",
"R R R R R R R R R R R R R R R R R R R R R R R R ",
"S S S S S S S S i i S S S S S S i i S S S S S S ",
"% + T T T T F F U I U U T T F F U U F T T T T T ",
") + U U U U U U U U U U U U U U U U U U U U U U ",
". + f f f f f f f f f f f f f f f f f f f f f f ",
"% + V f f V W f ' ' ' ' ' ' ' ' / / W f V f V f ",
") + V V V V V V ' $ $ $ $ $ $ $ # / V V V V V V ",
"{ + X X X X X X ' ' / / ' ' ' ' ' ' X X X X X X ",
"_ + Y Y Y Y Y Y Z Y Y Y ` ` Y Y Y Y Y Y X Z Y Y ",
"1 + Z Z Z Z Z Z Z Z Z W / 3 W Z Z Z Z Z Z Z Z Z ",
"5 +  .Z Z  . .Z Z  .n 8 9 9 ..n  .Z Z  .+.+.+.+.",
"a +  . . . . . . .Z i f e G f 8  . . . . . . . .",
"g + @.@. .@.@.@.@.F i j l l j i #.@.@.@.@.@. .@.",
"m + $.p $.$.$.$.` / o 9 p p p o %.f 9 p $.$.$.$.",
"q &.*.A A A A A i ' ' ' ' ' / / ' S A A A A A A ",
"y =.-.J ;.;.J >.A $.$.$.$.$.$.$.$.A ;.;.J A J A ",
"E E ,.J J J 7 J J J J J A 7 7 7 J J J J J J J J ",
"H H H N -.'.0 0 0 0 C C 0 0 0 0 0 0 0 0 0 0 0 C ",
"L L L L M N + + + + + + + + + + + + + + + + + + ",
"O O O O O O O O O O O O O O O O O O O O O O O O ",
"P P P P P P P P P P P P P P P P P P P P P P P P ",
"Q Q Q Q Q Q Q Q Q Q Q Q Q Q Q Q Q Q Q Q Q Q Q Q ",
"R R R R R R R R R R R R R R R R R R R R R R R R ",
").).).).).).).).).).).).).).).).).).).).).).).)."};
