/* XPM */
static char * rollupA_xpm[] = {
"24 44 108 2",
"  	c None",
". 	c #0A188B",
"+ 	c #6A6B6C",
"@ 	c #EDEEEE",
"# 	c #E3E4E5",
"$ 	c #091B93",
"% 	c #DEE0E1",
"& 	c #CBCED0",
"* 	c #CACDCF",
"= 	c #DADCDD",
"- 	c #C4C7C9",
"; 	c #D6D8D9",
"> 	c #BEC1C3",
", 	c #535666",
"' 	c #C6C6C6",
") 	c #061F9D",
"! 	c #D2D4D6",
"~ 	c #B7BBBD",
"{ 	c #F0F0F0",
"] 	c #0324A7",
"^ 	c #CED1D2",
"/ 	c #B1B5B7",
"( 	c #0129AF",
"_ 	c #AAAFB2",
": 	c #959AA0",
"< 	c #012FB6",
"[ 	c #C7C9CB",
"} 	c #A5A9AC",
"| 	c #93979C",
"1 	c #565969",
"2 	c #0337BB",
"3 	c #747C7E",
"4 	c #747C7F",
"5 	c #71797C",
"6 	c #585C6A",
"7 	c #90929A",
"8 	c #70787C",
"9 	c #A8ADAF",
"0 	c #023DBE",
"a 	c #777E81",
"b 	c #5B606C",
"c 	c #737580",
"d 	c #727480",
"e 	c #5B5F6C",
"f 	c #0146C3",
"g 	c #797F83",
"h 	c #616570",
"i 	c #5F6370",
"j 	c #ADADAE",
"k 	c #B2B2B2",
"l 	c #606370",
"m 	c #014DCA",
"n 	c #ABAFB2",
"o 	c #676C76",
"p 	c #555867",
"q 	c #8C8D90",
"r 	c #979799",
"s 	c #787F84",
"t 	c #798184",
"u 	c #0054D0",
"v 	c #616D76",
"w 	c #9BA6AC",
"x 	c #7E8588",
"y 	c #005CD6",
"z 	c #547892",
"A 	c #7C919E",
"B 	c #919799",
"C 	c #777D82",
"D 	c #7B8285",
"E 	c #AEB2B4",
"F 	c #0063DB",
"G 	c #616F79",
"H 	c #A4AAAB",
"I 	c #81878A",
"J 	c #7C8386",
"K 	c #0368DF",
"L 	c #9CA8AF",
"M 	c #0370E4",
"N 	c #0078E6",
"O 	c #0180E9",
"P 	c #0286EE",
"Q 	c #048BF6",
"R 	c #60696F",
"S 	c #6A7276",
"T 	c #6D7579",
"U 	c #757D80",
"V 	c #838A8D",
"W 	c #757B82",
"X 	c #878E91",
"Y 	c #91939B",
"Z 	c #5A5D6B",
"` 	c #8B9194",
" .	c #8E9597",
"..	c #696D78",
"+.	c #92979A",
"@.	c #86959E",
"#.	c #969C9E",
"$.	c #555868",
"%.	c #989FA2",
"&.	c #6D899B",
"*.	c #9DA3A5",
"=.	c #999FA1",
"-.	c #959B9E",
";.	c #708DA0",
">.	c #909EA7",
",.	c #A1A6A8",
"'.	c #547A94",
").	c #078EFE",
". + @ # # # # # # # # # # # # # # # # # # # # @ ",
"$ + % & & & & & & & & & & & & & & & & & & * & % ",
". + = - - - - - - - - - - - - - - - - - - - - = ",
"$ + ; > > > > > , , , , , , , , , , > > > > ' ; ",
") + ! ~ ~ ~ ~ ~ , { { { { { { { { , ~ ~ ~ ~ ~ ! ",
"] + ^ / / / / / , , , , , , , , , , / / / / / & ",
"( + * _ _ _ _ _ _ _ _ _ : : _ _ _ _ _ _ _ _ _ * ",
"< + [ } } } } } } } } | 1 1 | } } } } } } } } [ ",
"2 + _ 3 4 4 4 4 4 4 5 6 7 7 6 8 4 4 4 4 4 4 3 9 ",
"0 + _ 4 4 4 4 a 4 4 b c ' ' d e 4 a 4 4 4 4 4 _ ",
"f + _ 4 4 g a a a h i j k k j l h a a a a a a _ ",
"m + n g g g g g o p q r r r r q p o s t a s s n ",
"u v w x g t t t b , , , , , , , , e t t t t t _ ",
"y z A B x t t t t 4 a s s a C s a s D D D D D E ",
"F F G H B I D x J J J J D D J J D x D D J J t E ",
"K K K G A L E E E E E E E E E E E E E E E E E & ",
"M M M M z v + + + + + + + + + + + + + + + + + + ",
"N N N N N N N N N N N N N N N N N N N N N N N N ",
"O O O O O O O O O O O O O O O O O O O O O O O O ",
"P P P P P P P P P P P P P P P P P P P P P P P P ",
"Q Q Q Q Q Q Q Q Q Q Q Q Q Q Q Q Q Q Q Q Q Q Q Q ",
"R R R R R R R R R R R R i i R R R h R R R R R R ",
"$ + S S S S S S S S S S S S S S T S S S S S S S ",
") + T T T T T T T T T T T T T T T T T T T T T T ",
". + 5 5 5 3 5 5 5 5 5 5 5 5 5 5 5 5 5 5 5 5 5 5 ",
"$ + U U 4 4 4 4 , , , , , , , , , , 4 4 4 4 4 4 ",
") + g a J a g g , { { { { { { { { , t g t t a t ",
"] + J J J J J J , , , , , , , , , , D x t x J x ",
"( + V x x x I x I I I I W W V J I I x V I I I x ",
"< + V V V V V V V V V s p p s V V V V V V V V V ",
"2 + X X X X X X X X V 6 Y Y Z V X X X X X X X X ",
"0 + ` ` ` ` `  .` X i c ' - c i X ` ` ` ` ` ` ` ",
"f + B  .B  . . . .S h j k k j l ..B  . . . . . .",
"m + r B B B B B W p X r r r r q p 4 +.+.+.+.B B ",
"u i @.#.#.#.#.#.h , , $., , 1 , , b #.#.%.#.#.#.",
"y z &.*.=.=.=.=.: +.+.+.+.+.| B B -.=.*.*.%.%.%.",
"F F G =.*.*.*.*.*.*.*.*.*.*.*.*.*.*.*.*.*.*.*.*.",
"K K K G ;.>.,.H ,.,.,.,.,.,.,.,.,.,.,.,.,.,.,.,.",
"M M M M '.G + + + + + + + + + + + + + + + + + + ",
"N N N N N N N N N N N N N N N N N N N N N N N N ",
"O O O O O O O O O O O O O O O O O O O O O O O O ",
"P P P P P P P P P P P P P P P P P P P P P P P P ",
"Q Q Q Q Q Q Q Q Q Q Q Q Q Q Q Q Q Q Q Q Q Q Q Q ",
").).).).).).).).).).).).).).).).).).).).).).).)."};
