/* XPM */
static char *rolldownI[] = {
/* columns rows colors chars-per-pixel */
"24 44 136 2",
"   c #535356566666",
".  c #545457576666",
"X  c #545457576767",
"o  c #555558586868",
"O  c #58585C5C6A6A",
"+  c #5A5A5D5D6C6C",
"@  c #5B5B60606C6C",
"#  c #5D5D60606D6D",
"$  c #5D5D61616E6E",
"%  c #5E5E60606E6E",
"&  c #6A6A6B6B6C6C",
"*  c #6F6F6F6F6F6F",
"=  c #606063637171",
"-  c #606065657070",
";  c #636367677474",
":  c #65656A6A7474",
">  c #67676B6B7676",
",  c #6D6D6F6F7B7B",
"<  c #6A6A72727676",
"1  c #6F6F73737C7C",
"2  c #6D6D75757979",
"3  c #736E745A755B",
"4  c #740174ED75EE",
"5  c #7561764B774C",
"6  c #75CA76B377B4",
"7  c #717177777E7E",
"8  c #707078787D7D",
"9  c #717179797C7C",
"0  c #73737B7B7F7F",
"q  c #74747C7C7F7F",
"w  c #76767D7D7F7F",
"e  c #75757C7C8080",
"r  c #75757D7D8080",
"t  c #77777E7E8181",
"y  c #78787F7F8383",
"u  c #7C7C7D7D8181",
"i  c #7D7D7E7E8181",
"p  c #787880808383",
"a  c #797981818484",
"s  c #7B7B82828585",
"d  c #7B7B82828686",
"f  c #7C7C83838686",
"g  c #7D7D84848888",
"h  c #7E7E85858888",
"j  c #848485858686",
"k  c #858585858787",
"l  c #808087878A8A",
"z  c #818187878A8A",
"x  c #83838A8A8D8D",
"c  c #8BF58CB48DB5",
"v  c #8D428E008F01",
"b  c #868688889191",
"n  c #878789899292",
"m  c #87878C8C9191",
"M  c #87878E8E9191",
"N  c #88888E8E9393",
"B  c #8B8B91919494",
"V  c #8B8B91919595",
"C  c #8C8C93939595",
"Z  c #8E8E95959797",
"A  c #94F1976C986D",
"S  c #919197979999",
"D  c #929297979A9A",
"F  c #929298989B9B",
"G  c #96E29A309C05",
"H  c #97D29A719C52",
"J  c #984C9AEC9BED",
"K  c #97539BF99DE8",
"L  c #96969C9C9E9E",
"P  c #999999999A9A",
"I  c #9A9A9A9A9B9B",
"U  c gray62",
"Y  c #99A09FA5A1A7",
"T  c #9D9DA3A3A5A5",
"R  c #9F50A3F6A5E4",
"E  c #A60CA6A6A7A7",
"W  c #A1A1A6A6A8A8",
"Q  c #A2A2A6A6ABAB",
"!  c #A5DBAADBABDC",
"~  c #A6A8AA78AC6D",
"^  c #A5A5A9A9ACAC",
"/  c #A75AAC1EAE13",
"(  c #A6A6AAAAAEAE",
")  c #A8A8ADADAFAF",
"_  c #A9A9AEAEB0B0",
"`  c #AAAAAFAFB0B0",
"'  c #AAAAAFAFB2B2",
"]  c #ABABAFAFB2B2",
"[  c #ABABB0B0B2B2",
"{  c #ADADB1B1B3B3",
"}  c #ADADB2B2B4B4",
"|  c #AEAEB2B2B4B4",
" . c #B1B1B1B1B1B1",
".. c #B2B2B2B2B2B2",
"X. c #B1B1B5B5B7B7",
"o. c #B7B7BBBBBDBD",
"O. c #BEBEC1C1C3C3",
"+. c #C54AC54AC64B",
"@. c #C758C758C859",
"#. c #C4C4C7C7C9C9",
"$. c #C7C7C9C9CBCB",
"%. c #CACACDCDCFCF",
"&. c #CBCBCECED0D0",
"*. c #CCCCCFCFD0D0",
"=. c #CECED1D1D2D2",
"-. c #D2D2D4D4D6D6",
";. c #D523D523D61C",
":. c #D6C8D6C8D7C9",
">. c #D7E5D7E5D8E6",
",. c #D6D6D8D8D9D9",
"<. c #D94FD94FDA47",
"1. c #D9D9D9D9DADA",
"2. c #DCC3DCC3DD9F",
"3. c #DADADCDCDDDD",
"4. c #DEDEE0E0E1E1",
"5. c #E10DE10DE1E9",
"6. c #E1EFE1EFE2AA",
"7. c #E2E7E2E7E3A2",
"8. c #E452E452E50C",
"9. c #E3E3E4E4E5E5",
"0. c #E52BE52BE5D2",
"q. c #E675E675E716",
"w. c #EA6EEA6EEB15",
"e. c #ECB7ECB7ED56",
"r. c #EDECEDECEE8C",
"t. c #EE9DEE9DEF3C",
"y. c #EDEDEEEEEEEE",
"u. c #EFD3EFD3F072",
"i. c #F0F4F0F4F104",
"p. c #F250F250F258",
"a. c #F386F386F38E",
"s. c #F436F436F4C4",
"d. c #F4F9F4F9F507",
"f. c #F6AAF6AAF6AA",
"g. c #F7E9F7E9F7E9",
"h. c #F915F915F915",
/* pixels */
"h.& y.9.9.9.9.9.9.9.9.9.9.9.9.9.9.9.9.9.9.9.9.u.",
"g.& 4.&.&.&.&.&.&.&.&.&.&.&.&.&.&.&.&.&.&.&.&.4.",
"g.& 1.#.#.#.#.#.#.#.#.#.#.#.#.#.#.#.#.#.#.#.#.3.",
"g.& >.O.O.O.O.O.                    O.O.O.O.O.>.",
"d.& =.o.o.o.o.o.  i.i.i.i.i.i.i.i.  o.o.o.o.o.-.",
"s.& =.X.| X.X.X.  .                 X.X.X.X.X.=.",
"p.& &.' ' [ [ [ ^ Q Q Q Q Q Q Q Q ^ [ [ ' ' ' &.",
"p.& $.^ ^ ^ ^ ^ ;             .   ; ^ ^ ^ ^ ^ $.",
"u.& ) e r q q q : . i k k k k i . : q q q q q / ",
"u.& ) e r r r r r - + H U U H % - r r r r r q ' ",
"u.& ' r t t t t t t % , ...., + q t t t t t t [ ",
"y.& [ t y y y a t t q O b b O e a t a t p p t [ ",
"w.3 ^ h a a a a a a a 8 o o 7 a a a a a a a a [ ",
"q.c H S s s a a s s a a 7 e s s s s s s d d d } ",
"4.#.6 ^ S z s h f h a h a f f f f f s f h a d [ ",
"1.8.E 6 H / ..| ..| | | | | | | | | | ..| | | &.",
":.<.7.+.c 3 & & & & & & & & & & & & & & & & & & ",
":.:.:.2.6.0.q.q.q.q.q.q.q.q.q.9.q.q.q.q.q.q.q.q.",
";.;.;.;.;.;.;.;.;.;.;.;.;.;.;.;.;.;.;.;.-.:.-.;.",
";.;.-.;.;.;.-.-.;.;.;.:.;.-.-.;.;.;.;.;.:.-.-.;.",
"d.d.d.d.g.i.g.s.s.d.d.d.s.g.s.s.g.p.g.p.g.p.g.p.",
"* * * * * * * * * * * * * * * * * * * * * * * * ",
"h.& < < < < < < < < < < < < < < < < < < < < < < ",
"g.& 2 3 2 2 2 2 2 2 2 3 2 2 2 2 2 2 2 2 2 2 2 2 ",
"g.& 8 8 9 8 9 9 8 8 8 8 8 9 9 9 9 8 9 9 9 8 9 8 ",
"g.& r r q r r q     . . . .     . . q t q r q q ",
"i.& t a p a p p   i.i.i.i.i.i.i.i.. p p p p p p ",
"i.* f f s f s s         .         . f f f f f f ",
"i.& z z z z z z h f f d s a s s a h z h z z z z ",
"i.& x x x x x x + .     . . . . . % x x x x z x ",
"i.& M M M M N M 1 . u j k k k t o , M M N N c N ",
"y.& B B B B B V C > + I U U I % > V V C N C C N ",
"y.& C C C Z Z Z Z C = , ...., = C Z Z Z Z Z Z Z ",
"y.& F F F F F F F F V + b b + V F F F F F F F F ",
"w.6 L L L L L L L L L N o o M L L L L L L L L L ",
"9.v A Y Y Y Y L Y Y Y Y N N Y Y Y Y Y Y Y Y Y Y ",
"6.@.6 Y R R R R T T T T R R Y T T T T T T T T T ",
"1.9.E 6 A R W W W W W W Q W W Q E E R W W W W E ",
">.1.7.+.v 6 & * & & & & & & & & & & & & & & & & ",
":.:.:.2.6.9.9.9.q.q.q.q.q.q.q.9.q.q.q.q.q.9.q.q.",
";.;.;.;.;.;.;.;.-.-.;.;.;.;.;.;.;.;.;.;.;.;.;.;.",
";.;.;.;.;.;.;.;.-.:.;.;.;.;.;.;.;.;.;.;.;.;.;.;.",
"d.d.d.d.d.d.d.d.d.d.d.d.d.d.d.d.d.d.d.d.d.d.d.d.",
"* * * * * * * * * * * * * * * * * * * * * * * * "
};
