/* XPM */
static char *titleIT[] = {
/* columns rows colors chars-per-pixel */
"1 22 22 1",
"  c gray40",
". c #D2D2D3",
"X c #D4D4D5",
"o c #D6D6D7",
"O c #D7D7D8",
"+ c #D9D9DA",
"@ c #DBDBDC",
"# c #DCDCDD",
"$ c #DEDEDF",
"% c #E0E0E1",
"& c #E2E2E3",
"* c #E3E3E4",
"= c #E5E5E6",
"- c #E7E7E8",
"; c #E9E9E9",
": c gray92",
"> c #ECECED",
", c #EEEEEE",
"< c gray94",
"1 c gray95",
"2 c #F4F4F4",
"3 c gray100",
/* pixels */
"2",
"1",
"1",
">",
">",
":",
":",
"=",
"=",
"&",
"&",
"&",
"$",
"$",
"+",
"+",
"o",
"o",
"o",
".",
"3",
" "
};
