/* XPM */
static char *titleAT[] = {
/* columns rows colors chars-per-pixel */
"1 22 22 1",
"  c gray40",
". c #0072D0",
"X c #0074D2",
"o c #0076D4",
"O c #0078D6",
"+ c #007AD8",
"@ c #007CDA",
"# c #007EDD",
"$ c #0080DF",
"% c #0081E1",
"& c #0083E3",
"* c #0085E5",
"= c #0087E8",
"- c #0089EA",
"; c #008BEC",
": c #008DEF",
"> c #008FF1",
", c #0091F3",
"< c #0093F6",
"1 c #0095F8",
"2 c #0097FA",
"3 c #009AFD",
/* pixels */
".",
"X",
"o",
"O",
"+",
"@",
"#",
"$",
"%",
"%",
"*",
"-",
"-",
";",
":",
">",
",",
"<",
"1",
"1",
"3",
" "
};
