/* XPM */
static char *icewm_xpm[] = {
"90 32 35 1",
"A	c #322FFB",
"B	c #312FFB",
"C	c #3130FB",
"D	c #3030FB",
"E	c #3030FA",
"F	c #0000FF",
"G	c #3131FC",
"H	c #2F2FFB",
"I	c #302FF5",
"J	c #3030F5",
"K	c #3030F4",
"L	c #302FF4",
"M	c #2E30F4",
"N	c #2E2FF4",
"O	c #2421D3",
"P	c #2421D2",
"Q	c #2422D1",
"R	c #2422D0",
"S	c #2422CF",
"T	c #2220D2",
"U	c #FF0000",
"V	c #1C1FC8",
"W	c #211FD0",
"X	c #2526DC",
"Y	c #2627E4",
"Z	c #2B2AF0",
"a	c #2E2EF1",
"b	c #3031F8",
"c	c #3331F9",
"d	c #2A2BE7",
"e	c #2A2AE8",
"f	c #292AE9",
"g	c #2929E8",
"h	c #2829E8",
"i	c #191CB7",
"YYYYYYYYYYYYYYYYYYYYYYYYYYYYYYYYYYYYYYYYYYYYYYYYYYYYYYYYYYYYYYYYYYYYYYYYYYYYYYYYYYYYYYYYYY",
"YYYYYYYYYYYYYYYYYYYYYYYYYYYYYYYYYYYYYYYYYYYYYYYYYYYYYYYYYYYYYYYYYYYYYYYYYYYYYYYYYYYYYYYYYY",
"YYYYYYYYYYYYYYYYYYYYYYYYYYYYYYYYYYYYYYYYYYYYYYYYYYYYYYYYYYYYYYYYYYYYYYYYYYYYYYYYYYYYYYYYYY",
"YYYYYYYYYYYYYYYYYYYYYYYYYYYYYYYYYYYYYYYYYYYYYYYYYYYYYYYYYYYYYYYYYYYYYYYYYYYYYYYYYYYYYYYYYY",
"YYYYYYYYYYYYYYYYYYYYYYYYYYYYYYYYYYYYYYYYYYYYYYYYYYYYYYYYYYYYYYYYYYYYYYYYYYYYYYYYYYYYYYYYYY",
"YYYYYYYYYYYYYYYYYYYYYYYYYYYYYYYYYYYYYYYYYYYYYYYYYYYYYYYYYYYYYYYYYYYYYYYYYYYYYYYYYYYYYYYYYY",
"YYYYYYYYYYYYYYYYYYYYYYYYYYYYYYYYYYYYYYYYYYYYYYYYYYYYYYYYYYYYYYYYYYYYYYYYYYYYYYYYYYYYYYYYYY",
"YYYYYYYYYYYYYYYYYYYYYYYYYYYYYYYYYYYYYYYYYYYYYYYYYYYYYYYYYYYYYYYYYYYYYYYYYYYYYYYYYYYYYYYYYY",
"YYYYYYYYYYYYYYYYYYYYYYYYYYYYYYYYYYYYYYYYYYYYYYYYYYYYYYYYYYYYYYYYYYYYYYYYYYYYYYYYYYYYYYYYYY",
"YYYYYYYYYYYYYYYYYYYYYYYYYYYYYYYYYYYYYYYYYYYYYYYYYYYYYYYYYYYYYYYYYYYYYYYYYYYYYYYYYYYYYYYYYY",
"YYYYYYYYYYYYYYYYYYYYYYYYYYYYYYYYYYYYYYYYYYYYYYYYYYYYYYYYYYYYYYYYYYYYYYYYYYYYYYYYYYYYYYYYYY",
"YYYYYYYYYUUUUYYYYYYYYYYYYYYYYYYYYYYYYYYYUUUYYYYYYYYYYUUUYYYUUUYYYYYYYYYYYYYYYYYYYYYYYYYYYY",
"YYYYYYYYUUUUUYYYYYYYYYYYYYYYYYYYYYYYYYYYUUUYYYYYYYYYYUUUYYYUUUYYYYYYYYYYYYYYYYYYYYYYYYYYYY",
"YYYYYYYYUUUUUYYYYYYYYYYYYYYYYYYYYYYYYYYYUUUYYYYYYYYYYUUUYYYYUUYYYYYYYYYYYYYYYYYYYYYYYYYYYY",
"YYYYYYYUUUUUUUYYYYYYYYYYYYYYYYYYYYYYYYYYUUUYYYYYYYYYYUUUYYYYYYYYYYYYYYYYYYYYYYYYYYYYYYYYYY",
"YYYYYYYUUUYUUUYYYYYUUUUUUUUYYYYUUUUUUUYYUUUUUUUUUYYYYUUUYYYUUUYYUUUYYYYYUUUYYYYUUUUUUUYYYY",
"YYYYYYYUUUYUUUUYYYYUUUUUUUUYYYUUUUUUUUYYUUUUUUUUUUYYYUUUYYYUUUYYYUUUYYYYUUUYYYUUUUUUUUYYYY",
"YYYYYYUUUYYYUUUYYYYUUUYYUUUYYUUUUYYYYYYYUUUYYYYUUUYYYUUUYYYUUUYYYUUUYYYYUUYYYUUUYYYYYYYYYY",
"YYYYYYUUUYYYUUUYYYYUUUYYYUUUYUUUYYYYYYYYUUUYYYYUUUYYYUUUYYYUUUYYYYUUUYYUUUYYYUUUYYYYYYYYYY",
"YYYYYUUUUUUUUUUUYYYUUUYYYYYYYUUUYYYYYYYYUUUYYYYUUUYYYUUUYYYUUUYYYYUUUYYUUUYYYUUUUUUUUUYYYY",
"YYYYYUUUUUUUUUUUYYYUUUYYYYYYYUUUYYYYYYYYUUUYYYYUUUYYYUUUYYYUUUYYYYUUUYUUUYYYYUUUUUUUUUYYYY",
"YYYYYUUUUUUUUUUUUYYUUUYYYYYYYUUUYYYYYYYYUUUYYYYUUUYYYUUUYYYUUUYYYYYUUUUUUYYYYUUUYYYYYYYYYY",
"YYYYUUUUYYYYYYUUUYYUUUYYYYYYYUUUUYYYYYYYUUUYYYYUUUYYYUUUYYYUUUYYYYYUUUUUYYYYYUUUUYYYYYYYYY",
"YYYYUUUYYYYYYYUUUYYUUUYYYYYYYYUUUUUUUUYYUUUYYYYUUUYYYUUUYYYUUUYYYYYYUUUUYYYYYYUUUUUUUUYYYY",
"YYYUUUUYYYYYYYUUUUYUUUYYYYYYYYYUUUUUUUYYUUUYYYYUUUYYYUUUYYYUUUYYYYYYUUUYYYYYYYYUUUUUUUYYYY",
"YYYYYYYYYYYYYYYYYYYYYYYYYYYYYYYYYYYYYYYYYYYYYYYYYYYYYYYYYYYYYYYYYYYYYYYYYYYYYYYYYYYYYYYYYY",
"YYYYYYYYYYYYYYYYYYYYYYYYYYYYYYYYYYYYYYYYYYYYYYYYYYYYYYYYYYYYYYYYYYYYYYYYYYYYYYYYYYYYYYYYYY",
"YYYYYYYYYYYYYYYYYYYYYYYYYYYYYYYYYYYYYYYYYYYYYYYYYYYYYYYYYYYYYYYYYYYYYYYYYYYYYYYYYYYYYYYYYY",
"YYYYYYYYYYYYYYYYYYYYYYYYYYYYYYYYYYYYYYYYYYYYYYYYYYYYYYYYYYYYYYYYYYYYYYYYYYYYYYYYYYYYYYYYYY",
"YYYYYYYYYYYYYYYYYYYYYYYYYYYYYYYYYYYYYYYYYYYYYYYYYYYYYYYYYYYYYYYYYYYYYYYYYYYYYYYYYYYYYYYYYY",
"YYYYYYYYYYYYYYYYYYYYYYYYYYYYYYYYYYYYYYYYYYYYYYYYYYYYYYYYYYYYYYYYYYYYYYYYYYYYYYYYYYYYYYYYYY",
"YYYYYYYYYYYYYYYYYYYYYYYYYYYYYYYYYYYYYYYYYYYYYYYYYYYYYYYYYYYYYYYYYYYYYYYYYYYYYYYYYYYYYYYYYY"
};
