/* XPM */
static char * menubuttonbg_xpm[] = {
"90 32 324 2",
"  	c None",
". 	c #322FFB",
"+ 	c #312FFB",
"@ 	c #3130FB",
"# 	c #3030FB",
"$ 	c #3030FA",
"% 	c #3030F9",
"& 	c #3131FC",
"* 	c #302FFB",
"= 	c #2F2FFB",
"- 	c #312FF5",
"; 	c #302FF5",
"> 	c #3030F5",
", 	c #2F30F5",
"' 	c #3030F4",
") 	c #302FF4",
"! 	c #312FF3",
"~ 	c #312FF4",
"{ 	c #2F30F4",
"] 	c #2E30F4",
"^ 	c #2E2FF4",
"/ 	c #2E2FF5",
"( 	c #2E2FF6",
"_ 	c #2421D4",
": 	c #2421D3",
"< 	c #2421D2",
"[ 	c #2422D1",
"} 	c #2422D0",
"| 	c #2422CF",
"1 	c #2323CF",
"2 	c #2423CE",
"3 	c #2423CF",
"4 	c #2322CF",
"5 	c #2322D0",
"6 	c #2322D1",
"7 	c #2322D2",
"8 	c #2321D2",
"9 	c #2220D2",
"0 	c #2220D1",
"a 	c #2220D0",
"b 	c #2221D0",
"c 	c #2221CF",
"d 	c #2221CE",
"e 	c #2121CE",
"f 	c #1414A1",
"g 	c #1414A0",
"h 	c #13159F",
"i 	c #1315A0",
"j 	c #12149F",
"k 	c #12149E",
"l 	c #13139E",
"m 	c #14139E",
"n 	c #14149E",
"o 	c #14149D",
"p 	c #13139D",
"q 	c #13139C",
"r 	c #13139B",
"s 	c #13139A",
"t 	c #12129B",
"u 	c #12119B",
"v 	c #05067E",
"w 	c #04067D",
"x 	c #04057C",
"y 	c #04057B",
"z 	c #03057B",
"A 	c #04057A",
"B 	c #050579",
"C 	c #040579",
"D 	c #040578",
"E 	c #040478",
"F 	c #040479",
"G 	c #04047A",
"H 	c #030379",
"I 	c #050385",
"J 	c #050486",
"K 	c #050386",
"L 	c #040286",
"M 	c #040386",
"N 	c #030386",
"O 	c #030486",
"P 	c #06068B",
"Q 	c #06068C",
"R 	c #05068B",
"S 	c #05068C",
"T 	c #080891",
"U 	c #080790",
"V 	c #080791",
"W 	c #090A96",
"X 	c #090A97",
"Y 	c #090997",
"Z 	c #090996",
"` 	c #090A95",
" .	c #0B0B9C",
"..	c #0B0C9B",
"+.	c #0D0DA2",
"@.	c #0D0DA1",
"#.	c #0D0EA1",
"$.	c #0D0DA0",
"%.	c #100FA9",
"&.	c #100FA8",
"*.	c #100FA7",
"=.	c #0F0EA7",
"-.	c #0E0EA6",
";.	c #1310AD",
">.	c #1211AC",
",.	c #1211AB",
"'.	c #1111AB",
").	c #1111AA",
"!.	c #1613B0",
"~.	c #1513B0",
"{.	c #1514B0",
"].	c #1414B0",
"^.	c #1414AF",
"/.	c #1314AF",
"(.	c #1313AE",
"_.	c #1815B4",
":.	c #1715B4",
"<.	c #1716B4",
"[.	c #1616B4",
"}.	c #1616B5",
"|.	c #1515B4",
"1.	c #1917BB",
"2.	c #1817BB",
"3.	c #1717BB",
"4.	c #1817BA",
"5.	c #1716BA",
"6.	c #1716B9",
"7.	c #1B18BE",
"8.	c #1A18BF",
"9.	c #1A19BF",
"0.	c #1919C0",
"a.	c #1919C1",
"b.	c #1918C1",
"c.	c #1A18C2",
"d.	c #1917C1",
"e.	c #1E1AC6",
"f.	c #1E1AC5",
"g.	c #1D1BC4",
"h.	c #1D1BC3",
"i.	c #1C1CC2",
"j.	c #1B1CC2",
"k.	c #1B1CC3",
"l.	c #1B1CC4",
"m.	c #1B1CC5",
"n.	c #1B1BC5",
"o.	c #1C1BC5",
"p.	c #1C1CC5",
"q.	c #1B1BC4",
"r.	c #1E1DCC",
"s.	c #1E1DCB",
"t.	c #1D1ECA",
"u.	c #1D1EC9",
"v.	c #1C1FC8",
"w.	c #1C1FC7",
"x.	c #1C1EC8",
"y.	c #1C1EC9",
"z.	c #1D1FC9",
"A.	c #1B1DC8",
"B.	c #211FD1",
"C.	c #211FD0",
"D.	c #2020D0",
"E.	c #2020CF",
"F.	c #1F21CE",
"G.	c #1F21CF",
"H.	c #1F20CF",
"I.	c #1F20D0",
"J.	c #1E20CF",
"K.	c #1E20CE",
"L.	c #1E1FCE",
"M.	c #2321D6",
"N.	c #2321D5",
"O.	c #2221D5",
"P.	c #2222D4",
"Q.	c #2122D3",
"R.	c #2122D4",
"S.	c #2122D5",
"T.	c #2021D3",
"U.	c #2723D6",
"V.	c #2623D6",
"W.	c #2524D7",
"X.	c #2424D7",
"Y.	c #2425D8",
"Z.	c #2325D8",
"`.	c #2225D8",
" +	c #2224D8",
".+	c #2325D9",
"++	c #2224D7",
"@+	c #2123D7",
"#+	c #2924DA",
"$+	c #2824DA",
"%+	c #2725DB",
"&+	c #2625DB",
"*+	c #2526DC",
"=+	c #2426DC",
"-+	c #2427DC",
";+	c #2527DD",
">+	c #2425DC",
",+	c #2425DD",
"'+	c #2927E2",
")+	c #2927E3",
"!+	c #2828E3",
"~+	c #2828E4",
"{+	c #2728E4",
"]+	c #2728E3",
"^+	c #2728E2",
"/+	c #2627E1",
"(+	c #2627E2",
"_+	c #2627E4",
":+	c #2627E3",
"<+	c #2B29E7",
"[+	c #2B29E8",
"}+	c #2A2AE8",
"|+	c #2A2AE9",
"1+	c #292AE9",
"2+	c #292AE8",
"3+	c #2929E7",
"4+	c #2829E7",
"5+	c #2929E8",
"6+	c #2828E8",
"7+	c #2D2CEE",
"8+	c #2C2DED",
"9+	c #2C2CED",
"0+	c #2C2CEE",
"a+	c #2C2CEC",
"b+	c #2B2BEC",
"c+	c #2B2BED",
"d+	c #2B2BEE",
"e+	c #2B2BEF",
"f+	c #2B2AF0",
"g+	c #2B2AEF",
"h+	c #2A29EF",
"i+	c #2A29EE",
"j+	c #2929EE",
"k+	c #2F2FEE",
"l+	c #2F2FEF",
"m+	c #2F2FF0",
"n+	c #2E2EF1",
"o+	c #2E2EF2",
"p+	c #2E2EF0",
"q+	c #2F2EF0",
"r+	c #2F2EF1",
"s+	c #2F2EF2",
"t+	c #2E2DF1",
"u+	c #2D2CF1",
"v+	c #2D2CF2",
"w+	c #2D2DF1",
"x+	c #2C2CF1",
"y+	c #3230F5",
"z+	c #3130F6",
"A+	c #3131F6",
"B+	c #3031F7",
"C+	c #3031F8",
"D+	c #3030F8",
"E+	c #3130F8",
"F+	c #302FF8",
"G+	c #302FF7",
"H+	c #302FF6",
"I+	c #2F2FF4",
"J+	c #2F2EF4",
"K+	c #3431F9",
"L+	c #3331F9",
"M+	c #3332F9",
"N+	c #3232F9",
"O+	c #3232F8",
"P+	c #3232F7",
"Q+	c #3231F8",
"R+	c #3130F7",
"S+	c #3130F9",
"T+	c #3130FA",
"U+	c #312FFC",
"V+	c #312FFD",
"W+	c #312FFE",
"X+	c #3230FE",
"Y+	c #2B2BE2",
"Z+	c #2B2BE3",
"`+	c #2B2BE5",
" @	c #2A2AE6",
".@	c #2A2AE7",
"+@	c #2A2BE8",
"@@	c #2A2BE7",
"#@	c #2929EA",
"$@	c #2929E9",
"%@	c #2829E8",
"&@	c #2829E6",
"*@	c #1A1DA9",
"=@	c #1A1DAA",
"-@	c #1A1DAC",
";@	c #1A1CAF",
">@	c #1A1CB1",
",@	c #1A1BB4",
"'@	c #1A1BB5",
")@	c #1A1BB6",
"!@	c #191BB5",
"~@	c #191CB5",
"{@	c #191CB6",
"]@	c #191CB7",
"^@	c #181BB7",
"/@	c #171AB7",
"(@	c #171AB6",
"_@	c #171AB5",
":@	c #171AB4",
"<@	c #171AB3",
"[@	c #1719B5",
"}@	c #1719B6",
"|@	c #100888",
"1@	c #100889",
"2@	c #10088A",
"3@	c #10078B",
"4@	c #10078C",
"5@	c #0F088A",
"6@	c #0F0889",
"7@	c #0F0888",
"8@	c #0E0788",
"9@	c #0E0787",
"0@	c #0E0786",
"a@	c #0F0886",
"b@	c #0F0885",
"c@	c #0F0884",
"d@	c #0F0984",
"e@	c #0F0983",
"f@	c #0E0883",
"g@	c #0E0783",
"h@	c #0E0782",
"i@	c #0E0882",
". . . . . + @ # # # $ $ % % % % % % % % % % % % % % % % % % % % % % % % % % % % % % % $ $ $ $ $ # # # # # & & & & & & @ @ @ @ @ * * * * * = = = = = = = = = = = = = = = = = = = = = ",
"- - - - - ; > , , , ' ) ! ! ! ! ! ! ! ! ! ! ! ! ! ! ! ! ! ! ! ! ! ! ! ! ! ! ~ ~ ~ ~ ~ ' ' ' ' ' , , , , , , , , , , { ] ] ] ] ] ^ / / / / ( ( ( ( ( ( ( ( ( ( ( ( ( ( ( ( ( ( ( ( ( ",
"_ _ _ _ : < [ } | | | 1 1 1 1 1 1 1 1 1 1 2 2 2 2 2 3 4 5 5 5 6 6 7 7 7 7 7 7 7 7 7 7 6 6 6 6 6 6 6 6 6 6 7 7 7 7 7 7 8 8 8 8 8 9 0 0 0 a a b c c c d d d d d d d d d d d e e e e e ",
"f f f f f f g g g g g h h h h h h h h h h i i i i i h j k k k k k k k k k j j j j j j l l l l l m m m m m n n n n n n o o o o o p p p p p p q q q r r s s s s s t t t t t u u u u u ",
"v v v v v v v v v v v v v v v v v v v v v v w w w w w x x x x x y y y y y z z z z z z A A A A A B B B B B B C C C C D E E E E E E F F F F G G G G G G G G G G G H H H H H H H H H H ",
"I I I I I I J J J J J K K K K K K K K K K K L L L L L L L L L L M M M M M M M M M M M N N N N N N N N N N N N N N N N N N N N N N N N N N N N N N N N O O O O O O O O O O O O O O O ",
"P P P P P P P P P P P P P P P P P P P P P P Q Q Q Q Q Q Q Q Q Q Q Q Q Q Q Q Q Q Q Q Q P P P P P P P P P P P P P P P P R R R R R R R R R R S S S S S S Q Q Q Q Q Q Q Q Q Q Q Q Q Q Q ",
"T T T T T T T T T T T U U U U U U V V V V V V V V V V V V V V V V V V V V V V V V V V V V V V V V V V V V V V V V V V V V V V V V V V V V V V V V V V V V V V V V V V V V V V V V V ",
"W W W W W X Y Y Y Y Z W ` ` ` ` ` ` ` ` ` ` ` ` ` ` ` ` ` ` ` ` ` ` ` ` ` ` ` ` ` ` ` ` ` ` ` ` ` ` ` ` ` ` ` ` ` ` ` ` ` ` ` ` ` ` ` ` ` ` ` ` ` ` ` ` ` ` ` ` ` ` ` ` ` ` ` ` ` ` ",
" . . . . . . . . . . ...............................................................................................................................................................",
"+.+.+.+.+.+.@.@.@.@.@.@.@.@.@.@.#.#.#.#.#.#.#.#.#.#.#.#.#.#.#.#.#.#.#.#.#.#.#.#.#.#.#.#.#.#.#.#.#.#.#.#.#.#.#.#.#.#.#.#.#.#.#.#.#.#.#.#.#.#.#.#.#.#.#.#.#.#.#.#.$.$.$.$.$.$.$.$.$.$.",
"%.%.%.%.%.&.&.*.*.*.*.*.*.*.*.*.*.*.*.*.*.*.*.*.*.*.*.*.*.*.*.*.*.*.*.*.*.*.*.*.*.*.*.*.*.*.*.*.*.*.*.*.*.*.*.*.*.*.*.*.*.*.*.*.*.*.*.*.*.*.*.*.*.*.*.*.*.*.*.*.=.=.=.=.=.-.-.-.-.-.",
";.;.;.;.;.;.>.>.>.>.>.,.,.,.,.,.,.,.,.,.,.,.,.,.,.,.,.,.,.,.,.,.,.,.,.,.,.,.,.,.,.,.,.,.,.,.,.,.,.,.,.,.,.,.,.,.,.,.,.,.,.,.,.,.'.'.'.'.'.'.'.'.'.'.'.'.'.'.'.'.'.'.'.'.'.).).).).).",
"!.!.!.!.!.~.{.].].].].^.^.^.^.^.^.^.^.^.^.^.^.^.^.^.^.^.^.^.^.^.^.^.^.^.^.^.^.^.^.^.^.^.^.^.^.^.^.^.^.^.^.^.^.^.^.^.^.^.^.^.^.^./././././.(.(.(.(.(.(.(.(.(.(.(.(.(.(.(.(.(.(.(.(.(.",
"_._._._._.:.<.[.[.[.[.[.[.[.[.[.}.}.}.}.}.}.}.}.}.}.}.}.}.}.}.}.}.}.}.}.}.}.}.}.}.}.}.}.}.}.}.}.}.}.}.}.}.}.}.}.}.}.}.}.}.}.}.}.[.[.[.[.[.|.|.|.|.|.|.|.|.|.|.|.|.|.|.|.|.|.|.|.|.|.",
"1.1.1.1.1.2.2.3.3.3.3.3.2.2.2.2.2.2.2.2.2.2.2.2.2.2.2.2.2.2.2.2.2.2.2.2.2.2.2.2.2.2.2.2.2.2.2.2.2.2.2.2.2.2.2.2.2.2.2.2.2.2.2.2.4.4.4.4.4.5.5.5.5.5.6.6.6.6.6.6.5.5.5.5.5.5.5.5.5.5.",
"7.7.7.7.7.8.9.0.0.0.a.b.c.c.c.c.c.c.c.c.c.c.c.c.c.c.c.c.c.c.c.c.c.c.c.c.c.c.c.c.c.c.c.c.c.c.c.c.c.c.c.c.c.c.c.c.c.c.c.c.c.c.c.c.c.c.c.c.c.c.c.c.c.c.c.c.c.c.c.c.d.d.d.d.d.d.d.d.d.d.",
"e.e.e.e.f.g.h.i.i.i.j.k.l.l.l.l.l.l.l.l.l.l.l.l.l.l.l.l.l.l.l.l.l.l.l.l.l.l.l.l.l.l.l.l.l.l.l.l.m.m.m.m.m.n.n.n.n.n.o.p.p.p.p.p.q.q.q.q.q.q.q.q.q.q.q.q.q.q.q.q.q.q.q.q.q.q.q.q.q.q.",
"r.r.r.r.s.t.u.v.w.w.w.w.w.w.w.w.w.w.w.w.w.w.w.w.w.w.w.w.w.w.w.w.w.w.w.w.w.w.w.w.w.w.w.x.x.x.x.x.y.y.y.y.y.y.y.y.y.y.z.z.z.z.z.z.z.y.y.y.y.A.A.A.A.A.A.A.A.A.A.A.A.A.A.A.A.A.A.A.A.A.",
"B.B.B.B.C.D.E.F.F.F.F.F.G.G.G.G.G.G.G.G.G.G.G.G.G.G.G.G.G.G.G.G.G.G.G.G.G.G.G.G.G.G.F.F.F.F.F.G.H.I.I.I.I.I.I.I.I.I.H.J.K.K.K.K.L.L.L.L.L.L.L.L.L.L.L.L.L.L.L.L.L.L.L.L.L.L.L.L.L.L.",
"M.M.M.M.N.O.P.Q.Q.Q.Q.Q.Q.Q.Q.Q.Q.Q.Q.Q.Q.Q.Q.Q.Q.Q.Q.Q.Q.Q.Q.Q.Q.Q.Q.Q.Q.Q.Q.Q.Q.Q.Q.Q.Q.Q.Q.Q.R.R.R.R.R.S.S.S.S.S.S.R.R.R.R.R.T.T.T.T.T.T.T.T.T.T.T.T.T.T.T.T.T.T.T.T.T.T.T.T.T.T.",
"U.U.U.U.V.W.X.Y.Z.Z.`.`.`.`.`.`. + + + + + +.+.+.+.+.+.+.+.+.+.+.+.+.+.+.+.+.+.+.+.+.+.+.+.+.+.+ + + + + +++++++++++++@+@+@+@+@+@+@+@+@+@+@+@+@+@+@+@+@+@+@+@+@+@+@+@+@+@+@+@+@+@+@+",
"#+#+#+#+$+%+&+*+=+=+-+-+-+-+-+-+=+=+=+=+=+=+;+;+;+;+;+;+;+;+;+;+;+;+;+;+;+;+;+;+;+;+;+;+;+;+;+;+=+=+=+=+=+=+=+=+=+=+=+=+=+=+=+=+>+>+>+>+>+,+,+,+,+,+,+,+,+,+,+,+,+,+,+,+,+,+,+,+,+,+",
"'+'+'+'+'+)+!+~+~+~+~+{+]+]+]+]+]+]+]+]+]+]+^+^+^+^+^+^+^+^+^+^+]+]+]+]+]+]+^+^+^+^+^+/+/+/+/+/+/+/+/+/+/+(+(+(+(+(+(+^+^+^+^+^+]+]+]+]+]+{+{+{+{+{+{+_+_+_+_+_+:+:+:+:+:+:+:+:+:+:+",
"<+<+<+<+<+[+}+|+|+|+|+1+2+2+2+2+2+2+2+2+2+2+}+}+}+}+}+}+}+}+}+}+}+}+}+}+}+}+3+3+3+3+4+4+4+4+4+4+3+3+3+3+3+3+3+3+3+3+3+3+3+3+3+3+5+5+5+5+5+5+5+5+5+5+5+5+5+5+5+5+6+6+6+6+6+6+6+6+6+6+",
"7+7+7+7+7+7+8+8+8+8+8+9+9+9+9+9+0+0+0+0+0+0+9+9+9+9+a+a+a+a+a+a+b+c+c+c+c+c+c+c+c+c+c+c+c+c+c+c+c+c+c+c+c+c+c+c+c+c+c+c+c+c+c+c+c+c+c+c+c+c+d+d+d+e+e+f+f+f+f+g+h+i+i+i+i+j+j+j+j+j+",
"k+k+k+k+l+m+n+o+o+o+o+n+p+p+p+p+q+r+r+r+r+s+o+o+o+o+o+t+t+t+t+t+u+v+v+v+v+v+v+v+v+v+v+v+v+v+v+v+v+v+v+v+v+v+v+v+v+v+v+v+v+v+v+v+v+v+v+v+v+w+w+w+w+w+w+w+w+w+w+w+u+u+u+u+u+x+x+x+x+x+",
"y+y+y+y+y+z+A+B+B+B+C+D+E+E+E+E+E+E+E+E+E+E+E+E+E+E+E+F+F+F+F+F+G+G+G+G+G+G+G+G+G+G+G+G+G+G+G+G+G+G+G+G+G+G+G+G+G+G+G+G+G+G+G+G+G+G+G+G+G+G+H+H+H+H+H+; ; ; ; ; I+I+I+I+I+J+J+J+J+J+",
"K+K+K+K+K+L+M+N+N+N+O+O+P+P+P+P+P+P+P+P+P+P+Q+Q+Q+Q+Q+E+E+E+E+E+R+R+R+R+R+R+R+R+R+R+R+R+R+R+R+R+R+R+R+R+R+R+R+R+R+R+R+R+R+R+R+R+R+R+R+R+E+E+S+T+T+@ U+V+W+W+W+W+X+X+X+X+X+X+X+X+X+X+",
"Y+Y+Y+Y+Z+`+ @.@}+}+}++@+@+@+@+@+@+@+@+@+@@@.@.@.@.@}+2+1+1+1+1+#@#@#@#@#@#@#@#@#@#@#@$@$@$@$@$@$@$@$@$@$@$@$@$@$@$@$@$@$@$@$@$@$@$@$@$@$@$@$@$@$@$@5+%@4+4+4+&@&@&@&@&@&@&@&@&@&@&@",
"*@*@*@=@-@;@>@,@'@)@)@!@~@~@~@~@~@{@{@{@{@]@^@^@^@^@^@^@^@^@^@^@^@^@^@^@^@^@/@/@/@/@/@(@(@(@(@(@(@(@(@(@(@(@(@(@(@(@(@(@(@(@(@(@(@_@_@_@:@:@<@<@<@<@<@<@:@:@:@_@[@}@}@}@}@}@}@}@}@}@",
"|@|@|@|@1@2@3@4@4@4@3@5@6@7@7@7@7@7@7@7@7@8@9@9@9@9@0@a@b@b@b@c@d@e@e@e@e@e@f@f@f@f@g@h@h@h@h@h@i@i@i@i@i@i@i@i@i@i@i@i@i@i@i@i@i@i@i@i@i@g@g@g@g@g@g@g@g@g@g@g@g@g@g@g@g@g@g@g@g@g@"};
