/* XPM */
static char * taskbuttonactive_xpm[] = {
"16 32 141 2",
"  	c None",
". 	c #91BFFD",
"+ 	c #8FC3FD",
"@ 	c #91C6FD",
"# 	c #91CBFD",
"$ 	c #8A9FDC",
"% 	c #8DA4D9",
"& 	c #8FA5D7",
"* 	c #8FAAD7",
"= 	c #8FA8D7",
"- 	c #7C85C2",
"; 	c #7B82C3",
"> 	c #7B84C1",
", 	c #7B85C1",
"' 	c #8086C0",
") 	c #7C86C2",
"! 	c #7E84BE",
"~ 	c #5E63C2",
"{ 	c #5E65C0",
"] 	c #5F61C1",
"^ 	c #5E60C2",
"/ 	c #5F63C1",
"( 	c #5F64C3",
"_ 	c #6266C4",
": 	c #6367C3",
"< 	c #6569C3",
"[ 	c #6466C4",
"} 	c #6567C3",
"| 	c #6468C4",
"1 	c #686CC2",
"2 	c #696DC3",
"3 	c #6E72C2",
"4 	c #7074C4",
"5 	c #7379C5",
"6 	c #747AC6",
"7 	c #757CC7",
"8 	c #747CCA",
"9 	c #777EC9",
"0 	c #767ECC",
"a 	c #7781CB",
"b 	c #7680CC",
"c 	c #757DCD",
"d 	c #7682CC",
"e 	c #7983CD",
"f 	c #7882CC",
"g 	c #757ED1",
"h 	c #7C87CE",
"i 	c #7B87CF",
"j 	c #7883D2",
"k 	c #7780D3",
"l 	c #7B86D5",
"m 	c #7B8AD3",
"n 	c #7C8BD4",
"o 	c #7C87D4",
"p 	c #7C87D8",
"q 	c #7C89D8",
"r 	c #7D8CD7",
"s 	c #7D8ED7",
"t 	c #808ED4",
"u 	c #818DD9",
"v 	c #7E89DC",
"w 	c #7F8CDB",
"x 	c #7E8EDC",
"y 	c #7E8DDC",
"z 	c #7F90DB",
"A 	c #8191D9",
"B 	c #8092D8",
"C 	c #7E8EDE",
"D 	c #808FDC",
"E 	c #7E90DE",
"F 	c #8091DC",
"G 	c #8395D9",
"H 	c #8295DA",
"I 	c #8395DF",
"J 	c #8195E1",
"K 	c #8397DF",
"L 	c #8597DD",
"M 	c #8698DE",
"N 	c #859BE1",
"O 	c #889EDE",
"P 	c #849AE0",
"Q 	c #849CE0",
"R 	c #839BE1",
"S 	c #859DE1",
"T 	c #86A0E2",
"U 	c #86A2E2",
"V 	c #88A2E2",
"W 	c #889FE2",
"X 	c #87A9E7",
"Y 	c #87A7E7",
"Z 	c #87A4E7",
"` 	c #8AA6E6",
" .	c #8BA9E5",
"..	c #87A2E7",
"+.	c #88ABEA",
"@.	c #87A9ED",
"#.	c #8AACEA",
"$.	c #8BAAE9",
"%.	c #8AAAEA",
"&.	c #85A8F1",
"*.	c #86A9F0",
"=.	c #89AAED",
"-.	c #89ABEF",
";.	c #84AAF8",
">.	c #87AEF5",
",.	c #88AEF4",
"'.	c #88ACF4",
").	c #89ADF5",
"!.	c #83AEFD",
"~.	c #85AFFD",
"{.	c #88B0FA",
"].	c #8BB3F5",
"^.	c #89B5FD",
"/.	c #89B2FD",
"(.	c #8FBDF7",
"_.	c #8DBAFD",
":.	c #8DBCFD",
"<.	c #8DBFFD",
"[.	c #91BCFD",
"}.	c #95C6FD",
"|.	c #97C2FD",
"1.	c #97C5FD",
"2.	c #8FC2F7",
"3.	c #8CC0FA",
"4.	c #89BAFD",
"5.	c #89B7FD",
"6.	c #89BDFD",
"7.	c #8AA3D0",
"8.	c #89A2D1",
"9.	c #869CD4",
"0.	c #889ED4",
"a.	c #899FD1",
"b.	c #899DD1",
"c.	c #899AD1",
"d.	c #8A9CD0",
"e.	c #7B87B5",
"f.	c #7986B7",
"g.	c #7985B7",
"h.	c #7983B7",
"i.	c #7B81B5",
"j.	c #7C81B4",
". . . . + + + + + @ @ @ # # # # ",
"$ $ $ $ $ $ $ $ % & & & & * * = ",
"- - ; ; > , > , > - - ' ) ! ! ! ",
"~ ~ ~ ~ { { { { ~ ] ] ^ ^ ~ ~ / ",
"( ( _ _ _ : _ < < [ [ [ } | | [ ",
"1 1 1 1 1 1 1 2 2 2 2 2 1 1 1 1 ",
"3 3 3 3 3 3 3 3 3 3 3 3 3 3 3 3 ",
"4 4 4 4 4 4 4 4 4 4 4 4 4 4 4 4 ",
"5 5 6 6 6 6 6 6 6 6 6 6 6 6 6 6 ",
"7 7 7 7 8 8 8 8 8 8 8 8 8 8 8 9 ",
"0 0 0 a 0 b b b c c c c c c c c ",
"d d d d b e f f e g g g g g g g ",
"h h h h h i i i j k k k k k k k ",
"l l l l m n n n n o o o o o o o ",
"p p p p q r r r s t t t t t t t ",
"u u v w x x y y z A A B B A A A ",
"C C D D E C C C F G G G G H H H ",
"I I I I J J J J I K K L L M M M ",
"N N O P Q R S S S N N N N N N N ",
"T T T T T T U T V V V V V W W T ",
"X X Y Y Y Z Z ` `  . . . ... . .",
"+.+.@.@.#.$.$.$.%.$.$.$.$.$.$.$.",
"&.&.&.&.*.=.-.-.-.-.-.-.-.-.-.-.",
";.;.;.;.>.>.>.>.,.'.'.'.).).).'.",
"!.!.~.~.~.~.~.~.{.].].].].].].].",
"^.^.^.^././././.^.(.(.(.(.(.(.(.",
"_._._._._._._._.:.<.<.<.<.<.<.<.",
"[.[.[.[.. [.[.[.. . . . . . . . ",
"}.}.|.|.|.|.|.|.|.1.|.|.|.|.|.|.",
"2.2.3.3.4.5.5.5.4.6.6.6.6.6.6.6.",
"7.8.8.8.9.0.0.0.0.0.0.a.b.c.c.d.",
"e.e.f.g.h.i.i.i.i.i.i.i.i.j.j.j."};
