/* XPM */
static char * taskbarbg_xpm[] = {
"17 32 224 2",
"  	c #322FFB",
". 	c #3030FB",
"+ 	c #3030F9",
"@ 	c #3030FA",
"# 	c #3131FC",
"$ 	c #3130FB",
"% 	c #302FFB",
"& 	c #2F2FFB",
"* 	c #312FF5",
"= 	c #2F30F5",
"- 	c #312FF3",
"; 	c #312FF4",
"> 	c #3030F4",
", 	c #2E30F4",
"' 	c #2E2FF5",
") 	c #2E2FF6",
"! 	c #2421D4",
"~ 	c #2422CF",
"{ 	c #2323CF",
"] 	c #2423CE",
"^ 	c #2322D0",
"/ 	c #2322D2",
"( 	c #2322D1",
"_ 	c #2321D2",
": 	c #2220D1",
"< 	c #2221CF",
"[ 	c #2221CE",
"} 	c #2121CE",
"| 	c #1414A1",
"1 	c #1414A0",
"2 	c #13159F",
"3 	c #1315A0",
"4 	c #12149E",
"5 	c #12149F",
"6 	c #13139E",
"7 	c #14139E",
"8 	c #14149E",
"9 	c #14149D",
"0 	c #13139D",
"a 	c #13139C",
"b 	c #13139A",
"c 	c #12129B",
"d 	c #12119B",
"e 	c #05067E",
"f 	c #04067D",
"g 	c #04057C",
"h 	c #04057B",
"i 	c #03057B",
"j 	c #04057A",
"k 	c #050579",
"l 	c #040579",
"m 	c #040478",
"n 	c #040479",
"o 	c #04047A",
"p 	c #030379",
"q 	c #050385",
"r 	c #050486",
"s 	c #050386",
"t 	c #040286",
"u 	c #040386",
"v 	c #030386",
"w 	c #030486",
"x 	c #06068B",
"y 	c #06068C",
"z 	c #05068B",
"A 	c #05068C",
"B 	c #080891",
"C 	c #080790",
"D 	c #080791",
"E 	c #090A96",
"F 	c #090997",
"G 	c #090A95",
"H 	c #0B0B9C",
"I 	c #0B0C9B",
"J 	c #0D0DA2",
"K 	c #0D0DA1",
"L 	c #0D0EA1",
"M 	c #0D0DA0",
"N 	c #100FA9",
"O 	c #100FA7",
"P 	c #0F0EA7",
"Q 	c #0E0EA6",
"R 	c #1310AD",
"S 	c #1211AC",
"T 	c #1211AB",
"U 	c #1111AB",
"V 	c #1111AA",
"W 	c #1613B0",
"X 	c #1414B0",
"Y 	c #1414AF",
"Z 	c #1314AF",
"` 	c #1313AE",
" .	c #1815B4",
"..	c #1616B4",
"+.	c #1616B5",
"@.	c #1515B4",
"#.	c #1917BB",
"$.	c #1717BB",
"%.	c #1817BB",
"&.	c #1817BA",
"*.	c #1716BA",
"=.	c #1716B9",
"-.	c #1B18BE",
";.	c #1919C0",
">.	c #1A18C2",
",.	c #1917C1",
"'.	c #1E1AC6",
").	c #1C1CC2",
"!.	c #1B1CC4",
"~.	c #1B1CC5",
"{.	c #1B1BC5",
"].	c #1C1CC5",
"^.	c #1B1BC4",
"/.	c #1E1DCC",
"(.	c #1C1FC7",
"_.	c #1C1EC8",
":.	c #1C1EC9",
"<.	c #1D1FC9",
"[.	c #1B1DC8",
"}.	c #211FD1",
"|.	c #1F21CE",
"1.	c #1F21CF",
"2.	c #1F20D0",
"3.	c #1E20CE",
"4.	c #1E1FCE",
"5.	c #2321D6",
"6.	c #2122D3",
"7.	c #2122D4",
"8.	c #2122D5",
"9.	c #2021D3",
"0.	c #2723D6",
"a.	c #2325D8",
"b.	c #2225D8",
"c.	c #2224D8",
"d.	c #2325D9",
"e.	c #2224D7",
"f.	c #2123D7",
"g.	c #2924DA",
"h.	c #2426DC",
"i.	c #2427DC",
"j.	c #2527DD",
"k.	c #2425DC",
"l.	c #2425DD",
"m.	c #2927E2",
"n.	c #2828E4",
"o.	c #2728E3",
"p.	c #2728E2",
"q.	c #2627E1",
"r.	c #2627E2",
"s.	c #2728E4",
"t.	c #2627E4",
"u.	c #2627E3",
"v.	c #2B29E7",
"w.	c #2A2AE9",
"x.	c #292AE8",
"y.	c #2A2AE8",
"z.	c #2929E7",
"A.	c #2829E7",
"B.	c #2929E8",
"C.	c #2828E8",
"D.	c #2D2CEE",
"E.	c #2C2DED",
"F.	c #2C2CED",
"G.	c #2C2CEE",
"H.	c #2C2CEC",
"I.	c #2B2BED",
"J.	c #2B2BEE",
"K.	c #2B2AF0",
"L.	c #2A29EE",
"M.	c #2929EE",
"N.	c #2F2FEE",
"O.	c #2E2EF2",
"P.	c #2E2EF0",
"Q.	c #2F2EF1",
"R.	c #2E2DF1",
"S.	c #2D2CF2",
"T.	c #2D2DF1",
"U.	c #2D2CF1",
"V.	c #2C2CF1",
"W.	c #3230F5",
"X.	c #3031F7",
"Y.	c #3130F8",
"Z.	c #302FF8",
"`.	c #302FF7",
" +	c #302FF6",
".+	c #302FF5",
"++	c #2F2FF4",
"@+	c #2F2EF4",
"#+	c #3431F9",
"$+	c #3232F9",
"%+	c #3232F7",
"&+	c #3231F8",
"*+	c #3130F7",
"=+	c #3130FA",
"-+	c #312FFE",
";+	c #3230FE",
">+	c #2B2BE2",
",+	c #2A2BE8",
"'+	c #2A2AE7",
")+	c #292AE9",
"!+	c #2929EA",
"~+	c #2929E9",
"{+	c #2829E6",
"]+	c #1A1DAA",
"^+	c #1A1BB5",
"/+	c #191CB5",
"(+	c #191CB6",
"_+	c #181BB7",
":+	c #171AB7",
"<+	c #171AB6",
"[+	c #171AB5",
"}+	c #171AB3",
"|+	c #171AB4",
"1+	c #1719B6",
"2+	c #100888",
"3+	c #10078C",
"4+	c #0F0888",
"5+	c #0E0787",
"6+	c #0F0885",
"7+	c #0F0983",
"8+	c #0E0883",
"9+	c #0E0782",
"0+	c #0E0882",
"a+	c #0E0783",
"  . + + + + + + @ . # $ % & & & & ",
"* = - - - - - ; > = = , ' ) ) ) ) ",
"! ~ { { ] ^ / / ( ( / _ : < [ [ } ",
"| 1 2 2 3 4 4 5 6 7 8 9 0 a b c d ",
"e e e e f g h i j k l m n o o p p ",
"q r s s t t u u v v v v v v w w w ",
"x x x x y y y y x x x z z A y y y ",
"B B C D D D D D D D D D D D D D D ",
"E F G G G G G G G G G G G G G G G ",
"H H I I I I I I I I I I I I I I I ",
"J K K L L L L L L L L L L L L M M ",
"N O O O O O O O O O O O O O O P Q ",
"R S T T T T T T T T T T U U U U V ",
"W X Y Y Y Y Y Y Y Y Y Y Z ` ` ` ` ",
" .....+.+.+.+.+.+.+.+.+...@.@.@.@.",
"#.$.%.%.%.%.%.%.%.%.%.%.&.*.=.*.*.",
"-.;.>.>.>.>.>.>.>.>.>.>.>.>.>.,.,.",
"'.).!.!.!.!.!.!.!.~.{.].^.^.^.^.^.",
"/.(.(.(.(.(.(.(._.:.:.<.:.[.[.[.[.",
"}.|.1.1.1.1.1.1.|.2.2.3.4.4.4.4.4.",
"5.6.6.6.6.6.6.6.6.7.8.7.9.9.9.9.9.",
"0.a.b.c.d.d.d.d.d.c.e.f.f.f.f.f.f.",
"g.h.i.h.j.j.j.j.j.h.h.h.k.l.l.l.l.",
"m.n.o.o.p.p.o.p.q.q.r.p.o.s.t.u.u.",
"v.w.x.x.y.y.y.z.A.z.z.z.B.B.B.C.C.",
"D.E.F.G.F.H.I.I.I.I.I.I.I.J.K.L.M.",
"N.O.P.Q.O.R.S.S.S.S.S.S.S.T.T.U.V.",
"W.X.Y.Y.Y.Z.`.`.`.`.`.`.`. +.+++@+",
"#+$+%+%+&+Y.*+*+*+*+*+*+*+=+-+;+;+",
">+y.,+,+'+)+!+!+~+~+~+~+~+~+A.{+{+",
"]+^+/+(+_+_+_+:+<+<+<+<+[+}+|+1+1+",
"2+3+4+4+5+6+7+8+9+0+0+0+0+a+a+a+a+"};
