/* XPM */
static char * a_xpm[] = {
"15 20 53 1",
" 	c None",
".	c #737373",
"+	c #8F8F8F",
"@	c #ABABAB",
"#	c #9B9B9B",
"$	c #8A8A8A",
"%	c #000000",
"&	c #555555",
"*	c #8D8D8D",
"=	c #3C3C3C",
"-	c #1E1E1E",
";	c #0E0E0E",
">	c #7D7D7D",
",	c #0C0C0C",
"'	c #191919",
")	c #444444",
"!	c #616161",
"~	c #5A5A5A",
"{	c #3E3E3E",
"]	c #656565",
"^	c #323232",
"/	c #757575",
"(	c #686868",
"_	c #181818",
":	c #0A0A0A",
"<	c #7E7E7E",
"[	c #1B1B1B",
"}	c #454545",
"|	c #535353",
"1	c #878787",
"2	c #4A4A4A",
"3	c #797979",
"4	c #2B2B2B",
"5	c #919191",
"6	c #2F2F2F",
"7	c #666666",
"8	c #A3A3A3",
"9	c #484848",
"0	c #6C6C6C",
"a	c #232323",
"b	c #ADADAD",
"c	c #252525",
"d	c #383838",
"e	c #999999",
"f	c #B7B7B7",
"g	c #A1A1A1",
"h	c #646464",
"i	c #BDBDBD",
"j	c #676767",
"k	c #141414",
"l	c #282828",
"m	c #C2C2C2",
"n	c #C0C0C0",
"...............",
"+++++++++++++++",
"@@@@@@@@@@@@@@@",
"#####$%%&######",
"*****=%-;******",
">>>>>,')%!>>>>>",
"....~%{]%^.....",
"////^%(/_://///",
"<<<<%[<<}%|<<<<",
"111~%2113%41111",
"5556%55556%5555",
"###%%%%%%%%7###",
"88~%900000%a888",
"bbc%bbbbbbd%ebb",
"fg%=ffffff3%hff",
"ij%>iiiiiiiklii",
"mmmmmmmmmmmmmmm",
"nnnnnnnnnnnnnnn",
"fffffffffffffff",
"888888888888888"};
