/* XPM */
static char * colon_xpm[] = {
"5 20 30 1",
" 	c None",
".	c #737373",
"+	c #8F8F8F",
"@	c #ABABAB",
"#	c #9B9B9B",
"$	c #8D8D8D",
"%	c #7D7D7D",
"&	c #5A5A5A",
"*	c #252525",
"=	c #3E3E3E",
"-	c #757575",
";	c #4D4D4D",
">	c #000000",
",	c #262626",
"'	c #7E7E7E",
")	c #535353",
"!	c #282828",
"~	c #878787",
"{	c #919191",
"]	c #A3A3A3",
"^	c #ADADAD",
"/	c #868686",
"(	c #383838",
"_	c #606060",
":	c #B7B7B7",
"<	c #797979",
"[	c #3C3C3C",
"}	c #BDBDBD",
"|	c #C2C2C2",
"1	c #C0C0C0",
".....",
"+++++",
"@@@@@",
"#####",
"$$$$$",
"%%%%%",
".&*=.",
"-;>,-",
"')>!'",
"~~~~~",
"{{{{{",
"#####",
"]]]]]",
"^/(_^",
":<>[:",
"}%>=}",
"|||||",
"11111",
":::::",
"]]]]]"};
