/* XPM */
static char * dot_xpm[] = {
"5 20 24 1",
" 	c None",
".	c #737373",
"+	c #8F8F8F",
"@	c #ABABAB",
"#	c #9B9B9B",
"$	c #8D8D8D",
"%	c #7D7D7D",
"&	c #757575",
"*	c #7E7E7E",
"=	c #878787",
"-	c #919191",
";	c #A3A3A3",
">	c #ADADAD",
",	c #868686",
"'	c #383838",
")	c #606060",
"!	c #B7B7B7",
"~	c #797979",
"{	c #000000",
"]	c #3C3C3C",
"^	c #BDBDBD",
"/	c #3E3E3E",
"(	c #C2C2C2",
"_	c #C0C0C0",
".....",
"+++++",
"@@@@@",
"#####",
"$$$$$",
"%%%%%",
".....",
"&&&&&",
"*****",
"=====",
"-----",
"#####",
";;;;;",
">,')>",
"!~{]!",
"^%{/^",
"(((((",
"_____",
"!!!!!",
";;;;;"};
