/* XPM */
static char * m_xpm[] = {
"15 20 56 1",
" 	c None",
".	c #737373",
"+	c #8F8F8F",
"@	c #ABABAB",
"#	c #9B9B9B",
"$	c #323232",
"%	c #000000",
"&	c #8A8A8A",
"*	c #797979",
"=	c #676767",
"-	c #8D8D8D",
";	c #2D2D2D",
">	c #3C3C3C",
",	c #1E1E1E",
"'	c #5C5C5C",
")	c #7D7D7D",
"!	c #282828",
"~	c #363636",
"{	c #6E6E6E",
"]	c #616161",
"^	c #525252",
"/	c #252525",
"(	c #656565",
"_	c #171717",
":	c #4C4C4C",
"<	c #757575",
"[	c #262626",
"}	c #686868",
"|	c #5A5A5A",
"1	c #4D4D4D",
"2	c #7E7E7E",
"3	c #707070",
"4	c #383838",
"5	c #1B1B1B",
"6	c #535353",
"7	c #878787",
"8	c #2B2B2B",
"9	c #3B3B3B",
"0	c #696969",
"a	c #919191",
"b	c #2F2F2F",
"c	c #828282",
"d	c #606060",
"e	c #444444",
"f	c #787878",
"g	c #666666",
"h	c #A3A3A3",
"i	c #353535",
"j	c #929292",
"k	c #6C6C6C",
"l	c #ADADAD",
"m	c #B7B7B7",
"n	c #BDBDBD",
"o	c #3E3E3E",
"p	c #C2C2C2",
"q	c #C0C0C0",
"...............",
"+++++++++++++++",
"@@@@@@@@@@@@@@@",
"#$%%&#####*%%=#",
"-;%%>-----,%%'-",
")!%~%{)))]%~%^)",
"./%(%$...__:%:.",
"<[%<$%}<|%|1%1<",
"2!%23%425526%62",
"78%779%|%07|%|7",
"ab%aac%%,aad%da",
"#$%###e%f##g%g#",
"hi%hhhjkhhhk%kh",
"l4%llllllll.%.l",
"m>%mmmmmmmm*%*m",
"no%nnnnnnnn)%)n",
"ppppppppppppppp",
"qqqqqqqqqqqqqqq",
"mmmmmmmmmmmmmmm",
"hhhhhhhhhhhhhhh"};
