/* XPM */
static char * n0_xpm[] = {
"15 20 52 1",
" 	c None",
".	c #737373",
"+	c #8F8F8F",
"@	c #ABABAB",
"#	c #858585",
"$	c #717171",
"%	c #9B9B9B",
"&	c #8A8A8A",
"*	c #212121",
"=	c #000000",
"-	c #0F0F0F",
";	c #676767",
">	c #8D8D8D",
",	c #1E1E1E",
"'	c #6D6D6D",
")	c #7C7C7C",
"!	c #0E0E0E",
"~	c #7D7D7D",
"{	c #6E6E6E",
"]	c #444444",
"^	c #4C4C4C",
"/	c #5A5A5A",
"(	c #0A0A0A",
"_	c #252525",
":	c #757575",
"<	c #262626",
"[	c #7E7E7E",
"}	c #282828",
"|	c #878787",
"1	c #2B2B2B",
"2	c #919191",
"3	c #2F2F2F",
"4	c #323232",
"5	c #A3A3A3",
"6	c #6C6C6C",
"7	c #7F7F7F",
"8	c #111111",
"9	c #353535",
"0	c #ADADAD",
"a	c #868686",
"b	c #606060",
"c	c #999999",
"d	c #B7B7B7",
"e	c #272727",
"f	c #141414",
"g	c #A1A1A1",
"h	c #BDBDBD",
"i	c #A8A8A8",
"j	c #C2C2C2",
"k	c #969696",
"l	c #808080",
"m	c #C0C0C0",
"...............",
"+++++++++++++++",
"@@@@@@#$$@@@@@@",
"%%%%&*===-;%%%%",
">>>>,='>),!)>>>",
"~~~{=]~~~{=]~~~",
"...^=/....(_...",
":::<=:::::<=:::",
"[[[}=[[[[[}=[[[",
"|||1=|||||1=|||",
"2223=222223=222",
"%%%4=%%%%%4=%%%",
"5556=7555589555",
"000a=b000c=b000",
"ddddef>dge=gddd",
"hhhhi}===f~hhhh",
"jjjjjjklljjjjjj",
"mmmmmmmmmmmmmmm",
"ddddddddddddddd",
"555555555555555"};
