/* XPM */
static char * n1_xpm[] = {
"15 20 35 1",
" 	c None",
".	c #737373",
"+	c #8F8F8F",
"@	c #ABABAB",
"#	c #9B9B9B",
"$	c #212121",
"%	c #323232",
"&	c #8D8D8D",
"*	c #6D6D6D",
"=	c #5C5C5C",
"-	c #1E1E1E",
";	c #000000",
">	c #2D2D2D",
",	c #7D7D7D",
"'	c #282828",
")	c #252525",
"!	c #757575",
"~	c #262626",
"{	c #7E7E7E",
"]	c #878787",
"^	c #2B2B2B",
"/	c #919191",
"(	c #2F2F2F",
"_	c #A3A3A3",
":	c #353535",
"<	c #ADADAD",
"[	c #383838",
"}	c #B7B7B7",
"|	c #797979",
"1	c #272727",
"2	c #A1A1A1",
"3	c #BDBDBD",
"4	c #3E3E3E",
"5	c #C2C2C2",
"6	c #C0C0C0",
"...............",
"+++++++++++++++",
"@@@@@@@@@@@@@@@",
"######$%#######",
"&&&*=-;>&&&&&&&",
",,,';;;',,,,,,,",
"......;).......",
"!!!!!!;~!!!!!!!",
"{{{{{{;'{{{{{{{",
"]]]]]];^]]]]]]]",
"//////;(///////",
"######;%#######",
"______;:_______",
"<<<<<<;[<<<<<<<",
"}}}&||;1||2}}}}",
"3334;;;;;;,3333",
"555555555555555",
"666666666666666",
"}}}}}}}}}}}}}}}",
"_______________"};
