/* XPM */
static char * n2_xpm[] = {
"15 20 43 1",
" 	c None",
".	c #737373",
"+	c #8F8F8F",
"@	c #ABABAB",
"#	c #717171",
"$	c #9B9B9B",
"%	c #212121",
"&	c #000000",
"*	c #676767",
"=	c #8D8D8D",
"-	c #0E0E0E",
";	c #4D4D4D",
">	c #7C7C7C",
",	c #2D2D2D",
"'	c #6D6D6D",
")	c #7D7D7D",
"!	c #6E6E6E",
"~	c #282828",
"{	c #252525",
"]	c #757575",
"^	c #5A5A5A",
"/	c #323232",
"(	c #7E7E7E",
"_	c #636363",
":	c #878787",
"<	c #3B3B3B",
"[	c #919191",
"}	c #606060",
"|	c #2F2F2F",
"1	c #666666",
"2	c #0F0F0F",
"3	c #A3A3A3",
"4	c #6C6C6C",
"5	c #353535",
"6	c #ADADAD",
"7	c #383838",
"8	c #B7B7B7",
"9	c #141414",
"0	c #797979",
"a	c #A1A1A1",
"b	c #BDBDBD",
"c	c #C2C2C2",
"d	c #C0C0C0",
"...............",
"+++++++++++++++",
"@@@@@###@@@@@@@",
"$$$%&&&&&*$$$$$",
"===-;>=>,&'====",
")))!))))!&~))))",
".........&{....",
"]]]]]]]]^&/]]]]",
"((((((((~&_((((",
":::::::^&<:::::",
"[[[[[[}&|[[[[[[",
"$$$$$1&2$$$$$$$",
"33334&533333333",
"666.&7666666666",
"88=&9000000a888",
"bb)&&&&&&&&)bbb",
"ccccccccccccccc",
"ddddddddddddddd",
"888888888888888",
"333333333333333"};
