/* XPM */
static char * n3_xpm[] = {
"15 20 53 1",
" 	c None",
".	c #737373",
"+	c #8F8F8F",
"@	c #ABABAB",
"#	c #979797",
"$	c #717171",
"%	c #9B9B9B",
"&	c #797979",
"*	c #212121",
"=	c #000000",
"-	c #555555",
";	c #8D8D8D",
">	c #5C5C5C",
",	c #0E0E0E",
"'	c #4D4D4D",
")	c #7C7C7C",
"!	c #2D2D2D",
"~	c #6D6D6D",
"{	c #7D7D7D",
"]	c #6E6E6E",
"^	c #282828",
"/	c #252525",
"(	c #757575",
"_	c #262626",
":	c #686868",
"<	c #7E7E7E",
"[	c #454545",
"}	c #0D0D0D",
"|	c #636363",
"1	c #878787",
"2	c #4A4A4A",
"3	c #2B2B2B",
"4	c #1D1D1D",
"5	c #3B3B3B",
"6	c #919191",
"7	c #606060",
"8	c #3F3F3F",
"9	c #323232",
"0	c #A3A3A3",
"a	c #353535",
"b	c #ADADAD",
"c	c #999999",
"d	c #121212",
"e	c #B7B7B7",
"f	c #3C3C3C",
"g	c #272727",
"h	c #BDBDBD",
"i	c #676767",
"j	c #141414",
"k	c #C2C2C2",
"l	c #808080",
"m	c #969696",
"n	c #C0C0C0",
"...............",
"+++++++++++++++",
"@@@@@#$$$@@@@@@",
"%%%&*=====-%%%%",
";;;>,');)!=~;;;",
"{{{]{{{{{{=^{{{",
"..........=/...",
"(((((((((_=:(((",
"<<<<<<[^}^|<<<<",
"111111234=51111",
"6666666667=8666",
"%%%%%%%%%%9=%%%",
"0000000000a=000",
"bbbcbbbbbbd/bbb",
"eeefg&ee;g=&eee",
"hhhij====j{hhhh",
"kkkkk@llmkkkkkk",
"nnnnnnnnnnnnnnn",
"eeeeeeeeeeeeeee",
"000000000000000"};
