/* XPM */
static char * n4_xpm[] = {
"15 20 41 1",
" 	c None",
".	c #737373",
"+	c #8F8F8F",
"@	c #ABABAB",
"#	c #9B9B9B",
"$	c #323232",
"%	c #000000",
"&	c #676767",
"*	c #8D8D8D",
"=	c #2D2D2D",
"-	c #5C5C5C",
";	c #7D7D7D",
">	c #525252",
",	c #282828",
"'	c #4C4C4C",
")	c #757575",
"!	c #5A5A5A",
"~	c #262626",
"{	c #4D4D4D",
"]	c #7E7E7E",
"^	c #707070",
"/	c #0D0D0D",
"(	c #535353",
"_	c #878787",
":	c #797979",
"<	c #919191",
"[	c #2F2F2F",
"}	c #0E0E0E",
"|	c #828282",
"1	c #606060",
"2	c #666666",
"3	c #A3A3A3",
"4	c #7F7F7F",
"5	c #6C6C6C",
"6	c #484848",
"7	c #929292",
"8	c #ADADAD",
"9	c #B7B7B7",
"0	c #BDBDBD",
"a	c #C2C2C2",
"b	c #C0C0C0",
"...............",
"+++++++++++++++",
"@@@@@@@@@@@@@@@",
"########$%&####",
"*******=%%-****",
";;;;;;>%,%>;;;;",
".....'%''%'....",
"))))!%~){%{))))",
"]]]^/,]](%(]]]]",
"__://___!%!____",
"<<[}|<<<1%1<<<<",
"##$%%%%%%%%%2##",
"334555556%65733",
"88888888.%.8888",
"99999999:%:9999",
"00000000;%;0000",
"aaaaaaaaaaaaaaa",
"bbbbbbbbbbbbbbb",
"999999999999999",
"333333333333333"};
