/* XPM */
static char * n5_xpm[] = {
"15 20 43 1",
" 	c None",
".	c #737373",
"+	c #8F8F8F",
"@	c #ABABAB",
"#	c #979797",
"$	c #717171",
"%	c #9B9B9B",
"&	c #676767",
"*	c #000000",
"=	c #8D8D8D",
"-	c #5C5C5C",
";	c #7D7D7D",
">	c #525252",
",	c #4C4C4C",
"'	c #757575",
")	c #4D4D4D",
"!	c #323232",
"~	c #686868",
"{	c #7E7E7E",
"]	c #535353",
"^	c #1B1B1B",
"/	c #707070",
"(	c #878787",
"_	c #797979",
":	c #696969",
"<	c #4A4A4A",
"[	c #1D1D1D",
"}	c #919191",
"|	c #3F3F3F",
"1	c #666666",
"2	c #A3A3A3",
"3	c #6C6C6C",
"4	c #ADADAD",
"5	c #999999",
"6	c #252525",
"7	c #B7B7B7",
"8	c #505050",
"9	c #A1A1A1",
"0	c #BDBDBD",
"a	c #282828",
"b	c #C2C2C2",
"c	c #808080",
"d	c #C0C0C0",
"...............",
"+++++++++++++++",
"@@@#$$$$$$$#@@@",
"%%%&*******&%%%",
"===-*-=========",
";;;>*>;;;;;;;;;",
"...,*,.........",
"''')*!))~''''''",
"{{{]*****^/{{{{",
"(((_:((_<*[((((",
"}}}}}}}}}|*$}}}",
"%%%%%%%%%1*1%%%",
"2222222223*3222",
"4445444446*4444",
"777*89798*87777",
"000a*****]00000",
"bbbbbcccbbbbbbb",
"ddddddddddddddd",
"777777777777777",
"222222222222222"};
