/* XPM */
static char * n6_xpm[] = {
"15 20 52 1",
" 	c None",
".	c #737373",
"+	c #8F8F8F",
"@	c #ABABAB",
"#	c #717171",
"$	c #9B9B9B",
"%	c #8A8A8A",
"&	c #454545",
"*	c #000000",
"=	c #8D8D8D",
"-	c #7C7C7C",
";	c #0E0E0E",
">	c #4D4D4D",
",	c #6D6D6D",
"'	c #7D7D7D",
")	c #363636",
"!	c #6E6E6E",
"~	c #656565",
"{	c #323232",
"]	c #757575",
"^	c #5A5A5A",
"/	c #686868",
"(	c #7E7E7E",
"_	c #282828",
":	c #1B1B1B",
"<	c #707070",
"[	c #878787",
"}	c #2B2B2B",
"|	c #3B3B3B",
"1	c #797979",
"2	c #4A4A4A",
"3	c #1D1D1D",
"4	c #919191",
"5	c #2F2F2F",
"6	c #3F3F3F",
"7	c #666666",
"8	c #A3A3A3",
"9	c #7F7F7F",
"0	c #6C6C6C",
"a	c #ADADAD",
"b	c #868686",
"c	c #383838",
"d	c #B7B7B7",
"e	c #3C3C3C",
"f	c #646464",
"g	c #505050",
"h	c #BDBDBD",
"i	c #3E3E3E",
"j	c #535353",
"k	c #C2C2C2",
"l	c #808080",
"m	c #C0C0C0",
"...............",
"+++++++++++++++",
"@@@@@@@###@@@@@",
"$$$$%&****$$$$$",
"===-;;>==,=====",
"''')*!'''''''''",
"..~*{..........",
"]]>*^/>>^]]]]]]",
"((_*_****:<((((",
"[[}*|1[[2*3[[[[",
"445*444446*#444",
"$${*$$$$$7*7$$$",
"88^*988880*0888",
"aab*>aaaac*aaaa",
"ddde*fddf*gdddd",
"hhhhi****jhhhhh",
"kkkkk@ll@kkkkkk",
"mmmmmmmmmmmmmmm",
"ddddddddddddddd",
"888888888888888"};
