/* XPM */
static char * n7_xpm[] = {
"15 20 35 1",
" 	c None",
".	c #737373",
"+	c #8F8F8F",
"@	c #ABABAB",
"#	c #9B9B9B",
"$	c #000000",
"%	c #8D8D8D",
"&	c #5C5C5C",
"*	c #0E0E0E",
"=	c #7D7D7D",
"-	c #616161",
";	c #363636",
">	c #171717",
",	c #656565",
"'	c #757575",
")	c #4D4D4D",
"!	c #3F3F3F",
"~	c #7E7E7E",
"{	c #0D0D0D",
"]	c #878787",
"^	c #4A4A4A",
"/	c #919191",
"(	c #444444",
"_	c #666666",
":	c #A3A3A3",
"<	c #929292",
"[	c #232323",
"}	c #ADADAD",
"|	c #868686",
"1	c #B7B7B7",
"2	c #272727",
"3	c #BDBDBD",
"4	c #282828",
"5	c #C2C2C2",
"6	c #C0C0C0",
"...............",
"+++++++++++++++",
"@@@@@@@@@@@@@@@",
"###$$$$$$$$$###",
"%%%&&&&&&&*$%%%",
"=========-$;===",
".........>$,...",
"'''''''')$!''''",
"~~~~~~~~{{~~~~~",
"]]]]]]]^$^]]]]]",
"///////**//////",
"######($_######",
":::::<$[:::::::",
"}}}}})$|}}}}}}}",
"1111%$211111111",
"33334$<33333333",
"555555555555555",
"666666666666666",
"111111111111111",
":::::::::::::::"};
