/* XPM */
static char * n8_xpm[] = {
"15 20 51 1",
" 	c None",
".	c #737373",
"+	c #8F8F8F",
"@	c #ABABAB",
"#	c #979797",
"$	c #717171",
"%	c #9B9B9B",
"&	c #8A8A8A",
"*	c #212121",
"=	c #000000",
"-	c #8D8D8D",
";	c #0E0E0E",
">	c #6D6D6D",
",	c #4D4D4D",
"'	c #7D7D7D",
")	c #525252",
"!	c #444444",
"~	c #4C4C4C",
"{	c #3E3E3E",
"]	c #757575",
"^	c #0A0A0A",
"/	c #181818",
"(	c #7E7E7E",
"_	c #707070",
":	c #0D0D0D",
"<	c #454545",
"[	c #282828",
"}	c #878787",
"|	c #797979",
"1	c #1D1D1D",
"2	c #2B2B2B",
"3	c #3B3B3B",
"4	c #919191",
"5	c #828282",
"6	c #2F2F2F",
"7	c #505050",
"8	c #787878",
"9	c #A3A3A3",
"0	c #353535",
"a	c #ADADAD",
"b	c #868686",
"c	c #B7B7B7",
"d	c #A1A1A1",
"e	c #141414",
"f	c #646464",
"g	c #BDBDBD",
"h	c #A8A8A8",
"i	c #C2C2C2",
"j	c #969696",
"k	c #808080",
"l	c #C0C0C0",
"...............",
"+++++++++++++++",
"@@@@@#$$#@@@@@@",
"%%%&*====*&%%%%",
"---;;>--,;;----",
"'')=!''''!=)'''",
"..~={....~=~...",
"]]]^^,]]]/^]]]]",
"(((_:=:<[:_((((",
"}}}|112==3|}}}}",
"445;64447=;5444",
"%%!=&%%%%8=!%%%",
"990=999999=0999",
"aa,=baaaab=,aaa",
"ccdeefcc-eedccc",
"ggghe====[hgggg",
"iiiiijkk@iiiiii",
"lllllllllllllll",
"ccccccccccccccc",
"999999999999999"};
