/* XPM */
static char * n9_xpm[] = {
"15 20 51 1",
" 	c None",
".	c #737373",
"+	c #8F8F8F",
"@	c #ABABAB",
"#	c #717171",
"$	c #858585",
"%	c #9B9B9B",
"&	c #676767",
"*	c #0F0F0F",
"=	c #000000",
"-	c #8A8A8A",
";	c #8D8D8D",
">	c #6D6D6D",
",	c #2D2D2D",
"'	c #7C7C7C",
")	c #0E0E0E",
"!	c #7D7D7D",
"~	c #282828",
"{	c #616161",
"]	c #363636",
"^	c #252525",
"/	c #0A0A0A",
"(	c #171717",
"_	c #757575",
":	c #262626",
"<	c #7E7E7E",
"[	c #0D0D0D",
"}	c #878787",
"|	c #4A4A4A",
"1	c #2B2B2B",
"2	c #797979",
"3	c #919191",
"4	c #3F3F3F",
"5	c #1E1E1E",
"6	c #666666",
"7	c #787878",
"8	c #323232",
"9	c #A3A3A3",
"0	c #7F7F7F",
"a	c #5A5A5A",
"b	c #ADADAD",
"c	c #121212",
"d	c #B7B7B7",
"e	c #3C3C3C",
"f	c #BDBDBD",
"g	c #3E3E3E",
"h	c #929292",
"i	c #C2C2C2",
"j	c #969696",
"k	c #808080",
"l	c #C0C0C0",
"...............",
"+++++++++++++++",
"@@@@@@##$@@@@@@",
"%%%%&*===*-%%%%",
";;;>=,';>))';;;",
"!!!~=!!!!{=]!!!",
"...=^...../(...",
"___=:_____:=___",
"<<<[[<<<<<~=<<<",
"}}}|=12}}|[=}}}",
"33334====)5=333",
"%%%%%-667%*8%%%",
"9999999990=a999",
"bbbbbbbbb^cbbbb",
"dddd;dd;e=2dddd",
"ffffg===~hfffff",
"iiiijkk@iiiiiii",
"lllllllllllllll",
"ddddddddddddddd",
"999999999999999"};
