/* XPM */
static char * p_xpm[] = {
"15 20 30 1",
" 	c None",
".	c #737373",
"+	c #8F8F8F",
"@	c #ABABAB",
"#	c #9B9B9B",
"$	c #000000",
"%	c #8D8D8D",
"&	c #1E1E1E",
"*	c #5C5C5C",
"=	c #7D7D7D",
"-	c #282828",
";	c #252525",
">	c #757575",
",	c #262626",
"'	c #7E7E7E",
")	c #878787",
"!	c #1D1D1D",
"~	c #5A5A5A",
"{	c #919191",
"]	c #323232",
"^	c #A3A3A3",
"/	c #353535",
"(	c #ADADAD",
"_	c #383838",
":	c #B7B7B7",
"<	c #3C3C3C",
"[	c #BDBDBD",
"}	c #3E3E3E",
"|	c #C2C2C2",
"1	c #C0C0C0",
"...............",
"+++++++++++++++",
"@@@@@@@@@@@@@@@",
"#####$$$$$#####",
"%%%%%$&***%%%%%",
"=====$-========",
".....$;........",
">>>>>$,>>>>>>>>",
"'''''$-''''''''",
")))))$!~~~)))))",
"{{{{{$$$$${{{{{",
"#####$]########",
"^^^^^$/^^^^^^^^",
"((((($_((((((((",
":::::$<::::::::",
"[[[[[$}[[[[[[[[",
"|||||||||||||||",
"111111111111111",
":::::::::::::::",
"^^^^^^^^^^^^^^^"};
