/* XPM */
static char * slash_xpm[] = {
"15 20 44 1",
" 	c None",
".	c #737373",
"+	c #8F8F8F",
"@	c #ABABAB",
"#	c #373737",
"$	c #717171",
"%	c #9B9B9B",
"&	c #797979",
"*	c #000000",
"=	c #8D8D8D",
"-	c #3C3C3C",
";	c #0E0E0E",
">	c #7D7D7D",
",	c #444444",
"'	c #3E3E3E",
")	c #656565",
"!	c #757575",
"~	c #181818",
"{	c #262626",
"]	c #7E7E7E",
"^	c #707070",
"/	c #535353",
"(	c #878787",
"_	c #3B3B3B",
":	c #0D0D0D",
"<	c #919191",
"[	c #3F3F3F",
"}	c #787878",
"|	c #A3A3A3",
"1	c #353535",
"2	c #232323",
"3	c #ADADAD",
"4	c #999999",
"5	c #606060",
"6	c #B7B7B7",
"7	c #646464",
"8	c #BDBDBD",
"9	c #282828",
"0	c #C2C2C2",
"a	c #969696",
"b	c #C0C0C0",
"c	c #545454",
"d	c #141414",
"e	c #505050",
"...............",
"+++++++++++++++",
"@@@@@@@@@#$@@@@",
"%%%%%%%%&*&%%%%",
"========-;=====",
">>>>>>>>*,>>>>>",
".......'*).....",
"!!!!!!!~{!!!!!!",
"]]]]]]^*/]]]]]]",
"((((((_:(((((((",
"<<<<<<;[<<<<<<<",
"%%%%%}*}%%%%%%%",
"|||||12||||||||",
"33334*533333333",
"66667*666666666",
"88889'888888888",
"000a*a000000000",
"bbbcdbbbbbbbbbb",
"666e&6666666666",
"|||||||||||||||"};
