/* XPM */
static char * anybuttonI_xpm[] = {
"22 38 72 1",
" 	c None",
".	c #A8A8A8",
"+	c #A7A7A7",
"@	c #A6A7A6",
"#	c #A4A6A5",
"$	c #AAABAB",
"%	c #B0B0B0",
"&	c #9D9D9D",
"*	c #9E9E9E",
"=	c #A4A4A4",
"-	c #989898",
";	c #989999",
">	c #A1A1A1",
",	c #ADADAD",
"'	c #AAAAAA",
")	c #A9A9A9",
"!	c #A2A2A2",
"~	c #AEAEAE",
"{	c #CECECE",
"]	c #DCDCDC",
"^	c #ABABAB",
"/	c #A0A0A0",
"(	c #9F9F9F",
"_	c #9A9A9A",
":	c #CCCCCC",
"<	c #EBEBEB",
"[	c #EAEAEA",
"}	c #E9E9E9",
"|	c #959595",
"1	c #A5A5A5",
"2	c #A6A6A6",
"3	c #BABABA",
"4	c #E2E2E2",
"5	c #DADADA",
"6	c #DBDBDB",
"7	c #999999",
"8	c #BFBFBF",
"9	c #CDCDCD",
"0	c #C0C0C0",
"a	c #9C9C9C",
"b	c #B4B4B4",
"c	c #B9B9B9",
"d	c #BEBEBE",
"e	c #C2C2C2",
"f	c #C3C3C3",
"g	c #A3A3A3",
"h	c #9B9B9B",
"i	c #B2B2B2",
"j	c #B6B6B6",
"k	c #C1C1C1",
"l	c #BCBCBC",
"m	c #C8C8C8",
"n	c #CACACA",
"o	c #AFAFAF",
"p	c #BDBDBD",
"q	c #CBCBCB",
"r	c #D0D0D0",
"s	c #D4D4D4",
"t	c #D2D2D2",
"u	c #D6D6D6",
"v	c #BBBBBB",
"w	c #DDDDDD",
"x	c #C6C6C6",
"y	c #DEDEDE",
"z	c #DFDFDF",
"A	c #D3D3D3",
"B	c #B5B5B5",
"C	c #A4A5A4",
"D	c #A9AAA9",
"E	c #A0A1A1",
"F	c #A7A8A7",
"G	c #ACACAC",
"...+++++++@#$%%%%%%%%%",
"&&&*****=*-;>,'.......",
"+++))))!~{]]{,*,^^^^^^",
"//(___-:<[}}[<:|'11111",
"112''234]5665]43722222",
"(((&(78{9{{{{9{0-^''''",
"&&&a>)bcdeffedcb)=gggg",
"!!!ghijjcdkkdcjjih1111",
"aaaa&bclfmnnmflcb&2222",
"11111opeqrssrqedo'1111",
">>>>>2fmtu55utmf2^^^^^",
"ggggg2vtu5ww5utv211111",
"======1xyzzzzyx2))))))",
"=======~dA55Ad~!!!!!!!",
")))))))))3BB3.........",
">>>>>>>>>>!gC1+.......",
"++++..1g1.)+D^).......",
"&&&_/a(/(**_E+21111111",
"11=!./g1=>=>F,G^^^^^^^",
"...+++++++@#$%%%%%%%%%",
"&&&*****=*-;>,'.......",
"+++))))!~{]]{,*,^^^^^^",
"//(___-:<[}}[<:|'11111",
"112''234]5665]43722222",
"(((&(78{9{{{{9{0-^''''",
"&&&a>)bcdeffedcb)=gggg",
"!!!ghijjcdkkdcjjih1111",
"aaaa&bclfmnnmflcb&2222",
"11111opeqrssrqedo'1111",
">>>>>2fmtu55utmf2^^^^^",
"ggggg2vtu5ww5utv211111",
"======1xyzzzzyx2))))))",
"=======~dA55Ad~!!!!!!!",
")))))))))3BB3.........",
">>>>>>>>>>!gC1+.......",
"++++..1g1.)+D^).......",
"&&&_/a(/(**_E+21111111",
"11=!./g1=>=>F,G^^^^^^^"};
