/* XPM */
static char * buttonI_bare_xpm[] = {
"22 38 51 1",
" 	c None",
".	c #9E9E9E",
"+	c #989898",
"@	c #AEAEAE",
"#	c #CECECE",
"$	c #DCDCDC",
"%	c #979797",
"&	c #CCCCCC",
"*	c #EBEBEB",
"=	c #EAEAEA",
"-	c #E9E9E9",
";	c #959595",
">	c #BABABA",
",	c #E2E2E2",
"'	c #DADADA",
")	c #DBDBDB",
"!	c #969696",
"~	c #BFBFBF",
"{	c #CDCDCD",
"]	c #C0C0C0",
"^	c #A9A9A9",
"/	c #B4B4B4",
"(	c #B9B9B9",
"_	c #BEBEBE",
":	c #C2C2C2",
"<	c #C3C3C3",
"[	c #A6A6A6",
"}	c #9B9B9B",
"|	c #B2B2B2",
"1	c #B6B6B6",
"2	c #C1C1C1",
"3	c #9D9D9D",
"4	c #BCBCBC",
"5	c #C8C8C8",
"6	c #CACACA",
"7	c #AFAFAF",
"8	c #BDBDBD",
"9	c #CBCBCB",
"0	c #D0D0D0",
"a	c #D4D4D4",
"b	c #AAAAAA",
"c	c #D2D2D2",
"d	c #D6D6D6",
"e	c #BBBBBB",
"f	c #DDDDDD",
"g	c #A5A5A5",
"h	c #C6C6C6",
"i	c #DEDEDE",
"j	c #DFDFDF",
"k	c #D3D3D3",
"l	c #B5B5B5",
"                      ",
"         .++.         ",
"        @#$$#@%       ",
"       &*=--=*&;      ",
"      >,$'))'$,>!     ",
"     +~#{####{#]+     ",
"     ^/(_:<<:_(/^[    ",
"    }|11(_22_(11|}    ",
"    3/(4<5665<4(/3    ",
"     78:90aa09:_7b    ",
"     [<5cd''dc5<[     ",
"     [ecd'ff'dce[     ",
"      ghijjjjih[      ",
"       @_k''k_@       ",
"         >ll>         ",
"                      ",
"                      ",
"                      ",
"                      ",
"                      ",
"         .++.         ",
"        @#$$#@%       ",
"       &*=--=*&;      ",
"      >,$'))'$,>!     ",
"     +~#{####{#]+     ",
"     ^/(_:<<:_(/^[    ",
"    }|11(_22_(11|}    ",
"    3/(4<5665<4(/3    ",
"     78:90aa09:_7b    ",
"     [<5cd''dc5<[     ",
"     [ecd'ff'dce[     ",
"      ghijjjjih[      ",
"       @_k''k_@       ",
"         >ll>         ",
"                      ",
"                      ",
"                      ",
"                      "};
