/* XPM */
static char * closeA_xpm[] = {
"22 38 257 2",
"  	c None",
". 	c #A8A8A8",
"+ 	c #A7A7A7",
"@ 	c #A6A7A6",
"# 	c #A4A6A5",
"$ 	c #AAABAB",
"% 	c #B0B0B0",
"& 	c #9D9D9D",
"* 	c #9E9E9E",
"= 	c #A7A7AC",
"- 	c #797984",
"; 	c #53495A",
"> 	c #453546",
", 	c #53475A",
"' 	c #797786",
") 	c #A9A9A9",
"! 	c #8A8B95",
"~ 	c #443447",
"{ 	c #875264",
"] 	c #C3888E",
"^ 	c #D0A0A1",
"/ 	c #C48B91",
"( 	c #855062",
"_ 	c #433346",
": 	c #ABABAB",
"< 	c #A0A0A0",
"[ 	c #9F9F9F",
"} 	c #9A9A9A",
"| 	c #8C8C99",
"1 	c #32132D",
"2 	c #B7737A",
"3 	c #ECCECE",
"4 	c #ECD0D0",
"5 	c #EED0D0",
"6 	c #EDCFCF",
"7 	c #B9737A",
"8 	c #34142E",
"9 	c #A5A5A5",
"0 	c #A6A6A6",
"a 	c #AAAAAA",
"b 	c #ACAEB5",
"c 	c #463449",
"d 	c #B2333D",
"e 	c #DF9D9D",
"f 	c #E3A1A1",
"g 	c #E4A4A4",
"h 	c #E6A4A4",
"i 	c #E3A3A3",
"j 	c #E6A2A2",
"k 	c #B3343E",
"l 	c #433146",
"m 	c #ADAFB6",
"n 	c #858290",
"o 	c #520821",
"p 	c #C64040",
"q 	c #DA6A6A",
"r 	c #D86A6A",
"s 	c #D96B6B",
"t 	c #C53F3F",
"u 	c #510720",
"v 	c #82818D",
"w 	c #9C9C9C",
"x 	c #5A5061",
"y 	c #91111C",
"z 	c #C01E1E",
"A 	c #D14545",
"B 	c #D54D4D",
"C 	c #D44E4E",
"D 	c #D45252",
"E 	c #D24E4E",
"F 	c #BF1D1D",
"G 	c #5B4F62",
"H 	c #A3A3A3",
"I 	c #A2A2A2",
"J 	c #432D46",
"K 	c #B4191B",
"L 	c #CE3434",
"M 	c #D24242",
"N 	c #D74747",
"O 	c #DA4A4A",
"P 	c #D94D4D",
"Q 	c #DA4C4C",
"R 	c #D94949",
"S 	c #D44242",
"T 	c #B41B1D",
"U 	c #422B45",
"V 	c #442D47",
"W 	c #C33234",
"X 	c #D94747",
"Y 	c #DE5656",
"Z 	c #DE5C5C",
"` 	c #E36161",
" .	c #E06262",
"..	c #E26262",
"+.	c #E16161",
"@.	c #E15D5D",
"#.	c #E05656",
"$.	c #DA4848",
"%.	c #432C46",
"&.	c #605967",
"*.	c #B5434C",
"=.	c #E25858",
"-.	c #E76363",
";.	c #EA7272",
">.	c #E97777",
",.	c #EC7A7A",
"'.	c #EC7676",
").	c #EC7272",
"!.	c #B5424A",
"~.	c #605867",
"{.	c #A1A1A1",
"].	c #8F909C",
"^.	c #8A4155",
"/.	c #EC6868",
"(.	c #EE7474",
"_.	c #EE8686",
":.	c #F38F8F",
"<.	c #F39191",
"[.	c #F29090",
"}.	c #F08686",
"|.	c #893F52",
"1.	c #5D4E60",
"2.	c #CD676C",
"3.	c #F28E8E",
"4.	c #F49696",
"5.	c #F4A2A2",
"6.	c #F4A4A4",
"7.	c #F29696",
"8.	c #CD696E",
"9.	c #A4A4A4",
"0.	c #A4A7B1",
"a.	c #694F62",
"b.	c #CF777A",
"c.	c #F3B3B3",
"d.	c #F4B8B8",
"e.	c #F6B8B8",
"f.	c #F6B4B4",
"g.	c #D0787B",
"h.	c #6B5064",
"i.	c #A9AAB4",
"j.	c #665C69",
"k.	c #935E66",
"l.	c #CD878A",
"m.	c #E89D9D",
"n.	c #E59C9C",
"o.	c #675D6A",
"p.	c #A8ABB7",
"q.	c #9A99A5",
"r.	c #716B78",
"s.	c #5C515D",
"t.	c #5D515E",
"u.	c #726C79",
"v.	c #999AA6",
"w.	c #A4A5A4",
"x.	c #A9AAA9",
"y.	c #A0A1A1",
"z.	c #A7A8A7",
"A.	c #ADADAD",
"B.	c #ACACAC",
"C.	c #7A7983",
"D.	c #594854",
"E.	c #4E353D",
"F.	c #4F353C",
"G.	c #5D4750",
"H.	c #7F7680",
"I.	c #A8A7AB",
"J.	c #898B96",
"K.	c #483443",
"L.	c #90525B",
"M.	c #C6888B",
"N.	c #D1A0A0",
"O.	c #C98B8C",
"P.	c #925055",
"Q.	c #4F323A",
"R.	c #8E8A91",
"S.	c #8B8C9A",
"T.	c #33132C",
"U.	c #B97378",
"V.	c #C07373",
"W.	c #44141D",
"X.	c #908B95",
"Y.	c #42344D",
"Z.	c #B73138",
"`.	c #C12F30",
" +	c #503039",
".+	c #AEAFB5",
"++	c #828293",
"@+	c #4B0828",
"#+	c #6D3939",
"$+	c #774D4D",
"%+	c #AE7A7A",
"&+	c #AE7878",
"*+	c #784E4E",
"=+	c #D26666",
"-+	c #64060D",
";+	c #878088",
">+	c #525169",
",+	c #8F111E",
"'+	c #C04848",
")+	c #703A3A",
"!+	c #9C0E11",
"~+	c #664D57",
"{+	c #313258",
"]+	c #B5181A",
"^+	c #A84242",
"/+	c #5E3636",
"(+	c #AB4141",
"_+	c #B71A1A",
":+	c #552832",
"<+	c #323159",
"[+	c #BE3439",
"}+	c #AE5050",
"|+	c #5D3737",
"1+	c #5F3737",
"2+	c #AF5151",
"3+	c #C43133",
"4+	c #532936",
"5+	c #565C71",
"6+	c #A6495B",
"7+	c #D16767",
"8+	c #704040",
"9+	c #744242",
"0+	c #D46868",
"a+	c #BB3F44",
"b+	c #675560",
"c+	c #8B91A0",
"d+	c #6F4A70",
"e+	c #7B4B4B",
"f+	c #B87878",
"g+	c #E97171",
"h+	c #973A44",
"i+	c #918F9A",
"j+	c #50526D",
"k+	c #BA727F",
"l+	c #D1676A",
"m+	c #614D5C",
"n+	c #A2A7B3",
"o+	c #525879",
"p+	c #BE838B",
"q+	c #D37678",
"r+	c #6C4F63",
"s+	c #A3A7B2",
"t+	c #A7AAB6",
"u+	c #5A6175",
"v+	c #7C6D7D",
"w+	c #C38E94",
"x+	c #E59EA0",
"y+	c #E59B9C",
"z+	c #CC888B",
"A+	c #8D626C",
"B+	c #635F6E",
"C+	c #969AA9",
"D+	c #696E80",
"E+	c #4F566A",
"F+	c #51566A",
"G+	c #6B6F80",
"H+	c #969BA9",
". . . + + + + + + + @ # $ % % % % % % % % % ",
"& & & * * * * = - ; > > , ' = . . . . . . . ",
"+ + + ) ) ) ! ~ { ] ^ ^ / ( _ ! : : : : : : ",
"< < [ } } | 1 2 3 4 5 4 3 6 7 8 | 9 9 9 9 9 ",
"9 9 0 a b c d e f g h i f j e k l m 0 0 0 0 ",
"[ [ [ & n o p q r s r q q s r t u v a a a a ",
"& & & w x y z A B C D D E B A F y G H H H H ",
"I I I H J K L M N O P Q R N S L T U 9 9 9 9 ",
"w w w w V W X Y Z `  ...+.@.#.$.W %.0 0 0 0 ",
"9 9 9 9 &.*.=.-.;.>.,.,.'.).-.=.!.~.9 9 9 9 ",
"{.{.{.{.].^./.(._.:.<.[.:.}.(./.|.].: : : : ",
"H H H H H 1.2.3.4.5.5.6.5.7.3.8.1.9 9 9 9 9 ",
"9.9.9.9.9.0.a.b.c.d.d.e.d.f.g.h.0.) ) ) ) ) ",
"9.9.9.9.9.9.i.j.k.l.m.n.l.k.o.p.I I I I I I ",
") ) ) ) ) ) ) ) q.r.s.t.u.v.. . . . . . . . ",
"{.{.{.{.{.{.{.{.{.{.I H w.9 + . . . . . . . ",
"+ + + + . . 9 H 9 . ) + x.: ) . . . . . . . ",
"& & & } < w [ < [ * * } y.+ 0 9 9 9 9 9 9 9 ",
"9 9 9.I . < H 9 9.{.9.{.z.A.B.: : : : : : : ",
". . . + + + + + + + @ # $ % % % % % % % % % ",
"& & & * * * * = C.D.E.F.G.H.I.. . . . . . . ",
"+ + + ) ) ) J.K.L.M.N.N.O.P.Q.R.: : : : : : ",
"< < [ } } S.T.U.3 4 5 4 3 6 V.W.X.9 9 9 9 9 ",
"9 9 0 a b Y.Z.e f g h i f j e `. +.+0 0 0 0 ",
"[ [ [ & ++@+p q #+$+%+&+*+#+=+t -+;+a a a a ",
"& & & w >+,+z A '+#+)+)+#+'+A F !+~+H H H H ",
"I I I H {+]+L M N ^+/+/+(+N S L _+:+9 9 9 9 ",
"w w w w <+[+X Y Z }+|+1+2+@.#.$.3+4+0 0 0 0 ",
"9 9 9 9 5+6+=.-.7+8+9+9+8+0+-.=.a+b+9 9 9 9 ",
"{.{.{.{.c+d+/.(.#+e+f+f+e+#+g+/.h+i+: : : : ",
"H H H H H j+k+3.4.5.5.6.5.7.3.l+m+9 9 9 9 9 ",
"9.9.9.9.9.n+o+p+c.d.d.e.d.f.q+r+s+) ) ) ) ) ",
"9.9.9.9.9.9.t+u+v+w+x+y+z+A+B+p.I I I I I I ",
") ) ) ) ) ) ) ) C+D+E+F+G+H+. . . . . . . . ",
"{.{.{.{.{.{.{.{.{.{.I H w.9 + . . . . . . . ",
"+ + + + . . 9 H 9 . ) + x.: ) . . . . . . . ",
"& & & } < w [ < [ * * } y.+ 0 9 9 9 9 9 9 9 ",
"9 9 9.I . < H 9 9.{.9.{.z.A.B.: : : : : : : "};
