/* XPM */
static char * closeA_bare_xpm[] = {
"22 38 230 2",
"  	c None",
". 	c #A7A7AC",
"+ 	c #797984",
"@ 	c #53495A",
"# 	c #453546",
"$ 	c #53475A",
"% 	c #797786",
"& 	c #8A8B95",
"* 	c #443447",
"= 	c #875264",
"- 	c #C3888E",
"; 	c #D0A0A1",
"> 	c #C48B91",
", 	c #855062",
"' 	c #433346",
") 	c #8C8C99",
"! 	c #32132D",
"~ 	c #B7737A",
"{ 	c #ECCECE",
"] 	c #ECD0D0",
"^ 	c #EED0D0",
"/ 	c #EDCFCF",
"( 	c #B9737A",
"_ 	c #34142E",
": 	c #ACAEB5",
"< 	c #463449",
"[ 	c #B2333D",
"} 	c #DF9D9D",
"| 	c #E3A1A1",
"1 	c #E4A4A4",
"2 	c #E6A4A4",
"3 	c #E3A3A3",
"4 	c #E6A2A2",
"5 	c #B3343E",
"6 	c #433146",
"7 	c #ADAFB6",
"8 	c #858290",
"9 	c #520821",
"0 	c #C64040",
"a 	c #DA6A6A",
"b 	c #D86A6A",
"c 	c #D96B6B",
"d 	c #C53F3F",
"e 	c #510720",
"f 	c #82818D",
"g 	c #5A5061",
"h 	c #91111C",
"i 	c #C01E1E",
"j 	c #D14545",
"k 	c #D54D4D",
"l 	c #D44E4E",
"m 	c #D45252",
"n 	c #D24E4E",
"o 	c #BF1D1D",
"p 	c #5B4F62",
"q 	c #432D46",
"r 	c #B4191B",
"s 	c #CE3434",
"t 	c #D24242",
"u 	c #D74747",
"v 	c #DA4A4A",
"w 	c #D94D4D",
"x 	c #DA4C4C",
"y 	c #D94949",
"z 	c #D44242",
"A 	c #B41B1D",
"B 	c #422B45",
"C 	c #442D47",
"D 	c #C33234",
"E 	c #D94747",
"F 	c #DE5656",
"G 	c #DE5C5C",
"H 	c #E36161",
"I 	c #E06262",
"J 	c #E26262",
"K 	c #E16161",
"L 	c #E15D5D",
"M 	c #E05656",
"N 	c #DA4848",
"O 	c #432C46",
"P 	c #605967",
"Q 	c #B5434C",
"R 	c #E25858",
"S 	c #E76363",
"T 	c #EA7272",
"U 	c #E97777",
"V 	c #EC7A7A",
"W 	c #EC7676",
"X 	c #EC7272",
"Y 	c #B5424A",
"Z 	c #605867",
"` 	c #8F909C",
" .	c #8A4155",
"..	c #EC6868",
"+.	c #EE7474",
"@.	c #EE8686",
"#.	c #F38F8F",
"$.	c #F39191",
"%.	c #F29090",
"&.	c #F08686",
"*.	c #893F52",
"=.	c #5D4E60",
"-.	c #CD676C",
";.	c #F28E8E",
">.	c #F49696",
",.	c #F4A2A2",
"'.	c #F4A4A4",
").	c #F29696",
"!.	c #CD696E",
"~.	c #A4A7B1",
"{.	c #694F62",
"].	c #CF777A",
"^.	c #F3B3B3",
"/.	c #F4B8B8",
"(.	c #F6B8B8",
"_.	c #F6B4B4",
":.	c #D0787B",
"<.	c #6B5064",
"[.	c #A9AAB4",
"}.	c #665C69",
"|.	c #935E66",
"1.	c #CD878A",
"2.	c #E89D9D",
"3.	c #E59C9C",
"4.	c #675D6A",
"5.	c #A8ABB7",
"6.	c #9A99A5",
"7.	c #716B78",
"8.	c #5C515D",
"9.	c #5D515E",
"0.	c #726C79",
"a.	c #999AA6",
"b.	c #7A7983",
"c.	c #594854",
"d.	c #4E353D",
"e.	c #4F353C",
"f.	c #5D4750",
"g.	c #7F7680",
"h.	c #A8A7AB",
"i.	c #898B96",
"j.	c #483443",
"k.	c #90525B",
"l.	c #C6888B",
"m.	c #D1A0A0",
"n.	c #C98B8C",
"o.	c #925055",
"p.	c #4F323A",
"q.	c #8E8A91",
"r.	c #8B8C9A",
"s.	c #33132C",
"t.	c #B97378",
"u.	c #C07373",
"v.	c #44141D",
"w.	c #908B95",
"x.	c #42344D",
"y.	c #B73138",
"z.	c #C12F30",
"A.	c #503039",
"B.	c #AEAFB5",
"C.	c #828293",
"D.	c #4B0828",
"E.	c #6D3939",
"F.	c #774D4D",
"G.	c #AE7A7A",
"H.	c #AE7878",
"I.	c #784E4E",
"J.	c #D26666",
"K.	c #64060D",
"L.	c #878088",
"M.	c #525169",
"N.	c #8F111E",
"O.	c #C04848",
"P.	c #703A3A",
"Q.	c #9C0E11",
"R.	c #664D57",
"S.	c #313258",
"T.	c #B5181A",
"U.	c #A84242",
"V.	c #5E3636",
"W.	c #AB4141",
"X.	c #B71A1A",
"Y.	c #552832",
"Z.	c #323159",
"`.	c #BE3439",
" +	c #AE5050",
".+	c #5D3737",
"++	c #5F3737",
"@+	c #AF5151",
"#+	c #C43133",
"$+	c #532936",
"%+	c #565C71",
"&+	c #A6495B",
"*+	c #D16767",
"=+	c #704040",
"-+	c #744242",
";+	c #D46868",
">+	c #BB3F44",
",+	c #675560",
"'+	c #8B91A0",
")+	c #6F4A70",
"!+	c #7B4B4B",
"~+	c #B87878",
"{+	c #E97171",
"]+	c #973A44",
"^+	c #918F9A",
"/+	c #50526D",
"(+	c #BA727F",
"_+	c #D1676A",
":+	c #614D5C",
"<+	c #A2A7B3",
"[+	c #525879",
"}+	c #BE838B",
"|+	c #D37678",
"1+	c #6C4F63",
"2+	c #A3A7B2",
"3+	c #A7AAB6",
"4+	c #5A6175",
"5+	c #7C6D7D",
"6+	c #C38E94",
"7+	c #E59EA0",
"8+	c #E59B9C",
"9+	c #CC888B",
"0+	c #8D626C",
"a+	c #635F6E",
"b+	c #969AA9",
"c+	c #696E80",
"d+	c #4F566A",
"e+	c #51566A",
"f+	c #6B6F80",
"g+	c #969BA9",
"                                            ",
"              . + @ # # $ % .               ",
"            & * = - ; ; > , ' &             ",
"          ) ! ~ { ] ^ ] { / ( _ )           ",
"        : < [ } | 1 2 3 | 4 } 5 6 7         ",
"        8 9 0 a b c b a a c b d e f         ",
"        g h i j k l m m n k j o h p         ",
"        q r s t u v w x y u z s A B         ",
"        C D E F G H I J K L M N D O         ",
"        P Q R S T U V V W X S R Y Z         ",
"        `  ...+.@.#.$.%.#.&.+...*.`         ",
"          =.-.;.>.,.,.'.,.).;.!.=.          ",
"          ~.{.].^././.(./._.:.<.~.          ",
"            [.}.|.1.2.3.1.|.4.5.            ",
"                6.7.8.9.0.a.                ",
"                                            ",
"                                            ",
"                                            ",
"                                            ",
"                                            ",
"              . b.c.d.e.f.g.h.              ",
"            i.j.k.l.m.m.n.o.p.q.            ",
"          r.s.t.{ ] ^ ] { / u.v.w.          ",
"        : x.y.} | 1 2 3 | 4 } z.A.B.        ",
"        C.D.0 a E.F.G.H.I.E.J.d K.L.        ",
"        M.N.i j O.E.P.P.E.O.j o Q.R.        ",
"        S.T.s t u U.V.V.W.u z s X.Y.        ",
"        Z.`.E F G  +.+++@+L M N #+$+        ",
"        %+&+R S *+=+-+-+=+;+S R >+,+        ",
"        '+)+..+.E.!+~+~+!+E.{+..]+^+        ",
"          /+(+;.>.,.,.'.,.).;._+:+          ",
"          <+[+}+^././.(./._.|+1+2+          ",
"            3+4+5+6+7+8+9+0+a+5.            ",
"                b+c+d+e+f+g+                ",
"                                            ",
"                                            ",
"                                            ",
"                                            "};
