/* XPM */
static char * frameABL_xpm[] = {
"23 23 18 1",
" 	c None",
".	c #A8A8A8",
"+	c #AFB0AF",
"@	c #B1B1B1",
"#	c #ACACAC",
"$	c #AEAEAE",
"%	c #A2A2A2",
"&	c #939494",
"*	c #656565",
"=	c #C0C0C0",
"-	c #585858",
";	c #BFBFBF",
">	c #878787",
",	c #BDBEBE",
"'	c #9F9F9F",
")	c #BBBBBB",
"!	c #C1C1C1",
"~	c #C3C3C3",
"....                   ",
"++@@                   ",
"##$$                   ",
"####                   ",
"@@@@                   ",
".%.%                   ",
"##$$                   ",
"%.%%                   ",
"$$$$                   ",
"%%%%                   ",
"...%                   ",
"%&..                   ",
".*&#                   ",
".=-&                   ",
"..=*&                  ",
"$&$;*&                 ",
"%->%,->                ",
".;*&.=*&               ",
"'%)->%,->              ",
"#&#!*&#=*&$#$$$$$$$++++",
"'->')->%)->%%%%%%%%%.%%",
".~-&.,*&.;*&########$$$",
"%'%%'%%%%%%%%.%.%......"};
