/* XPM */
static char * dframeITR_xpm[] = {
"23 23 29 1",
" 	c None",
".	c #C0C0C0",
"+	c #C1C1C1",
"@	c #EEEEEE",
"#	c #F3F3F3",
"$	c #DFDFDF",
"%	c #D4D4D4",
"&	c #C6C7C6",
"*	c #BFBFBF",
"=	c #C3C3C3",
"-	c #C5C5C5",
";	c #C8C9C8",
">	c #D2D2D2",
",	c #DCDCDC",
"'	c #BEBEBE",
")	c #B1B1B1",
"!	c #AFB0AF",
"~	c #B3B4B3",
"{	c #B6B6B6",
"]	c #BDBEBE",
"^	c #CCCCCC",
"/	c #A8A8A8",
"(	c #AEAEAE",
"_	c #BBBBBB",
":	c #ACACAC",
"<	c #A2A2A2",
"[	c #9A9A9B",
"}	c #9F9F9F",
"|	c #939494",
"..+.......+....+...    ",
"@#@@#@@#@@@@@@@$%&*==  ",
"==============-;>,,='= ",
")))))))))!)))))~{]^%=' ",
"//////////////////(_-_=",
":::/://////</<</<::)___",
"////////////////////(!~",
"!((((::::::::/://///://",
":::::::::::::::::/:/::[",
"/</</<///</<</</<</</<[",
"(::::::((:::::::/:///<[",
":::((:(!!!(((!!!(!!</}|",
"(:::(::((:::::::::://<|",
"<<<<<<<<<<<<<<<<<<<::/[",
"::::::::::/:///////</}|",
":/:/:///://////////::/[",
"///////////////////<<}|",
"/////</</<<<<<<<<<<///|",
"!!!!!((!!(::::::::://<|",
":::::/:::/:/:/:///://<[",
"////////////////////<<|",
"////////://////////::/[",
"!!!!!((!!(:::(((::://<|"};
