/* XPM */
static char * frameAT_xpm[] = {
"357 4 44 1",
" 	c #C0C0C0",
".	c #EBEBEB",
"+	c #EBECEB",
"@	c #EDEEED",
"#	c #EEEEEE",
"$	c #EDEDED",
"%	c #ECECEC",
"&	c #EEEDEC",
"*	c #EDEEEC",
"=	c #A7A7A7",
"-	c #A9A9A9",
";	c #A9ABAA",
">	c #A9AAAA",
",	c #AAAAAA",
"'	c #ABABAB",
")	c #ADADAD",
"!	c #ACACAC",
"~	c #A9A8A5",
"{	c #A7A8A2",
"]	c #A6A9A2",
"^	c #A6A8A3",
"/	c #A4A4A2",
"(	c #A4A4A4",
"_	c #A8A8A8",
":	c #AFAFAF",
"<	c #B0B0B0",
"[	c #B2B2B2",
"}	c #B1B1B1",
"|	c #B3B3B3",
"1	c #B4B4B4",
"2	c #B5B5B5",
"3	c #B6B6B6",
"4	c #A0A0A0",
"5	c #9F9F9F",
"6	c #9A9A9A",
"7	c #999A99",
"8	c #979998",
"9	c #A1A1A1",
"0	c #A6A6A6",
"a	c #A5A5A5",
"b	c #9E9E9E",
"c	c #A5A4A1",
"d	c #A4A5A0",
"e	c #A3A5A0",
"                                                                                                                                                                                                                                                                                                                                                                     ",
"...........+@#################$$$$$$$%%%%%%%%%%%%%%%%#############&***##########################################################################################################################################################################################################################***&#############%%%%%%%%%%%%%%%%$$$$$$$#################@+..........",
"===--------;>-,''''''')))))))!''''''''''''''',,,,,,,,----,''''''')~{]^/((((((((((((((=_______''''''''!!!!!!!:<<<<<<<[[[[[[[[}}}}}}}|11111111111111|[[[[[[[23333333111111111112233211233221111111111133333332[[[[[[[|11111111111111|}}}}}}}[[[[[[[[<<<<<<<:!!!!!!!''''''''_______=((((((((((((((/^]{~)''''''',----,,,,,,,,'''''''''''''''!)))))))''''''',->;--------==",
"4456666666789_0aaaaaaa00000000aaaaaaa95555555bbbbbbb9____=aaaaaaa0cdeeaaaaaaa0_______,''''''',,,,,,,,,,,,,,,,,,,,,,,'''''''''''''''-______________-'''''''_======='''''''''''!!)):<<:))!!'''''''''''=======_'''''''-______________-''''''''''''''',,,,,,,,,,,,,,,,,,,,,,,''''''',_______0aaaaaaaeedc0aaaaaaa=____9bbbbbbb55555559aaaaaaa00000000aaaaaaa0_987666666654"};
