/* XPM */
static char * frameAL_xpm[] = {
"4 19 17 1",
" 	c None",
".	c #A8A8A8",
"+	c #A7A7A7",
"@	c #9D9D9D",
"#	c #9E9E9E",
"$	c #A9A9A9",
"%	c #A0A0A0",
"&	c #9F9F9F",
"*	c #9A9A9A",
"=	c #A5A5A5",
"-	c #A6A6A6",
";	c #AAAAAA",
">	c #9C9C9C",
",	c #A2A2A2",
"'	c #A3A3A3",
")	c #A1A1A1",
"!	c #A4A4A4",
"...+",
"@@@#",
"+++$",
"%%&*",
"==-;",
"&&&@",
"@@@>",
",,,'",
">>>>",
"====",
"))))",
"''''",
"!!!!",
"!!!!",
"$$$$",
"))))",
"++++",
"@@@*",
"==!,"};
