/* XPM */
static char * frameATR_xpm[] = {
"23 23 32 1",
" 	c None",
".	c #C0C0C0",
"+	c #C1C1C1",
"@	c #EEEEEE",
"#	c #F3F3F3",
"$	c #DFDFDF",
"%	c #D4D4D4",
"&	c #C6C7C6",
"*	c #BFBFBF",
"=	c #C3C3C3",
"-	c #A1A1A1",
";	c #ABACAB",
">	c #D2D2D2",
",	c #DCDCDC",
"'	c #BEBEBE",
")	c #ABABAB",
"!	c #A6A6A6",
"~	c #A8A8A8",
"{	c #CCCCCC",
"]	c #9F9F9F",
"^	c #AEAEAE",
"/	c #BBBBBB",
"(	c #C5C5C5",
"_	c #A3A3A3",
":	c #B1B1B1",
"<	c #AFB0AF",
"[	c #B3B4B3",
"}	c #A5A5A5",
"|	c #ACACAC",
"1	c #9A9A9B",
"2	c #A2A2A2",
"3	c #939494",
"..+.......+....+...    ",
"@#@@#@@#@@@@@@@$%&*==  ",
"---------------;>,,='= ",
"))))))))))))))))!~{%=' ",
"                ]~^/(/=",
"                 __:///",
"                  -~^<[",
"                   }|~~",
"                   }||1",
"                   }~21",
"                   }~21",
"                   }~]3",
"                   }~23",
"                   }|~1",
"                   }~]3",
"                   }|~1",
"                   }2]3",
"                   }~~3",
"                   }~23",
"                   }~21",
"                   }223",
"                   }|~1",
"                   }~23"};
