/* XPM */
static char * frameATL_xpm[] = {
"23 23 32 1",
" 	c None",
".	c #C0C0C0",
"+	c #C1C1C1",
"@	c #C3C3C3",
"#	c #BFBFBF",
"$	c #C6C7C6",
"%	c #D4D4D4",
"&	c #DFDFDF",
"*	c #EEEEEE",
"=	c #F3F3F3",
"-	c #BEBEBE",
";	c #DCDCDC",
">	c #D2D2D2",
",	c #ABACAB",
"'	c #A1A1A1",
")	c #CCCCCC",
"!	c #A8A8A8",
"~	c #A6A6A6",
"{	c #ABABAB",
"]	c #BBBBBB",
"^	c #C5C5C5",
"/	c #AEAEAE",
"(	c #9F9F9F",
"_	c #B1B1B1",
":	c #A3A3A3",
"<	c #B3B4B3",
"[	c #AFB0AF",
"}	c #ACACAC",
"|	c #A5A5A5",
"1	c #9A9A9B",
"2	c #A2A2A2",
"3	c #939494",
"    ...+....+.......+..",
"  @@#$%&*******=**=**=*",
" @-@;;>,'''''''''''''''",
" -@%)!~{{{{{{{{{{{{{{{{",
"@]^]/!(                ",
"]]]_::                 ",
"<[/!'                  ",
"!!}|                   ",
"1}}|                   ",
"12!|                   ",
"12!|                   ",
"3(!|                   ",
"32!|                   ",
"1!}|                   ",
"3(!|                   ",
"1!}|                   ",
"3(2|                   ",
"3!!|                   ",
"32!|                   ",
"12!|                   ",
"322|                   ",
"1!}|                   ",
"32!|                   "};
