/* XPM */
static char * frameABR_xpm[] = {
"23 23 18 1",
" 	c None",
".	c #A8A8A8",
"+	c #B1B1B1",
"@	c #AFB0AF",
"#	c #AEAEAE",
"$	c #ACACAC",
"%	c #A2A2A2",
"&	c #939494",
"*	c #656565",
"=	c #585858",
"-	c #C0C0C0",
";	c #BFBFBF",
">	c #878787",
",	c #BDBEBE",
"'	c #BBBBBB",
")	c #9F9F9F",
"!	c #C1C1C1",
"~	c #C3C3C3",
"                   ....",
"                   ++@@",
"                   ##$$",
"                   $$$$",
"                   ++++",
"                   %.%.",
"                   ##$$",
"                   %%.%",
"                   ####",
"                   %%%%",
"                   %...",
"                   ..&%",
"                   $&*.",
"                   &=-.",
"                  &*-..",
"                 &*;#&#",
"                >=,%>=%",
"               &*-.&*;.",
"              >=,%>='%)",
"@@@@#######$#&*-$&*!$&$",
"%%.%%%%%%%%%>='%>=')>=)",
"###$$$$$$$$&*;.&*,.&=~.",
"......%.%.%%%%%%%%)%%)%"};
