/* XPM */
static char * maximizeAb_bare_xpm[] = {
"22 38 167 2",
"  	c None",
". 	c #7A6B68",
"+ 	c #6E3836",
"@ 	c #722A2B",
"# 	c #732928",
"$ 	c #703839",
"% 	c #7C696B",
"& 	c #8F8B8A",
"* 	c #6D292A",
"= 	c #A85241",
"- 	c #D69984",
"; 	c #E8BCA1",
"> 	c #E5BCA0",
", 	c #D69A82",
"' 	c #A6503F",
") 	c #6F2927",
"! 	c #8F8989",
"~ 	c #94908F",
"{ 	c #74241D",
"] 	c #D79573",
"^ 	c #F5E0C3",
"/ 	c #F6E1C6",
"( 	c #F7D9BF",
"_ 	c #F6DAC4",
": 	c #F2E2C1",
"< 	c #F6E1C4",
"[ 	c #D49373",
"} 	c #78231E",
"| 	c #919193",
"1 	c #673029",
"2 	c #CE7440",
"3 	c #F4D3A6",
"4 	c #EFC59B",
"5 	c #EDC498",
"6 	c #F0C598",
"7 	c #EFC69A",
"8 	c #EBC499",
"9 	c #EDC79A",
"0 	c #F5D5AC",
"a 	c #CB7343",
"b 	c #6A3128",
"c 	c #847A79",
"d 	c #95390A",
"e 	c #E18C3C",
"f 	c #E7B171",
"g 	c #E4B26D",
"h 	c #E8B371",
"i 	c #E5B46F",
"j 	c #E6B46D",
"k 	c #E9B470",
"l 	c #E6B16D",
"m 	c #E8B171",
"n 	c #E28C39",
"o 	c #973609",
"p 	c #837A7B",
"q 	c #6F5153",
"r 	c #BC5F0F",
"s 	c #DD7C13",
"t 	c #DE8A27",
"u 	c #E19C41",
"v 	c #E3A443",
"w 	c #E4A94B",
"x 	c #E3A445",
"y 	c #E49A43",
"z 	c #DB8B28",
"A 	c #DD7D0F",
"B 	c #BB5E10",
"C 	c #6F514F",
"D 	c #70412D",
"E 	c #CE7615",
"F 	c #DE861A",
"G 	c #DD8C20",
"H 	c #E09C2D",
"I 	c #E4A836",
"J 	c #E3AF3F",
"K 	c #E5B03C",
"L 	c #E4A838",
"M 	c #E29C2D",
"N 	c #DE8D21",
"O 	c #DD8517",
"P 	c #CD7615",
"Q 	c #6E412E",
"R 	c #6C4735",
"S 	c #D08220",
"T 	c #E19527",
"U 	c #E2A332",
"V 	c #E7B23E",
"W 	c #EAC04A",
"X 	c #ECC951",
"Y 	c #E9CB4F",
"Z 	c #E7B43F",
"` 	c #E1A135",
" .	c #DF9627",
"..	c #D1811E",
"+.	c #734633",
"@.	c #766055",
"#.	c #C4831D",
"$.	c #E5AA36",
"%.	c #E5B23F",
"&.	c #E9CB53",
"*.	c #F0D760",
"=.	c #F2E366",
"-.	c #F2E064",
";.	c #EEDA5F",
">.	c #E8CA52",
",.	c #E4B33D",
"'.	c #E7A836",
").	c #765F51",
"!.	c #948A88",
"~.	c #A06B1D",
"{.	c #E8BE45",
"].	c #EBC74F",
"^.	c #EDE060",
"/.	c #F6EB6D",
"(.	c #F7F175",
"_.	c #F7F473",
":.	c #F5E96F",
"<.	c #F0DE60",
"[.	c #EDC64F",
"}.	c #E7C041",
"|.	c #9F6B1F",
"1.	c #908B88",
"2.	c #775C3E",
"3.	c #D0B13D",
"4.	c #F7EE6F",
"5.	c #F5F378",
"6.	c #F8F87E",
"7.	c #F8FA7F",
"8.	c #F8F37D",
"9.	c #F6EE71",
"0.	c #EDDB5F",
"a.	c #CFB03C",
"b.	c #765D3F",
"c.	c #856C2C",
"d.	c #D6CB57",
"e.	c #F3F07B",
"f.	c #F6F581",
"g.	c #F7FA85",
"h.	c #F5FA84",
"i.	c #F6F483",
"j.	c #F3EE78",
"k.	c #D5CC57",
"l.	c #846B29",
"m.	c #867945",
"n.	c #B7B453",
"o.	c #D2D678",
"p.	c #DCE07F",
"q.	c #DFDF85",
"r.	c #D3D574",
"s.	c #B8B652",
"t.	c #847844",
"u.	c #A3A494",
"v.	c #908F5F",
"w.	c #90914F",
"x.	c #8F8F4F",
"y.	c #908F61",
"z.	c #A5A396",
"A.	c #713D00",
"B.	c #694200",
"C.	c #693A00",
"D.	c #6A4100",
"E.	c #6F4000",
"F.	c #6F4400",
"G.	c #674400",
"H.	c #6E4D06",
"I.	c #733D00",
"J.	c #6F3500",
"                                            ",
"                . + @ # $ %                 ",
"            & * = - ; > , ' ) !             ",
"          ~ { ] ^ / ( _ : < [ } |           ",
"          1 2 3 4 5 6 7 8 9 0 a b           ",
"        c d e f g h i j k l m n o p         ",
"        q r s t u v w w x y z A B C         ",
"        D E F G H I J K L M N O P Q         ",
"        R S T U V W X Y W Z `  ...+.        ",
"        @.#.$.%.&.*.=.-.;.>.,.'.#.).        ",
"        !.~.{.].^./.(._.:.<.[.}.|.1.        ",
"          2.3.;.4.5.6.7.8.9.0.a.b.          ",
"            c.d.e.f.g.h.i.j.k.l.            ",
"              m.n.o.p.q.r.s.t.              ",
"                u.v.w.x.y.z.                ",
"                                            ",
"                                            ",
"                                            ",
"                                            ",
"                                            ",
"                . + @ # $ %                 ",
"            & * = - ; > , ' ) !             ",
"          ~ { ] ^ / ( _ : < [ } |           ",
"          1 2 3 4 5 6 7 8 9 0 a b           ",
"        c d e f g h A.A.k l m n o p         ",
"        q r s t u v B.B.x y z A B C         ",
"        D E F G A.C.B.B.D.E.G O P Q         ",
"        R S T U F.G.D.D.H.F.U  ...+.        ",
"        @.#.$.%.&.*.D.D.;.>.,.'.#.).        ",
"        !.~.{.].^./.I.J.:.<.[.}.|.1.        ",
"          2.3.;.4.5.6.7.8.9.0.a.b.          ",
"            c.d.e.f.g.h.i.j.k.l.            ",
"              m.n.o.p.q.r.s.t.              ",
"                u.v.w.x.y.z.                ",
"                                            ",
"                                            ",
"                                            ",
"                                            "};
