/* XPM */
static char * maximizeAb_xpm[] = {
"22 38 194 2",
"  	c None",
". 	c #A8A8A8",
"+ 	c #A7A7A7",
"@ 	c #A6A7A6",
"# 	c #A4A6A5",
"$ 	c #AAABAB",
"% 	c #B0B0B0",
"& 	c #9D9D9D",
"* 	c #9E9E9E",
"= 	c #7A6B68",
"- 	c #6E3836",
"; 	c #722A2B",
"> 	c #732928",
", 	c #703839",
"' 	c #7C696B",
") 	c #AAAAAA",
"! 	c #A9A9A9",
"~ 	c #8F8B8A",
"{ 	c #6D292A",
"] 	c #A85241",
"^ 	c #D69984",
"/ 	c #E8BCA1",
"( 	c #E5BCA0",
"_ 	c #D69A82",
": 	c #A6503F",
"< 	c #6F2927",
"[ 	c #8F8989",
"} 	c #ABABAB",
"| 	c #A0A0A0",
"1 	c #9F9F9F",
"2 	c #9A9A9A",
"3 	c #94908F",
"4 	c #74241D",
"5 	c #D79573",
"6 	c #F5E0C3",
"7 	c #F6E1C6",
"8 	c #F7D9BF",
"9 	c #F6DAC4",
"0 	c #F2E2C1",
"a 	c #F6E1C4",
"b 	c #D49373",
"c 	c #78231E",
"d 	c #919193",
"e 	c #A5A5A5",
"f 	c #A6A6A6",
"g 	c #673029",
"h 	c #CE7440",
"i 	c #F4D3A6",
"j 	c #EFC59B",
"k 	c #EDC498",
"l 	c #F0C598",
"m 	c #EFC69A",
"n 	c #EBC499",
"o 	c #EDC79A",
"p 	c #F5D5AC",
"q 	c #CB7343",
"r 	c #6A3128",
"s 	c #847A79",
"t 	c #95390A",
"u 	c #E18C3C",
"v 	c #E7B171",
"w 	c #E4B26D",
"x 	c #E8B371",
"y 	c #E5B46F",
"z 	c #E6B46D",
"A 	c #E9B470",
"B 	c #E6B16D",
"C 	c #E8B171",
"D 	c #E28C39",
"E 	c #973609",
"F 	c #837A7B",
"G 	c #9C9C9C",
"H 	c #6F5153",
"I 	c #BC5F0F",
"J 	c #DD7C13",
"K 	c #DE8A27",
"L 	c #E19C41",
"M 	c #E3A443",
"N 	c #E4A94B",
"O 	c #E3A445",
"P 	c #E49A43",
"Q 	c #DB8B28",
"R 	c #DD7D0F",
"S 	c #BB5E10",
"T 	c #6F514F",
"U 	c #A3A3A3",
"V 	c #A2A2A2",
"W 	c #70412D",
"X 	c #CE7615",
"Y 	c #DE861A",
"Z 	c #DD8C20",
"` 	c #E09C2D",
" .	c #E4A836",
"..	c #E3AF3F",
"+.	c #E5B03C",
"@.	c #E4A838",
"#.	c #E29C2D",
"$.	c #DE8D21",
"%.	c #DD8517",
"&.	c #CD7615",
"*.	c #6E412E",
"=.	c #6C4735",
"-.	c #D08220",
";.	c #E19527",
">.	c #E2A332",
",.	c #E7B23E",
"'.	c #EAC04A",
").	c #ECC951",
"!.	c #E9CB4F",
"~.	c #E7B43F",
"{.	c #E1A135",
"].	c #DF9627",
"^.	c #D1811E",
"/.	c #734633",
"(.	c #766055",
"_.	c #C4831D",
":.	c #E5AA36",
"<.	c #E5B23F",
"[.	c #E9CB53",
"}.	c #F0D760",
"|.	c #F2E366",
"1.	c #F2E064",
"2.	c #EEDA5F",
"3.	c #E8CA52",
"4.	c #E4B33D",
"5.	c #E7A836",
"6.	c #765F51",
"7.	c #A1A1A1",
"8.	c #948A88",
"9.	c #A06B1D",
"0.	c #E8BE45",
"a.	c #EBC74F",
"b.	c #EDE060",
"c.	c #F6EB6D",
"d.	c #F7F175",
"e.	c #F7F473",
"f.	c #F5E96F",
"g.	c #F0DE60",
"h.	c #EDC64F",
"i.	c #E7C041",
"j.	c #9F6B1F",
"k.	c #908B88",
"l.	c #775C3E",
"m.	c #D0B13D",
"n.	c #F7EE6F",
"o.	c #F5F378",
"p.	c #F8F87E",
"q.	c #F8FA7F",
"r.	c #F8F37D",
"s.	c #F6EE71",
"t.	c #EDDB5F",
"u.	c #CFB03C",
"v.	c #765D3F",
"w.	c #A4A4A4",
"x.	c #856C2C",
"y.	c #D6CB57",
"z.	c #F3F07B",
"A.	c #F6F581",
"B.	c #F7FA85",
"C.	c #F5FA84",
"D.	c #F6F483",
"E.	c #F3EE78",
"F.	c #D5CC57",
"G.	c #846B29",
"H.	c #867945",
"I.	c #B7B453",
"J.	c #D2D678",
"K.	c #DCE07F",
"L.	c #DFDF85",
"M.	c #D3D574",
"N.	c #B8B652",
"O.	c #847844",
"P.	c #A3A494",
"Q.	c #908F5F",
"R.	c #90914F",
"S.	c #8F8F4F",
"T.	c #908F61",
"U.	c #A5A396",
"V.	c #A4A5A4",
"W.	c #A9AAA9",
"X.	c #A0A1A1",
"Y.	c #A7A8A7",
"Z.	c #ADADAD",
"`.	c #ACACAC",
" +	c #713D00",
".+	c #694200",
"++	c #693A00",
"@+	c #6A4100",
"#+	c #6F4000",
"$+	c #6F4400",
"%+	c #674400",
"&+	c #6E4D06",
"*+	c #733D00",
"=+	c #6F3500",
". . . + + + + + + + @ # $ % % % % % % % % % ",
"& & & * * * * * = - ; > , ' ) . . . . . . . ",
"+ + + ! ! ! ~ { ] ^ / ( _ : < [ } } } } } } ",
"| | 1 2 2 3 4 5 6 7 8 9 0 a b c d e e e e e ",
"e e f ) ) g h i j k l m n o p q r f f f f f ",
"1 1 1 & s t u v w x y z A B C D E F ) ) ) ) ",
"& & & G H I J K L M N N O P Q R S T U U U U ",
"V V V U W X Y Z `  ...+.@.#.$.%.&.*.e e e e ",
"G G G G =.-.;.>.,.'.).!.'.~.{.].^./.f f f f ",
"e e e e (._.:.<.[.}.|.1.2.3.4.5._.6.e e e e ",
"7.7.7.7.8.9.0.a.b.c.d.e.f.g.h.i.j.k.} } } } ",
"U U U U U l.m.2.n.o.p.q.r.s.t.u.v.e e e e e ",
"w.w.w.w.w.w.x.y.z.A.B.C.D.E.F.G.! ! ! ! ! ! ",
"w.w.w.w.w.w.w.H.I.J.K.L.M.N.O.V V V V V V V ",
"! ! ! ! ! ! ! ! P.Q.R.S.T.U.. . . . . . . . ",
"7.7.7.7.7.7.7.7.7.7.V U V.e + . . . . . . . ",
"+ + + + . . e U e . ! + W.} ! . . . . . . . ",
"& & & 2 | G 1 | 1 * * 2 X.+ f e e e e e e e ",
"e e w.V . | U e w.7.w.7.Y.Z.`.} } } } } } } ",
". . . + + + + + + + @ # $ % % % % % % % % % ",
"& & & * * * * * = - ; > , ' ) . . . . . . . ",
"+ + + ! ! ! ~ { ] ^ / ( _ : < [ } } } } } } ",
"| | 1 2 2 3 4 5 6 7 8 9 0 a b c d e e e e e ",
"e e f ) ) g h i j k l m n o p q r f f f f f ",
"1 1 1 & s t u v w x  + +A B C D E F ) ) ) ) ",
"& & & G H I J K L M .+.+O P Q R S T U U U U ",
"V V V U W X Y Z  +++.+.+@+#+Z %.&.*.e e e e ",
"G G G G =.-.;.>.$+%+@+@+&+$+>.].^./.f f f f ",
"e e e e (._.:.<.[.}.@+@+2.3.4.5._.6.e e e e ",
"7.7.7.7.8.9.0.a.b.c.*+=+f.g.h.i.j.k.} } } } ",
"U U U U U l.m.2.n.o.p.q.r.s.t.u.v.e e e e e ",
"w.w.w.w.w.w.x.y.z.A.B.C.D.E.F.G.! ! ! ! ! ! ",
"w.w.w.w.w.w.w.H.I.J.K.L.M.N.O.V V V V V V V ",
"! ! ! ! ! ! ! ! P.Q.R.S.T.U.. . . . . . . . ",
"7.7.7.7.7.7.7.7.7.7.V U V.e + . . . . . . . ",
"+ + + + . . e U e . ! + W.} ! . . . . . . . ",
"& & & 2 | G 1 | 1 * * 2 X.+ f e e e e e e e ",
"e e w.V . | U e w.7.w.7.Y.Z.`.} } } } } } } "};
