/* XPM */
static char * template_xpm[] = {
"22 38 51 1",
" 	c #A8A8A8",
".	c #A7A7A7",
"+	c #A6A7A6",
"@	c #A4A6A5",
"#	c #AAABAB",
"$	c #B0B0B0",
"%	c #9D9D9D",
"&	c #9E9E9E",
"*	c #9E9F9E",
"=	c #9EA09F",
"-	c #ACACAC",
";	c #AAAAAA",
">	c #A9A9A9",
",	c #A9ABAA",
"'	c #A9AAAA",
")	c #ABABAB",
"!	c #A0A0A0",
"~	c #9F9F9F",
"{	c #9A9A9A",
"]	c #999A99",
"^	c #979998",
"/	c #A1A1A1",
"(	c #A6A6A6",
"_	c #A5A5A5",
":	c #ABABA9",
"<	c #A9A9A8",
"[	c #9D9D9C",
"}	c #A0A19D",
"|	c #A3A49F",
"1	c #A5A5A3",
"2	c #9C9C9C",
"3	c #9C9C9B",
"4	c #9F9E9B",
"5	c #A1A09B",
"6	c #A3A3A0",
"7	c #A3A3A3",
"8	c #A2A2A2",
"9	c #A3A3A2",
"0	c #A3A29E",
"a	c #A4A3A1",
"b	c #9E9E9D",
"c	c #A4A4A4",
"d	c #A5A6A5",
"e	c #A4A5A5",
"f	c #A4A5A4",
"g	c #A8A9A8",
"h	c #A2A3A3",
"i	c #A9AAA9",
"j	c #A0A1A1",
"k	c #A7A8A7",
"l	c #ADADAD",
"   .......+@#$$$$$$$$$",
"%%%&&&&&&&*=+-;       ",
"...>>>>>>>>,'>;)))))))",
"!!~{{{{{{{]^/ (_______",
"__(;;;;;;;;:< .(((((((",
"~~~%%%%%%[}|1 >;;;;;;;",
"%%%2222223456._7777777",
"888777777960a_________",
"2222222222[bc>.(((((((",
"___________cd(________",
"//////////!~e;))))))))",
"7777777777c_fc________",
"cccccccccc_(g;>>>>>>>>",
"cccccccccc78h788888888",
">>>>>>>>>>>           ",
"//////////87f_.       ",
"....  _7_ >.i)>       ",
"%%%{!2~!~&&{j.(_______",
"__c8 !7_c/c/kl-)))))))",
"   .......+@#$$$$$$$$$",
"%%%&&&&&&&*=+-;       ",
"...>>>>>>>>,'>;)))))))",
"!!~{{{{{{{]^/ (_______",
"__(;;;;;;;;:< .(((((((",
"~~~%%%%%%[}|1 >;;;;;;;",
"%%%2222223456._7777777",
"888777777960a_________",
"2222222222[bc>.(((((((",
"___________cd(________",
"//////////!~e;))))))))",
"7777777777c_fc________",
"cccccccccc_(g;>>>>>>>>",
"cccccccccc78h788888888",
">>>>>>>>>>>           ",
"//////////87f_.       ",
"....  _7_ >.i)>       ",
"%%%{!2~!~&&{j.(_______",
"__c8 !7_c/c/kl-)))))))"};
