/* XPM */
static char * minimizeA_bare_xpm[] = {
"22 38 162 2",
"  	c None",
". 	c #7A6B68",
"+ 	c #6E3836",
"@ 	c #722A2B",
"# 	c #732928",
"$ 	c #703839",
"% 	c #7C696B",
"& 	c #6D292A",
"* 	c #A85241",
"= 	c #D69984",
"- 	c #E8BCA1",
"; 	c #E5BCA0",
"> 	c #D69A82",
", 	c #A6503F",
"' 	c #6F2927",
") 	c #94908F",
"! 	c #74241D",
"~ 	c #D79573",
"{ 	c #F5E0C3",
"] 	c #F6E1C6",
"^ 	c #F7D9BF",
"/ 	c #F6DAC4",
"( 	c #F2E2C1",
"_ 	c #F6E1C4",
": 	c #D49373",
"< 	c #78231E",
"[ 	c #673029",
"} 	c #CE7440",
"| 	c #F4D3A6",
"1 	c #EFC59B",
"2 	c #EDC498",
"3 	c #F0C598",
"4 	c #EFC69A",
"5 	c #EBC499",
"6 	c #EDC79A",
"7 	c #F5D5AC",
"8 	c #CB7343",
"9 	c #6A3128",
"0 	c #847A79",
"a 	c #95390A",
"b 	c #E18C3C",
"c 	c #E7B171",
"d 	c #E4B26D",
"e 	c #E8B371",
"f 	c #E5B46F",
"g 	c #E6B46D",
"h 	c #E9B470",
"i 	c #E6B16D",
"j 	c #E8B171",
"k 	c #E28C39",
"l 	c #973609",
"m 	c #837A7B",
"n 	c #6F5153",
"o 	c #BC5F0F",
"p 	c #DD7C13",
"q 	c #DE8A27",
"r 	c #E19C41",
"s 	c #E3A443",
"t 	c #E4A94B",
"u 	c #E3A445",
"v 	c #E49A43",
"w 	c #DB8B28",
"x 	c #DD7D0F",
"y 	c #BB5E10",
"z 	c #6F514F",
"A 	c #70412D",
"B 	c #CE7615",
"C 	c #DE861A",
"D 	c #DD8C20",
"E 	c #E09C2D",
"F 	c #E4A836",
"G 	c #E3AF3F",
"H 	c #E5B03C",
"I 	c #E4A838",
"J 	c #E29C2D",
"K 	c #DE8D21",
"L 	c #DD8517",
"M 	c #CD7615",
"N 	c #6E412E",
"O 	c #6C4735",
"P 	c #D08220",
"Q 	c #E19527",
"R 	c #E2A332",
"S 	c #E7B23E",
"T 	c #EAC04A",
"U 	c #ECC951",
"V 	c #E9CB4F",
"W 	c #E7B43F",
"X 	c #E1A135",
"Y 	c #DF9627",
"Z 	c #D1811E",
"` 	c #734633",
" .	c #766055",
"..	c #C4831D",
"+.	c #E5AA36",
"@.	c #E5B23F",
"#.	c #E9CB53",
"$.	c #F0D760",
"%.	c #F2E366",
"&.	c #F2E064",
"*.	c #EEDA5F",
"=.	c #E8CA52",
"-.	c #E4B33D",
";.	c #E7A836",
">.	c #765F51",
",.	c #948A88",
"'.	c #A06B1D",
").	c #E8BE45",
"!.	c #EBC74F",
"~.	c #EDE060",
"{.	c #F6EB6D",
"].	c #F7F175",
"^.	c #F7F473",
"/.	c #F5E96F",
"(.	c #F0DE60",
"_.	c #EDC64F",
":.	c #E7C041",
"<.	c #9F6B1F",
"[.	c #775C3E",
"}.	c #D0B13D",
"|.	c #F7EE6F",
"1.	c #F5F378",
"2.	c #F8F87E",
"3.	c #F8FA7F",
"4.	c #F8F37D",
"5.	c #F6EE71",
"6.	c #EDDB5F",
"7.	c #CFB03C",
"8.	c #765D3F",
"9.	c #856C2C",
"0.	c #D6CB57",
"a.	c #F3F07B",
"b.	c #F6F581",
"c.	c #F7FA85",
"d.	c #F5FA84",
"e.	c #F6F483",
"f.	c #F3EE78",
"g.	c #D5CC57",
"h.	c #846B29",
"i.	c #867945",
"j.	c #B7B453",
"k.	c #D2D678",
"l.	c #DCE07F",
"m.	c #DFDF85",
"n.	c #D3D574",
"o.	c #B8B652",
"p.	c #847844",
"q.	c #A3A494",
"r.	c #908F5F",
"s.	c #90914F",
"t.	c #8F8F4F",
"u.	c #908F61",
"v.	c #A5A396",
"w.	c #E1A134",
"x.	c #714903",
"y.	c #6A4100",
"z.	c #6F4904",
"A.	c #6C4301",
"B.	c #6C4400",
"C.	c #7C540A",
"D.	c #714904",
"E.	c #785109",
"                                            ",
"                . + @ # $ %                 ",
"              & * = - ; > , '               ",
"          ) ! ~ { ] ^ / ( _ : <             ",
"          [ } | 1 2 3 4 5 6 7 8 9           ",
"        0 a b c d e f g h i j k l m         ",
"        n o p q r s t t u v w x y z         ",
"        A B C D E F G H I J K L M N         ",
"        O P Q R S T U V T W X Y Z `         ",
"         ...+.@.#.$.%.&.*.=.-.;...>.        ",
"        ,.'.).!.~.{.].^./.(._.:.<.          ",
"          [.}.*.|.1.2.3.4.5.6.7.8.          ",
"            9.0.a.b.c.d.e.f.g.h.            ",
"              i.j.k.l.m.n.o.p.              ",
"                q.r.s.t.u.v.                ",
"                                            ",
"                                            ",
"                                            ",
"                                            ",
"                                            ",
"                . + @ # $ %                 ",
"              & * = - ; > , '               ",
"          ) ! ~ { ] ^ / ( _ : <             ",
"          [ } | 1 2 3 4 5 6 7 8 9           ",
"        0 a b c d e f g h i j k l m         ",
"        n o p q r s t t u v w x y z         ",
"        A B C D E F G H I J D L M N         ",
"        O P Q R S T U V T W w.Y Z `         ",
"         ...+.@.x.y.z.A.B.C.-.;...>.        ",
"        ,.'.).!.D.y.y.y.y.E._.:.<.          ",
"          [.}.*.|.1.2.3.4.5.6.7.8.          ",
"            9.0.a.b.c.d.e.f.g.h.            ",
"              i.j.k.l.m.n.o.p.              ",
"                q.r.s.t.u.v.                ",
"                                            ",
"                                            ",
"                                            ",
"                                            "};
