/* XPM */
static char * minimizeA_xpm[] = {
"22 38 189 2",
"  	c None",
". 	c #A8A8A8",
"+ 	c #A7A7A7",
"@ 	c #A6A7A6",
"# 	c #A4A6A5",
"$ 	c #AAABAB",
"% 	c #B0B0B0",
"& 	c #9D9D9D",
"* 	c #9E9E9E",
"= 	c #7A6B68",
"- 	c #6E3836",
"; 	c #722A2B",
"> 	c #732928",
", 	c #703839",
"' 	c #7C696B",
") 	c #AAAAAA",
"! 	c #A9A9A9",
"~ 	c #6D292A",
"{ 	c #A85241",
"] 	c #D69984",
"^ 	c #E8BCA1",
"/ 	c #E5BCA0",
"( 	c #D69A82",
"_ 	c #A6503F",
": 	c #6F2927",
"< 	c #ABABAB",
"[ 	c #A0A0A0",
"} 	c #9F9F9F",
"| 	c #9A9A9A",
"1 	c #94908F",
"2 	c #74241D",
"3 	c #D79573",
"4 	c #F5E0C3",
"5 	c #F6E1C6",
"6 	c #F7D9BF",
"7 	c #F6DAC4",
"8 	c #F2E2C1",
"9 	c #F6E1C4",
"0 	c #D49373",
"a 	c #78231E",
"b 	c #A5A5A5",
"c 	c #A6A6A6",
"d 	c #673029",
"e 	c #CE7440",
"f 	c #F4D3A6",
"g 	c #EFC59B",
"h 	c #EDC498",
"i 	c #F0C598",
"j 	c #EFC69A",
"k 	c #EBC499",
"l 	c #EDC79A",
"m 	c #F5D5AC",
"n 	c #CB7343",
"o 	c #6A3128",
"p 	c #847A79",
"q 	c #95390A",
"r 	c #E18C3C",
"s 	c #E7B171",
"t 	c #E4B26D",
"u 	c #E8B371",
"v 	c #E5B46F",
"w 	c #E6B46D",
"x 	c #E9B470",
"y 	c #E6B16D",
"z 	c #E8B171",
"A 	c #E28C39",
"B 	c #973609",
"C 	c #837A7B",
"D 	c #9C9C9C",
"E 	c #6F5153",
"F 	c #BC5F0F",
"G 	c #DD7C13",
"H 	c #DE8A27",
"I 	c #E19C41",
"J 	c #E3A443",
"K 	c #E4A94B",
"L 	c #E3A445",
"M 	c #E49A43",
"N 	c #DB8B28",
"O 	c #DD7D0F",
"P 	c #BB5E10",
"Q 	c #6F514F",
"R 	c #A3A3A3",
"S 	c #A2A2A2",
"T 	c #70412D",
"U 	c #CE7615",
"V 	c #DE861A",
"W 	c #DD8C20",
"X 	c #E09C2D",
"Y 	c #E4A836",
"Z 	c #E3AF3F",
"` 	c #E5B03C",
" .	c #E4A838",
"..	c #E29C2D",
"+.	c #DE8D21",
"@.	c #DD8517",
"#.	c #CD7615",
"$.	c #6E412E",
"%.	c #6C4735",
"&.	c #D08220",
"*.	c #E19527",
"=.	c #E2A332",
"-.	c #E7B23E",
";.	c #EAC04A",
">.	c #ECC951",
",.	c #E9CB4F",
"'.	c #E7B43F",
").	c #E1A135",
"!.	c #DF9627",
"~.	c #D1811E",
"{.	c #734633",
"].	c #766055",
"^.	c #C4831D",
"/.	c #E5AA36",
"(.	c #E5B23F",
"_.	c #E9CB53",
":.	c #F0D760",
"<.	c #F2E366",
"[.	c #F2E064",
"}.	c #EEDA5F",
"|.	c #E8CA52",
"1.	c #E4B33D",
"2.	c #E7A836",
"3.	c #765F51",
"4.	c #A1A1A1",
"5.	c #948A88",
"6.	c #A06B1D",
"7.	c #E8BE45",
"8.	c #EBC74F",
"9.	c #EDE060",
"0.	c #F6EB6D",
"a.	c #F7F175",
"b.	c #F7F473",
"c.	c #F5E96F",
"d.	c #F0DE60",
"e.	c #EDC64F",
"f.	c #E7C041",
"g.	c #9F6B1F",
"h.	c #775C3E",
"i.	c #D0B13D",
"j.	c #F7EE6F",
"k.	c #F5F378",
"l.	c #F8F87E",
"m.	c #F8FA7F",
"n.	c #F8F37D",
"o.	c #F6EE71",
"p.	c #EDDB5F",
"q.	c #CFB03C",
"r.	c #765D3F",
"s.	c #A4A4A4",
"t.	c #856C2C",
"u.	c #D6CB57",
"v.	c #F3F07B",
"w.	c #F6F581",
"x.	c #F7FA85",
"y.	c #F5FA84",
"z.	c #F6F483",
"A.	c #F3EE78",
"B.	c #D5CC57",
"C.	c #846B29",
"D.	c #867945",
"E.	c #B7B453",
"F.	c #D2D678",
"G.	c #DCE07F",
"H.	c #DFDF85",
"I.	c #D3D574",
"J.	c #B8B652",
"K.	c #847844",
"L.	c #A3A494",
"M.	c #908F5F",
"N.	c #90914F",
"O.	c #8F8F4F",
"P.	c #908F61",
"Q.	c #A5A396",
"R.	c #A4A5A4",
"S.	c #A9AAA9",
"T.	c #A0A1A1",
"U.	c #A7A8A7",
"V.	c #ADADAD",
"W.	c #ACACAC",
"X.	c #E1A134",
"Y.	c #714903",
"Z.	c #6A4100",
"`.	c #6F4904",
" +	c #6C4301",
".+	c #6C4400",
"++	c #7C540A",
"@+	c #714904",
"#+	c #785109",
". . . + + + + + + + @ # $ % % % % % % % % % ",
"& & & * * * * * = - ; > , ' ) . . . . . . . ",
"+ + + ! ! ! ! ~ { ] ^ / ( _ : < < < < < < < ",
"[ [ } | | 1 2 3 4 5 6 7 8 9 0 a b b b b b b ",
"b b c ) ) d e f g h i j k l m n o c c c c c ",
"} } } & p q r s t u v w x y z A B C ) ) ) ) ",
"& & & D E F G H I J K K L M N O P Q R R R R ",
"S S S R T U V W X Y Z `  ...+.@.#.$.b b b b ",
"D D D D %.&.*.=.-.;.>.,.;.'.).!.~.{.c c c c ",
"b b b b ].^./.(._.:.<.[.}.|.1.2.^.3.b b b b ",
"4.4.4.4.5.6.7.8.9.0.a.b.c.d.e.f.g.< < < < < ",
"R R R R R h.i.}.j.k.l.m.n.o.p.q.r.b b b b b ",
"s.s.s.s.s.s.t.u.v.w.x.y.z.A.B.C.! ! ! ! ! ! ",
"s.s.s.s.s.s.s.D.E.F.G.H.I.J.K.S S S S S S S ",
"! ! ! ! ! ! ! ! L.M.N.O.P.Q.. . . . . . . . ",
"4.4.4.4.4.4.4.4.4.4.S R R.b + . . . . . . . ",
"+ + + + . . b R b . ! + S.< ! . . . . . . . ",
"& & & | [ D } [ } * * | T.+ c b b b b b b b ",
"b b s.S . [ R b s.4.s.4.U.V.W.< < < < < < < ",
". . . + + + + + + + @ # $ % % % % % % % % % ",
"& & & * * * * * = - ; > , ' ) . . . . . . . ",
"+ + + ! ! ! ! ~ { ] ^ / ( _ : < < < < < < < ",
"[ [ } | | 1 2 3 4 5 6 7 8 9 0 a b b b b b b ",
"b b c ) ) d e f g h i j k l m n o c c c c c ",
"} } } & p q r s t u v w x y z A B C ) ) ) ) ",
"& & & D E F G H I J K K L M N O P Q R R R R ",
"S S S R T U V W X Y Z `  ...W @.#.$.b b b b ",
"D D D D %.&.*.=.-.;.>.,.;.'.X.!.~.{.c c c c ",
"b b b b ].^./.(.Y.Z.`. +.+++1.2.^.3.b b b b ",
"4.4.4.4.5.6.7.8.@+Z.Z.Z.Z.#+e.f.g.< < < < < ",
"R R R R R h.i.}.j.k.l.m.n.o.p.q.r.b b b b b ",
"s.s.s.s.s.s.t.u.v.w.x.y.z.A.B.C.! ! ! ! ! ! ",
"s.s.s.s.s.s.s.D.E.F.G.H.I.J.K.S S S S S S S ",
"! ! ! ! ! ! ! ! L.M.N.O.P.Q.. . . . . . . . ",
"4.4.4.4.4.4.4.4.4.4.S R R.b + . . . . . . . ",
"+ + + + . . b R b . ! + S.< ! . . . . . . . ",
"& & & | [ D } [ } * * | T.+ c b b b b b b b ",
"b b s.S . [ R b s.4.s.4.U.V.W.< < < < < < < "};
