/* XPM */
static char * restoreA_bare_xpm[] = {
"22 38 112 2",
"  	c None",
". 	c #626D65",
"+ 	c #2F4F38",
"@ 	c #1B4925",
"# 	c #888984",
"$ 	c #1B4424",
"% 	c #417A43",
"& 	c #87B787",
"* 	c #ABD0A4",
"= 	c #878984",
"- 	c #8C8E89",
"; 	c #0F481D",
"> 	c #88B87E",
", 	c #D2EDC2",
"' 	c #D6EDC1",
") 	c #D0E9C1",
"! 	c #8A8F89",
"~ 	c #154420",
"{ 	c #5A9F4F",
"] 	c #C3E7A7",
"^ 	c #B2DB99",
"/ 	c #B1DA94",
"( 	c #B2DB97",
"_ 	c #174521",
": 	c #737A73",
"< 	c #056114",
"[ 	c #66B849",
"} 	c #93CF6D",
"| 	c #91CC6E",
"1 	c #93CF6F",
"2 	c #93D16C",
"3 	c #67B94A",
"4 	c #046013",
"5 	c #3E5B45",
"6 	c #228920",
"7 	c #4CAB2B",
"8 	c #5EB533",
"9 	c #6FC33A",
"0 	c #76C744",
"a 	c #7CC949",
"b 	c #405C46",
"c 	c #244E28",
"d 	c #42A12B",
"e 	c #56B428",
"f 	c #54B625",
"g 	c #61C129",
"h 	c #6BC933",
"i 	c #73CD3A",
"j 	c #54B528",
"k 	c #40A22B",
"l 	c #254D28",
"m 	c #2C5327",
"n 	c #4BAA2A",
"o 	c #6AC42F",
"p 	c #78CF42",
"q 	c #85D64D",
"r 	c #8CD955",
"s 	c #2B5128",
"t 	c #499C26",
"u 	c #74C832",
"v 	c #79CC40",
"w 	c #8DD859",
"x 	c #9CE164",
"y 	c #A2E66D",
"z 	c #75C734",
"A 	c #499D24",
"B 	c #486549",
"C 	c #337E1F",
"D 	c #88CC45",
"E 	c #8CD550",
"F 	c #A4E469",
"G 	c #B0E974",
"H 	c #B9EF7D",
"I 	c #337F1D",
"J 	c #3E6539",
"K 	c #6FB739",
"L 	c #ADE26C",
"M 	c #B1E775",
"N 	c #BEEE80",
"O 	c #C3F386",
"P 	c #6DB839",
"Q 	c #3E7228",
"R 	c #97CA54",
"S 	c #CDF18D",
"T 	c #CBF18E",
"U 	c #CCF28D",
"V 	c #3F7329",
"W 	c #577A42",
"X 	c #86B04E",
"Y 	c #B3D47D",
"Z 	c #C3E08C",
"` 	c #778D5F",
" .	c #708D4D",
"..	c #1E4E07",
"+.	c #22520A",
"@.	c #67B835",
"#.	c #1A4A01",
"$.	c #184800",
"%.	c #1B5100",
"&.	c #194901",
"*.	c #184700",
"=.	c #164600",
"-.	c #164400",
";.	c #1C4E01",
">.	c #1D5003",
",.	c #1A4B03",
"'.	c #184701",
").	c #1A4903",
"!.	c #1E5205",
"~.	c #174600",
"{.	c #204F07",
"].	c #1C4A04",
"                                            ",
"                . + @ @ + .                 ",
"            # $ % & * * & % $ =             ",
"          - ; > , ' ) ) ' , > ; !           ",
"          ~ { ] ^ / ( ( / ^ ] { _           ",
"        : < [ } | 1 2 2 1 | } 3 4 :         ",
"        5 6 7 8 9 0 a a 0 9 8 7 6 b         ",
"        c d e f g h i i h g f j k l         ",
"        m n g o p q r r q p o g n s         ",
"          t u v w x y y x w v z A B         ",
"          C D E F G H H G F E D I           ",
"          J K L M N O O N M L P J           ",
"            Q R S T U U T S R V             ",
"              W X Y Z Z Y X W               ",
"                  `  . .`                   ",
"                                            ",
"                                            ",
"                                            ",
"                                            ",
"                                            ",
"                . + @ @ + .                 ",
"            # $ % & * * & % $ =             ",
"          - ; > , ' ) ) ' , > ; !           ",
"          ~ { ] ^ / ( ( / ^ ] { _           ",
"        : < [ } | 1 ..+.1 | } 3 4 :         ",
"        5 6 7 8 @.0 #.$.0 9 8 7 6 b         ",
"        c d e f %.&.*.=.-.;.f j k l         ",
"        m n g o >.,.'.).-.!.o g n s         ",
"          t u v w x ~.-.x w v z A B         ",
"          C D E F G {.].G F E D I           ",
"          J K L M N O O N M L P J           ",
"            Q R S T U U T S R V             ",
"              W X Y Z Z Y X W               ",
"                  `  . .`                   ",
"                                            ",
"                                            ",
"                                            ",
"                                            "};
