/* XPM */
static char * restoreA_xpm[] = {
"22 38 161 2",
"  	c None",
". 	c #A8A8A8",
"+ 	c #A7A7A7",
"@ 	c #A6A7A6",
"# 	c #A4A6A5",
"$ 	c #AAABAB",
"% 	c #B0B0B0",
"& 	c #9D9D9D",
"* 	c #9E9E9E",
"= 	c #707973",
"- 	c #3C5844",
"; 	c #1D4A27",
"> 	c #1C4925",
", 	c #385641",
"' 	c #737C75",
") 	c #AAAAAA",
"! 	c #A9A9A9",
"~ 	c #939490",
"{ 	c #22492B",
"] 	c #447B46",
"^ 	c #87B687",
"/ 	c #AACEA4",
"( 	c #939491",
"_ 	c #ABABAB",
": 	c #A0A0A0",
"< 	c #9F9F9F",
"[ 	c #9A9A9A",
"} 	c #91928F",
"| 	c #144B21",
"1 	c #88B77E",
"2 	c #C9E0BC",
"3 	c #CEE2BB",
"4 	c #C9DFBC",
"5 	c #CFE3BC",
"6 	c #CBE2BE",
"7 	c #88B77F",
"8 	c #949793",
"9 	c #A5A5A5",
"0 	c #A6A6A6",
"a 	c #1E4A29",
"b 	c #5A9F4F",
"c 	c #C2E6A7",
"d 	c #B1D999",
"e 	c #B0D894",
"f 	c #B1D997",
"g 	c #1F4A28",
"h 	c #828782",
"i 	c #056114",
"j 	c #66B849",
"k 	c #93CF6D",
"l 	c #91CC6E",
"m 	c #93CF6F",
"n 	c #93D16C",
"o 	c #67B94A",
"p 	c #046013",
"q 	c #878B87",
"r 	c #9C9C9C",
"s 	c #5F7264",
"t 	c #228920",
"u 	c #4CAB2B",
"v 	c #5EB533",
"w 	c #6FC33A",
"x 	c #76C744",
"y 	c #7CC949",
"z 	c #647567",
"A 	c #A3A3A3",
"B 	c #A2A2A2",
"C 	c #4F6B51",
"D 	c #42A12B",
"E 	c #56B428",
"F 	c #54B625",
"G 	c #61C129",
"H 	c #6BC933",
"I 	c #73CD3A",
"J 	c #54B528",
"K 	c #40A22B",
"L 	c #546D56",
"M 	c #597056",
"N 	c #4BAA2A",
"O 	c #6AC42F",
"P 	c #78CF42",
"Q 	c #85D64D",
"R 	c #8CD955",
"S 	c #5D735B",
"T 	c #707E72",
"U 	c #499C26",
"V 	c #74C832",
"W 	c #79CC40",
"X 	c #8DD859",
"Y 	c #9CE164",
"Z 	c #A2E66D",
"` 	c #75C734",
" .	c #499D24",
"..	c #6D7F6E",
"+.	c #A1A1A1",
"@.	c #939693",
"#.	c #377F24",
"$.	c #88CC45",
"%.	c #8CD550",
"&.	c #A4E469",
"*.	c #B0E974",
"=.	c #B9EF7D",
"-.	c #368020",
";.	c #979C98",
">.	c #547351",
",.	c #6FB739",
"'.	c #ADE26C",
").	c #B1E775",
"!.	c #BEEE80",
"~.	c #C3F386",
"{.	c #6DB839",
"].	c #53724F",
"^.	c #A4A4A4",
"/.	c #477633",
"(.	c #97CA54",
"_.	c #CDF18D",
":.	c #CBF18E",
"<.	c #CCF28D",
"[.	c #487734",
"}.	c #728965",
"|.	c #88AF55",
"1.	c #B3D47D",
"2.	c #C3E08C",
"3.	c #88AF54",
"4.	c #718763",
"5.	c #A3A6A1",
"6.	c #8C997E",
"7.	c #889974",
"8.	c #889874",
"9.	c #8C987E",
"0.	c #A2A6A1",
"a.	c #A4A5A4",
"b.	c #A9AAA9",
"c.	c #A0A1A1",
"d.	c #A7A8A7",
"e.	c #ADADAD",
"f.	c #ACACAC",
"g.	c #717973",
"h.	c #395641",
"i.	c #1C4A26",
"j.	c #3A5742",
"k.	c #747C76",
"l.	c #1E4E07",
"m.	c #22520A",
"n.	c #67B835",
"o.	c #1A4A01",
"p.	c #184800",
"q.	c #1B5100",
"r.	c #194901",
"s.	c #184700",
"t.	c #164600",
"u.	c #164400",
"v.	c #1C4E01",
"w.	c #1D5003",
"x.	c #1A4B03",
"y.	c #184701",
"z.	c #1A4903",
"A.	c #1E5205",
"B.	c #174600",
"C.	c #204F07",
"D.	c #1C4A04",
". . . + + + + + + + @ # $ % % % % % % % % % ",
"& & & * * * * * = - ; > , ' ) . . . . . . . ",
"+ + + ! ! ! ~ { ] ^ / / ^ ] { ( _ _ _ _ _ _ ",
": : < [ [ } | 1 2 3 4 4 5 6 7 | 8 9 9 9 9 9 ",
"9 9 0 ) ) a b c d e f f e d c b g 0 0 0 0 0 ",
"< < < & h i j k l m n n m l k o p q ) ) ) ) ",
"& & & r s t u v w x y y x w v u t z A A A A ",
"B B B A C D E F G H I I H G F J K L 9 9 9 9 ",
"r r r r M N G O P Q R R Q P O G N S 0 0 0 0 ",
"9 9 9 9 T U V W X Y Z Z Y X W `  ...9 9 9 9 ",
"+.+.+.+.@.#.$.%.&.*.=.=.*.&.%.$.-.;._ _ _ _ ",
"A A A A A >.,.'.).!.~.~.!.).'.{.].9 9 9 9 9 ",
"^.^.^.^.^.^./.(._.:.<.<.:._.(.[.! ! ! ! ! ! ",
"^.^.^.^.^.^.^.}.|.1.2.2.1.3.4.B B B B B B B ",
"! ! ! ! ! ! ! ! 5.6.7.8.9.0.. . . . . . . . ",
"+.+.+.+.+.+.+.+.+.+.B A a.9 + . . . . . . . ",
"+ + + + . . 9 A 9 . ! + b._ ! . . . . . . . ",
"& & & [ : r < : < * * [ c.+ 0 9 9 9 9 9 9 9 ",
"9 9 ^.B . : A 9 ^.+.^.+.d.e.f._ _ _ _ _ _ _ ",
". . . + + + + + + + @ # $ % % % % % % % % % ",
"& & & * * * * * g.h.i.i.j.k.) . . . . . . . ",
"+ + + ! ! ! ~ { ] ^ / / ^ ] { ( _ _ _ _ _ _ ",
": : < [ [ } | 1 2 3 4 4 5 6 7 | 8 9 9 9 9 9 ",
"9 9 0 ) ) a b c d e f f e d c b g 0 0 0 0 0 ",
"< < < & h i j k l m l.m.m l k o p q ) ) ) ) ",
"& & & r s t u v n.x o.p.x w v u t z A A A A ",
"B B B A C D E F q.r.s.t.u.v.F J K L 9 9 9 9 ",
"r r r r M N G O w.x.y.z.u.A.O G N S 0 0 0 0 ",
"9 9 9 9 T U V W X Y B.u.Y X W `  ...9 9 9 9 ",
"+.+.+.+.@.#.$.%.&.*.C.D.*.&.%.$.-.;._ _ _ _ ",
"A A A A A >.,.'.).!.~.~.!.).'.{.].9 9 9 9 9 ",
"^.^.^.^.^.^./.(._.:.<.<.:._.(.[.! ! ! ! ! ! ",
"^.^.^.^.^.^.^.}.|.1.2.2.1.3.4.B B B B B B B ",
"! ! ! ! ! ! ! ! 5.6.7.8.9.0.. . . . . . . . ",
"+.+.+.+.+.+.+.+.+.+.B A a.9 + . . . . . . . ",
"+ + + + . . 9 A 9 . ! + b._ ! . . . . . . . ",
"& & & [ : r < : < * * [ c.+ 0 9 9 9 9 9 9 9 ",
"9 9 ^.B . : A 9 ^.+.^.+.d.e.f._ _ _ _ _ _ _ "};
