/* XPM */
static char * titleAR_xpm[] = {
"1 19 13 1",
" 	c None",
".	c #A8A8A8",
"+	c #9D9D9D",
"@	c #A7A7A7",
"#	c #A0A0A0",
"$	c #A5A5A5",
"%	c #9F9F9F",
"&	c #A2A2A2",
"*	c #9C9C9C",
"=	c #A1A1A1",
"-	c #A3A3A3",
";	c #A4A4A4",
">	c #A9A9A9",
".",
"+",
"@",
"#",
"$",
"%",
"+",
"&",
"*",
"$",
"=",
"-",
";",
";",
">",
"=",
"@",
"+",
"$"};
