/* XPM */
static char * titleAB_xpm[] = {
"357 19 157 2",
"  	c #A8A8A8",
". 	c #A7A7A7",
"+ 	c #A6A7A6",
"@ 	c #A4A6A5",
"# 	c #AAABAB",
"$ 	c #B0B0B0",
"% 	c #AEAEAE",
"& 	c #ADADAD",
"* 	c #ACACAC",
"= 	c #ABABAB",
"- 	c #AAAAAA",
"; 	c #A8A8AA",
"> 	c #A8A9AC",
", 	c #A8A7AA",
"' 	c #A8A6AA",
") 	c #ABA8AD",
"! 	c #A5A0A7",
"~ 	c #ACA6AF",
"{ 	c #B1A9B4",
"] 	c #AEA4AF",
"^ 	c #AFA7B0",
"/ 	c #B0A9B0",
"( 	c #AFAAAE",
"_ 	c #ADABAC",
": 	c #ADACAA",
"< 	c #ACACAA",
"[ 	c #ABADAA",
"} 	c #AFAFAF",
"| 	c #B1B1B1",
"1 	c #B2B2B2",
"2 	c #B4B4B4",
"3 	c #B5B5B5",
"4 	c #B3B3B3",
"5 	c #9D9D9D",
"6 	c #9E9E9E",
"7 	c #9E9F9E",
"8 	c #9EA09F",
"9 	c #A6A6A6",
"0 	c #A4A4A4",
"a 	c #A2A2A2",
"b 	c #A1A1A1",
"c 	c #A7A6A3",
"d 	c #A6A7A2",
"e 	c #A5A7A2",
"f 	c #A9A9A7",
"g 	c #A9A9A9",
"h 	c #A9ABAA",
"i 	c #A9AAAA",
"j 	c #A9A8A5",
"k 	c #A7A8A2",
"l 	c #A6A9A2",
"m 	c #A6A8A3",
"n 	c #A4A4A2",
"o 	c #B6B6B6",
"p 	c #A0A0A0",
"q 	c #9F9F9F",
"r 	c #9A9A9A",
"s 	c #999A99",
"t 	c #979998",
"u 	c #A5A5A5",
"v 	c #A5A4A1",
"w 	c #A4A5A0",
"x 	c #A3A5A0",
"y 	c #ABABA9",
"z 	c #A9A9A8",
"A 	c #A3A3A3",
"B 	c #ABAAA8",
"C 	c #AAACAB",
"D 	c #B7B7B7",
"E 	c #B8B8B8",
"F 	c #9D9D9C",
"G 	c #A0A19D",
"H 	c #A3A49F",
"I 	c #A5A5A3",
"J 	c #ACAAAB",
"K 	c #ABABAD",
"L 	c #AAABAD",
"M 	c #9C9C9C",
"N 	c #9C9C9B",
"O 	c #9F9E9B",
"P 	c #A1A09B",
"Q 	c #A3A3A0",
"R 	c #A2A0A3",
"S 	c #A1A0A5",
"T 	c #A1A0A6",
"U 	c #A0A1A6",
"V 	c #A4A4A6",
"W 	c #A3A3A2",
"X 	c #A3A29E",
"Y 	c #A4A3A1",
"Z 	c #ACACAE",
"` 	c #ACABB3",
" .	c #9E9E9D",
"..	c #A8ABA3",
"+.	c #AAABA6",
"@.	c #ABA8AE",
"#.	c #ABA8B1",
"$.	c #AFAFB1",
"%.	c #A5A6A5",
"&.	c #AAACA3",
"*.	c #ACADA7",
"=.	c #AFAAB0",
"-.	c #AFA9B3",
";.	c #AFADB2",
">.	c #A4A5A5",
",.	c #A2A59C",
"'.	c #A2A39D",
").	c #A5A0A6",
"!.	c #A59FA9",
"~.	c #A2A0A5",
"{.	c #A4A5A4",
"].	c #A6A8A1",
"^.	c #A8A7A3",
"/.	c #AAA5AB",
"(.	c #AAA4AE",
"_.	c #A8A6A9",
":.	c #A8A9A8",
"<.	c #A5A7A1",
"[.	c #A6A5A1",
"}.	c #A9A2A9",
"|.	c #A9A2AA",
"1.	c #A7A5A8",
"2.	c #A2A3A3",
"3.	c #A5A7A3",
"4.	c #A8A7A5",
"5.	c #ABA4AB",
"6.	c #ABA4AC",
"7.	c #A9A7AA",
"8.	c #A1A19F",
"9.	c #A39FA0",
"0.	c #A69CA4",
"a.	c #AFABAC",
"b.	c #B2A8B0",
"c.	c #ACAAAD",
"d.	c #A9AAA9",
"e.	c #ABA7A8",
"f.	c #ACA6AA",
"g.	c #AAA8A9",
"h.	c #B9B9B9",
"i.	c #A0A1A1",
"j.	c #A9A5A6",
"k.	c #AAA4A8",
"l.	c #A7A8A7",
"m.	c #A5A3A6",
"n.	c #A8A2A6",
"o.	c #A9A3A8",
"p.	c #A8A3AA",
"q.	c #A6A1A8",
"r.	c #A7A2A5",
"s.	c #A7A5A3",
"t.	c #A8A8A3",
"u.	c #A7A7A5",
"v.	c #A5A6A7",
"w.	c #A6A6A8",
"x.	c #A7A5A6",
"y.	c #A9A4A8",
"z.	c #ABA9AA",
"      . . . . . . . + @ # $ $ $ $ $ $ $ $ $ % % % % % % % & * * * * * * * = - - - - - - -                 ; > , ' ) ! ~ { ] ^ / ( _ : < [ [ = = = = = = = * } } } } } } } $ | | | | | | | | | | | | | | | 1 1 1 1 1 1 1 2 3 3 3 3 3 3 3 4 4 4 4 4 4 4 4 1 1 1 1 1 1 1 1 1 1 1 1 1 1 1 1 1 1 1 1 1 1 1 4 4 4 4 4 4 4 4 4 4 4 4 4 4 4 2 2 2 2 2 2 2 2 4 4 4 2 2 3 3 3 3 3 3 3 3 2 2 4 4 4 2 2 2 2 2 2 2 2 4 4 4 4 4 4 4 4 4 4 4 4 4 4 4 1 1 1 1 1 1 1 1 1 1 1 1 1 1 1 1 1 1 1 1 1 1 1 4 4 4 4 4 4 4 4 3 3 3 3 3 3 3 2 1 1 1 1 1 1 1 | | | | | | | | | | | | | | | $ } } } } } } } * = = = = = = = [ [ < : _ ( / ^ ] { ~ ! ) ' , > ;                 - - - - - - - = * * * * * * * & % % % % % % % $ $ $ $ $ $ $ $ $ # @ + . . . . . . .     ",
"5 5 5 6 6 6 6 6 6 6 7 8 + * -                             . 9 9 9 9 9 9 9 0 a a a a a a a b b b b b b b 0 * * * * -                 c d e e f g g g g g g   . . . . . . . - = = = = = = = % % % % % % % % } } } } } } } % & & & & & & & & & & & & & & & * * * * * * * = = = = = = = = = = = = = = = -               - = = = = = = = % % % % % % % % & & & % % } } $ | | $ } } % % & & & % % % % % % % % = = = = = = = -               - = = = = = = = = = = = = = = = * * * * * * * & & & & & & & & & & & & & & & % } } } } } } } % % % % % % % % = = = = = = = - . . . . . . .   g g g g g g f e e d c                 - * * * * 0 b b b b b b b a a a a a a a 0 9 9 9 9 9 9 9 .                             - * + 8 7 6 6 6 6 6 6 6 5 5 ",
". . . g g g g g g g g h i g - = = = = = = = & & & & & & & * = = = = = = = = = = = = = = = - - - - - - - - g g g g - = = = = = = = & j k l m n 0 0 0 0 0 0 0 0 0 0 0 0 0 0 .               = = = = = = = = * * * * * * * } $ $ $ $ $ $ $ 1 1 1 1 1 1 1 1 | | | | | | | 4 2 2 2 2 2 2 2 2 2 2 2 2 2 2 4 1 1 1 1 1 1 1 3 o o o o o o o 2 2 2 2 2 2 2 2 2 2 2 3 3 o o 3 2 2 3 o o 3 3 2 2 2 2 2 2 2 2 2 2 2 o o o o o o o 3 1 1 1 1 1 1 1 4 2 2 2 2 2 2 2 2 2 2 2 2 2 2 4 | | | | | | | 1 1 1 1 1 1 1 1 $ $ $ $ $ $ $ } * * * * * * * = = = = = = = =               . 0 0 0 0 0 0 0 0 0 0 0 0 0 0 n m l k j & = = = = = = = - g g g g - - - - - - - - = = = = = = = = = = = = = = = * & & & & & & & = = = = = = = - g i h g g g g g g g g . . ",
"p p q r r r r r r r s t b   9 u u u u u u u 9 9 9 9 9 9 9 9 u u u u u u u b q q q q q q q 6 6 6 6 6 6 6 b         . u u u u u u u 9 v w x x u u u u u u u 9               - = = = = = = = - - - - - - - - - - - - - - - - - - - - - - - = = = = = = = = = = = = = = = g                             g = = = = = = =   . . . . . . . = = = = = = = = = = = * * & & } $ $ } & & * * = = = = = = = = = = = . . . . . . .   = = = = = = = g                             g = = = = = = = = = = = = = = = - - - - - - - - - - - - - - - - - - - - - - - = = = = = = = -               9 u u u u u u u x x w v 9 u u u u u u u .         b 6 6 6 6 6 6 6 q q q q q q q b u u u u u u u 9 9 9 9 9 9 9 9 u u u u u u u 9   b t s r r r r r r r q p ",
"u u 9 - - - - - - - - y z   . 9 9 9 9 9 9 9 u u u u u u u u 0 0 0 0 0 0 0 0 0 0 0 0 0 0 0 A A A A A A A 0         . 9 9 9 9 9 9 9 u B y C C * * * * * * * * * * * * * * * * * * * * * * * = = = = = = = = = = = = = = = = = = = = = = = - - - - - - - - - - - - - - - * & & & & & & & & & & & & & & % $ $ $ $ $ $ $ 2 D D D D D D D 3 3 3 3 3 3 3 3 3 3 o o D D E o 3 3 o E D D o o 3 3 3 3 3 3 3 3 3 3 D D D D D D D 2 $ $ $ $ $ $ $ % & & & & & & & & & & & & & & * - - - - - - - - - - - - - - - = = = = = = = = = = = = = = = = = = = = = = = * * * * * * * * * * * * * * * * * * * * * * * C C y B u 9 9 9 9 9 9 9 .         0 A A A A A A A 0 0 0 0 0 0 0 0 0 0 0 0 0 0 0 u u u u u u u u 9 9 9 9 9 9 9 .   z y - - - - - - - - 9 u ",
"q q q 5 5 5 5 5 5 F G H I   g - - - - - - - g g g g g g g g               u A A A A A A A a a a a a a a 0         g - - - - - - - g J = K L ;             g = = = = = = = - g g g g g g g * * * * * * * * = = = = = = = % } } } } } } } % % % % % % % % % % % % % % % & * * * * * * * * * * * * * * = - - - - - - - - - - - - - - - & & & & & & & & % % } } $ $ | 1 4 4 1 | $ $ } } % % & & & & & & & & - - - - - - - - - - - - - - - = * * * * * * * * * * * * * * & % % % % % % % % % % % % % % % } } } } } } } % = = = = = = = * * * * * * * * g g g g g g g - = = = = = = = g             ; L K = J g - - - - - - - g         0 a a a a a a a A A A A A A A u               g g g g g g g g - - - - - - - g   I H G F 5 5 5 5 5 5 q q ",
"5 5 5 M M M M M M N O P Q . u A A A A A A A a a a a a a a a a a a a a a a b b b b b b b b p p p p p p p a . . . . u A A A A A A A a R S T U V 0 0 0 0 0 0 9 g g g g g g g                 = = = = = = = - g g g g g g g                 . . . . . . . .               g - - - - - - - - - - - - - - g                                               g g g - - = = - g g - = = - - g g g                                               g - - - - - - - - - - - - - - g               . . . . . . . .                 g g g g g g g - = = = = = = =                 g g g g g g g 9 0 0 0 0 0 0 V U T S R a A A A A A A A u . . . . a p p p p p p p b b b b b b b b a a a a a a a a a a a a a a a A A A A A A A u . Q P O N M M M M M M 5 5 ",
"a a a A A A A A A W Q X Y u u u u u u u u u . . . . . . . . . . . . . . . u 0 0 0 0 0 0 0 a a a a a a a A u u u u u u u u u u u u . J Z ` ` K = = = = = = - g g g g g g g - - - - - - - - g g g g g g g g               g - - - - - - - * * * * * * * * & & & & & & & * * * * * * * * * * * * * * * * & & & & & & & % } } } } } } } | | | | | | | | 1 4 4 4 2 3 3 3 3 3 3 3 3 2 4 4 4 1 | | | | | | | | } } } } } } } % & & & & & & & * * * * * * * * * * * * * * * * & & & & & & & * * * * * * * * - - - - - - - g               g g g g g g g g - - - - - - - - g g g g g g g - = = = = = = K ` ` Z J . u u u u u u u u u u u u A a a a a a a a 0 0 0 0 0 0 0 u . . . . . . . . . . . . . . . u u u u u u u u u Y X Q W A A A A A A a a ",
"M M M M M M M M M M F  .0 g . 9 9 9 9 9 9 9 0 0 0 0 0 0 0 A q q q q q q q q q q q q q q q 6 6 6 6 6 6 6 b g g g g   9 9 9 9 9 9 9 0 ..+.@.#.$.} } } } } } } $ $ $ $ $ $ $ $ $ $ $ $ $ $ $ % % % % % % % & * * * * * * * = - - - - - - - - - - - - - - g 9 9 9 9 9 9 9 . . . . . . . .                                     g g - - - * * * * * * * & } } } } $ | | 1 4 4 1 | | $ } } } } & * * * * * * * - - - g g                                     . . . . . . . . 9 9 9 9 9 9 9 g - - - - - - - - - - - - - - = * * * * * * * & % % % % % % % $ $ $ $ $ $ $ $ $ $ $ $ $ $ $ } } } } } } } $.#.@.+...0 9 9 9 9 9 9 9   g g g g b 6 6 6 6 6 6 6 q q q q q q q q q q q q q q q A 0 0 0 0 0 0 0 9 9 9 9 9 9 9 . g 0  .F M M M M M M M M M ",
"u u u u u u u u u u u 0 %.9 u u u u u u u u 0 0 0 0 0 0 0 u . . . . . . . . . . . . . . . . . . . . . . . 9 9 9 9 9 u u u u u u u 0 &.*.=.-.;.% % % % % % & * * * * * * * = = = = = = = = . . . . . . .   - - - - - - - g g g g g g g g - - - - - - - = % % % % % % % } } } } } } } } | | | | | | | | | | | | | | | | | | 1 1 4 4 4 | | | | | | | | $ $ $ | | 1 1 2 3 3 2 1 1 | | $ $ $ | | | | | | | | 4 4 4 1 1 | | | | | | | | | | | | | | | | | | } } } } } } } } % % % % % % % = - - - - - - - g g g g g g g g - - - - - - -   . . . . . . . = = = = = = = = * * * * * * * & % % % % % % ;.-.=.*.&.0 u u u u u u u 9 9 9 9 9 . . . . . . . . . . . . . . . . . . . . . . . u 0 0 0 0 0 0 0 u u u u u u u u 9 %.0 u u u u u u u u u u ",
"b b b b b b b b b b p q >.- = = = = = = = = - - - - - - - g                               a a a a a a a 0 - - - - - = = = = = = = - ,.'.).!.~.b b b b b b a 0 0 0 0 0 0 0 .               - - - - - - - = % % % % % % % } } } } } } } } | | | | | | | $ } } } } } } } $ $ $ $ $ $ $ $ * * * * * * * * * * * * * * * * * & & & % % % & & & & & & & & & & & % % } } % & & % } } % % & & & & & & & & & & & % % % & & & * * * * * * * * * * * * * * * * * $ $ $ $ $ $ $ $ } } } } } } } $ | | | | | | | } } } } } } } } % % % % % % % = - - - - - - -               . 0 0 0 0 0 0 0 a b b b b b b ~.!.).'.,.- = = = = = = = - - - - - 0 a a a a a a a                               g - - - - - - - = = = = = = = = - >.q p b b b b b b b b b ",
"A A A A A A A A A A 0 u {.0 u u u u u u u u u u u u u u u u 0 0 0 0 0 0 0 0 0 0 0 0 0 0 0 0 0 0 0 0 0 0 0 0 0 0 0 0 u u u u u u u u ].^./.(._.. . . . . . 9 A A A A A A A . g g g g g g g . . . . . . . .                               = = = = = = = = - - - - - - - = = = = = = = = % % % % % % % % % % % % % % % % } } } $ $ | | 4 4 4 4 4 4 4 1 } } } $ $ | | 1 4 4 1 | | $ $ } } } 1 4 4 4 4 4 4 4 | | $ $ } } } % % % % % % % % % % % % % % % % = = = = = = = = - - - - - - - = = = = = = = =                               . . . . . . . . g g g g g g g . A A A A A A A 9 . . . . . . _.(./.^.].u u u u u u u u 0 0 0 0 0 0 0 0 0 0 0 0 0 0 0 0 0 0 0 0 0 0 0 0 0 0 0 0 u u u u u u u u u u u u u u u u 0 {.u 0 A A A A A A A A A ",
"0 0 0 0 0 0 0 0 0 0 u 9 :.- g g g g g g g g g g g g g g g g g g g g g g g g g g g g g g g u u u u u u u 9 - - - - - g g g g g g g g <.[.}.|.1.9 9 9 9 9 9 . g g g g g g g                 & & & & & & & & & & & & & & & & & & & & & & & } } } } } } } } } } } } } } } $ $ $ $ $ $ $ $ } } } } } } } } } } } } } } } } $ $ $ | | 1 1 2 2 2 2 2 2 2 2 2 2 2 3 3 o o 2 1 1 2 o o 3 3 2 2 2 2 2 2 2 2 2 2 2 1 1 | | $ $ $ } } } } } } } } } } } } } } } } $ $ $ $ $ $ $ $ } } } } } } } } } } } } } } } & & & & & & & & & & & & & & & & & & & & & & &                 g g g g g g g . 9 9 9 9 9 9 1.|.}.[.<.g g g g g g g g - - - - - 9 u u u u u u u g g g g g g g g g g g g g g g g g g g g g g g g g g g g g g g - :.9 u 0 0 0 0 0 0 0 0 0 ",
"0 0 0 0 0 0 0 0 0 0 A a 2.A a a a a a a a a a a a a a a a a b b b b b b b b b b b b b b b u u u u u u u 0 A A A A A a a a a a a a a 3.4.5.6.7.            . 9 9 9 9 9 9 9 u u u u u u u u 0 0 0 0 0 0 0 u . . . . . . . 9 9 9 9 9 9 9 9                 . . . . . . .                 } } } } } } } } } } } } } } } } } } $ $ | | | $ $ $ $ $ $ $ $ } } $ $ $ | | 1 4 4 1 | | $ $ $ } } $ $ $ $ $ $ $ $ | | | $ $ } } } } } } } } } } } } } } } } } }                 . . . . . . .                 9 9 9 9 9 9 9 9 . . . . . . . u 0 0 0 0 0 0 0 u u u u u u u u 9 9 9 9 9 9 9 .             7.6.5.4.3.a a a a a a a a A A A A A 0 u u u u u u u b b b b b b b b b b b b b b b a a a a a a a a a a a a a a a a A 2.a A 0 0 0 0 0 0 0 0 0 ",
"g g g g g g g g g g g                       9 9 9 9 9 9 9   * * * * * * * * * * * * * * * = = = = = = = -                         9 8.9.0.0.R b b b b b b a A A A A A A A u 9 9 9 9 9 9 9 g g g g g g g - = = = = = = = * * * * * * * * & & & & & & & } 4 4 4 4 4 4 4 2 2 2 2 2 2 2 2 3 3 3 3 3 3 3 3 3 3 3 3 3 3 3 3 3 3 o o D D D 3 3 3 3 3 3 3 1 * * & & & % % & * * & % % & & & * * 1 3 3 3 3 3 3 3 D D D o o 3 3 3 3 3 3 3 3 3 3 3 3 3 3 3 3 3 3 2 2 2 2 2 2 2 2 4 4 4 4 4 4 4 } & & & & & & & * * * * * * * * = = = = = = = - g g g g g g g 9 9 9 9 9 9 9 u A A A A A A A a b b b b b b R 0.0.9.8.9                         - = = = = = = = * * * * * * * * * * * * * * *   9 9 9 9 9 9 9                       g g g g g g g g g g ",
"b b b b b b b b b b a A {.u .               u u u u u u u 0 A A A A A A A A A A A A A A A A A A A A A A 0 u u u u 9               9 = a.b.b.c.= = = = = = = = = = = = = = = = = = = = = = - - - - - - - - g g g g g g g - = = = = = = = = = = = = = = = - - - - - - - = = = = = = = = & & & & & & & & & & & & & & & & & & % % % } } | | | | | | | 1 2 2 3 3 o o o D D D D o o o 3 3 2 2 1 | | | | | | | } } % % % & & & & & & & & & & & & & & & & & & = = = = = = = = - - - - - - - = = = = = = = = = = = = = = = - g g g g g g g - - - - - - - - = = = = = = = = = = = = = = = = = = = = = = c.b.b.a.= 9               9 u u u u 0 A A A A A A A A A A A A A A A A A A A A A A 0 u u u u u u u               . u {.A a b b b b b b b b b ",
". . . .     u A u   g . d.= g               . . . . . . .   g g g g g g g   . . . . . . . . . . . . . .   = = = = -               .   e.f.f.g.g g g g g g g - - - - - - - = * * * * * * * * * * * * * * * * * * * * * * * * * * * * * * = = = = = = = & $ $ $ $ $ $ $ 4 - $ % 1 $ } & | 2 % h.* } 4 4 3 3 3 3 3 3 3 3 3 3 3 3 3 3 3 2 2 2 2 2 2 2 2 4 4 4 4 4 4 4 | o o | 4 4 4 4 4 4 4 2 2 2 2 2 2 2 2 3 3 3 3 3 3 3 3 3 3 3 3 3 3 3 4 4 } * h.% 2 | & } $ 1 % $ - 4 $ $ $ $ $ $ $ & = = = = = = = * * * * * * * * * * * * * * * * * * * * * * * * * * * * * * = - - - - - - - g g g g g g g g.f.f.e.  .               - = = = =   . . . . . . . . . . . . . .   g g g g g g g   . . . . . . .               g = d.. g   u A u     . . . ",
"5 5 5 r p M q p q 6 6 r i.. 9 u u u u u u u 0 0 0 0 0 0 0 A b b b b b b b b b b b b b b b 6 6 6 6 6 6 6 p . . . . 9 u u u u u u u 0 9 j.k.k.g.g g g g g g g - - - - - - - - - - - - - - - % % % % % % % % % % % % % % % = g g g g g g g g g g g g g g g g g g g g g g g * % . 9 g } g   - 0 0 g $ 9 a                               = = = = = = = * % % % % % % % * } } * % % % % % % % * = = = = = = =                               a 9 $ g 0 0 -   g } g 9 . % * g g g g g g g g g g g g g g g g g g g g g g g = % % % % % % % % % % % % % % % - - - - - - - - - - - - - - - g g g g g g g g.k.k.j.9 0 u u u u u u u 9 . . . . p 6 6 6 6 6 6 6 b b b b b b b b b b b b b b b A 0 0 0 0 0 0 0 u u u u u u u 9 . i.r 6 6 q p q M p r 5 5 ",
"u u 0 a   p A u 0 b 0 b l.& * = = = = = = = - - - - - - - - = = = = = = = g . . . . . . . 9 9 9 9 9 9 9 9 u m.n.o.p.q.r.s.t.u.v.w.w.x.x.y.y.z.- - - - - - - = = = = = = = % $ $ $ $ $ $ $ | | | | | | | | | | | | | | | $ $ $ $ $ $ $ $ $ $ $ $ $ $ $ } % % % % % % % = | | $ * % 1 & * 4 D = % | 4 2 $ $ $ $ $ $ $ $ $ $ $ $ $ $ $ } } } } } } } } % % % % % % % & $ $ & % % % % % % % } } } } } } } } $ $ $ $ $ $ $ $ $ $ $ $ $ $ $ 2 4 | % = D 4 * & 1 % * $ | | = % % % % % % % } $ $ $ $ $ $ $ $ $ $ $ $ $ $ $ | | | | | | | | | | | | | | | $ $ $ $ $ $ $ % = = = = = = = - - - - - - - z.y.y.x.x.w.w.v.u.t.s.r.q.p.o.n.m.u 9 9 9 9 9 9 9 9 . . . . . . . g = = = = = = = - - - - - - - - = = = = = = = * & l.b 0 b 0 u A p   a 0 u "};
