/* XPM */
static char * app_32x32_xpm[] = {
"32 32 339 2",
"  	c None",
". 	c #8E273A",
"+ 	c #A94051",
"@ 	c #864243",
"# 	c #8C091B",
"$ 	c #9A4B51",
"% 	c #C0A695",
"& 	c #87161C",
"* 	c #9A1528",
"= 	c #CE9DA0",
"- 	c #D3BBBB",
"; 	c #DDD0CA",
"> 	c #663234",
", 	c #8B080D",
"' 	c #9A171D",
") 	c #F05E61",
"! 	c #E64056",
"~ 	c #BF777A",
"{ 	c #83191D",
"] 	c #970B18",
"^ 	c #B8434C",
"/ 	c #E49CA7",
"( 	c #B92825",
"_ 	c #880A0D",
": 	c #8F2637",
"< 	c #80383B",
"[ 	c #990B1B",
"} 	c #8A0D15",
"| 	c #E5A8B0",
"1 	c #D1CFDD",
"2 	c #EEF2F1",
"3 	c #AA8D9F",
"4 	c #781F3D",
"5 	c #42212C",
"6 	c #812F24",
"7 	c #9B0417",
"8 	c #991218",
"9 	c #ECF1F5",
"0 	c #DCDDE2",
"a 	c #7488A1",
"b 	c #6D6A7F",
"c 	c #5E4F56",
"d 	c #7A3538",
"e 	c #830618",
"f 	c #9C070B",
"g 	c #A24758",
"h 	c #CECBDC",
"i 	c #F3EFFF",
"j 	c #A39EB5",
"k 	c #5C576D",
"l 	c #484453",
"m 	c #953332",
"n 	c #890F0A",
"o 	c #981024",
"p 	c #DEAEAA",
"q 	c #E6E3D0",
"r 	c #E3DEA4",
"s 	c #B09CA5",
"t 	c #646788",
"u 	c #615E7B",
"v 	c #975443",
"w 	c #811207",
"x 	c #9A0C18",
"y 	c #9D2733",
"z 	c #F9F6A7",
"A 	c #FBED95",
"B 	c #B59F49",
"C 	c #685050",
"D 	c #67132D",
"E 	c #A6131B",
"F 	c #920A16",
"G 	c #C48A89",
"H 	c #BAA47B",
"I 	c #FBF9AE",
"J 	c #F2C55E",
"K 	c #E29D35",
"L 	c #634C2D",
"M 	c #654A3F",
"N 	c #9F171B",
"O 	c #A01616",
"P 	c #9C1422",
"Q 	c #D2AB8E",
"R 	c #765742",
"S 	c #785843",
"T 	c #6B4532",
"U 	c #8C644B",
"V 	c #6B4C3A",
"W 	c #C7A661",
"X 	c #F0F591",
"Y 	c #F7C16B",
"Z 	c #E2A636",
"` 	c #A2631C",
" .	c #685944",
"..	c #655035",
"+.	c #695645",
"@.	c #7C623D",
"#.	c #6B5945",
"$.	c #836A4B",
"%.	c #665646",
"&.	c #5D4E37",
"*.	c #98483F",
"=.	c #980E1B",
"-.	c #7E0D13",
";.	c #9F3C3F",
">.	c #7B614A",
",.	c #866C51",
"'.	c #7E543B",
").	c #83734F",
"!.	c #785945",
"~.	c #89735B",
"{.	c #E3C8AD",
"].	c #E8AF84",
"^.	c #D59E75",
"/.	c #BF8A62",
"(.	c #E7AF7E",
"_.	c #D9A979",
":.	c #C58F77",
"<.	c #FEEA8B",
"[.	c #FBF391",
"}.	c #F2B059",
"|.	c #BA831F",
"1.	c #755522",
"2.	c #A57F68",
"3.	c #CF996B",
"4.	c #E4A677",
"5.	c #EFB07A",
"6.	c #F3B689",
"7.	c #E1A463",
"8.	c #E5B382",
"9.	c #BA976F",
"0.	c #AC7556",
"a.	c #A61F23",
"b.	c #850911",
"c.	c #9C1F23",
"d.	c #DA9D81",
"e.	c #FFBA98",
"f.	c #E2BC8D",
"g.	c #ECC194",
"h.	c #E5B786",
"i.	c #EAC6A2",
"j.	c #E3BE91",
"k.	c #EAB184",
"l.	c #DFA679",
"m.	c #905C34",
"n.	c #DFA97B",
"o.	c #804F26",
"p.	c #ECBF84",
"q.	c #F5F68E",
"r.	c #F7C46B",
"s.	c #BD8B2C",
"t.	c #8B5E23",
"u.	c #8A704F",
"v.	c #BE947C",
"w.	c #7B593E",
"x.	c #ECB179",
"y.	c #7C6054",
"z.	c #EEB482",
"A.	c #7D6040",
"B.	c #E1B078",
"C.	c #795A3E",
"D.	c #B7906F",
"E.	c #925B47",
"F.	c #8C152B",
"G.	c #704A55",
"H.	c #8E7A6F",
"I.	c #877047",
"J.	c #EEC09C",
"K.	c #83634C",
"L.	c #EEC58F",
"M.	c #906F4E",
"N.	c #E9CB97",
"O.	c #EEB588",
"P.	c #F1BB8D",
"Q.	c #ECB890",
"R.	c #F5BD98",
"S.	c #DFA575",
"T.	c #FCEA7E",
"U.	c #FDD576",
"V.	c #F4A546",
"W.	c #AF7521",
"X.	c #906B3F",
"Y.	c #CD9773",
"Z.	c #EEB67D",
"`.	c #F7C185",
" +	c #F4CC91",
".+	c #F8C08F",
"++	c #F6CB98",
"@+	c #FFCC93",
"#+	c #FFD398",
"$+	c #FBBF89",
"%+	c #D4AE87",
"&+	c #BD8E70",
"*+	c #8F9179",
"=+	c #91AFA7",
"-+	c #949992",
";+	c #CDA188",
">+	c #F6D0A3",
",+	c #F2D7AA",
"'+	c #F3CA94",
")+	c #F5D4B3",
"!+	c #F3D5A1",
"~+	c #C99468",
"{+	c #C59267",
"]+	c #C7966D",
"^+	c #AC7F62",
"/+	c #E7C176",
"(+	c #FBEE7C",
"_+	c #FCB661",
":+	c #D99435",
"<+	c #825722",
"[+	c #856445",
"}+	c #B58265",
"|+	c #D39A63",
"1+	c #C59C68",
"2+	c #D4A271",
"3+	c #CA9C6A",
"4+	c #D89B6C",
"5+	c #CDA67B",
"6+	c #CC9B72",
"7+	c #D29C70",
"8+	c #C2976D",
"9+	c #9E7E57",
"0+	c #746345",
"a+	c #7D8170",
"b+	c #AFB2AB",
"c+	c #8D8A7B",
"d+	c #BE866F",
"e+	c #CA9E6D",
"f+	c #DDAF7E",
"g+	c #C8A480",
"h+	c #D9B487",
"i+	c #987557",
"j+	c #7B634B",
"k+	c #80664F",
"l+	c #FAED8F",
"m+	c #F7CC6D",
"n+	c #DDA33F",
"o+	c #A07A25",
"p+	c #66583D",
"q+	c #76645A",
"r+	c #7A656A",
"s+	c #7F6652",
"t+	c #7F6856",
"u+	c #866B60",
"v+	c #775D44",
"w+	c #866A5C",
"x+	c #7E6757",
"y+	c #806961",
"z+	c #836C5C",
"A+	c #81705E",
"B+	c #81695F",
"C+	c #776863",
"D+	c #5E605F",
"E+	c #A1A2A4",
"F+	c #978D8E",
"G+	c #74675E",
"H+	c #8B6F61",
"I+	c #836450",
"J+	c #806A52",
"K+	c #91765B",
"L+	c #D2C880",
"M+	c #FBEA78",
"N+	c #F5AE5E",
"O+	c #C0892C",
"P+	c #63521C",
"Q+	c #9E9A9B",
"R+	c #9B9982",
"S+	c #C2A279",
"T+	c #C9AF8A",
"U+	c #D3CFC4",
"V+	c #FEEF90",
"W+	c #F8C558",
"X+	c #DC9A39",
"Y+	c #805B26",
"Z+	c #908778",
"`+	c #D4CAC9",
" @	c #6D5742",
".@	c #C9AD86",
"+@	c #C3A780",
"@@	c #CDB593",
"#@	c #EFEB94",
"$@	c #FBD66C",
"%@	c #E0A942",
"&@	c #AC7427",
"*@	c #664C2B",
"=@	c #CFBEAE",
"-@	c #8F7657",
";@	c #C5AB86",
">@	c #BEA680",
",@	c #E9E3D7",
"'@	c #D1CFBA",
")@	c #FFEB80",
"!@	c #F7B84F",
"~@	c #CB943A",
"{@	c #7B5622",
"]@	c #BEB0A7",
"^@	c #EDE0D8",
"/@	c #816C59",
"(@	c #D0B999",
"_@	c #BAA37A",
":@	c #B3A389",
"<@	c #FFF3E3",
"[@	c #B99E95",
"}@	c #CD9B78",
"|@	c #E39E50",
"1@	c #916828",
"2@	c #635234",
"3@	c #B8A9A2",
"4@	c #A18D74",
"5@	c #C4AE87",
"6@	c #AA906B",
"7@	c #CABAA1",
"8@	c #C8938F",
"9@	c #A16172",
"0@	c #834D27",
"a@	c #5D4624",
"b@	c #8A7A6A",
"c@	c #C1AE8E",
"d@	c #AE9368",
"e@	c #AE9D81",
"f@	c #EFE4E2",
"g@	c #CB9686",
"h@	c #7E4A4C",
"i@	c #472823",
"j@	c #B5AFA3",
"k@	c #BCB4A9",
"l@	c #817461",
"m@	c #B29A76",
"n@	c #97876E",
"o@	c #AEA8AC",
"p@	c #5C4830",
"q@	c #472A1C",
"r@	c #BEAFB2",
"s@	c #9D948D",
"t@	c #6E5D43",
"u@	c #938876",
"v@	c #6A686B",
"w@	c #061200",
"x@	c #B3A3A4",
"                                                                ",
"                                                                ",
"                                                                ",
"                            . +                                 ",
"                            @ # $                               ",
"                            % & * =                             ",
"                          - ; > , '                             ",
"                          ) ! ~ { ] ^                           ",
"                        / ( _ : < [ } |                         ",
"                      1 2 3 4 5   6 7 8                         ",
"                      9 0 a b c   d e f g                       ",
"                    h i j k l       m n o p                     ",
"                  q r s t u         v w x y                     ",
"                  z A B C             D E F G                   ",
"                H I J K L             M N O P                   ",
"  Q R S T U V W X Y Z `  ...+.@.#.$.%.&.*.=.-.;.>.,.'.).!.~.{.  ",
"  ].^./.(._.:.<.[.}.|.1.2.3.4.5.6.7.8.9.0.a.b.c.d.e.f.g.h.i.j.  ",
"  k.l.m.n.o.p.q.r.s.t.u.v.w.x.y.z.A.B.C.D.E.F.G.H.I.J.K.L.M.N.  ",
"  O.P.Q.R.S.T.U.V.W.X.Y.Z.`. +.+++@+#+$+%+&+*+=+-+;+>+,+'+)+!+  ",
"  ~+{+]+^+/+(+_+:+<+[+}+|+1+2+3+4+5+6+7+8+9+0+a+b+c+d+e+f+g+h+  ",
"  i+j+k+,.l+m+n+o+p+q+r+s+t+u+v+w+x+y+z+A+B+C+D+E+F+G+H+I+J+K+  ",
"        L+M+N+O+P+                            Q+R+S+T+          ",
"      U+V+W+X+Y+Z+                            `+ @.@+@@@        ",
"      #@$@%@&@*@                                =@-@;@>@,@      ",
"    '@)@!@~@{@]@                                ^@/@(@_@:@<@    ",
"    [@}@|@1@2@                                    3@4@5@6@7@    ",
"    8@9@0@a@                                        b@c@d@e@    ",
"  f@g@h@i@j@                                        k@l@m@n@    ",
"  o@p@q@r@                                            s@t@u@    ",
"  v@w@x@                                                        ",
"                                                                ",
"                                                                "};
