/* XPM */
static char * app_16x16_xpm[] = {
"16 16 98 2",
"  	c None",
". 	c #9C3446",
"+ 	c #964244",
"@ 	c #AB545E",
"# 	c #E28C8E",
"$ 	c #BA6E74",
"% 	c #901118",
"& 	c #CD9197",
"* 	c #741C2B",
"= 	c #892629",
"- 	c #A9333D",
"; 	c #E4E4F0",
"> 	c #9496A9",
", 	c #5C5463",
"' 	c #8F1418",
") 	c #B35762",
"! 	c #F0ECBC",
"~ 	c #D1C28A",
"{ 	c #645C71",
"] 	c #802828",
"^ 	c #9C141F",
"/ 	c #775842",
"( 	c #7C543E",
"_ 	c #99794E",
": 	c #E7D589",
"< 	c #D69B39",
"[ 	c #655237",
"} 	c #725C41",
"| 	c #776248",
"1 	c #634F3F",
"2 	c #9C2123",
"3 	c #931F27",
"4 	c #80664E",
"5 	c #806445",
"6 	c #806650",
"7 	c #E9B084",
"8 	c #C18A61",
"9 	c #C89466",
"0 	c #E9CC85",
"a 	c #E8BC60",
"b 	c #916A2D",
"c 	c #AB8163",
"d 	c #CF9A70",
"e 	c #D09C6C",
"f 	c #BE956A",
"g 	c #A7604C",
"h 	c #87222D",
"i 	c #BC9074",
"j 	c #D0A882",
"k 	c #D3AC81",
"l 	c #E6C494",
"m 	c #DCA478",
"n 	c #DAA77C",
"o 	c #DAA879",
"p 	c #FCD974",
"q 	c #C08130",
"r 	c #A67A57",
"s 	c #DFAB73",
"t 	c #E2B27F",
"u 	c #E6B684",
"v 	c #E6B281",
"w 	c #BC946F",
"x 	c #848975",
"y 	c #A79E90",
"z 	c #DCB38A",
"A 	c #E3BC91",
"B 	c #7E644D",
"C 	c #D3C376",
"D 	c #E2AA4E",
"E 	c #78612A",
"F 	c #786462",
"G 	c #7F6754",
"H 	c #7E6452",
"I 	c #82685A",
"J 	c #826A5E",
"K 	c #816C5E",
"L 	c #7C7674",
"M 	c #A59A8B",
"N 	c #98826E",
"O 	c #826751",
"P 	c #E1DDAC",
"Q 	c #F4CD66",
"R 	c #9C6D2C",
"S 	c #A58E73",
"T 	c #C5AB86",
"U 	c #D6BD92",
"V 	c #CE9440",
"W 	c #897354",
"X 	c #B7A79C",
"Y 	c #BCA684",
"Z 	c #CAB89E",
"` 	c #AC7575",
" .	c #775A44",
"..	c #A29480",
"+.	c #A99473",
"@.	c #8C888C",
"#.	c #574A3C",
"$.	c #80725C",
"                                ",
"              .                 ",
"              + @               ",
"            # $ %               ",
"            & * = -             ",
"          ; > ,   ' )           ",
"        ! ~ {     ] ^           ",
"  / ( _ : < [ } | 1 2 3 4 5 6   ",
"7 8 9 0 a b c d e f g h i j k l ",
"m n o p q r s t u v w x y z A l ",
"  B C D E F G H I J K L M N O   ",
"  P Q R                 S T     ",
"  U V W                 X Y Z   ",
"  `  .                    ..+.  ",
"@.#.                        $.  ",
"                                "};
