/* XPM */
static char * folder_32x32_xpm[] = {
"32 32 651 2",
"  	c None",
". 	c #A3A3A3",
"+ 	c #C7C7C7",
"@ 	c #D7D7D7",
"# 	c #B2B2B2",
"$ 	c #BABABA",
"% 	c #CACACA",
"& 	c #D3D3D3",
"* 	c #D6D6D6",
"= 	c #C2C2C2",
"- 	c #D5D5D5",
"; 	c #E0E0E0",
"> 	c #DEDEDE",
", 	c #E7E7E7",
"' 	c #CFCFCF",
") 	c #DCDCDC",
"! 	c #DFDFDF",
"~ 	c #D4D4D4",
"{ 	c #C9C9C9",
"] 	c #E1E1E1",
"^ 	c #B0B0B0",
"/ 	c #EAEAEA",
"( 	c #EBEBEB",
"_ 	c #EDEDED",
": 	c #EEEEEE",
"< 	c #EFEFEF",
"[ 	c #E3E3E3",
"} 	c #ACACAC",
"| 	c #C5C5C5",
"1 	c #D1D1D1",
"2 	c #E8E8E8",
"3 	c #E9E9E9",
"4 	c #D9D9D9",
"5 	c #D2D2D2",
"6 	c #CECECE",
"7 	c #CBCBCB",
"8 	c #B1B4B5",
"9 	c #989EA3",
"0 	c #9CA5AD",
"a 	c #98A7BA",
"b 	c #A1BAD7",
"c 	c #F7F7F7",
"d 	c #F2F2F2",
"e 	c #F0F0F0",
"f 	c #ECECEC",
"g 	c #E2E2E2",
"h 	c #DADADA",
"i 	c #D8D8D8",
"j 	c #D0D0D0",
"k 	c #CDCDCD",
"l 	c #BEC0C2",
"m 	c #B0B2B5",
"n 	c #9EA5AE",
"o 	c #8B95AA",
"p 	c #7F92AA",
"q 	c #819EC7",
"r 	c #98B5DF",
"s 	c #AECFF1",
"t 	c #AED0F5",
"u 	c #B0D3F8",
"v 	c #AAAAAA",
"w 	c #F5F5F5",
"x 	c #DDDDDD",
"y 	c #DBDBDB",
"z 	c #CECECF",
"A 	c #C6C7C8",
"B 	c #B6B8BB",
"C 	c #A0A4AC",
"D 	c #919EAB",
"E 	c #93A3B7",
"F 	c #93AACA",
"G 	c #92B3DC",
"H 	c #9DBBE8",
"I 	c #A0BCE8",
"J 	c #A1BFEB",
"K 	c #9DBFEE",
"L 	c #ADD0F6",
"M 	c #B1D4F8",
"N 	c #AED1F7",
"O 	c #ABABAB",
"P 	c #E5E5E5",
"Q 	c #C3C4C4",
"R 	c #AFB1B4",
"S 	c #9AA3A9",
"T 	c #9BA9B4",
"U 	c #9BB4C0",
"V 	c #A2BBD5",
"W 	c #AECAE9",
"X 	c #B1D3F7",
"Y 	c #ABCFF6",
"Z 	c #A6C5EE",
"` 	c #9FC0ED",
" .	c #9BBCEC",
"..	c #94B6E9",
"+.	c #92B6EA",
"@.	c #ADD0F7",
"#.	c #ACD0F7",
"$.	c #ADADAD",
"%.	c #E6E6E6",
"&.	c #BABCBF",
"*.	c #ADAFB3",
"=.	c #A7AAB0",
"-.	c #A2AAB2",
";.	c #A9BAC1",
">.	c #C5D9E0",
",.	c #D3EEF8",
"'.	c #D4F2FE",
").	c #CAEDFF",
"!.	c #C3E5FD",
"~.	c #B8DAFB",
"{.	c #B4D2F8",
"].	c #A9CAF3",
"^.	c #A1C4F0",
"/.	c #99BDED",
"(.	c #97B9EA",
"_.	c #97B8EA",
":.	c #97B9EB",
"<.	c #9EBAE7",
"[.	c #AACCF4",
"}.	c #B3B3B3",
"|.	c #CCCCCC",
"1.	c #BABBBB",
"2.	c #B1B4B8",
"3.	c #A6AAAF",
"4.	c #ABB2B8",
"5.	c #BCC8CF",
"6.	c #D2DDE1",
"7.	c #DDEFF3",
"8.	c #E3F6FA",
"9.	c #EAFCFE",
"0.	c #E6FDFF",
"a.	c #D9FBFF",
"b.	c #D1F0FE",
"c.	c #C4E6FD",
"d.	c #BADCFB",
"e.	c #AFD1F6",
"f.	c #AACBF4",
"g.	c #A7C9F2",
"h.	c #A5C8F1",
"i.	c #9CBFED",
"j.	c #95B9EB",
"k.	c #93B5E9",
"l.	c #8FB3E8",
"m.	c #94B4E7",
"n.	c #A9CDF5",
"o.	c #AAD0F7",
"p.	c #F6F6F6",
"q.	c #98A0A8",
"r.	c #BBC3CA",
"s.	c #D2DBE1",
"t.	c #E3EFF2",
"u.	c #F3FCFE",
"v.	c #F6FFFF",
"w.	c #EFFEFF",
"x.	c #EBFEFF",
"y.	c #E4FAFF",
"z.	c #D6F4FF",
"A.	c #CCEEFF",
"B.	c #C9EBFE",
"C.	c #C5E5FB",
"D.	c #BCDCF9",
"E.	c #B6D8FA",
"F.	c #AACDF4",
"G.	c #A0C3F0",
"H.	c #9CBDEC",
"I.	c #96B7E9",
"J.	c #92B5E9",
"K.	c #94B8EB",
"L.	c #94B9EC",
"M.	c #99BBEA",
"N.	c #A9CEF5",
"O.	c #A8CDF5",
"P.	c #909395",
"Q.	c #E7E9EF",
"R.	c #F3FCFF",
"S.	c #F7FFFF",
"T.	c #F2FDFF",
"U.	c #F2FEFF",
"V.	c #F0FEFF",
"W.	c #EBFDFF",
"X.	c #E7FCFF",
"Y.	c #E2FDFF",
"Z.	c #E3FBFF",
"`.	c #DBF8FF",
" +	c #D0F2FF",
".+	c #C6E9FE",
"++	c #BDDDF9",
"@+	c #B5D7FA",
"#+	c #A8CBF3",
"$+	c #A6C9F3",
"%+	c #A1C3EF",
"&+	c #99BEEC",
"*+	c #91B8EC",
"=+	c #8EB3E9",
"-+	c #87ACE6",
";+	c #8FB4E9",
">+	c #A6CDF5",
",+	c #A9D0F7",
"'+	c #AFAFAF",
")+	c #DEDEDF",
"!+	c #9DA1A7",
"~+	c #EFFDFD",
"{+	c #EAFEFF",
"]+	c #ECFEFF",
"^+	c #ECFCFF",
"/+	c #E9FDFF",
"(+	c #E5FBFF",
"_+	c #DBF7FF",
":+	c #CFF1FF",
"<+	c #C5EBFF",
"[+	c #C2E6FE",
"}+	c #BCE2FD",
"|+	c #B8DCFB",
"1+	c #B3D5F9",
"2+	c #A5CAF3",
"3+	c #9FC0EE",
"4+	c #94BBED",
"5+	c #8FB6EB",
"6+	c #8FB8ED",
"7+	c #90B8EC",
"8+	c #96BAEB",
"9+	c #A3CAF7",
"0+	c #CBCCCC",
"a+	c #9EA7AC",
"b+	c #E8FDFE",
"c+	c #E8FDFF",
"d+	c #E9FEFF",
"e+	c #ECFDFF",
"f+	c #E6FEFF",
"g+	c #E3FCFF",
"h+	c #E0FBFF",
"i+	c #DCFBFF",
"j+	c #D7F8FF",
"k+	c #C9ECFF",
"l+	c #C2E5FD",
"m+	c #B7DCFB",
"n+	c #B0D5F8",
"o+	c #A8CEF5",
"p+	c #A2CAF3",
"q+	c #9FC3EF",
"r+	c #9ABFED",
"s+	c #96BBEC",
"t+	c #8DB6EC",
"u+	c #89B1E8",
"v+	c #84ABE5",
"w+	c #8FB6EA",
"x+	c #A3CBF5",
"y+	c #9FCCF7",
"z+	c #AEAEAE",
"A+	c #D1D3D3",
"B+	c #A8B1B5",
"C+	c #E0FCFE",
"D+	c #E2FEFF",
"E+	c #E3FEFF",
"F+	c #E4FCFF",
"G+	c #E5FEFF",
"H+	c #E7FDFF",
"I+	c #E1FAFF",
"J+	c #D4F8FF",
"K+	c #CBEEFF",
"L+	c #C3E6FE",
"M+	c #BADCFC",
"N+	c #B7D9FB",
"O+	c #ADD1F7",
"P+	c #9FC8F2",
"Q+	c #96BCEE",
"R+	c #89B1EA",
"S+	c #90B4E9",
"T+	c #8AB4EB",
"U+	c #88B4EC",
"V+	c #90BAED",
"W+	c #9FC8F6",
"X+	c #9FCDF7",
"Y+	c #E4E4E4",
"Z+	c #A5B4BE",
"`+	c #DEFFFF",
" @	c #DFFFFF",
".@	c #E5FCFF",
"+@	c #E2FCFF",
"@@	c #E4FEFF",
"#@	c #DCFAFF",
"$@	c #DCFDFF",
"%@	c #D8FDFF",
"&@	c #D2F8FF",
"*@	c #C7F1FF",
"=@	c #BFE3FD",
"-@	c #B2DAFC",
";@	c #AAD1F8",
">@	c #A3CAF4",
",@	c #9BC4F2",
"'@	c #9AC0F1",
")@	c #90B8EE",
"!@	c #86B0E9",
"~@	c #80ABE8",
"{@	c #7FAEEA",
"]@	c #86B1EB",
"^@	c #97C7F6",
"/@	c #9BCBF7",
"(@	c #C0C3C4",
"_@	c #B2C7CD",
":@	c #D9FDFF",
"<@	c #D6F7FF",
"[@	c #D9F9FF",
"}@	c #DDFCFF",
"|@	c #E1FCFF",
"1@	c #E8FEFF",
"2@	c #DCFCFF",
"3@	c #D9FCFF",
"4@	c #CFF4FF",
"5@	c #C9EDFF",
"6@	c #BEE6FE",
"7@	c #BBE0FC",
"8@	c #B5DBFC",
"9@	c #B2D7FA",
"0@	c #A2CEFA",
"a@	c #9AC3F1",
"b@	c #8EBAF1",
"c@	c #89B3EB",
"d@	c #8BB4EB",
"e@	c #88B4EB",
"f@	c #85B2EB",
"g@	c #83B2EC",
"h@	c #8BB7EE",
"i@	c #97C8F7",
"j@	c #98C8F7",
"k@	c #B2B1B4",
"l@	c #AFCCCE",
"m@	c #D5FAFF",
"n@	c #D8FAFF",
"o@	c #DFFDFF",
"p@	c #E0FEFF",
"q@	c #D8F9FF",
"r@	c #D3F8FF",
"s@	c #D1F5FF",
"t@	c #CBF3FF",
"u@	c #C1EAFF",
"v@	c #B6DEFD",
"w@	c #ADD8FC",
"x@	c #A5CEF8",
"y@	c #9CC6F7",
"z@	c #99C3F5",
"A@	c #92BEF3",
"B@	c #89BAF3",
"C@	c #88B7F0",
"D@	c #7DAEEC",
"E@	c #7BABEA",
"F@	c #79ABEB",
"G@	c #85B1EA",
"H@	c #91C4F8",
"I@	c #98CBFB",
"J@	c #B4B6B8",
"K@	c #B9D3DD",
"L@	c #D0F8FF",
"M@	c #CFF3FF",
"N@	c #CDF6FF",
"O@	c #D3F7FF",
"P@	c #DDFEFF",
"Q@	c #DEFCFF",
"R@	c #DCFFFF",
"S@	c #D2F4FF",
"T@	c #C9F0FF",
"U@	c #BCE9FF",
"V@	c #B5E6FF",
"W@	c #B2E3FF",
"X@	c #ACD8FC",
"Y@	c #A5D4FA",
"Z@	c #98C5F8",
"`@	c #91BCF2",
" #	c #84B4F0",
".#	c #84B1EB",
"+#	c #81B1EC",
"@#	c #82B1EC",
"##	c #7EACE9",
"$#	c #86B6EE",
"%#	c #8EC5FB",
"&#	c #98CCFC",
"*#	c #9DA4AA",
"=#	c #B8DEE9",
"-#	c #CCF2FF",
";#	c #CEF6FF",
">#	c #D2F7FF",
",#	c #D5FCFF",
"'#	c #D4F7FF",
")#	c #D3F9FF",
"!#	c #CFF7FF",
"~#	c #CCF4FF",
"{#	c #C6F0FF",
"]#	c #BAE4FE",
"^#	c #ABD7FE",
"/#	c #9FD0FA",
"(#	c #99C4F8",
"_#	c #93C2F9",
":#	c #8EBFF7",
"<#	c #8DBDF4",
"[#	c #83B7F3",
"}#	c #7FAFEB",
"|#	c #77AAEB",
"1#	c #6FA4E9",
"2#	c #72A3E5",
"3#	c #80B3F0",
"4#	c #8FC8FC",
"5#	c #96CBFB",
"6#	c #9DA5A5",
"7#	c #C0E9F1",
"8#	c #C7EEFF",
"9#	c #C2EDFF",
"0#	c #C5EFFF",
"a#	c #CBF2FF",
"b#	c #CFF8FF",
"c#	c #D3FAFF",
"d#	c #CDF7FF",
"e#	c #C9F3FF",
"f#	c #BFEBFE",
"g#	c #B4E1FE",
"h#	c #AEDEFF",
"i#	c #A7D9FF",
"j#	c #A4D6FE",
"k#	c #9CCCFC",
"l#	c #8FC1F6",
"m#	c #85B7F1",
"n#	c #7EAFEC",
"o#	c #7AAEED",
"p#	c #78AAEB",
"q#	c #7CADEC",
"r#	c #75ABEC",
"s#	c #73A7EA",
"t#	c #7DB1F0",
"u#	c #88BFF9",
"v#	c #9CD0FD",
"w#	c #8F989E",
"x#	c #BBE3F4",
"y#	c #BDEAFF",
"z#	c #C4EDFF",
"A#	c #C9F1FF",
"B#	c #CCF5FF",
"C#	c #C3F0FF",
"D#	c #C2F0FF",
"E#	c #C1ECFF",
"F#	c #C2EBFF",
"G#	c #C4F1FF",
"H#	c #BBEAFF",
"I#	c #B7E3FE",
"J#	c #AEDFFF",
"K#	c #9ED0FC",
"L#	c #92C5FB",
"M#	c #8EC1F7",
"N#	c #89BDF5",
"O#	c #84BAF6",
"P#	c #84B8F3",
"Q#	c #7AB1F0",
"R#	c #71A7EA",
"S#	c #6DA2E8",
"T#	c #699FE7",
"U#	c #69A3E9",
"V#	c #7AAFF0",
"W#	c #84BDF9",
"X#	c #99C9F9",
"Y#	c #98A4AB",
"Z#	c #B9E6FF",
"`#	c #B6E3FF",
" $	c #B6E2FE",
".$	c #B7E7FF",
"+$	c #B9E9FF",
"@$	c #C4EBFF",
"#$	c #C6F1FF",
"$$	c #C9F5FF",
"%$	c #BFEDFF",
"&$	c #AFDCFE",
"*$	c #A9DAFF",
"=$	c #A3D4FF",
"-$	c #A5D6FF",
";$	c #99CDFF",
">$	c #90C4FA",
",$	c #81B9F4",
"'$	c #75AFF2",
")$	c #6FA8ED",
"!$	c #6EA6EC",
"~$	c #72AAEF",
"{$	c #70AAEF",
"]$	c #6EA4EA",
"^$	c #64A0EB",
"/$	c #73ACEF",
"($	c #7BB8F7",
"_$	c #98CBFA",
":$	c #8C98A2",
"<$	c #AFE0FF",
"[$	c #B8E7FF",
"}$	c #BBE7FF",
"|$	c #B8E5FF",
"1$	c #B3E4FF",
"2$	c #B4E4FF",
"3$	c #B1E3FF",
"4$	c #A8DBFF",
"5$	c #9DD5FF",
"6$	c #8FC7FC",
"7$	c #86BDF8",
"8$	c #7FB8F5",
"9$	c #7EB8F6",
"0$	c #79B5F5",
"a$	c #74B0F1",
"b$	c #6FA9EF",
"c$	c #6AA3EA",
"d$	c #68A4EC",
"e$	c #6DA6EC",
"f$	c #72ADF2",
"g$	c #83BAF7",
"h$	c #7AB6F6",
"i$	c #9AC9F8",
"j$	c #909CA4",
"k$	c #B1E1FF",
"l$	c #ACDDFF",
"m$	c #ABDDFF",
"n$	c #B0E1FF",
"o$	c #B6E7FF",
"p$	c #B5E7FF",
"q$	c #B0E2FF",
"r$	c #9BD3FF",
"s$	c #97D0FF",
"t$	c #95CDFE",
"u$	c #8EC8FD",
"v$	c #88C2FB",
"w$	c #7EB8F7",
"x$	c #76B0F4",
"y$	c #71AAED",
"z$	c #73AEF2",
"A$	c #79B2F3",
"B$	c #7CB4F4",
"C$	c #82B9F6",
"D$	c #7DB7F6",
"E$	c #7EB6F3",
"F$	c #80AFEB",
"G$	c #79A9E7",
"H$	c #8394A3",
"I$	c #A6D8FF",
"J$	c #A4D5FF",
"K$	c #A8DAFF",
"L$	c #AADCFF",
"M$	c #AADAFF",
"N$	c #A5DAFF",
"O$	c #A4D7FF",
"P$	c #A6DAFF",
"Q$	c #9CD7FF",
"R$	c #93CFFE",
"S$	c #88C2F8",
"T$	c #7EB9F7",
"U$	c #7BB9F7",
"V$	c #80BCF6",
"W$	c #84C0FB",
"X$	c #86BCF8",
"Y$	c #87BFF9",
"Z$	c #82BBF7",
"`$	c #7EB4F1",
" %	c #7BACEA",
".%	c #749DDA",
"+%	c #7497C9",
"@%	c #7E94B9",
"#%	c #8E9EBB",
"$%	c #A8A8A8",
"%%	c #8FA1AE",
"&%	c #A4D9FF",
"*%	c #95D1FE",
"=%	c #92C8FB",
"-%	c #97CCFE",
";%	c #9CD1FF",
">%	c #A3D9FF",
",%	c #A0D5FF",
"'%	c #97CEFC",
")%	c #8FC8FD",
"!%	c #8DC6FB",
"~%	c #8AC7FA",
"{%	c #91D0FC",
"]%	c #92CDFE",
"^%	c #8FCAFD",
"/%	c #88C1F9",
"(%	c #80B5F3",
"_%	c #7BB0ED",
":%	c #78A7E2",
"<%	c #7499CE",
"[%	c #7A94C3",
"}%	c #7C91B6",
"|%	c #A6A6A6",
"1%	c #C8C8C8",
"2%	c #889EAD",
"3%	c #91CCFE",
"4%	c #90CAFD",
"5%	c #93CBFC",
"6%	c #93CCFB",
"7%	c #91CBFC",
"8%	c #92CDFD",
"9%	c #94CDFD",
"0%	c #9AD4FE",
"a%	c #9ED3FD",
"b%	c #98D2FE",
"c%	c #8EC9FA",
"d%	c #88C0F7",
"e%	c #7DB3ED",
"f%	c #79AAE6",
"g%	c #79A1D5",
"h%	c #7996C4",
"i%	c #7B92B5",
"j%	c #8D9BB2",
"k%	c #89A2BA",
"l%	c #8CC9FC",
"m%	c #81BDFA",
"n%	c #80BBF8",
"o%	c #86BEF9",
"p%	c #95CCFC",
"q%	c #A2D7FD",
"r%	c #A2D9FE",
"s%	c #9DD6FE",
"t%	c #92C8FA",
"u%	c #85BBF3",
"v%	c #7DAFEA",
"w%	c #77A0D9",
"x%	c #7598CE",
"y%	c #7793BE",
"z%	c #8698B9",
"A%	c #949494",
"B%	c #798EA3",
"C%	c #8AC8FB",
"D%	c #8FCCFD",
"E%	c #97D3FF",
"F%	c #98D1FE",
"G%	c #91C9F9",
"H%	c #84BBF5",
"I%	c #7EB0EC",
"J%	c #77A6E1",
"K%	c #7497CA",
"L%	c #7B91B7",
"M%	c #8295B4",
"N%	c #8695AE",
"O%	c #929292",
"P%	c #7BA1B5",
"Q%	c #92CCFA",
"R%	c #89C1F8",
"S%	c #7BAFE8",
"T%	c #78A5DD",
"U%	c #7498CF",
"V%	c #7A94BF",
"W%	c #7C93B7",
"X%	c #8596AE",
"Y%	c #808080",
"Z%	c #BEBEBE",
"`%	c #6C86A5",
" &	c #78A1D8",
".&	c #7295C9",
"+&	c #768EB6",
"@&	c #8996AC",
"#&	c #696A6A",
"$&	c #737E8B",
"%&	c #8696A6",
"                                                      .         ",
"                      + @                       # $ % & *       ",
"              = - ; > , ,               $ ' & ) ; ! ~ % { ]     ",
"      ^ * ; / ( _ _ : < _ [   } | 1 ) 2 3 ; 4 5 6 7 | 8 9 0 a b ",
"      @ c d < e f g h i 4 h ; / f [ ) ~ j k l m n o p q r s t u ",
"    v , w , x 4 y ) ) > ) y 4 - & z A B C D E F G H I J K L M N ",
"    O : P ; ] [ ! @ 1 k 6 6 Q R S T U V W X M Y Z `  ...+.@.#.N ",
"  $.3 w %.@ j 6 k 7 &.*.=.-.;.>.,.'.).!.~.{.].^./.(._.:.<.[.Y   ",
"  }._ %.i |.1.2.3.4.5.6.7.8.9.0.a.b.c.d.e.f.g.h.i.j.k.l.m.n.o.  ",
"  # p.: + q.r.s.t.u.v.v.w.x.y.z.A.B.C.D.E.F.G.H.I.J.K.L.M.N.O.  ",
"  ^ f y P.Q.R.S.T.U.V.W.X.Y.Z.`. +.+++@+#+$+^.%+&+*+=+-+;+>+,+  ",
"  '+w )+!+~+x.{+X.]+^+/+{+(+_+:+<+[+}+|+1+2+3+4+5+6+7+J.8+>+9+  ",
"  '+, 0+a+b+c+c+d+d+e+f+g+h+i+j+k+l+m+n+o+p+q+r+s+t+u+v+w+x+y+  ",
"  z+e A+B+C+D+E+F+G+H+c+d+I+J+K+k+L+M+N+O+P+Q+5+R+S+T+U+V+W+X+  ",
"  $.Y+1.Z+`+ @.@X.G++@@@#@$@%@&@*@=@-@;@>@,@'@4+)@!@~@{@]@^@/@  ",
"  '+f (@_@:@<@[@}@|@1@G+2@3@4@5@6@7@8@9@0@a@b@c@d@e@f@g@h@i@j@  ",
"  v ] k@l@m@n@$@o@p@i+n@q@r@s@t@u@v@w@x@y@z@A@B@C@D@E@F@G@H@I@  ",
"  $., J@K@L@M@N@O@n@P@Q@R@S@T@U@V@W@X@Y@Z@`@ #.#+#+#@###$#%#&#  ",
"  O ) *#=#-#;#>#,#'#&@)#N@!#~#{#]#^#/#(#_#:#<#[#}#|#1#2#3#4#5#  ",
"  } Y+6#7#8#9#0#a#b#c#c#d#e#f#g#h#i#j#k#l#m#n#o#p#q#r#s#t#u#v#  ",
"  v * w#x#y#z#A#B#C#D#E#F#G#H#I#J#K#L#M#N#O#P#Q#R#S#T#U#V#W#X#  ",
"  } [ Y#Z#`# $.$+$@$#$$$%$W@&$*$=$-$;$>$,$'$)$!$~${$]$^$/$($_$  ",
"  v 5 :$<$.$[$}$|$[$H#1$2$V@3$4$5$6$7$8$9$0$a$b$c$d$e$f$g$h$i$  ",
"  v y j$k$l$m$*$n$o$.$p$q$*$r$s$t$u$v$w$x$y$z$A$B$C$D$E$F$G$    ",
"  O |.H$I$J$K$L$n$M$N$N$O$P$Q$R$S$T$U$V$W$X$Y$Z$`$ %.%+%@%#%    ",
"  $%i %%&%*%=%-%;%&%>%,%'%)%!%~%{%]%^%/%(%_%:%<%[%}%            ",
"  |%1%2%3%3%4%5%6%7%8%9%0%a%b%c%d%e%f%g%h%i%j%                  ",
"  |%& k%l%m%n%o%p%q%r%s%t%u%v%w%x%y%z%                          ",
"  A%| B%C%D%E%F%G%H%I%J%K%L%M%N%                                ",
"  O%! P%Q%R%S%T%U%V%W%X%                                        ",
"  Y%Z%`% &.&+&@&                                                ",
"    #&$&%&                                                      "};
