/* XPM */
static char * folder_16x16_xpm[] = {
"16 16 184 2",
"  	c None",
". 	c #C2C2C2",
"+ 	c #DEDEDE",
"@ 	c #E6E6E6",
"# 	c #EAEAEA",
"$ 	c #D7D7D7",
"% 	c #D5D5D5",
"& 	c #C3C4C4",
"* 	c #B2B6BA",
"= 	c #E9E9E9",
"- 	c #E4E4E4",
"; 	c #DBDBDB",
"> 	c #DFDFDF",
", 	c #D9D9D9",
"' 	c #C6C7C9",
") 	c #B1B6BD",
"! 	c #A3AFBF",
"~ 	c #95A9C7",
"{ 	c #91ACD3",
"] 	c #A5C6EE",
"^ 	c #EBEBEB",
"/ 	c #D8D8D8",
"( 	c #CECECE",
"_ 	c #BEBFC1",
": 	c #B8BDC1",
"< 	c #B8C5CA",
"[ 	c #B6CDD8",
"} 	c #B3D1E8",
"| 	c #B2D2F5",
"1 	c #A8CAF3",
"2 	c #9DBEEC",
"3 	c #97B9EA",
"4 	c #A3C4F0",
"5 	c #D2D2D2",
"6 	c #B7BBBF",
"7 	c #C2C9CD",
"8 	c #D1DADE",
"9 	c #E3EFF1",
"0 	c #E7FAFC",
"a 	c #DDF8FF",
"b 	c #CCEEFE",
"c 	c #BCDDFA",
"d 	c #ACCEF5",
"e 	c #A1C3EF",
"f 	c #96B8EA",
"g 	c #93B6EA",
"h 	c #A1C4EF",
"i 	c #D0D0D0",
"j 	c #E7F1F4",
"k 	c #EFFEFF",
"l 	c #EEFDFF",
"m 	c #EAFDFF",
"n 	c #E3FBFF",
"o 	c #D5F4FF",
"p 	c #C4E8FE",
"q 	c #B6D9FA",
"r 	c #A7CAF3",
"s 	c #9CBFEE",
"t 	c #91B9EC",
"u 	c #8EB3E9",
"v 	c #9DC3F0",
"w 	c #CDCDCD",
"x 	c #BCC0C2",
"y 	c #E0F8F9",
"z 	c #E6FDFF",
"A 	c #E8FEFF",
"B 	c #E7FDFF",
"C 	c #DFFBFF",
"D 	c #D1F3FF",
"E 	c #C2E5FD",
"F 	c #B3D7F9",
"G 	c #A3CAF3",
"H 	c #96BCED",
"I 	c #8EB5EB",
"J 	c #88B1E9",
"K 	c #99C2F1",
"L 	c #CACACA",
"M 	c #B6C0C4",
"N 	c #D8F9FB",
"O 	c #E0FBFF",
"P 	c #E4FDFF",
"Q 	c #E2FDFF",
"R 	c #D9FBFF",
"S 	c #CCF2FF",
"T 	c #BCE2FD",
"U 	c #ADD4F9",
"V 	c #9CC5F3",
"W 	c #90B9EE",
"X 	c #89B3EB",
"Y 	c #82B0EA",
"Z 	c #91BFF2",
"` 	c #C7C7C7",
" .	c #B5C2C6",
"..	c #D1F5FC",
"+.	c #D6F9FF",
"@.	c #DCFCFF",
"#.	c #DBFCFF",
"$.	c #D2F6FF",
"%.	c #C3EDFF",
"&.	c #B4E1FE",
"*.	c #A5D1FA",
"=.	c #95C0F4",
"-.	c #88B7F0",
";.	c #81B1ED",
">.	c #7DADEB",
",.	c #8BBDF3",
"'.	c #C5C5C5",
").	c #ADC3C9",
"!.	c #C8F0FE",
"~.	c #CDF4FF",
"{.	c #D2F8FF",
"].	c #D1F8FF",
"^.	c #CAF4FF",
"/.	c #BDE8FE",
"(.	c #AAD9FE",
"_.	c #9BCAFA",
":.	c #8BBCF4",
"<.	c #81B3EF",
"[.	c #7AACEB",
"}.	c #73A7E9",
"|.	c #86BCF6",
"1.	c #C3C3C3",
"2.	c #A7C0CD",
"3.	c #BBE7FE",
"4.	c #C1EDFF",
"5.	c #C4EFFF",
"6.	c #C3EFFF",
"7.	c #BAE8FF",
"8.	c #AFDEFF",
"9.	c #A1D2FE",
"0.	c #8FC3F9",
"a.	c #7FB6F4",
"b.	c #76ADEF",
"c.	c #6FA7EC",
"d.	c #6AA2EA",
"e.	c #7CB5F4",
"f.	c #C0C0C0",
"g.	c #A0BCCE",
"h.	c #B1E2FF",
"i.	c #B3E2FF",
"j.	c #B7E7FF",
"k.	c #B4E5FF",
"l.	c #ADDFFF",
"m.	c #9FD6FF",
"n.	c #90C8FC",
"o.	c #80B9F7",
"p.	c #76B1F2",
"q.	c #74AEF1",
"r.	c #74ADF0",
"s.	c #77B0F2",
"t.	c #7EB2F0",
"u.	c #BDBDBD",
"v.	c #98B8D1",
"w.	c #9DD3FE",
"x.	c #A2D6FF",
"y.	c #A6D9FF",
"z.	c #A1D6FF",
"A.	c #99D1FE",
"B.	c #8FCBFC",
"C.	c #88C4FA",
"D.	c #84BFF8",
"E.	c #81B7F3",
"F.	c #7DADE6",
"G.	c #7CA2D7",
"H.	c #7B9AC9",
"I.	c #B9B9B9",
"J.	c #8DB5D6",
"K.	c #89C4FB",
"L.	c #8FC7FB",
"M.	c #99D1FD",
"N.	c #98D1FD",
"O.	c #90C6F8",
"P.	c #83B5EA",
"Q.	c #7CA6DA",
"R.	c #7F9FCB",
"S.	c #B2B2B2",
"T.	c #86B0D1",
"U.	c #8BC4F8",
"V.	c #86B8EA",
"W.	c #7FA8DA",
"X.	c #7D9FCD",
"Y.	c #7F95B9",
"Z.	c #768EAC",
"`.	c #7D98C0",
"                            .   ",
"        + @ #       $ $ $ % & * ",
"    = # - + ; ; > , ' ) ! ~ { ] ",
"  . ^ ; / ( _ : < [ } | 1 2 3 4 ",
"  5 + 6 7 8 9 0 a b c d e f g h ",
"  i _ j k l m n o p q r s t u v ",
"  w x y z A B C D E F G H I J K ",
"  L M N O P Q R S T U V W X Y Z ",
"  `  ...+.@.#.$.%.&.*.=.-.;.>.,.",
"  '.).!.~.{.].^./.(._.:.<.[.}.|.",
"  1.2.3.4.5.6.7.8.9.0.a.b.c.d.e.",
"  f.g.h.i.j.k.l.m.n.o.p.q.r.s.t.",
"  u.v.w.x.y.z.A.B.C.D.E.F.G.H.  ",
"  I.J.K.L.M.N.O.P.Q.R.          ",
"  S.T.U.V.W.X.Y.                ",
"    Z.`.                        "};
